M48
; DRILL file {KiCad 9.0.2-9.0.2-0~ubuntu24.04.1} date 2025-05-26T21:58:34+0300
; FORMAT={-:-/ absolute / metric / decimal}
; #@! TF.CreationDate,2025-05-26T21:58:34+03:00
; #@! TF.GenerationSoftware,Kicad,Pcbnew,9.0.2-9.0.2-0~ubuntu24.04.1
; #@! TF.FileFunction,MixedPlating,1,2
FMAT,2
METRIC
; #@! TA.AperFunction,Plated,PTH,ViaDrill
T1C0.800
; #@! TA.AperFunction,Plated,PTH,ComponentDrill
T2C0.800
; #@! TA.AperFunction,Plated,PTH,ComponentDrill
T3C0.900
; #@! TA.AperFunction,Plated,PTH,ComponentDrill
T4C1.000
; #@! TA.AperFunction,Plated,PTH,ComponentDrill
T5C1.100
; #@! TA.AperFunction,Plated,PTH,ComponentDrill
T6C1.200
; #@! TA.AperFunction,Plated,PTH,ComponentDrill
T7C1.300
; #@! TA.AperFunction,Plated,PTH,ComponentDrill
T8C1.500
; #@! TA.AperFunction,NonPlated,NPTH,ComponentDrill
T9C0.800
; #@! TA.AperFunction,NonPlated,NPTH,ComponentDrill
T10C2.000
%
G90
G05
T1
X15.789Y-31.6
X15.789Y-70.6
X16.389Y-34.1
X16.389Y-73.1
X25.054Y-28.51
X25.054Y-67.51
X25.089Y-26.7
X25.089Y-65.7
X25.294Y-38.805
X25.294Y-77.805
X31.989Y-46.7
X31.989Y-85.7
X62.063Y-31.6
X62.063Y-70.6
X62.663Y-34.1
X62.663Y-73.1
X71.328Y-28.51
X71.328Y-67.51
X71.363Y-26.7
X71.363Y-65.7
X71.569Y-38.805
X71.569Y-77.805
X78.263Y-46.7
X78.263Y-85.7
X108.337Y-31.6
X108.337Y-70.6
X108.937Y-34.1
X108.937Y-73.1
X117.602Y-28.51
X117.602Y-67.51
X117.637Y-26.7
X117.637Y-65.7
X117.843Y-38.805
X117.843Y-77.805
X124.537Y-46.7
X124.537Y-85.7
X154.612Y-31.6
X154.612Y-70.6
X155.212Y-34.1
X155.212Y-73.1
X163.877Y-28.51
X163.877Y-67.51
X163.912Y-26.7
X163.912Y-65.7
X164.117Y-38.805
X164.117Y-77.805
X170.812Y-46.7
X170.812Y-85.7
T2
X10.589Y-26.7
X10.589Y-34.32
X10.589Y-65.7
X10.589Y-73.32
X13.129Y-26.7
X13.129Y-34.32
X13.129Y-65.7
X13.129Y-73.32
X17.789Y-26.7
X17.789Y-65.7
X17.989Y-39.48
X17.989Y-47.1
X17.989Y-78.48
X17.989Y-86.1
X20.289Y-26.7
X20.289Y-65.7
X20.529Y-39.48
X20.529Y-47.1
X20.529Y-78.48
X20.529Y-86.1
X33.389Y-23.9
X33.389Y-39.14
X33.389Y-62.9
X33.389Y-78.14
X36.789Y-40.4
X36.789Y-79.4
X39.329Y-40.4
X39.329Y-79.4
X56.863Y-26.7
X56.863Y-34.32
X56.863Y-65.7
X56.863Y-73.32
X59.403Y-26.7
X59.403Y-34.32
X59.403Y-65.7
X59.403Y-73.32
X64.063Y-26.7
X64.063Y-65.7
X64.263Y-39.48
X64.263Y-47.1
X64.263Y-78.48
X64.263Y-86.1
X66.563Y-26.7
X66.563Y-65.7
X66.803Y-39.48
X66.803Y-47.1
X66.803Y-78.48
X66.803Y-86.1
X79.663Y-23.9
X79.663Y-39.14
X79.663Y-62.9
X79.663Y-78.14
X83.063Y-40.4
X83.063Y-79.4
X85.603Y-40.4
X85.603Y-79.4
X103.137Y-26.7
X103.137Y-34.32
X103.137Y-65.7
X103.137Y-73.32
X105.677Y-26.7
X105.677Y-34.32
X105.677Y-65.7
X105.677Y-73.32
X110.337Y-26.7
X110.337Y-65.7
X110.537Y-39.48
X110.537Y-47.1
X110.537Y-78.48
X110.537Y-86.1
X112.837Y-26.7
X112.837Y-65.7
X113.077Y-39.48
X113.077Y-47.1
X113.077Y-78.48
X113.077Y-86.1
X125.937Y-23.9
X125.937Y-39.14
X125.937Y-62.9
X125.937Y-78.14
X129.337Y-40.4
X129.337Y-79.4
X131.877Y-40.4
X131.877Y-79.4
X149.412Y-26.7
X149.412Y-34.32
X149.412Y-65.7
X149.412Y-73.32
X151.952Y-26.7
X151.952Y-34.32
X151.952Y-65.7
X151.952Y-73.32
X156.612Y-26.7
X156.612Y-65.7
X156.812Y-39.48
X156.812Y-47.1
X156.812Y-78.48
X156.812Y-86.1
X159.112Y-26.7
X159.112Y-65.7
X159.352Y-39.48
X159.352Y-47.1
X159.352Y-78.48
X159.352Y-86.1
X172.212Y-23.9
X172.212Y-39.14
X172.212Y-62.9
X172.212Y-78.14
X175.612Y-40.4
X175.612Y-79.4
X178.152Y-40.4
X178.152Y-79.4
T3
X16.109Y-36.6
X16.109Y-75.6
X18.649Y-36.6
X18.649Y-75.6
X21.189Y-36.6
X21.189Y-75.6
X23.729Y-36.6
X23.729Y-75.6
X62.383Y-36.6
X62.383Y-75.6
X64.923Y-36.6
X64.923Y-75.6
X67.463Y-36.6
X67.463Y-75.6
X70.003Y-36.6
X70.003Y-75.6
X108.657Y-36.6
X108.657Y-75.6
X111.197Y-36.6
X111.197Y-75.6
X113.737Y-36.6
X113.737Y-75.6
X116.277Y-36.6
X116.277Y-75.6
X154.932Y-36.6
X154.932Y-75.6
X157.472Y-36.6
X157.472Y-75.6
X160.012Y-36.6
X160.012Y-75.6
X162.552Y-36.6
X162.552Y-75.6
T4
X15.489Y-15.3
X15.489Y-54.3
X22.989Y-15.3
X22.989Y-54.3
X61.763Y-15.3
X61.763Y-54.3
X69.263Y-15.3
X69.263Y-54.3
X108.037Y-15.3
X108.037Y-54.3
X115.537Y-15.3
X115.537Y-54.3
X154.312Y-15.3
X154.312Y-54.3
X161.812Y-15.3
X161.812Y-54.3
T5
X43.189Y-27.96
X43.189Y-33.04
X43.189Y-66.96
X43.189Y-72.04
X89.463Y-27.96
X89.463Y-33.04
X89.463Y-66.96
X89.463Y-72.04
X135.737Y-27.96
X135.737Y-33.04
X135.737Y-66.96
X135.737Y-72.04
X182.012Y-27.96
X182.012Y-33.04
X182.012Y-66.96
X182.012Y-72.04
T6
X24.689Y-44.8
X24.689Y-83.8
X28.189Y-44.8
X28.189Y-83.8
X30.589Y-23.7
X30.589Y-38.7
X30.589Y-62.7
X30.589Y-77.7
X36.389Y-34.25
X36.389Y-73.25
X38.789Y-26.75
X38.789Y-65.75
X70.963Y-44.8
X70.963Y-83.8
X74.463Y-44.8
X74.463Y-83.8
X76.863Y-23.7
X76.863Y-38.7
X76.863Y-62.7
X76.863Y-77.7
X82.663Y-34.25
X82.663Y-73.25
X85.063Y-26.75
X85.063Y-65.75
X117.237Y-44.8
X117.237Y-83.8
X120.737Y-44.8
X120.737Y-83.8
X123.137Y-23.7
X123.137Y-38.7
X123.137Y-62.7
X123.137Y-77.7
X128.937Y-34.25
X128.937Y-73.25
X131.337Y-26.75
X131.337Y-65.75
X163.512Y-44.8
X163.512Y-83.8
X167.012Y-44.8
X167.012Y-83.8
X169.412Y-23.7
X169.412Y-38.7
X169.412Y-62.7
X169.412Y-77.7
X175.212Y-34.25
X175.212Y-73.25
X177.612Y-26.75
X177.612Y-65.75
T7
X26.589Y-17.168
X26.589Y-56.167
X31.669Y-17.168
X31.669Y-56.167
X36.989Y-17.168
X36.989Y-56.167
X42.069Y-17.168
X42.069Y-56.167
X72.863Y-17.168
X72.863Y-56.167
X77.943Y-17.168
X77.943Y-56.167
X83.263Y-17.168
X83.263Y-56.167
X88.343Y-17.168
X88.343Y-56.167
X119.137Y-17.168
X119.137Y-56.167
X124.217Y-17.168
X124.217Y-56.167
X129.537Y-17.168
X129.537Y-56.167
X134.617Y-17.168
X134.617Y-56.167
X165.412Y-17.168
X165.412Y-56.167
X170.492Y-17.168
X170.492Y-56.167
X175.812Y-17.168
X175.812Y-56.167
X180.892Y-17.168
X180.892Y-56.167
T8
X43.189Y-25.05
X43.189Y-30.5
X43.189Y-35.95
X43.189Y-64.05
X43.189Y-69.5
X43.189Y-74.95
X89.463Y-25.05
X89.463Y-30.5
X89.463Y-35.95
X89.463Y-64.05
X89.463Y-69.5
X89.463Y-74.95
X135.737Y-25.05
X135.737Y-30.5
X135.737Y-35.95
X135.737Y-64.05
X135.737Y-69.5
X135.737Y-74.95
X182.012Y-25.05
X182.012Y-30.5
X182.012Y-35.95
X182.012Y-64.05
X182.012Y-69.5
X182.012Y-74.95
T9
X8.852Y-33.501
X8.852Y-72.501
X8.852Y-32.001
X8.852Y-71.001
X8.852Y-30.5
X8.852Y-69.5
X8.852Y-29.0
X8.852Y-68.0
X8.852Y-27.499
X8.852Y-66.499
X27.588Y-12.4
X27.588Y-48.6
X27.588Y-51.4
X27.588Y-87.6
X29.088Y-12.4
X29.088Y-48.6
X29.088Y-51.4
X29.088Y-87.6
X30.589Y-12.4
X30.589Y-48.6
X30.589Y-51.4
X30.589Y-87.6
X32.089Y-12.4
X32.089Y-48.6
X32.089Y-51.4
X32.089Y-87.6
X33.59Y-12.4
X33.59Y-48.6
X33.59Y-51.4
X33.59Y-87.6
X52.326Y-33.501
X52.326Y-72.501
X52.326Y-32.0
X52.326Y-71.0
X52.326Y-30.5
X52.326Y-69.5
X52.326Y-28.999
X52.326Y-67.999
X52.326Y-27.499
X52.326Y-66.499
X55.126Y-33.501
X55.126Y-72.501
X55.126Y-32.001
X55.126Y-71.001
X55.126Y-30.5
X55.126Y-69.5
X55.126Y-29.0
X55.126Y-68.0
X55.126Y-27.499
X55.126Y-66.499
X73.862Y-12.4
X73.862Y-48.6
X73.862Y-51.4
X73.862Y-87.6
X75.362Y-12.4
X75.362Y-48.6
X75.362Y-51.4
X75.362Y-87.6
X76.863Y-12.4
X76.863Y-48.6
X76.863Y-51.4
X76.863Y-87.6
X78.363Y-12.4
X78.363Y-48.6
X78.363Y-51.4
X78.363Y-87.6
X79.864Y-12.4
X79.864Y-48.6
X79.864Y-51.4
X79.864Y-87.6
X98.6Y-33.501
X98.6Y-72.501
X98.6Y-32.0
X98.6Y-71.0
X98.6Y-30.5
X98.6Y-69.5
X98.6Y-28.999
X98.6Y-67.999
X98.6Y-27.499
X98.6Y-66.499
X101.4Y-33.501
X101.4Y-72.501
X101.4Y-32.001
X101.4Y-71.001
X101.4Y-30.5
X101.4Y-69.5
X101.4Y-29.0
X101.4Y-68.0
X101.4Y-27.499
X101.4Y-66.499
X120.136Y-12.4
X120.136Y-48.6
X120.136Y-51.4
X120.136Y-87.6
X121.637Y-12.4
X121.637Y-48.6
X121.637Y-51.4
X121.637Y-87.6
X123.137Y-12.4
X123.137Y-48.6
X123.137Y-51.4
X123.137Y-87.6
X124.638Y-12.4
X124.638Y-48.6
X124.638Y-51.4
X124.638Y-87.6
X126.138Y-12.4
X126.138Y-48.6
X126.138Y-51.4
X126.138Y-87.6
X144.874Y-33.501
X144.874Y-72.501
X144.874Y-32.0
X144.874Y-71.0
X144.874Y-30.5
X144.874Y-69.5
X144.874Y-28.999
X144.874Y-67.999
X144.874Y-27.499
X144.874Y-66.499
X147.674Y-33.501
X147.674Y-72.501
X147.674Y-32.001
X147.674Y-71.001
X147.674Y-30.5
X147.674Y-69.5
X147.674Y-29.0
X147.674Y-68.0
X147.674Y-27.499
X147.674Y-66.499
X166.41Y-12.4
X166.41Y-48.6
X166.41Y-51.4
X166.41Y-87.6
X167.911Y-12.4
X167.911Y-48.6
X167.911Y-51.4
X167.911Y-87.6
X169.411Y-12.4
X169.411Y-48.6
X169.411Y-51.4
X169.411Y-87.6
X170.912Y-12.4
X170.912Y-48.6
X170.912Y-51.4
X170.912Y-87.6
X172.412Y-12.4
X172.412Y-48.6
X172.412Y-51.4
X172.412Y-87.6
X191.148Y-33.501
X191.148Y-72.501
X191.148Y-32.0
X191.148Y-71.0
X191.148Y-30.5
X191.148Y-69.5
X191.148Y-28.999
X191.148Y-67.999
X191.148Y-27.499
X191.148Y-66.499
T10
X3.0Y-3.0
X3.0Y-97.0
X197.0Y-3.0
X197.0Y-97.0
M30
