%TF.GenerationSoftware,KiCad,Pcbnew,9.0.2-9.0.2-0~ubuntu24.04.1*%
%TF.CreationDate,2025-05-26T21:58:39+03:00*%
%TF.ProjectId,panelize,70616e65-6c69-47a6-952e-6b696361645f,V01*%
%TF.SameCoordinates,PX2e40d20PY1312d00*%
%TF.FileFunction,Soldermask,Top*%
%TF.FilePolarity,Negative*%
%FSLAX46Y46*%
G04 Gerber Fmt 4.6, Leading zero omitted, Abs format (unit mm)*
G04 Created by KiCad (PCBNEW 9.0.2-9.0.2-0~ubuntu24.04.1) date 2025-05-26 21:58:39*
%MOMM*%
%LPD*%
G01*
G04 APERTURE LIST*
G04 Aperture macros list*
%AMRoundRect*
0 Rectangle with rounded corners*
0 $1 Rounding radius*
0 $2 $3 $4 $5 $6 $7 $8 $9 X,Y pos of 4 corners*
0 Add a 4 corners polygon primitive as box body*
4,1,4,$2,$3,$4,$5,$6,$7,$8,$9,$2,$3,0*
0 Add four circle primitives for the rounded corners*
1,1,$1+$1,$2,$3*
1,1,$1+$1,$4,$5*
1,1,$1+$1,$6,$7*
1,1,$1+$1,$8,$9*
0 Add four rect primitives between the rounded corners*
20,1,$1+$1,$2,$3,$4,$5,0*
20,1,$1+$1,$4,$5,$6,$7,0*
20,1,$1+$1,$6,$7,$8,$9,0*
20,1,$1+$1,$8,$9,$2,$3,0*%
%AMOutline5P*
0 Free polygon, 5 corners , with rotation*
0 The origin of the aperture is its center*
0 number of corners: always 5*
0 $1 to $10 corner X, Y*
0 $11 Rotation angle, in degrees counterclockwise*
0 create outline with 5 corners*
4,1,5,$1,$2,$3,$4,$5,$6,$7,$8,$9,$10,$1,$2,$11*%
%AMOutline6P*
0 Free polygon, 6 corners , with rotation*
0 The origin of the aperture is its center*
0 number of corners: always 6*
0 $1 to $12 corner X, Y*
0 $13 Rotation angle, in degrees counterclockwise*
0 create outline with 6 corners*
4,1,6,$1,$2,$3,$4,$5,$6,$7,$8,$9,$10,$11,$12,$1,$2,$13*%
%AMOutline7P*
0 Free polygon, 7 corners , with rotation*
0 The origin of the aperture is its center*
0 number of corners: always 7*
0 $1 to $14 corner X, Y*
0 $15 Rotation angle, in degrees counterclockwise*
0 create outline with 7 corners*
4,1,7,$1,$2,$3,$4,$5,$6,$7,$8,$9,$10,$11,$12,$13,$14,$1,$2,$15*%
%AMOutline8P*
0 Free polygon, 8 corners , with rotation*
0 The origin of the aperture is its center*
0 number of corners: always 8*
0 $1 to $16 corner X, Y*
0 $17 Rotation angle, in degrees counterclockwise*
0 create outline with 8 corners*
4,1,8,$1,$2,$3,$4,$5,$6,$7,$8,$9,$10,$11,$12,$13,$14,$15,$16,$1,$2,$17*%
G04 Aperture macros list end*
%ADD10C,2.000000*%
%ADD11C,0.800000*%
%ADD12RoundRect,0.250000X-1.000000X-1.000000X1.000000X-1.000000X1.000000X1.000000X-1.000000X1.000000X0*%
%ADD13C,2.500000*%
%ADD14RoundRect,0.250000X-0.550000X0.550000X-0.550000X-0.550000X0.550000X-0.550000X0.550000X0.550000X0*%
%ADD15C,1.600000*%
%ADD16Outline8P,-1.250000X1.500000X-0.750000X2.000000X0.750000X2.000000X1.250000X1.500000X1.250000X-1.500000X0.750000X-2.000000X-0.750000X-2.000000X-1.250000X-1.500000X270.000000*%
%ADD17R,2.000000X2.100000*%
%ADD18O,4.000000X2.000000*%
%ADD19O,2.000000X2.100000*%
%ADD20O,4.000000X2.500000*%
%ADD21R,1.600000X1.600000*%
%ADD22R,1.600000X1.700000*%
%ADD23O,1.700000X1.700000*%
%ADD24C,1.700000*%
%ADD25C,2.200000*%
%ADD26O,1.600000X1.600000*%
%ADD27RoundRect,0.250000X0.550000X-0.550000X0.550000X0.550000X-0.550000X0.550000X-0.550000X-0.550000X0*%
%ADD28C,2.400000*%
%ADD29RoundRect,0.250001X-0.949999X-0.949999X0.949999X-0.949999X0.949999X0.949999X-0.949999X0.949999X0*%
%ADD30C,1.500000*%
G04 APERTURE END LIST*
D10*
%TO.C,KiKit_TO_2*%
X197000000Y-3000000D03*
%TD*%
D11*
%TO.C,KiKit_MB_5_3*%
X55125813Y-30500009D03*
%TD*%
%TO.C,KiKit_MB_24_2*%
X78363377Y-87600000D03*
%TD*%
D12*
%TO.C,J2*%
X36988881Y-17167500D03*
D13*
X42068881Y-17167500D03*
%TD*%
D11*
%TO.C,KiKit_MB_15_5*%
X172412365Y-12400000D03*
%TD*%
D14*
%TO.C,U1*%
X105677369Y-26700000D03*
D15*
X103137369Y-26700000D03*
X103137369Y-34320000D03*
X105677369Y-34320000D03*
%TD*%
D11*
%TO.C,KiKit_MB_11_4*%
X124637621Y-12400000D03*
%TD*%
D12*
%TO.C,J2*%
X175811613Y-17167500D03*
D13*
X180891613Y-17167500D03*
%TD*%
D12*
%TO.C,J1*%
X72863125Y-17167500D03*
D13*
X77943125Y-17167500D03*
%TD*%
D16*
%TO.C,Q1*%
X43188881Y-25050000D03*
D17*
X43188881Y-27660000D03*
D18*
X43188881Y-30500000D03*
D19*
X43188881Y-33340000D03*
D20*
X43188881Y-35950000D03*
%TD*%
D11*
%TO.C,KiKit_MB_17_2*%
X8851558Y-71000509D03*
%TD*%
%TO.C,KiKit_MB_19_3*%
X30588634Y-51400000D03*
%TD*%
D21*
%TO.C,C2*%
X64063125Y-26700000D03*
D15*
X66563125Y-26700000D03*
%TD*%
D11*
%TO.C,KiKit_MB_21_5*%
X55125834Y-66499010D03*
%TD*%
%TO.C,KiKit_MB_27_2*%
X121636622Y-51400000D03*
%TD*%
D22*
%TO.C,J3*%
X162551613Y-36600000D03*
D23*
X160011613Y-36600000D03*
D24*
X157471613Y-36600000D03*
X154931613Y-36600000D03*
%TD*%
D11*
%TO.C,KiKit_MB_28_2*%
X124637621Y-87600000D03*
%TD*%
%TO.C,KiKit_MB_19_1*%
X27587634Y-51400000D03*
%TD*%
%TO.C,KiKit_MB_23_3*%
X76862878Y-51400000D03*
%TD*%
D12*
%TO.C,J1*%
X119137369Y-56167500D03*
D13*
X124217369Y-56167500D03*
%TD*%
D11*
%TO.C,KiKit_MB_1_3*%
X8851569Y-30500009D03*
%TD*%
D25*
%TO.C,RV1*%
X36388881Y-34250000D03*
X38788881Y-26750000D03*
%TD*%
D22*
%TO.C,J3*%
X162551613Y-75600000D03*
D23*
X160011613Y-75600000D03*
D24*
X157471613Y-75600000D03*
X154931613Y-75600000D03*
%TD*%
D11*
%TO.C,KiKit_MB_10_5*%
X144874168Y-33500990D03*
%TD*%
%TO.C,KiKit_MB_21_4*%
X55125824Y-67999510D03*
%TD*%
%TO.C,KiKit_MB_18_5*%
X52325680Y-72500990D03*
%TD*%
D10*
%TO.C,C1*%
X161811613Y-15300000D03*
X154311613Y-15300000D03*
%TD*%
D11*
%TO.C,KiKit_MB_4_3*%
X30588634Y-48600000D03*
%TD*%
D21*
%TO.C,C2*%
X64063125Y-65700000D03*
D15*
X66563125Y-65700000D03*
%TD*%
%TO.C,R1*%
X125937369Y-62900000D03*
D26*
X125937369Y-78140000D03*
%TD*%
D11*
%TO.C,KiKit_MB_25_2*%
X101400046Y-71000509D03*
%TD*%
D12*
%TO.C,J1*%
X72863125Y-56167500D03*
D13*
X77943125Y-56167500D03*
%TD*%
D27*
%TO.C,U2*%
X64263125Y-47100000D03*
D15*
X66803125Y-47100000D03*
X66803125Y-39480000D03*
X64263125Y-39480000D03*
%TD*%
D11*
%TO.C,KiKit_MB_31_2*%
X167910866Y-51400000D03*
%TD*%
%TO.C,KiKit_MB_9_3*%
X101400057Y-30500009D03*
%TD*%
%TO.C,KiKit_MB_7_2*%
X75362378Y-12400000D03*
%TD*%
%TO.C,KiKit_MB_29_2*%
X147674290Y-71000509D03*
%TD*%
D25*
%TO.C,RV1*%
X128937369Y-73250000D03*
X131337369Y-65750000D03*
%TD*%
D11*
%TO.C,KiKit_MB_11_1*%
X120136122Y-12400000D03*
%TD*%
D21*
%TO.C,C2*%
X17788881Y-26700000D03*
D15*
X20288881Y-26700000D03*
%TD*%
D11*
%TO.C,KiKit_MB_5_1*%
X55125792Y-33501009D03*
%TD*%
D12*
%TO.C,J1*%
X165411613Y-56167500D03*
D13*
X170491613Y-56167500D03*
%TD*%
D11*
%TO.C,KiKit_MB_13_2*%
X147674290Y-32000509D03*
%TD*%
D15*
%TO.C,R2*%
X175611613Y-40400000D03*
D26*
X178151613Y-40400000D03*
%TD*%
D10*
%TO.C,KiKit_TO_3*%
X3000000Y-97000000D03*
%TD*%
D12*
%TO.C,J2*%
X83263125Y-56167500D03*
D13*
X88343125Y-56167500D03*
%TD*%
D27*
%TO.C,U2*%
X17988881Y-47100000D03*
D15*
X20528881Y-47100000D03*
X20528881Y-39480000D03*
X17988881Y-39480000D03*
%TD*%
D11*
%TO.C,KiKit_MB_6_1*%
X98599965Y-27498990D03*
%TD*%
D10*
%TO.C,C1*%
X22988881Y-54300000D03*
X15488881Y-54300000D03*
%TD*%
D11*
%TO.C,KiKit_MB_26_2*%
X144874199Y-67999490D03*
%TD*%
%TO.C,KiKit_MB_22_1*%
X98599965Y-66498990D03*
%TD*%
%TO.C,KiKit_MB_23_5*%
X79863877Y-51400000D03*
%TD*%
%TO.C,KiKit_MB_14_5*%
X191148412Y-33500990D03*
%TD*%
%TO.C,KiKit_MB_23_4*%
X78363377Y-51400000D03*
%TD*%
%TO.C,KiKit_MB_24_4*%
X75362378Y-87600000D03*
%TD*%
%TO.C,KiKit_MB_2_4*%
X52325690Y-32000490D03*
%TD*%
%TO.C,KiKit_MB_4_2*%
X32089133Y-48600000D03*
%TD*%
D15*
%TO.C,R2*%
X83063125Y-40400000D03*
D26*
X85603125Y-40400000D03*
%TD*%
D11*
%TO.C,KiKit_MB_32_1*%
X172412365Y-87600000D03*
%TD*%
%TO.C,KiKit_MB_7_3*%
X76862878Y-12400000D03*
%TD*%
%TO.C,KiKit_MB_14_1*%
X191148453Y-27498990D03*
%TD*%
%TO.C,KiKit_MB_26_3*%
X144874189Y-69499990D03*
%TD*%
%TO.C,KiKit_MB_29_1*%
X147674280Y-72501009D03*
%TD*%
%TO.C,KiKit_MB_21_1*%
X55125792Y-72501009D03*
%TD*%
%TO.C,KiKit_MB_23_1*%
X73861878Y-51400000D03*
%TD*%
%TO.C,KiKit_MB_22_3*%
X98599945Y-69499990D03*
%TD*%
D15*
%TO.C,R2*%
X83063125Y-79400000D03*
D26*
X85603125Y-79400000D03*
%TD*%
D11*
%TO.C,KiKit_MB_13_5*%
X147674322Y-27499010D03*
%TD*%
%TO.C,KiKit_MB_27_3*%
X123137122Y-51400000D03*
%TD*%
D10*
%TO.C,KiKit_TO_1*%
X3000000Y-3000000D03*
%TD*%
D11*
%TO.C,KiKit_MB_4_1*%
X33589633Y-48600000D03*
%TD*%
%TO.C,KiKit_MB_30_2*%
X191148443Y-67999490D03*
%TD*%
%TO.C,KiKit_MB_15_3*%
X169411366Y-12400000D03*
%TD*%
%TO.C,KiKit_MB_22_2*%
X98599955Y-67999490D03*
%TD*%
%TO.C,KiKit_MB_7_5*%
X79863877Y-12400000D03*
%TD*%
%TO.C,KiKit_MB_8_3*%
X76862878Y-48600000D03*
%TD*%
D27*
%TO.C,U2*%
X110537369Y-86100000D03*
D15*
X113077369Y-86100000D03*
X113077369Y-78480000D03*
X110537369Y-78480000D03*
%TD*%
D11*
%TO.C,KiKit_MB_1_2*%
X8851558Y-32000509D03*
%TD*%
%TO.C,KiKit_MB_27_5*%
X126138121Y-51400000D03*
%TD*%
D25*
%TO.C,RV1*%
X175211613Y-34250000D03*
X177611613Y-26750000D03*
%TD*%
D22*
%TO.C,J3*%
X70003125Y-75600000D03*
D23*
X67463125Y-75600000D03*
D24*
X64923125Y-75600000D03*
X62383125Y-75600000D03*
%TD*%
D27*
%TO.C,U2*%
X64263125Y-86100000D03*
D15*
X66803125Y-86100000D03*
X66803125Y-78480000D03*
X64263125Y-78480000D03*
%TD*%
D14*
%TO.C,U1*%
X13128881Y-65700000D03*
D15*
X10588881Y-65700000D03*
X10588881Y-73320000D03*
X13128881Y-73320000D03*
%TD*%
D10*
%TO.C,C1*%
X69263125Y-15300000D03*
X61763125Y-15300000D03*
%TD*%
D11*
%TO.C,KiKit_MB_17_5*%
X8851590Y-66499010D03*
%TD*%
%TO.C,KiKit_MB_31_5*%
X172412365Y-51400000D03*
%TD*%
D16*
%TO.C,Q1*%
X182011613Y-25050000D03*
D17*
X182011613Y-27660000D03*
D18*
X182011613Y-30500000D03*
D19*
X182011613Y-33340000D03*
D20*
X182011613Y-35950000D03*
%TD*%
D11*
%TO.C,KiKit_MB_25_4*%
X101400068Y-67999510D03*
%TD*%
%TO.C,KiKit_MB_26_1*%
X144874209Y-66498990D03*
%TD*%
%TO.C,KiKit_MB_15_4*%
X170911865Y-12400000D03*
%TD*%
D22*
%TO.C,J3*%
X23728881Y-75600000D03*
D23*
X21188881Y-75600000D03*
D24*
X18648881Y-75600000D03*
X16108881Y-75600000D03*
%TD*%
D11*
%TO.C,KiKit_MB_32_2*%
X170911865Y-87600000D03*
%TD*%
%TO.C,KiKit_MB_27_1*%
X120136122Y-51400000D03*
%TD*%
%TO.C,KiKit_MB_28_4*%
X121636622Y-87600000D03*
%TD*%
D28*
%TO.C,C3*%
X30588881Y-23700000D03*
X30588881Y-38700000D03*
%TD*%
D12*
%TO.C,J1*%
X26588881Y-56167500D03*
D13*
X31668881Y-56167500D03*
%TD*%
D11*
%TO.C,KiKit_MB_5_2*%
X55125802Y-32000509D03*
%TD*%
D29*
%TO.C,J4*%
X24688881Y-44800000D03*
D28*
X28188881Y-44800000D03*
%TD*%
D15*
%TO.C,R1*%
X79663125Y-62900000D03*
D26*
X79663125Y-78140000D03*
%TD*%
D11*
%TO.C,KiKit_MB_16_1*%
X172412365Y-48600000D03*
%TD*%
D12*
%TO.C,J2*%
X83263125Y-17167500D03*
D13*
X88343125Y-17167500D03*
%TD*%
D11*
%TO.C,KiKit_MB_19_4*%
X32089133Y-51400000D03*
%TD*%
%TO.C,KiKit_MB_25_1*%
X101400036Y-72501009D03*
%TD*%
D25*
%TO.C,RV1*%
X82663125Y-34250000D03*
X85063125Y-26750000D03*
%TD*%
D11*
%TO.C,KiKit_MB_7_4*%
X78363377Y-12400000D03*
%TD*%
%TO.C,KiKit_MB_26_4*%
X144874178Y-71000490D03*
%TD*%
%TO.C,KiKit_MB_10_2*%
X144874199Y-28999490D03*
%TD*%
%TO.C,KiKit_MB_4_4*%
X29088134Y-48600000D03*
%TD*%
%TO.C,KiKit_MB_27_4*%
X124637621Y-51400000D03*
%TD*%
%TO.C,KiKit_MB_8_5*%
X73861878Y-48600000D03*
%TD*%
D27*
%TO.C,U2*%
X17988881Y-86100000D03*
D15*
X20528881Y-86100000D03*
X20528881Y-78480000D03*
X17988881Y-78480000D03*
%TD*%
D11*
%TO.C,KiKit_MB_32_3*%
X169411366Y-87600000D03*
%TD*%
D15*
%TO.C,R1*%
X33388881Y-23900000D03*
D26*
X33388881Y-39140000D03*
%TD*%
D10*
%TO.C,C1*%
X115537369Y-15300000D03*
X108037369Y-15300000D03*
%TD*%
D11*
%TO.C,KiKit_MB_32_4*%
X167910866Y-87600000D03*
%TD*%
%TO.C,KiKit_MB_10_4*%
X144874178Y-32000490D03*
%TD*%
D22*
%TO.C,J3*%
X116277369Y-75600000D03*
D23*
X113737369Y-75600000D03*
D24*
X111197369Y-75600000D03*
X108657369Y-75600000D03*
%TD*%
D11*
%TO.C,KiKit_MB_10_3*%
X144874189Y-30499990D03*
%TD*%
D21*
%TO.C,C2*%
X110337369Y-65700000D03*
D15*
X112837369Y-65700000D03*
%TD*%
D11*
%TO.C,KiKit_MB_18_3*%
X52325701Y-69499990D03*
%TD*%
D15*
%TO.C,R1*%
X79663125Y-23900000D03*
D26*
X79663125Y-39140000D03*
%TD*%
D21*
%TO.C,C2*%
X17788881Y-65700000D03*
D15*
X20288881Y-65700000D03*
%TD*%
D11*
%TO.C,KiKit_MB_22_5*%
X98599924Y-72500990D03*
%TD*%
D28*
%TO.C,C3*%
X76863125Y-23700000D03*
X76863125Y-38700000D03*
%TD*%
D15*
%TO.C,R2*%
X129337369Y-79400000D03*
D26*
X131877369Y-79400000D03*
%TD*%
D11*
%TO.C,KiKit_MB_13_1*%
X147674280Y-33501009D03*
%TD*%
D29*
%TO.C,J4*%
X163511613Y-44800000D03*
D28*
X167011613Y-44800000D03*
%TD*%
D22*
%TO.C,J3*%
X23728881Y-36600000D03*
D23*
X21188881Y-36600000D03*
D24*
X18648881Y-36600000D03*
X16108881Y-36600000D03*
%TD*%
D28*
%TO.C,C3*%
X123137369Y-62700000D03*
X123137369Y-77700000D03*
%TD*%
D11*
%TO.C,KiKit_MB_3_3*%
X30588634Y-12400000D03*
%TD*%
D16*
%TO.C,Q1*%
X89463125Y-64050000D03*
D17*
X89463125Y-66660000D03*
D18*
X89463125Y-69500000D03*
D19*
X89463125Y-72340000D03*
D20*
X89463125Y-74950000D03*
%TD*%
D10*
%TO.C,KiKit_TO_4*%
X197000000Y-97000000D03*
%TD*%
D22*
%TO.C,J3*%
X70003125Y-36600000D03*
D23*
X67463125Y-36600000D03*
D24*
X64923125Y-36600000D03*
X62383125Y-36600000D03*
%TD*%
D22*
%TO.C,J3*%
X116277369Y-36600000D03*
D23*
X113737369Y-36600000D03*
D24*
X111197369Y-36600000D03*
X108657369Y-36600000D03*
%TD*%
D28*
%TO.C,C3*%
X123137369Y-23700000D03*
X123137369Y-38700000D03*
%TD*%
D12*
%TO.C,J2*%
X129537369Y-56167500D03*
D13*
X134617369Y-56167500D03*
%TD*%
D11*
%TO.C,KiKit_MB_30_5*%
X191148412Y-72500990D03*
%TD*%
%TO.C,KiKit_MB_3_5*%
X33589633Y-12400000D03*
%TD*%
%TO.C,KiKit_MB_31_1*%
X166410366Y-51400000D03*
%TD*%
%TO.C,KiKit_MB_28_5*%
X120136122Y-87600000D03*
%TD*%
%TO.C,KiKit_MB_11_3*%
X123137122Y-12400000D03*
%TD*%
D28*
%TO.C,C3*%
X169411613Y-23700000D03*
X169411613Y-38700000D03*
%TD*%
D14*
%TO.C,U1*%
X151951613Y-26700000D03*
D15*
X149411613Y-26700000D03*
X149411613Y-34320000D03*
X151951613Y-34320000D03*
%TD*%
D11*
%TO.C,KiKit_MB_16_4*%
X167910866Y-48600000D03*
%TD*%
%TO.C,KiKit_MB_16_3*%
X169411366Y-48600000D03*
%TD*%
%TO.C,KiKit_MB_12_2*%
X124637621Y-48600000D03*
%TD*%
%TO.C,KiKit_MB_10_1*%
X144874209Y-27498990D03*
%TD*%
D29*
%TO.C,J4*%
X163511613Y-83800000D03*
D28*
X167011613Y-83800000D03*
%TD*%
D11*
%TO.C,KiKit_MB_32_5*%
X166410366Y-87600000D03*
%TD*%
%TO.C,KiKit_MB_18_1*%
X52325721Y-66498990D03*
%TD*%
D14*
%TO.C,U1*%
X59403125Y-26700000D03*
D15*
X56863125Y-26700000D03*
X56863125Y-34320000D03*
X59403125Y-34320000D03*
%TD*%
D11*
%TO.C,KiKit_MB_11_5*%
X126138121Y-12400000D03*
%TD*%
D25*
%TO.C,RV1*%
X175211613Y-73250000D03*
X177611613Y-65750000D03*
%TD*%
D11*
%TO.C,KiKit_MB_17_4*%
X8851580Y-67999510D03*
%TD*%
D14*
%TO.C,U1*%
X151951613Y-65700000D03*
D15*
X149411613Y-65700000D03*
X149411613Y-73320000D03*
X151951613Y-73320000D03*
%TD*%
D16*
%TO.C,Q1*%
X135737369Y-64050000D03*
D17*
X135737369Y-66660000D03*
D18*
X135737369Y-69500000D03*
D19*
X135737369Y-72340000D03*
D20*
X135737369Y-74950000D03*
%TD*%
D29*
%TO.C,J4*%
X117237369Y-44800000D03*
D28*
X120737369Y-44800000D03*
%TD*%
D29*
%TO.C,J4*%
X70963125Y-83800000D03*
D28*
X74463125Y-83800000D03*
%TD*%
D11*
%TO.C,KiKit_MB_12_4*%
X121636622Y-48600000D03*
%TD*%
%TO.C,KiKit_MB_12_3*%
X123137122Y-48600000D03*
%TD*%
D15*
%TO.C,R1*%
X172211613Y-23900000D03*
D26*
X172211613Y-39140000D03*
%TD*%
D12*
%TO.C,J1*%
X26588881Y-17167500D03*
D13*
X31668881Y-17167500D03*
%TD*%
D11*
%TO.C,KiKit_MB_20_1*%
X33589633Y-87600000D03*
%TD*%
%TO.C,KiKit_MB_12_5*%
X120136122Y-48600000D03*
%TD*%
%TO.C,KiKit_MB_24_1*%
X79863877Y-87600000D03*
%TD*%
D14*
%TO.C,U1*%
X105677369Y-65700000D03*
D15*
X103137369Y-65700000D03*
X103137369Y-73320000D03*
X105677369Y-73320000D03*
%TD*%
D16*
%TO.C,Q1*%
X43188881Y-64050000D03*
D17*
X43188881Y-66660000D03*
D18*
X43188881Y-69500000D03*
D19*
X43188881Y-72340000D03*
D20*
X43188881Y-74950000D03*
%TD*%
D14*
%TO.C,U1*%
X59403125Y-65700000D03*
D15*
X56863125Y-65700000D03*
X56863125Y-73320000D03*
X59403125Y-73320000D03*
%TD*%
D11*
%TO.C,KiKit_MB_19_5*%
X33589633Y-51400000D03*
%TD*%
%TO.C,KiKit_MB_25_5*%
X101400078Y-66499010D03*
%TD*%
D16*
%TO.C,Q1*%
X89463125Y-25050000D03*
D17*
X89463125Y-27660000D03*
D18*
X89463125Y-30500000D03*
D19*
X89463125Y-33340000D03*
D20*
X89463125Y-35950000D03*
%TD*%
D27*
%TO.C,U2*%
X156811613Y-47100000D03*
D15*
X159351613Y-47100000D03*
X159351613Y-39480000D03*
X156811613Y-39480000D03*
%TD*%
D11*
%TO.C,KiKit_MB_28_3*%
X123137122Y-87600000D03*
%TD*%
%TO.C,KiKit_MB_4_5*%
X27587634Y-48600000D03*
%TD*%
%TO.C,KiKit_MB_21_2*%
X55125802Y-71000509D03*
%TD*%
%TO.C,KiKit_MB_30_3*%
X191148433Y-69499990D03*
%TD*%
D25*
%TO.C,RV1*%
X36388881Y-73250000D03*
X38788881Y-65750000D03*
%TD*%
D11*
%TO.C,KiKit_MB_2_2*%
X52325711Y-28999490D03*
%TD*%
%TO.C,KiKit_MB_16_2*%
X170911865Y-48600000D03*
%TD*%
D28*
%TO.C,C3*%
X30588881Y-62700000D03*
X30588881Y-77700000D03*
%TD*%
D12*
%TO.C,J1*%
X119137369Y-17167500D03*
D13*
X124217369Y-17167500D03*
%TD*%
D11*
%TO.C,KiKit_MB_15_2*%
X167910866Y-12400000D03*
%TD*%
%TO.C,KiKit_MB_14_3*%
X191148433Y-30499990D03*
%TD*%
%TO.C,KiKit_MB_21_3*%
X55125813Y-69500009D03*
%TD*%
%TO.C,KiKit_MB_1_5*%
X8851590Y-27499010D03*
%TD*%
%TO.C,KiKit_MB_1_1*%
X8851548Y-33501009D03*
%TD*%
%TO.C,KiKit_MB_17_3*%
X8851569Y-69500009D03*
%TD*%
D25*
%TO.C,RV1*%
X128937369Y-34250000D03*
X131337369Y-26750000D03*
%TD*%
D11*
%TO.C,KiKit_MB_18_2*%
X52325711Y-67999490D03*
%TD*%
%TO.C,KiKit_MB_3_4*%
X32089133Y-12400000D03*
%TD*%
D16*
%TO.C,Q1*%
X182011613Y-64050000D03*
D17*
X182011613Y-66660000D03*
D18*
X182011613Y-69500000D03*
D19*
X182011613Y-72340000D03*
D20*
X182011613Y-74950000D03*
%TD*%
D11*
%TO.C,KiKit_MB_30_4*%
X191148422Y-71000490D03*
%TD*%
D16*
%TO.C,Q1*%
X135737369Y-25050000D03*
D17*
X135737369Y-27660000D03*
D18*
X135737369Y-30500000D03*
D19*
X135737369Y-33340000D03*
D20*
X135737369Y-35950000D03*
%TD*%
D11*
%TO.C,KiKit_MB_17_1*%
X8851548Y-72501009D03*
%TD*%
%TO.C,KiKit_MB_5_5*%
X55125834Y-27499010D03*
%TD*%
%TO.C,KiKit_MB_18_4*%
X52325690Y-71000490D03*
%TD*%
%TO.C,KiKit_MB_28_1*%
X126138121Y-87600000D03*
%TD*%
%TO.C,KiKit_MB_29_3*%
X147674301Y-69500009D03*
%TD*%
D28*
%TO.C,C3*%
X169411613Y-62700000D03*
X169411613Y-77700000D03*
%TD*%
D25*
%TO.C,RV1*%
X82663125Y-73250000D03*
X85063125Y-65750000D03*
%TD*%
D11*
%TO.C,KiKit_MB_13_3*%
X147674301Y-30500009D03*
%TD*%
%TO.C,KiKit_MB_11_2*%
X121636622Y-12400000D03*
%TD*%
%TO.C,KiKit_MB_8_4*%
X75362378Y-48600000D03*
%TD*%
%TO.C,KiKit_MB_24_5*%
X73861878Y-87600000D03*
%TD*%
%TO.C,KiKit_MB_6_3*%
X98599945Y-30499990D03*
%TD*%
%TO.C,KiKit_MB_2_1*%
X52325721Y-27498990D03*
%TD*%
D15*
%TO.C,R2*%
X175611613Y-79400000D03*
D26*
X178151613Y-79400000D03*
%TD*%
D11*
%TO.C,KiKit_MB_6_4*%
X98599934Y-32000490D03*
%TD*%
%TO.C,KiKit_MB_31_4*%
X170911865Y-51400000D03*
%TD*%
%TO.C,KiKit_MB_9_5*%
X101400078Y-27499010D03*
%TD*%
D29*
%TO.C,J4*%
X70963125Y-44800000D03*
D28*
X74463125Y-44800000D03*
%TD*%
D10*
%TO.C,C1*%
X22988881Y-15300000D03*
X15488881Y-15300000D03*
%TD*%
D27*
%TO.C,U2*%
X110537369Y-47100000D03*
D15*
X113077369Y-47100000D03*
X113077369Y-39480000D03*
X110537369Y-39480000D03*
%TD*%
D11*
%TO.C,KiKit_MB_20_2*%
X32089133Y-87600000D03*
%TD*%
D21*
%TO.C,C2*%
X156611613Y-65700000D03*
D15*
X159111613Y-65700000D03*
%TD*%
D11*
%TO.C,KiKit_MB_6_5*%
X98599924Y-33500990D03*
%TD*%
%TO.C,KiKit_MB_5_4*%
X55125824Y-28999510D03*
%TD*%
%TO.C,KiKit_MB_13_4*%
X147674312Y-28999510D03*
%TD*%
%TO.C,KiKit_MB_9_4*%
X101400068Y-28999510D03*
%TD*%
%TO.C,KiKit_MB_22_4*%
X98599934Y-71000490D03*
%TD*%
D12*
%TO.C,J1*%
X165411613Y-17167500D03*
D13*
X170491613Y-17167500D03*
%TD*%
D10*
%TO.C,C1*%
X161811613Y-54300000D03*
X154311613Y-54300000D03*
%TD*%
D11*
%TO.C,KiKit_MB_29_5*%
X147674322Y-66499010D03*
%TD*%
D12*
%TO.C,J2*%
X36988881Y-56167500D03*
D13*
X42068881Y-56167500D03*
%TD*%
D11*
%TO.C,KiKit_MB_8_1*%
X79863877Y-48600000D03*
%TD*%
%TO.C,KiKit_MB_14_4*%
X191148422Y-32000490D03*
%TD*%
%TO.C,KiKit_MB_30_1*%
X191148453Y-66498990D03*
%TD*%
%TO.C,KiKit_MB_12_1*%
X126138121Y-48600000D03*
%TD*%
%TO.C,KiKit_MB_3_2*%
X29088134Y-12400000D03*
%TD*%
D27*
%TO.C,U2*%
X156811613Y-86100000D03*
D15*
X159351613Y-86100000D03*
X159351613Y-78480000D03*
X156811613Y-78480000D03*
%TD*%
D11*
%TO.C,KiKit_MB_3_1*%
X27587634Y-12400000D03*
%TD*%
%TO.C,KiKit_MB_29_4*%
X147674312Y-67999510D03*
%TD*%
%TO.C,KiKit_MB_9_1*%
X101400036Y-33501009D03*
%TD*%
D21*
%TO.C,C2*%
X110337369Y-26700000D03*
D15*
X112837369Y-26700000D03*
%TD*%
D11*
%TO.C,KiKit_MB_2_5*%
X52325680Y-33500990D03*
%TD*%
D28*
%TO.C,C3*%
X76863125Y-62700000D03*
X76863125Y-77700000D03*
%TD*%
D11*
%TO.C,KiKit_MB_9_2*%
X101400046Y-32000509D03*
%TD*%
D10*
%TO.C,C1*%
X115537369Y-54300000D03*
X108037369Y-54300000D03*
%TD*%
D11*
%TO.C,KiKit_MB_20_4*%
X29088134Y-87600000D03*
%TD*%
%TO.C,KiKit_MB_20_3*%
X30588634Y-87600000D03*
%TD*%
%TO.C,KiKit_MB_31_3*%
X169411366Y-51400000D03*
%TD*%
%TO.C,KiKit_MB_26_5*%
X144874168Y-72500990D03*
%TD*%
%TO.C,KiKit_MB_15_1*%
X166410366Y-12400000D03*
%TD*%
D12*
%TO.C,J2*%
X175811613Y-56167500D03*
D13*
X180891613Y-56167500D03*
%TD*%
D14*
%TO.C,U1*%
X13128881Y-26700000D03*
D15*
X10588881Y-26700000D03*
X10588881Y-34320000D03*
X13128881Y-34320000D03*
%TD*%
D11*
%TO.C,KiKit_MB_19_2*%
X29088134Y-51400000D03*
%TD*%
%TO.C,KiKit_MB_25_3*%
X101400057Y-69500009D03*
%TD*%
%TO.C,KiKit_MB_1_4*%
X8851580Y-28999510D03*
%TD*%
%TO.C,KiKit_MB_2_3*%
X52325701Y-30499990D03*
%TD*%
%TO.C,KiKit_MB_23_2*%
X75362378Y-51400000D03*
%TD*%
D29*
%TO.C,J4*%
X117237369Y-83800000D03*
D28*
X120737369Y-83800000D03*
%TD*%
D11*
%TO.C,KiKit_MB_14_2*%
X191148443Y-28999490D03*
%TD*%
D15*
%TO.C,R2*%
X129337369Y-40400000D03*
D26*
X131877369Y-40400000D03*
%TD*%
D11*
%TO.C,KiKit_MB_16_5*%
X166410366Y-48600000D03*
%TD*%
D15*
%TO.C,R2*%
X36788881Y-40400000D03*
D26*
X39328881Y-40400000D03*
%TD*%
D15*
%TO.C,R1*%
X125937369Y-23900000D03*
D26*
X125937369Y-39140000D03*
%TD*%
D10*
%TO.C,C1*%
X69263125Y-54300000D03*
X61763125Y-54300000D03*
%TD*%
D11*
%TO.C,KiKit_MB_20_5*%
X27587634Y-87600000D03*
%TD*%
D15*
%TO.C,R2*%
X36788881Y-79400000D03*
D26*
X39328881Y-79400000D03*
%TD*%
D12*
%TO.C,J2*%
X129537369Y-17167500D03*
D13*
X134617369Y-17167500D03*
%TD*%
D11*
%TO.C,KiKit_MB_24_3*%
X76862878Y-87600000D03*
%TD*%
D15*
%TO.C,R1*%
X33388881Y-62900000D03*
D26*
X33388881Y-78140000D03*
%TD*%
D11*
%TO.C,KiKit_MB_8_2*%
X78363377Y-48600000D03*
%TD*%
D29*
%TO.C,J4*%
X24688881Y-83800000D03*
D28*
X28188881Y-83800000D03*
%TD*%
D15*
%TO.C,R1*%
X172211613Y-62900000D03*
D26*
X172211613Y-78140000D03*
%TD*%
D11*
%TO.C,KiKit_MB_7_1*%
X73861878Y-12400000D03*
%TD*%
D21*
%TO.C,C2*%
X156611613Y-26700000D03*
D15*
X159111613Y-26700000D03*
%TD*%
D11*
%TO.C,KiKit_MB_6_2*%
X98599955Y-28999490D03*
%TD*%
D30*
X15788881Y-31600000D03*
X25088881Y-26700000D03*
X16388881Y-34100000D03*
X25053881Y-28510151D03*
X31988881Y-46700000D03*
X25294335Y-38805453D03*
X71363125Y-26700000D03*
X62063125Y-31600000D03*
X71328125Y-28510151D03*
X62663125Y-34100000D03*
X71568579Y-38805453D03*
X78263125Y-46700000D03*
X108337369Y-31600000D03*
X117637369Y-26700000D03*
X117602369Y-28510151D03*
X108937369Y-34100000D03*
X117842823Y-38805453D03*
X124537369Y-46700000D03*
X163911613Y-26700000D03*
X154611613Y-31600000D03*
X163876613Y-28510151D03*
X155211613Y-34100000D03*
X170811613Y-46700000D03*
X164117067Y-38805453D03*
X15788881Y-70600000D03*
X25088881Y-65700000D03*
X25053881Y-67510151D03*
X16388881Y-73100000D03*
X31988881Y-85700000D03*
X25294335Y-77805453D03*
X62063125Y-70600000D03*
X71363125Y-65700000D03*
X71328125Y-67510151D03*
X62663125Y-73100000D03*
X71568579Y-77805453D03*
X78263125Y-85700000D03*
X117637369Y-65700000D03*
X108337369Y-70600000D03*
X117602369Y-67510151D03*
X108937369Y-73100000D03*
X124537369Y-85700000D03*
X117842823Y-77805453D03*
X163911613Y-65700000D03*
X154611613Y-70600000D03*
X163876613Y-67510151D03*
X155211613Y-73100000D03*
X164117067Y-77805453D03*
X170811613Y-85700000D03*
M02*
