%TF.GenerationSoftware,KiCad,Pcbnew,9.0.2-9.0.2-0~ubuntu24.04.1*%
%TF.CreationDate,2025-05-26T21:58:39+03:00*%
%TF.ProjectId,panelize,70616e65-6c69-47a6-952e-6b696361645f,V01*%
%TF.SameCoordinates,PX2e40d20PY1312d00*%
%TF.FileFunction,Paste,Bot*%
%TF.FilePolarity,Positive*%
%FSLAX46Y46*%
G04 Gerber Fmt 4.6, Leading zero omitted, Abs format (unit mm)*
G04 Created by KiCad (PCBNEW 9.0.2-9.0.2-0~ubuntu24.04.1) date 2025-05-26 21:58:39*
%MOMM*%
%LPD*%
G01*
G04 APERTURE LIST*
G04 Aperture macros list*
%AMRoundRect*
0 Rectangle with rounded corners*
0 $1 Rounding radius*
0 $2 $3 $4 $5 $6 $7 $8 $9 X,Y pos of 4 corners*
0 Add a 4 corners polygon primitive as box body*
4,1,4,$2,$3,$4,$5,$6,$7,$8,$9,$2,$3,0*
0 Add four circle primitives for the rounded corners*
1,1,$1+$1,$2,$3*
1,1,$1+$1,$4,$5*
1,1,$1+$1,$6,$7*
1,1,$1+$1,$8,$9*
0 Add four rect primitives between the rounded corners*
20,1,$1+$1,$2,$3,$4,$5,0*
20,1,$1+$1,$4,$5,$6,$7,0*
20,1,$1+$1,$6,$7,$8,$9,0*
20,1,$1+$1,$8,$9,$2,$3,0*%
G04 Aperture macros list end*
%ADD10RoundRect,0.150000X0.350000X0.150000X-0.350000X0.150000X-0.350000X-0.150000X0.350000X-0.150000X0*%
%ADD11RoundRect,0.200000X0.200000X0.275000X-0.200000X0.275000X-0.200000X-0.275000X0.200000X-0.275000X0*%
%ADD12RoundRect,0.200000X0.500000X-0.200000X0.500000X0.200000X-0.500000X0.200000X-0.500000X-0.200000X0*%
%ADD13RoundRect,0.204545X0.245455X0.345455X-0.245455X0.345455X-0.245455X-0.345455X0.245455X-0.345455X0*%
%ADD14RoundRect,0.204545X-0.345455X0.245455X-0.345455X-0.245455X0.345455X-0.245455X0.345455X0.245455X0*%
%ADD15RoundRect,0.204545X-0.245455X-0.345455X0.245455X-0.345455X0.245455X0.345455X-0.245455X0.345455X0*%
%ADD16RoundRect,0.200000X-0.200000X-0.275000X0.200000X-0.275000X0.200000X0.275000X-0.200000X0.275000X0*%
%ADD17RoundRect,0.166667X-0.708333X0.208333X-0.708333X-0.208333X0.708333X-0.208333X0.708333X0.208333X0*%
%ADD18RoundRect,0.204545X0.345455X-0.245455X0.345455X0.245455X-0.345455X0.245455X-0.345455X-0.245455X0*%
%ADD19RoundRect,0.137500X-0.137500X0.362500X-0.137500X-0.362500X0.137500X-0.362500X0.137500X0.362500X0*%
%ADD20RoundRect,0.150000X-0.150000X0.350000X-0.150000X-0.350000X0.150000X-0.350000X0.150000X0.350000X0*%
%ADD21RoundRect,0.200000X-0.500000X0.200000X-0.500000X-0.200000X0.500000X-0.200000X0.500000X0.200000X0*%
%ADD22RoundRect,0.200000X0.275000X-0.200000X0.275000X0.200000X-0.275000X0.200000X-0.275000X-0.200000X0*%
%ADD23RoundRect,0.200000X-0.275000X0.200000X-0.275000X-0.200000X0.275000X-0.200000X0.275000X0.200000X0*%
%ADD24RoundRect,0.225000X0.225000X0.250000X-0.225000X0.250000X-0.225000X-0.250000X0.225000X-0.250000X0*%
%ADD25RoundRect,0.150000X0.725000X0.150000X-0.725000X0.150000X-0.725000X-0.150000X0.725000X-0.150000X0*%
%ADD26RoundRect,0.195122X0.204878X0.504878X-0.204878X0.504878X-0.204878X-0.504878X0.204878X-0.504878X0*%
%ADD27RoundRect,0.166667X-0.648181X-0.353553X-0.353553X-0.648181X0.648181X0.353553X0.353553X0.648181X0*%
G04 APERTURE END LIST*
D10*
%TO.C,Q3*%
X150274113Y-32450000D03*
X150274113Y-30550000D03*
X152549113Y-31500000D03*
%TD*%
D11*
%TO.C,R12*%
X37063881Y-81700000D03*
X38713881Y-81700000D03*
%TD*%
D12*
%TO.C,D8*%
X125937369Y-82900000D03*
X125937369Y-84900000D03*
%TD*%
D13*
%TO.C,D6*%
X110137369Y-61200000D03*
X113137369Y-61200000D03*
%TD*%
D10*
%TO.C,Q3*%
X11451381Y-71450000D03*
X11451381Y-69550000D03*
X13726381Y-70500000D03*
%TD*%
D14*
%TO.C,D1*%
X158811613Y-16500000D03*
X158811613Y-13500000D03*
%TD*%
D11*
%TO.C,C5*%
X160786613Y-66100000D03*
X162436613Y-66100000D03*
%TD*%
D15*
%TO.C,D4*%
X178211613Y-38300000D03*
X175211613Y-38300000D03*
%TD*%
D14*
%TO.C,D1*%
X112537369Y-16500000D03*
X112537369Y-13500000D03*
%TD*%
D16*
%TO.C,R14*%
X150586613Y-28250000D03*
X148936613Y-28250000D03*
%TD*%
D17*
%TO.C,R4*%
X36588881Y-29250000D03*
X36588881Y-25950000D03*
%TD*%
%TO.C,R5*%
X126837369Y-30850000D03*
X126837369Y-27550000D03*
%TD*%
D14*
%TO.C,D1*%
X19988881Y-16500000D03*
X19988881Y-13500000D03*
%TD*%
D18*
%TO.C,D2*%
X63816135Y-52500000D03*
X63816135Y-55500000D03*
%TD*%
D11*
%TO.C,C5*%
X160786613Y-27100000D03*
X162436613Y-27100000D03*
%TD*%
D16*
%TO.C,R16*%
X158636613Y-45300000D03*
X156986613Y-45300000D03*
%TD*%
D17*
%TO.C,R4*%
X82863125Y-29250000D03*
X82863125Y-25950000D03*
%TD*%
D19*
%TO.C,U5*%
X158861613Y-70000000D03*
X157911613Y-70000000D03*
X156961613Y-70000000D03*
X156961613Y-67400000D03*
X158861613Y-67400000D03*
%TD*%
D20*
%TO.C,U4*%
X31538881Y-74837500D03*
X29638881Y-74837500D03*
X30588881Y-72562500D03*
%TD*%
D16*
%TO.C,R9*%
X116062369Y-61300000D03*
X114412369Y-61300000D03*
%TD*%
D20*
%TO.C,Q2*%
X90413125Y-43837500D03*
X88513125Y-43837500D03*
X89463125Y-41562500D03*
%TD*%
D21*
%TO.C,D9*%
X38588881Y-45900000D03*
X38588881Y-43900000D03*
%TD*%
D16*
%TO.C,R7*%
X77988125Y-29800000D03*
X76338125Y-29800000D03*
%TD*%
D15*
%TO.C,D7*%
X20588881Y-59100000D03*
X17588881Y-59100000D03*
%TD*%
D19*
%TO.C,U5*%
X66313125Y-70000000D03*
X65363125Y-70000000D03*
X64413125Y-70000000D03*
X64413125Y-67400000D03*
X66313125Y-67400000D03*
%TD*%
D12*
%TO.C,D8*%
X125937369Y-43900000D03*
X125937369Y-45900000D03*
%TD*%
D18*
%TO.C,D3*%
X86763125Y-42300000D03*
X86763125Y-45300000D03*
%TD*%
D11*
%TO.C,C9*%
X60638125Y-29700000D03*
X62288125Y-29700000D03*
%TD*%
D12*
%TO.C,D8*%
X172211613Y-82900000D03*
X172211613Y-84900000D03*
%TD*%
D22*
%TO.C,R11*%
X79763125Y-41075000D03*
X79763125Y-42725000D03*
%TD*%
D16*
%TO.C,R14*%
X150586613Y-67250000D03*
X148936613Y-67250000D03*
%TD*%
D11*
%TO.C,R8*%
X76338125Y-31600000D03*
X77988125Y-31600000D03*
%TD*%
D19*
%TO.C,U5*%
X158861613Y-31000000D03*
X157911613Y-31000000D03*
X156961613Y-31000000D03*
X156961613Y-28400000D03*
X158861613Y-28400000D03*
%TD*%
D11*
%TO.C,C9*%
X153186613Y-29700000D03*
X154836613Y-29700000D03*
%TD*%
D20*
%TO.C,Q2*%
X182961613Y-82837500D03*
X181061613Y-82837500D03*
X182011613Y-80562500D03*
%TD*%
D12*
%TO.C,D8*%
X33388881Y-43900000D03*
X33388881Y-45900000D03*
%TD*%
D11*
%TO.C,R12*%
X175886613Y-81700000D03*
X177536613Y-81700000D03*
%TD*%
D16*
%TO.C,R9*%
X69788125Y-61300000D03*
X68138125Y-61300000D03*
%TD*%
D23*
%TO.C,R13*%
X148949113Y-32325000D03*
X148949113Y-30675000D03*
%TD*%
D17*
%TO.C,R4*%
X82863125Y-68250000D03*
X82863125Y-64950000D03*
%TD*%
D24*
%TO.C,C6*%
X160836613Y-28600000D03*
X162386613Y-28600000D03*
%TD*%
D11*
%TO.C,R12*%
X83338125Y-42700000D03*
X84988125Y-42700000D03*
%TD*%
D23*
%TO.C,R10*%
X136637369Y-79225000D03*
X136637369Y-77575000D03*
%TD*%
D19*
%TO.C,U5*%
X112587369Y-70000000D03*
X111637369Y-70000000D03*
X110687369Y-70000000D03*
X110687369Y-67400000D03*
X112587369Y-67400000D03*
%TD*%
D22*
%TO.C,C7*%
X87363125Y-38575000D03*
X87363125Y-40225000D03*
%TD*%
%TO.C,C7*%
X179911613Y-77575000D03*
X179911613Y-79225000D03*
%TD*%
D11*
%TO.C,C9*%
X106912369Y-68700000D03*
X108562369Y-68700000D03*
%TD*%
D19*
%TO.C,U5*%
X20038881Y-70000000D03*
X19088881Y-70000000D03*
X18138881Y-70000000D03*
X18138881Y-67400000D03*
X20038881Y-67400000D03*
%TD*%
D16*
%TO.C,R9*%
X69788125Y-22300000D03*
X68138125Y-22300000D03*
%TD*%
%TO.C,R7*%
X77988125Y-68800000D03*
X76338125Y-68800000D03*
%TD*%
D19*
%TO.C,U5*%
X112587369Y-31000000D03*
X111637369Y-31000000D03*
X110687369Y-31000000D03*
X110687369Y-28400000D03*
X112587369Y-28400000D03*
%TD*%
D18*
%TO.C,D5*%
X174111613Y-81300000D03*
X174111613Y-84300000D03*
%TD*%
D22*
%TO.C,R11*%
X79763125Y-80075000D03*
X79763125Y-81725000D03*
%TD*%
D11*
%TO.C,C9*%
X106912369Y-29700000D03*
X108562369Y-29700000D03*
%TD*%
D25*
%TO.C,U3*%
X22213881Y-73005000D03*
X22213881Y-71735000D03*
X22213881Y-70465000D03*
X22213881Y-69195000D03*
X27363881Y-69195000D03*
X27363881Y-70465000D03*
X27363881Y-71735000D03*
X27363881Y-73005000D03*
%TD*%
D19*
%TO.C,U5*%
X20038881Y-31000000D03*
X19088881Y-31000000D03*
X18138881Y-31000000D03*
X18138881Y-28400000D03*
X20038881Y-28400000D03*
%TD*%
D22*
%TO.C,R6*%
X115437369Y-39575000D03*
X115437369Y-41225000D03*
%TD*%
D16*
%TO.C,R16*%
X66088125Y-45300000D03*
X64438125Y-45300000D03*
%TD*%
D11*
%TO.C,R15*%
X134812369Y-45600000D03*
X136462369Y-45600000D03*
%TD*%
D16*
%TO.C,R16*%
X158636613Y-84300000D03*
X156986613Y-84300000D03*
%TD*%
%TO.C,R14*%
X58038125Y-28250000D03*
X56388125Y-28250000D03*
%TD*%
D20*
%TO.C,Q2*%
X182961613Y-43837500D03*
X181061613Y-43837500D03*
X182011613Y-41562500D03*
%TD*%
D17*
%TO.C,R5*%
X34288881Y-30850000D03*
X34288881Y-27550000D03*
%TD*%
D23*
%TO.C,R3*%
X181411613Y-79225000D03*
X181411613Y-77575000D03*
%TD*%
D24*
%TO.C,C6*%
X68288125Y-67600000D03*
X69838125Y-67600000D03*
%TD*%
D10*
%TO.C,Q3*%
X11451381Y-32450000D03*
X11451381Y-30550000D03*
X13726381Y-31500000D03*
%TD*%
D23*
%TO.C,R13*%
X56400625Y-71325000D03*
X56400625Y-69675000D03*
%TD*%
D11*
%TO.C,R8*%
X122612369Y-70600000D03*
X124262369Y-70600000D03*
%TD*%
D16*
%TO.C,R16*%
X112362369Y-84300000D03*
X110712369Y-84300000D03*
%TD*%
D10*
%TO.C,Q3*%
X103999869Y-71450000D03*
X103999869Y-69550000D03*
X106274869Y-70500000D03*
%TD*%
D17*
%TO.C,R5*%
X173111613Y-69850000D03*
X173111613Y-66550000D03*
%TD*%
D23*
%TO.C,R3*%
X88863125Y-79225000D03*
X88863125Y-77575000D03*
%TD*%
%TO.C,R13*%
X56400625Y-32325000D03*
X56400625Y-30675000D03*
%TD*%
D13*
%TO.C,D6*%
X17588881Y-61200000D03*
X20588881Y-61200000D03*
%TD*%
D23*
%TO.C,R10*%
X182911613Y-40225000D03*
X182911613Y-38575000D03*
%TD*%
D16*
%TO.C,R16*%
X112362369Y-45300000D03*
X110712369Y-45300000D03*
%TD*%
D20*
%TO.C,Q2*%
X90413125Y-82837500D03*
X88513125Y-82837500D03*
X89463125Y-80562500D03*
%TD*%
D11*
%TO.C,R15*%
X42263881Y-84600000D03*
X43913881Y-84600000D03*
%TD*%
D23*
%TO.C,R3*%
X88863125Y-40225000D03*
X88863125Y-38575000D03*
%TD*%
D21*
%TO.C,D9*%
X177411613Y-84900000D03*
X177411613Y-82900000D03*
%TD*%
D23*
%TO.C,R3*%
X135137369Y-40225000D03*
X135137369Y-38575000D03*
%TD*%
D16*
%TO.C,R16*%
X19813881Y-45300000D03*
X18163881Y-45300000D03*
%TD*%
%TO.C,R9*%
X162336613Y-22300000D03*
X160686613Y-22300000D03*
%TD*%
%TO.C,R14*%
X104312369Y-67250000D03*
X102662369Y-67250000D03*
%TD*%
%TO.C,R14*%
X58038125Y-67250000D03*
X56388125Y-67250000D03*
%TD*%
D12*
%TO.C,D8*%
X172211613Y-43900000D03*
X172211613Y-45900000D03*
%TD*%
D17*
%TO.C,R4*%
X175411613Y-29250000D03*
X175411613Y-25950000D03*
%TD*%
D10*
%TO.C,Q3*%
X57725625Y-71450000D03*
X57725625Y-69550000D03*
X60000625Y-70500000D03*
%TD*%
D21*
%TO.C,D9*%
X177411613Y-45900000D03*
X177411613Y-43900000D03*
%TD*%
D22*
%TO.C,R6*%
X69163125Y-78575000D03*
X69163125Y-80225000D03*
%TD*%
D26*
%TO.C,C4*%
X157511613Y-57100000D03*
X159511613Y-57100000D03*
%TD*%
D13*
%TO.C,D6*%
X63863125Y-22200000D03*
X66863125Y-22200000D03*
%TD*%
D11*
%TO.C,R12*%
X175886613Y-42700000D03*
X177536613Y-42700000D03*
%TD*%
D10*
%TO.C,Q3*%
X57725625Y-32450000D03*
X57725625Y-30550000D03*
X60000625Y-31500000D03*
%TD*%
D16*
%TO.C,R9*%
X23513881Y-61300000D03*
X21863881Y-61300000D03*
%TD*%
D27*
%TO.C,C8*%
X131704095Y-33266726D03*
X129370643Y-30933274D03*
%TD*%
D15*
%TO.C,D4*%
X131937369Y-38300000D03*
X128937369Y-38300000D03*
%TD*%
D11*
%TO.C,R12*%
X129612369Y-42700000D03*
X131262369Y-42700000D03*
%TD*%
D13*
%TO.C,D6*%
X156411613Y-61200000D03*
X159411613Y-61200000D03*
%TD*%
D18*
%TO.C,D3*%
X86763125Y-81300000D03*
X86763125Y-84300000D03*
%TD*%
D11*
%TO.C,C9*%
X60638125Y-68700000D03*
X62288125Y-68700000D03*
%TD*%
D12*
%TO.C,D8*%
X79663125Y-82900000D03*
X79663125Y-84900000D03*
%TD*%
D23*
%TO.C,R3*%
X42588881Y-79225000D03*
X42588881Y-77575000D03*
%TD*%
D18*
%TO.C,D2*%
X156364623Y-52500000D03*
X156364623Y-55500000D03*
%TD*%
%TO.C,D2*%
X17541891Y-13500000D03*
X17541891Y-16500000D03*
%TD*%
D11*
%TO.C,C9*%
X153186613Y-68700000D03*
X154836613Y-68700000D03*
%TD*%
D20*
%TO.C,U4*%
X170361613Y-74837500D03*
X168461613Y-74837500D03*
X169411613Y-72562500D03*
%TD*%
D14*
%TO.C,D1*%
X19988881Y-55500000D03*
X19988881Y-52500000D03*
%TD*%
D27*
%TO.C,C8*%
X85429851Y-72266726D03*
X83096399Y-69933274D03*
%TD*%
D23*
%TO.C,R10*%
X136637369Y-40225000D03*
X136637369Y-38575000D03*
%TD*%
D18*
%TO.C,D5*%
X81563125Y-42300000D03*
X81563125Y-45300000D03*
%TD*%
D22*
%TO.C,R6*%
X22888881Y-39575000D03*
X22888881Y-41225000D03*
%TD*%
D25*
%TO.C,U3*%
X68488125Y-34005000D03*
X68488125Y-32735000D03*
X68488125Y-31465000D03*
X68488125Y-30195000D03*
X73638125Y-30195000D03*
X73638125Y-31465000D03*
X73638125Y-32735000D03*
X73638125Y-34005000D03*
%TD*%
D13*
%TO.C,D6*%
X156411613Y-22200000D03*
X159411613Y-22200000D03*
%TD*%
D27*
%TO.C,C8*%
X39155607Y-72266726D03*
X36822155Y-69933274D03*
%TD*%
D20*
%TO.C,U4*%
X77813125Y-35837500D03*
X75913125Y-35837500D03*
X76863125Y-33562500D03*
%TD*%
D18*
%TO.C,D3*%
X179311613Y-81300000D03*
X179311613Y-84300000D03*
%TD*%
%TO.C,D5*%
X81563125Y-81300000D03*
X81563125Y-84300000D03*
%TD*%
D26*
%TO.C,C4*%
X64963125Y-18100000D03*
X66963125Y-18100000D03*
%TD*%
D11*
%TO.C,C5*%
X68238125Y-66100000D03*
X69888125Y-66100000D03*
%TD*%
D16*
%TO.C,R16*%
X66088125Y-84300000D03*
X64438125Y-84300000D03*
%TD*%
D23*
%TO.C,R10*%
X44088881Y-40225000D03*
X44088881Y-38575000D03*
%TD*%
D27*
%TO.C,C8*%
X177978339Y-33266726D03*
X175644887Y-30933274D03*
%TD*%
D16*
%TO.C,R9*%
X23513881Y-22300000D03*
X21863881Y-22300000D03*
%TD*%
D18*
%TO.C,D2*%
X156364623Y-13500000D03*
X156364623Y-16500000D03*
%TD*%
D15*
%TO.C,D4*%
X85663125Y-77300000D03*
X82663125Y-77300000D03*
%TD*%
D27*
%TO.C,C8*%
X39155607Y-33266726D03*
X36822155Y-30933274D03*
%TD*%
D19*
%TO.C,U5*%
X66313125Y-31000000D03*
X65363125Y-31000000D03*
X64413125Y-31000000D03*
X64413125Y-28400000D03*
X66313125Y-28400000D03*
%TD*%
D15*
%TO.C,D7*%
X66863125Y-20100000D03*
X63863125Y-20100000D03*
%TD*%
D23*
%TO.C,R10*%
X182911613Y-79225000D03*
X182911613Y-77575000D03*
%TD*%
D18*
%TO.C,D3*%
X133037369Y-81300000D03*
X133037369Y-84300000D03*
%TD*%
D15*
%TO.C,D4*%
X39388881Y-38300000D03*
X36388881Y-38300000D03*
%TD*%
D20*
%TO.C,Q2*%
X44138881Y-43837500D03*
X42238881Y-43837500D03*
X43188881Y-41562500D03*
%TD*%
D22*
%TO.C,R6*%
X115437369Y-78575000D03*
X115437369Y-80225000D03*
%TD*%
D23*
%TO.C,R10*%
X44088881Y-79225000D03*
X44088881Y-77575000D03*
%TD*%
D16*
%TO.C,R7*%
X170536613Y-29800000D03*
X168886613Y-29800000D03*
%TD*%
D20*
%TO.C,Q2*%
X44138881Y-82837500D03*
X42238881Y-82837500D03*
X43188881Y-80562500D03*
%TD*%
D15*
%TO.C,D4*%
X39388881Y-77300000D03*
X36388881Y-77300000D03*
%TD*%
D11*
%TO.C,C5*%
X114512369Y-66100000D03*
X116162369Y-66100000D03*
%TD*%
%TO.C,R15*%
X88538125Y-45600000D03*
X90188125Y-45600000D03*
%TD*%
%TO.C,R15*%
X134812369Y-84600000D03*
X136462369Y-84600000D03*
%TD*%
D24*
%TO.C,C6*%
X22013881Y-28600000D03*
X23563881Y-28600000D03*
%TD*%
D20*
%TO.C,U4*%
X170361613Y-35837500D03*
X168461613Y-35837500D03*
X169411613Y-33562500D03*
%TD*%
D23*
%TO.C,R3*%
X135137369Y-79225000D03*
X135137369Y-77575000D03*
%TD*%
D24*
%TO.C,C6*%
X160836613Y-67600000D03*
X162386613Y-67600000D03*
%TD*%
D26*
%TO.C,C4*%
X18688881Y-18100000D03*
X20688881Y-18100000D03*
%TD*%
D15*
%TO.C,D7*%
X66863125Y-59100000D03*
X63863125Y-59100000D03*
%TD*%
D23*
%TO.C,R13*%
X102674869Y-71325000D03*
X102674869Y-69675000D03*
%TD*%
D27*
%TO.C,C8*%
X177978339Y-72266726D03*
X175644887Y-69933274D03*
%TD*%
D17*
%TO.C,R4*%
X129137369Y-68250000D03*
X129137369Y-64950000D03*
%TD*%
D22*
%TO.C,C7*%
X87363125Y-77575000D03*
X87363125Y-79225000D03*
%TD*%
D21*
%TO.C,D9*%
X84863125Y-45900000D03*
X84863125Y-43900000D03*
%TD*%
D23*
%TO.C,R3*%
X181411613Y-40225000D03*
X181411613Y-38575000D03*
%TD*%
D11*
%TO.C,C9*%
X14363881Y-68700000D03*
X16013881Y-68700000D03*
%TD*%
D17*
%TO.C,R4*%
X129137369Y-29250000D03*
X129137369Y-25950000D03*
%TD*%
D15*
%TO.C,D4*%
X178211613Y-77300000D03*
X175211613Y-77300000D03*
%TD*%
D25*
%TO.C,U3*%
X161036613Y-73005000D03*
X161036613Y-71735000D03*
X161036613Y-70465000D03*
X161036613Y-69195000D03*
X166186613Y-69195000D03*
X166186613Y-70465000D03*
X166186613Y-71735000D03*
X166186613Y-73005000D03*
%TD*%
D20*
%TO.C,U4*%
X124087369Y-35837500D03*
X122187369Y-35837500D03*
X123137369Y-33562500D03*
%TD*%
D16*
%TO.C,R7*%
X170536613Y-68800000D03*
X168886613Y-68800000D03*
%TD*%
D22*
%TO.C,C7*%
X179911613Y-38575000D03*
X179911613Y-40225000D03*
%TD*%
D11*
%TO.C,R15*%
X88538125Y-84600000D03*
X90188125Y-84600000D03*
%TD*%
D16*
%TO.C,R14*%
X104312369Y-28250000D03*
X102662369Y-28250000D03*
%TD*%
D20*
%TO.C,U4*%
X31538881Y-35837500D03*
X29638881Y-35837500D03*
X30588881Y-33562500D03*
%TD*%
D11*
%TO.C,R8*%
X168886613Y-70600000D03*
X170536613Y-70600000D03*
%TD*%
D25*
%TO.C,U3*%
X22213881Y-34005000D03*
X22213881Y-32735000D03*
X22213881Y-31465000D03*
X22213881Y-30195000D03*
X27363881Y-30195000D03*
X27363881Y-31465000D03*
X27363881Y-32735000D03*
X27363881Y-34005000D03*
%TD*%
%TO.C,U3*%
X114762369Y-34005000D03*
X114762369Y-32735000D03*
X114762369Y-31465000D03*
X114762369Y-30195000D03*
X119912369Y-30195000D03*
X119912369Y-31465000D03*
X119912369Y-32735000D03*
X119912369Y-34005000D03*
%TD*%
D16*
%TO.C,R7*%
X31713881Y-68800000D03*
X30063881Y-68800000D03*
%TD*%
D22*
%TO.C,R11*%
X172311613Y-41075000D03*
X172311613Y-42725000D03*
%TD*%
D10*
%TO.C,Q3*%
X150274113Y-71450000D03*
X150274113Y-69550000D03*
X152549113Y-70500000D03*
%TD*%
D11*
%TO.C,C5*%
X114512369Y-27100000D03*
X116162369Y-27100000D03*
%TD*%
D20*
%TO.C,U4*%
X124087369Y-74837500D03*
X122187369Y-74837500D03*
X123137369Y-72562500D03*
%TD*%
D18*
%TO.C,D5*%
X127837369Y-81300000D03*
X127837369Y-84300000D03*
%TD*%
D12*
%TO.C,D8*%
X79663125Y-43900000D03*
X79663125Y-45900000D03*
%TD*%
D11*
%TO.C,R12*%
X83338125Y-81700000D03*
X84988125Y-81700000D03*
%TD*%
D27*
%TO.C,C8*%
X131704095Y-72266726D03*
X129370643Y-69933274D03*
%TD*%
D16*
%TO.C,R7*%
X124262369Y-29800000D03*
X122612369Y-29800000D03*
%TD*%
D15*
%TO.C,D7*%
X113137369Y-20100000D03*
X110137369Y-20100000D03*
%TD*%
D12*
%TO.C,D8*%
X33388881Y-82900000D03*
X33388881Y-84900000D03*
%TD*%
D15*
%TO.C,D7*%
X20588881Y-20100000D03*
X17588881Y-20100000D03*
%TD*%
D11*
%TO.C,R8*%
X122612369Y-31600000D03*
X124262369Y-31600000D03*
%TD*%
D22*
%TO.C,R11*%
X33488881Y-80075000D03*
X33488881Y-81725000D03*
%TD*%
D15*
%TO.C,D7*%
X113137369Y-59100000D03*
X110137369Y-59100000D03*
%TD*%
D16*
%TO.C,R7*%
X124262369Y-68800000D03*
X122612369Y-68800000D03*
%TD*%
%TO.C,R9*%
X116062369Y-22300000D03*
X114412369Y-22300000D03*
%TD*%
D20*
%TO.C,Q2*%
X136687369Y-82837500D03*
X134787369Y-82837500D03*
X135737369Y-80562500D03*
%TD*%
D25*
%TO.C,U3*%
X114762369Y-73005000D03*
X114762369Y-71735000D03*
X114762369Y-70465000D03*
X114762369Y-69195000D03*
X119912369Y-69195000D03*
X119912369Y-70465000D03*
X119912369Y-71735000D03*
X119912369Y-73005000D03*
%TD*%
D24*
%TO.C,C6*%
X114562369Y-28600000D03*
X116112369Y-28600000D03*
%TD*%
D18*
%TO.C,D2*%
X110090379Y-13500000D03*
X110090379Y-16500000D03*
%TD*%
D22*
%TO.C,R6*%
X161711613Y-78575000D03*
X161711613Y-80225000D03*
%TD*%
D26*
%TO.C,C4*%
X18688881Y-57100000D03*
X20688881Y-57100000D03*
%TD*%
D17*
%TO.C,R5*%
X80563125Y-69850000D03*
X80563125Y-66550000D03*
%TD*%
%TO.C,R4*%
X175411613Y-68250000D03*
X175411613Y-64950000D03*
%TD*%
D14*
%TO.C,D1*%
X158811613Y-55500000D03*
X158811613Y-52500000D03*
%TD*%
D11*
%TO.C,C5*%
X21963881Y-66100000D03*
X23613881Y-66100000D03*
%TD*%
%TO.C,C9*%
X14363881Y-29700000D03*
X16013881Y-29700000D03*
%TD*%
D23*
%TO.C,R3*%
X42588881Y-40225000D03*
X42588881Y-38575000D03*
%TD*%
D22*
%TO.C,R6*%
X69163125Y-39575000D03*
X69163125Y-41225000D03*
%TD*%
D11*
%TO.C,R15*%
X181086613Y-84600000D03*
X182736613Y-84600000D03*
%TD*%
D26*
%TO.C,C4*%
X157511613Y-18100000D03*
X159511613Y-18100000D03*
%TD*%
D10*
%TO.C,Q3*%
X103999869Y-32450000D03*
X103999869Y-30550000D03*
X106274869Y-31500000D03*
%TD*%
D11*
%TO.C,R8*%
X30063881Y-70600000D03*
X31713881Y-70600000D03*
%TD*%
D21*
%TO.C,D9*%
X131137369Y-45900000D03*
X131137369Y-43900000D03*
%TD*%
%TO.C,D9*%
X131137369Y-84900000D03*
X131137369Y-82900000D03*
%TD*%
D20*
%TO.C,U4*%
X77813125Y-74837500D03*
X75913125Y-74837500D03*
X76863125Y-72562500D03*
%TD*%
D26*
%TO.C,C4*%
X64963125Y-57100000D03*
X66963125Y-57100000D03*
%TD*%
D11*
%TO.C,C5*%
X68238125Y-27100000D03*
X69888125Y-27100000D03*
%TD*%
D18*
%TO.C,D3*%
X179311613Y-42300000D03*
X179311613Y-45300000D03*
%TD*%
D16*
%TO.C,R14*%
X11763881Y-67250000D03*
X10113881Y-67250000D03*
%TD*%
D22*
%TO.C,C7*%
X41088881Y-38575000D03*
X41088881Y-40225000D03*
%TD*%
D15*
%TO.C,D7*%
X159411613Y-20100000D03*
X156411613Y-20100000D03*
%TD*%
D23*
%TO.C,R10*%
X90363125Y-40225000D03*
X90363125Y-38575000D03*
%TD*%
D25*
%TO.C,U3*%
X68488125Y-73005000D03*
X68488125Y-71735000D03*
X68488125Y-70465000D03*
X68488125Y-69195000D03*
X73638125Y-69195000D03*
X73638125Y-70465000D03*
X73638125Y-71735000D03*
X73638125Y-73005000D03*
%TD*%
D14*
%TO.C,D1*%
X66263125Y-16500000D03*
X66263125Y-13500000D03*
%TD*%
D17*
%TO.C,R5*%
X34288881Y-69850000D03*
X34288881Y-66550000D03*
%TD*%
D22*
%TO.C,R11*%
X172311613Y-80075000D03*
X172311613Y-81725000D03*
%TD*%
D18*
%TO.C,D5*%
X35288881Y-81300000D03*
X35288881Y-84300000D03*
%TD*%
D16*
%TO.C,R9*%
X162336613Y-61300000D03*
X160686613Y-61300000D03*
%TD*%
D24*
%TO.C,C6*%
X114562369Y-67600000D03*
X116112369Y-67600000D03*
%TD*%
D11*
%TO.C,R15*%
X181086613Y-45600000D03*
X182736613Y-45600000D03*
%TD*%
D22*
%TO.C,C7*%
X41088881Y-77575000D03*
X41088881Y-79225000D03*
%TD*%
%TO.C,C7*%
X133637369Y-77575000D03*
X133637369Y-79225000D03*
%TD*%
D13*
%TO.C,D6*%
X63863125Y-61200000D03*
X66863125Y-61200000D03*
%TD*%
D22*
%TO.C,R11*%
X126037369Y-80075000D03*
X126037369Y-81725000D03*
%TD*%
D21*
%TO.C,D9*%
X84863125Y-84900000D03*
X84863125Y-82900000D03*
%TD*%
D18*
%TO.C,D5*%
X35288881Y-42300000D03*
X35288881Y-45300000D03*
%TD*%
D11*
%TO.C,R12*%
X129612369Y-81700000D03*
X131262369Y-81700000D03*
%TD*%
D26*
%TO.C,C4*%
X111237369Y-18100000D03*
X113237369Y-18100000D03*
%TD*%
D18*
%TO.C,D5*%
X127837369Y-42300000D03*
X127837369Y-45300000D03*
%TD*%
%TO.C,D3*%
X133037369Y-42300000D03*
X133037369Y-45300000D03*
%TD*%
%TO.C,D3*%
X40488881Y-42300000D03*
X40488881Y-45300000D03*
%TD*%
D14*
%TO.C,D1*%
X66263125Y-55500000D03*
X66263125Y-52500000D03*
%TD*%
D18*
%TO.C,D2*%
X17541891Y-52500000D03*
X17541891Y-55500000D03*
%TD*%
D13*
%TO.C,D6*%
X17588881Y-22200000D03*
X20588881Y-22200000D03*
%TD*%
D11*
%TO.C,R8*%
X30063881Y-31600000D03*
X31713881Y-31600000D03*
%TD*%
%TO.C,R8*%
X168886613Y-31600000D03*
X170536613Y-31600000D03*
%TD*%
%TO.C,C5*%
X21963881Y-27100000D03*
X23613881Y-27100000D03*
%TD*%
D27*
%TO.C,C8*%
X85429851Y-33266726D03*
X83096399Y-30933274D03*
%TD*%
D22*
%TO.C,R11*%
X126037369Y-41075000D03*
X126037369Y-42725000D03*
%TD*%
D11*
%TO.C,R12*%
X37063881Y-42700000D03*
X38713881Y-42700000D03*
%TD*%
D23*
%TO.C,R10*%
X90363125Y-79225000D03*
X90363125Y-77575000D03*
%TD*%
D20*
%TO.C,Q2*%
X136687369Y-43837500D03*
X134787369Y-43837500D03*
X135737369Y-41562500D03*
%TD*%
D22*
%TO.C,C7*%
X133637369Y-38575000D03*
X133637369Y-40225000D03*
%TD*%
D15*
%TO.C,D4*%
X85663125Y-38300000D03*
X82663125Y-38300000D03*
%TD*%
%TO.C,D7*%
X159411613Y-59100000D03*
X156411613Y-59100000D03*
%TD*%
D16*
%TO.C,R16*%
X19813881Y-84300000D03*
X18163881Y-84300000D03*
%TD*%
D11*
%TO.C,R8*%
X76338125Y-70600000D03*
X77988125Y-70600000D03*
%TD*%
D18*
%TO.C,D2*%
X110090379Y-52500000D03*
X110090379Y-55500000D03*
%TD*%
D21*
%TO.C,D9*%
X38588881Y-84900000D03*
X38588881Y-82900000D03*
%TD*%
D23*
%TO.C,R13*%
X10126381Y-32325000D03*
X10126381Y-30675000D03*
%TD*%
D15*
%TO.C,D4*%
X131937369Y-77300000D03*
X128937369Y-77300000D03*
%TD*%
D17*
%TO.C,R4*%
X36588881Y-68250000D03*
X36588881Y-64950000D03*
%TD*%
%TO.C,R5*%
X80563125Y-30850000D03*
X80563125Y-27550000D03*
%TD*%
D25*
%TO.C,U3*%
X161036613Y-34005000D03*
X161036613Y-32735000D03*
X161036613Y-31465000D03*
X161036613Y-30195000D03*
X166186613Y-30195000D03*
X166186613Y-31465000D03*
X166186613Y-32735000D03*
X166186613Y-34005000D03*
%TD*%
D22*
%TO.C,R11*%
X33488881Y-41075000D03*
X33488881Y-42725000D03*
%TD*%
%TO.C,R6*%
X161711613Y-39575000D03*
X161711613Y-41225000D03*
%TD*%
D23*
%TO.C,R13*%
X148949113Y-71325000D03*
X148949113Y-69675000D03*
%TD*%
D24*
%TO.C,C6*%
X22013881Y-67600000D03*
X23563881Y-67600000D03*
%TD*%
D26*
%TO.C,C4*%
X111237369Y-57100000D03*
X113237369Y-57100000D03*
%TD*%
D22*
%TO.C,R6*%
X22888881Y-78575000D03*
X22888881Y-80225000D03*
%TD*%
D18*
%TO.C,D2*%
X63816135Y-13500000D03*
X63816135Y-16500000D03*
%TD*%
D16*
%TO.C,R14*%
X11763881Y-28250000D03*
X10113881Y-28250000D03*
%TD*%
D17*
%TO.C,R5*%
X173111613Y-30850000D03*
X173111613Y-27550000D03*
%TD*%
D23*
%TO.C,R13*%
X102674869Y-32325000D03*
X102674869Y-30675000D03*
%TD*%
D18*
%TO.C,D3*%
X40488881Y-81300000D03*
X40488881Y-84300000D03*
%TD*%
D16*
%TO.C,R7*%
X31713881Y-29800000D03*
X30063881Y-29800000D03*
%TD*%
D24*
%TO.C,C6*%
X68288125Y-28600000D03*
X69838125Y-28600000D03*
%TD*%
D13*
%TO.C,D6*%
X110137369Y-22200000D03*
X113137369Y-22200000D03*
%TD*%
D11*
%TO.C,R15*%
X42263881Y-45600000D03*
X43913881Y-45600000D03*
%TD*%
D23*
%TO.C,R13*%
X10126381Y-71325000D03*
X10126381Y-69675000D03*
%TD*%
D17*
%TO.C,R5*%
X126837369Y-69850000D03*
X126837369Y-66550000D03*
%TD*%
D14*
%TO.C,D1*%
X112537369Y-55500000D03*
X112537369Y-52500000D03*
%TD*%
D18*
%TO.C,D5*%
X174111613Y-42300000D03*
X174111613Y-45300000D03*
%TD*%
M02*
