<?xml version='1.0' encoding='UTF-8' standalone='no'?>
<svg xmlns="http://www.w3.org/2000/svg" xmlns:xlink="http://www.w3.org/1999/xlink" viewBox="0 0 1097 669" width="1097pt" height="669pt">
 <title>Figure 1</title>
 <desc>
Creator: GL2PS 1.4.2, (C) 1999-2020 C. Geuzaine
For: Octave
CreationDate: Mon May 26 16:22:03 2025
</desc>
 <defs/>
 <polygon fill="#ffffff" points="0,0 1097,0 1097,669 0,669"/>
 <g>
  <polygon fill="#ffffff" shape-rendering="crispEdges" points="0,669 1097,669 1097,0 0,0"/>
  <clipPath id="cp001097669">
   <polygon points="0,669 1097,669 1097,0 0,0"/>
  </clipPath>
  <g clip-path="url(#cp001097669)">
   <polygon fill="#ffffff" shape-rendering="crispEdges" points="142.634,595.738 992.952,595.738 992.952,50.2026 142.634,50.2026"/>
   <polyline fill="none" stroke="#262626" stroke-linecap="butt" stroke-opacity="0.15" stroke-linejoin="miter" stroke-width="0.5" points="142.634,595.738 142.634,50.2026" stroke-dasharray="16,0"/>
   <polyline fill="none" stroke="#262626" stroke-linecap="butt" stroke-opacity="0.15" stroke-linejoin="miter" stroke-width="0.5" points="312.698,595.738 312.698,50.2026" stroke-dasharray="16,0"/>
   <polyline fill="none" stroke="#262626" stroke-linecap="butt" stroke-opacity="0.15" stroke-linejoin="miter" stroke-width="0.5" points="482.761,595.738 482.761,50.2026" stroke-dasharray="16,0"/>
   <polyline fill="none" stroke="#262626" stroke-linecap="butt" stroke-opacity="0.15" stroke-linejoin="miter" stroke-width="0.5" points="652.825,595.738 652.825,50.2026" stroke-dasharray="16,0"/>
   <polyline fill="none" stroke="#262626" stroke-linecap="butt" stroke-opacity="0.15" stroke-linejoin="miter" stroke-width="0.5" points="822.888,595.738 822.888,50.2026" stroke-dasharray="16,0"/>
   <polyline fill="none" stroke="#262626" stroke-linecap="butt" stroke-opacity="0.15" stroke-linejoin="miter" stroke-width="0.5" points="992.952,595.738 992.952,50.2026" stroke-dasharray="16,0"/>
   <polyline fill="none" stroke="#262626" stroke-linecap="butt" stroke-linejoin="miter" stroke-width="0.5" points="142.634,595.738 142.634,587.242"/>
   <polyline fill="none" stroke="#262626" stroke-linecap="butt" stroke-linejoin="miter" stroke-width="0.5" points="142.634,50.2026 142.634,58.6987"/>
   <polyline fill="none" stroke="#262626" stroke-linecap="butt" stroke-linejoin="miter" stroke-width="0.5" points="312.698,595.738 312.698,587.242"/>
   <polyline fill="none" stroke="#262626" stroke-linecap="butt" stroke-linejoin="miter" stroke-width="0.5" points="312.698,50.2026 312.698,58.6987"/>
   <polyline fill="none" stroke="#262626" stroke-linecap="butt" stroke-linejoin="miter" stroke-width="0.5" points="482.761,595.738 482.761,587.242"/>
   <polyline fill="none" stroke="#262626" stroke-linecap="butt" stroke-linejoin="miter" stroke-width="0.5" points="482.761,50.2026 482.761,58.6987"/>
   <polyline fill="none" stroke="#262626" stroke-linecap="butt" stroke-linejoin="miter" stroke-width="0.5" points="652.825,595.738 652.825,587.242"/>
   <polyline fill="none" stroke="#262626" stroke-linecap="butt" stroke-linejoin="miter" stroke-width="0.5" points="652.825,50.2026 652.825,58.6987"/>
   <polyline fill="none" stroke="#262626" stroke-linecap="butt" stroke-linejoin="miter" stroke-width="0.5" points="822.888,595.738 822.888,587.242"/>
   <polyline fill="none" stroke="#262626" stroke-linecap="butt" stroke-linejoin="miter" stroke-width="0.5" points="822.888,50.2026 822.888,58.6987"/>
   <polyline fill="none" stroke="#262626" stroke-linecap="butt" stroke-linejoin="miter" stroke-width="0.5" points="992.952,595.738 992.952,587.242"/>
   <polyline fill="none" stroke="#262626" stroke-linecap="butt" stroke-linejoin="miter" stroke-width="0.5" points="992.952,50.2026 992.952,58.6987"/>
   <g xml:space="preserve" font-weight="normal" transform="translate(136.134,631.722) rotate(-0,6.5,-18)" font-family="FreeSans" font-size="24" font-style="normal">
    <text fill="rgb(38,38,38)" x="0 " y="-0">0</text>
   </g>
   <g xml:space="preserve" font-weight="normal" transform="translate(286.698,631.722) rotate(-0,26,-18)" font-family="FreeSans" font-size="24" font-style="normal">
    <text fill="rgb(38,38,38)" x="0 13 26 39 " y="-0">2000</text>
   </g>
   <g xml:space="preserve" font-weight="normal" transform="translate(456.761,631.722) rotate(-0,26,-18)" font-family="FreeSans" font-size="24" font-style="normal">
    <text fill="rgb(38,38,38)" x="0 13 26 39 " y="-0">4000</text>
   </g>
   <g xml:space="preserve" font-weight="normal" transform="translate(626.825,631.722) rotate(-0,26,-18)" font-family="FreeSans" font-size="24" font-style="normal">
    <text fill="rgb(38,38,38)" x="0 13 26 39 " y="-0">6000</text>
   </g>
   <g xml:space="preserve" font-weight="normal" transform="translate(796.888,631.722) rotate(-0,26,-18)" font-family="FreeSans" font-size="24" font-style="normal">
    <text fill="rgb(38,38,38)" x="0 13 26 39 " y="-0">8000</text>
   </g>
   <g xml:space="preserve" font-weight="normal" transform="translate(960.452,631.722) rotate(-0,32.5,-18)" font-family="FreeSans" font-size="24" font-style="normal">
    <text fill="rgb(38,38,38)" x="0 13 26 39 52 " y="-0">10000</text>
   </g>
   <polyline fill="none" stroke="#262626" stroke-linecap="butt" stroke-opacity="0.15" stroke-linejoin="miter" stroke-width="0.5" points="142.634,595.738 992.952,595.738" stroke-dasharray="16,0"/>
   <polyline fill="none" stroke="#262626" stroke-linecap="butt" stroke-opacity="0.15" stroke-linejoin="miter" stroke-width="0.5" points="142.634,486.63 992.952,486.63" stroke-dasharray="16,0"/>
   <polyline fill="none" stroke="#262626" stroke-linecap="butt" stroke-opacity="0.15" stroke-linejoin="miter" stroke-width="0.5" points="142.634,377.523 992.952,377.523" stroke-dasharray="16,0"/>
   <polyline fill="none" stroke="#262626" stroke-linecap="butt" stroke-opacity="0.15" stroke-linejoin="miter" stroke-width="0.5" points="142.634,268.417 992.952,268.417" stroke-dasharray="16,0"/>
   <polyline fill="none" stroke="#262626" stroke-linecap="butt" stroke-opacity="0.15" stroke-linejoin="miter" stroke-width="0.5" points="142.634,159.31 992.952,159.31" stroke-dasharray="16,0"/>
   <polyline fill="none" stroke="#262626" stroke-linecap="butt" stroke-opacity="0.15" stroke-linejoin="miter" stroke-width="0.5" points="142.634,50.2026 992.952,50.2026" stroke-dasharray="16,0"/>
   <polyline fill="none" stroke="#262626" stroke-linecap="butt" stroke-linejoin="miter" stroke-width="0.5" points="142.634,595.738 151.14,595.738"/>
   <polyline fill="none" stroke="#262626" stroke-linecap="butt" stroke-linejoin="miter" stroke-width="0.5" points="992.952,595.738 984.445,595.738"/>
   <polyline fill="none" stroke="#262626" stroke-linecap="butt" stroke-linejoin="miter" stroke-width="0.5" points="142.634,486.63 151.14,486.63"/>
   <polyline fill="none" stroke="#262626" stroke-linecap="butt" stroke-linejoin="miter" stroke-width="0.5" points="992.952,486.63 984.445,486.63"/>
   <polyline fill="none" stroke="#262626" stroke-linecap="butt" stroke-linejoin="miter" stroke-width="0.5" points="142.634,377.523 151.14,377.523"/>
   <polyline fill="none" stroke="#262626" stroke-linecap="butt" stroke-linejoin="miter" stroke-width="0.5" points="992.952,377.523 984.445,377.523"/>
   <polyline fill="none" stroke="#262626" stroke-linecap="butt" stroke-linejoin="miter" stroke-width="0.5" points="142.634,268.417 151.14,268.417"/>
   <polyline fill="none" stroke="#262626" stroke-linecap="butt" stroke-linejoin="miter" stroke-width="0.5" points="992.952,268.417 984.445,268.417"/>
   <polyline fill="none" stroke="#262626" stroke-linecap="butt" stroke-linejoin="miter" stroke-width="0.5" points="142.634,159.31 151.14,159.31"/>
   <polyline fill="none" stroke="#262626" stroke-linecap="butt" stroke-linejoin="miter" stroke-width="0.5" points="992.952,159.31 984.445,159.31"/>
   <polyline fill="none" stroke="#262626" stroke-linecap="butt" stroke-linejoin="miter" stroke-width="0.5" points="142.634,50.2026 151.14,50.2026"/>
   <polyline fill="none" stroke="#262626" stroke-linecap="butt" stroke-linejoin="miter" stroke-width="0.5" points="992.952,50.2026 984.445,50.2026"/>
   <g xml:space="preserve" font-weight="normal" transform="translate(117.629,604.738) rotate(-0,13,-9)" font-family="FreeSans" font-size="24" font-style="normal">
    <text fill="rgb(38,38,38)" x="0 " y="-0">0</text>
   </g>
   <g xml:space="preserve" font-weight="normal" transform="translate(78.6295,495.631) rotate(-0,52,-9)" font-family="FreeSans" font-size="24" font-style="normal">
    <text fill="rgb(38,38,38)" x="0 13 26 39 " y="-0">2000</text>
   </g>
   <g xml:space="preserve" font-weight="normal" transform="translate(78.6295,386.524) rotate(-0,52,-9)" font-family="FreeSans" font-size="24" font-style="normal">
    <text fill="rgb(38,38,38)" x="0 13 26 39 " y="-0">4000</text>
   </g>
   <g xml:space="preserve" font-weight="normal" transform="translate(78.6295,277.417) rotate(-0,52,-9)" font-family="FreeSans" font-size="24" font-style="normal">
    <text fill="rgb(38,38,38)" x="0 13 26 39 " y="-0">6000</text>
   </g>
   <g xml:space="preserve" font-weight="normal" transform="translate(78.6295,168.31) rotate(-0,52,-9)" font-family="FreeSans" font-size="24" font-style="normal">
    <text fill="rgb(38,38,38)" x="0 13 26 39 " y="-0">8000</text>
   </g>
   <g xml:space="preserve" font-weight="normal" transform="translate(65.6295,59.2026) rotate(-0,65,-9)" font-family="FreeSans" font-size="24" font-style="normal">
    <text fill="rgb(38,38,38)" x="0 13 26 39 52 " y="-0">10000</text>
   </g>
   <polyline fill="none" stroke="#262626" stroke-linecap="square" stroke-linejoin="miter" stroke-width="0.5" points="142.634,595.738 992.952,595.738" stroke-dasharray="16,0"/>
   <polyline fill="none" stroke="#262626" stroke-linecap="square" stroke-linejoin="miter" stroke-width="0.5" points="142.634,50.2026 992.952,50.2026" stroke-dasharray="16,0"/>
   <polyline fill="none" stroke="#262626" stroke-linecap="square" stroke-linejoin="miter" stroke-width="0.5" points="142.634,595.738 142.634,50.2026" stroke-dasharray="16,0"/>
   <polyline fill="none" stroke="#262626" stroke-linecap="square" stroke-linejoin="miter" stroke-width="0.5" points="992.952,595.738 992.952,50.2026" stroke-dasharray="16,0"/>
   <g xml:space="preserve" font-weight="bold" transform="translate(362.293,40.2026) rotate(-0,205.5,0)" font-family="FreeSans" font-size="26.4" font-style="normal">
    <text fill="rgb(0,0,0)" x="0 7 23 37 52 62 77 92 110 117 133 148 166 182 203 218 228 235 254 264 279 294 303 318 334 341 358 373 389 396 " y="-1">inverseSinePower Created Table</text>
   </g>
   <polyline fill="none" stroke="#0000ff" stroke-linecap="butt" stroke-linejoin="round" stroke-width="0.5" points="142.634,595.738 151.137,560.933 159.64,546.476 168.144,535.292 176.646,525.8 185.15,517.399 193.653,509.816 202.156,502.724 210.659,496.123 219.163,489.904 227.666,484.012 236.169,478.338 244.672,472.883 253.175,467.646 261.678,462.572 270.182,457.608 278.685,452.808 287.188,448.116 295.691,443.588 304.194,439.114 312.698,434.696 321.201,430.386 329.704,426.186 338.207,422.039 346.71,417.948 355.213,413.911 363.717,409.928 372.22,406 380.723,402.073 389.226,398.254 397.729,394.435 406.232,390.671 414.736,386.907 423.239,383.197 431.742,379.542 440.245,375.887 448.749,372.232 457.251,368.631 465.755,365.031 474.258,361.485 482.761,357.939 491.264,354.393 499.768,350.847 508.271,347.355 516.774,343.864 525.277,340.373 533.78,336.881 542.283,333.39 550.787,329.898 559.29,326.461 567.793,322.97 576.296,319.479 584.799,316.042 593.302,312.55 601.806,309.059 610.309,305.567 618.812,302.076 627.315,298.584 635.818,295.093 644.321,291.547 652.825,288.001 661.328,284.456 669.831,280.909 678.334,277.309 686.837,273.708 695.34,270.053 703.844,266.398 712.347,262.743 720.85,259.033 729.353,255.269 737.856,251.505 746.359,247.687 754.863,243.868 763.366,239.939 771.869,236.012 780.373,232.029 788.875,227.993 797.378,223.901 805.882,219.755 814.385,215.554 822.888,211.245 831.392,206.826 839.895,202.353 848.398,197.824 856.901,193.133 865.404,188.332 873.907,183.368 882.411,178.294 890.914,173.057 899.417,167.602 907.92,161.928 916.423,156.037 924.926,149.817 933.43,143.216 941.933,136.125 950.436,128.542 958.939,120.14 967.442,110.648 975.945,99.4644 984.449,85.0078 992.952,50.2026"/>
   <polyline fill="none" stroke="#0000ff" stroke-linecap="round" stroke-linejoin="round" stroke-width="0.5" points="145.634,595.738 145.061,597.501 143.561,598.591 141.707,598.591 140.207,597.501 139.634,595.738 140.207,593.974 141.707,592.884 143.561,592.884 145.061,593.974 145.634,595.738"/>
   <polyline fill="none" stroke="#0000ff" stroke-linecap="round" stroke-linejoin="round" stroke-width="0.5" points="154.137,560.933 153.564,562.696 152.064,563.786 150.21,563.786 148.71,562.696 148.137,560.933 148.71,559.169 150.21,558.079 152.064,558.079 153.564,559.169 154.137,560.933"/>
   <polyline fill="none" stroke="#0000ff" stroke-linecap="round" stroke-linejoin="round" stroke-width="0.5" points="162.64,546.476 162.067,548.239 160.567,549.329 158.713,549.329 157.213,548.239 156.64,546.476 157.213,544.712 158.713,543.623 160.567,543.623 162.067,544.712 162.64,546.476"/>
   <polyline fill="none" stroke="#0000ff" stroke-linecap="round" stroke-linejoin="round" stroke-width="0.5" points="171.144,535.292 170.57,537.056 169.07,538.146 167.216,538.146 165.716,537.056 165.144,535.292 165.716,533.529 167.216,532.439 169.07,532.439 170.57,533.529 171.144,535.292"/>
   <polyline fill="none" stroke="#0000ff" stroke-linecap="round" stroke-linejoin="round" stroke-width="0.5" points="179.646,525.8 179.074,527.563 177.574,528.653 175.72,528.653 174.22,527.563 173.646,525.8 174.22,524.037 175.72,522.947 177.574,522.947 179.074,524.037 179.646,525.8"/>
   <polyline fill="none" stroke="#0000ff" stroke-linecap="round" stroke-linejoin="round" stroke-width="0.5" points="188.15,517.399 187.577,519.162 186.077,520.252 184.223,520.252 182.723,519.162 182.15,517.399 182.723,515.635 184.223,514.545 186.077,514.545 187.577,515.635 188.15,517.399"/>
   <polyline fill="none" stroke="#0000ff" stroke-linecap="round" stroke-linejoin="round" stroke-width="0.5" points="196.653,509.816 196.08,511.579 194.58,512.669 192.726,512.669 191.226,511.579 190.653,509.816 191.226,508.052 192.726,506.962 194.58,506.962 196.08,508.052 196.653,509.816"/>
   <polyline fill="none" stroke="#0000ff" stroke-linecap="round" stroke-linejoin="round" stroke-width="0.5" points="205.156,502.724 204.583,504.487 203.083,505.577 201.229,505.577 199.729,504.487 199.156,502.724 199.729,500.96 201.229,499.871 203.083,499.871 204.583,500.96 205.156,502.724"/>
   <polyline fill="none" stroke="#0000ff" stroke-linecap="round" stroke-linejoin="round" stroke-width="0.5" points="213.659,496.123 213.086,497.886 211.586,498.976 209.732,498.976 208.232,497.886 207.659,496.123 208.232,494.359 209.732,493.27 211.586,493.27 213.086,494.359 213.659,496.123"/>
   <polyline fill="none" stroke="#0000ff" stroke-linecap="round" stroke-linejoin="round" stroke-width="0.5" points="222.163,489.904 221.59,491.667 220.09,492.757 218.235,492.757 216.735,491.667 216.163,489.904 216.735,488.141 218.235,487.051 220.09,487.051 221.59,488.141 222.163,489.904"/>
   <polyline fill="none" stroke="#0000ff" stroke-linecap="round" stroke-linejoin="round" stroke-width="0.5" points="230.666,484.012 230.093,485.775 228.593,486.865 226.739,486.865 225.239,485.775 224.666,484.012 225.239,482.249 226.739,481.159 228.593,481.159 230.093,482.249 230.666,484.012"/>
   <polyline fill="none" stroke="#0000ff" stroke-linecap="round" stroke-linejoin="round" stroke-width="0.5" points="239.169,478.338 238.596,480.102 237.096,481.191 235.242,481.191 233.742,480.102 233.169,478.338 233.742,476.575 235.242,475.485 237.096,475.485 238.596,476.575 239.169,478.338"/>
   <polyline fill="none" stroke="#0000ff" stroke-linecap="round" stroke-linejoin="round" stroke-width="0.5" points="247.672,472.883 247.099,474.646 245.599,475.736 243.745,475.736 242.245,474.646 241.672,472.883 242.245,471.12 243.745,470.03 245.599,470.03 247.099,471.12 247.672,472.883"/>
   <polyline fill="none" stroke="#0000ff" stroke-linecap="round" stroke-linejoin="round" stroke-width="0.5" points="256.175,467.646 255.603,469.409 254.103,470.499 252.248,470.499 250.748,469.409 250.175,467.646 250.748,465.883 252.248,464.793 254.103,464.793 255.603,465.883 256.175,467.646"/>
   <polyline fill="none" stroke="#0000ff" stroke-linecap="round" stroke-linejoin="round" stroke-width="0.5" points="264.679,462.572 264.105,464.336 262.605,465.426 260.751,465.426 259.251,464.336 258.679,462.572 259.251,460.809 260.751,459.719 262.605,459.719 264.105,460.809 264.679,462.572"/>
   <polyline fill="none" stroke="#0000ff" stroke-linecap="round" stroke-linejoin="round" stroke-width="0.5" points="273.182,457.608 272.609,459.372 271.109,460.461 269.254,460.461 267.754,459.372 267.182,457.608 267.754,455.845 269.254,454.755 271.109,454.755 272.609,455.845 273.182,457.608"/>
   <polyline fill="none" stroke="#0000ff" stroke-linecap="round" stroke-linejoin="round" stroke-width="0.5" points="281.685,452.808 281.112,454.571 279.612,455.661 277.758,455.661 276.258,454.571 275.685,452.808 276.258,451.044 277.758,449.954 279.612,449.954 281.112,451.044 281.685,452.808"/>
   <polyline fill="none" stroke="#0000ff" stroke-linecap="round" stroke-linejoin="round" stroke-width="0.5" points="290.188,448.116 289.615,449.879 288.115,450.969 286.261,450.969 284.761,449.879 284.188,448.116 284.761,446.353 286.261,445.263 288.115,445.263 289.615,446.353 290.188,448.116"/>
   <polyline fill="none" stroke="#0000ff" stroke-linecap="round" stroke-linejoin="round" stroke-width="0.5" points="298.691,443.588 298.118,445.351 296.618,446.441 294.764,446.441 293.264,445.351 292.691,443.588 293.264,441.825 294.764,440.735 296.618,440.735 298.118,441.825 298.691,443.588"/>
   <polyline fill="none" stroke="#0000ff" stroke-linecap="round" stroke-linejoin="round" stroke-width="0.5" points="307.194,439.114 306.622,440.878 305.122,441.968 303.267,441.968 301.767,440.878 301.194,439.114 301.767,437.351 303.267,436.261 305.122,436.261 306.622,437.351 307.194,439.114"/>
   <polyline fill="none" stroke="#0000ff" stroke-linecap="round" stroke-linejoin="round" stroke-width="0.5" points="315.698,434.696 315.125,436.459 313.625,437.549 311.771,437.549 310.271,436.459 309.698,434.696 310.271,432.932 311.771,431.842 313.625,431.842 315.125,432.932 315.698,434.696"/>
   <polyline fill="none" stroke="#0000ff" stroke-linecap="round" stroke-linejoin="round" stroke-width="0.5" points="324.201,430.386 323.628,432.149 322.128,433.239 320.273,433.239 318.773,432.149 318.201,430.386 318.773,428.623 320.273,427.533 322.128,427.533 323.628,428.623 324.201,430.386"/>
   <polyline fill="none" stroke="#0000ff" stroke-linecap="round" stroke-linejoin="round" stroke-width="0.5" points="332.704,426.186 332.131,427.949 330.631,429.039 328.777,429.039 327.277,427.949 326.704,426.186 327.277,424.422 328.777,423.332 330.631,423.332 332.131,424.422 332.704,426.186"/>
   <polyline fill="none" stroke="#0000ff" stroke-linecap="round" stroke-linejoin="round" stroke-width="0.5" points="341.207,422.039 340.634,423.803 339.134,424.893 337.28,424.893 335.78,423.803 335.207,422.039 335.78,420.276 337.28,419.186 339.134,419.186 340.634,420.276 341.207,422.039"/>
   <polyline fill="none" stroke="#0000ff" stroke-linecap="round" stroke-linejoin="round" stroke-width="0.5" points="349.71,417.948 349.137,419.711 347.637,420.801 345.783,420.801 344.283,419.711 343.71,417.948 344.283,416.185 345.783,415.095 347.637,415.095 349.137,416.185 349.71,417.948"/>
   <polyline fill="none" stroke="#0000ff" stroke-linecap="round" stroke-linejoin="round" stroke-width="0.5" points="358.213,413.911 357.641,415.674 356.141,416.764 354.287,416.764 352.786,415.674 352.213,413.911 352.786,412.147 354.287,411.058 356.141,411.058 357.641,412.147 358.213,413.911"/>
   <polyline fill="none" stroke="#0000ff" stroke-linecap="round" stroke-linejoin="round" stroke-width="0.5" points="366.717,409.928 366.144,411.692 364.644,412.782 362.79,412.782 361.29,411.692 360.717,409.928 361.29,408.165 362.79,407.075 364.644,407.075 366.144,408.165 366.717,409.928"/>
   <polyline fill="none" stroke="#0000ff" stroke-linecap="round" stroke-linejoin="round" stroke-width="0.5" points="375.22,406 374.647,407.764 373.147,408.854 371.293,408.854 369.793,407.764 369.22,406 369.793,404.237 371.293,403.147 373.147,403.147 374.647,404.237 375.22,406"/>
   <polyline fill="none" stroke="#0000ff" stroke-linecap="round" stroke-linejoin="round" stroke-width="0.5" points="383.723,402.073 383.15,403.836 381.65,404.926 379.796,404.926 378.296,403.836 377.723,402.073 378.296,400.309 379.796,399.219 381.65,399.219 383.15,400.309 383.723,402.073"/>
   <polyline fill="none" stroke="#0000ff" stroke-linecap="round" stroke-linejoin="round" stroke-width="0.5" points="392.226,398.254 391.653,400.017 390.153,401.107 388.299,401.107 386.799,400.017 386.226,398.254 386.799,396.491 388.299,395.401 390.153,395.401 391.653,396.491 392.226,398.254"/>
   <polyline fill="none" stroke="#0000ff" stroke-linecap="round" stroke-linejoin="round" stroke-width="0.5" points="400.729,394.435 400.156,396.199 398.656,397.288 396.802,397.288 395.302,396.199 394.729,394.435 395.302,392.672 396.802,391.582 398.656,391.582 400.156,392.672 400.729,394.435"/>
   <polyline fill="none" stroke="#0000ff" stroke-linecap="round" stroke-linejoin="round" stroke-width="0.5" points="409.232,390.671 408.66,392.434 407.16,393.524 405.306,393.524 403.806,392.434 403.232,390.671 403.806,388.908 405.306,387.818 407.16,387.818 408.66,388.908 409.232,390.671"/>
   <polyline fill="none" stroke="#0000ff" stroke-linecap="round" stroke-linejoin="round" stroke-width="0.5" points="417.736,386.907 417.163,388.67 415.663,389.76 413.809,389.76 412.309,388.67 411.736,386.907 412.309,385.144 413.809,384.054 415.663,384.054 417.163,385.144 417.736,386.907"/>
   <polyline fill="none" stroke="#0000ff" stroke-linecap="round" stroke-linejoin="round" stroke-width="0.5" points="426.239,383.197 425.666,384.96 424.166,386.05 422.312,386.05 420.812,384.96 420.239,383.197 420.812,381.434 422.312,380.344 424.166,380.344 425.666,381.434 426.239,383.197"/>
   <polyline fill="none" stroke="#0000ff" stroke-linecap="round" stroke-linejoin="round" stroke-width="0.5" points="434.742,379.542 434.169,381.305 432.669,382.395 430.815,382.395 429.315,381.305 428.742,379.542 429.315,377.779 430.815,376.689 432.669,376.689 434.169,377.779 434.742,379.542"/>
   <polyline fill="none" stroke="#0000ff" stroke-linecap="round" stroke-linejoin="round" stroke-width="0.5" points="443.245,375.887 442.672,377.65 441.172,378.74 439.318,378.74 437.818,377.65 437.245,375.887 437.818,374.124 439.318,373.034 441.172,373.034 442.672,374.124 443.245,375.887"/>
   <polyline fill="none" stroke="#0000ff" stroke-linecap="round" stroke-linejoin="round" stroke-width="0.5" points="451.749,372.232 451.175,373.995 449.675,375.085 447.821,375.085 446.321,373.995 445.749,372.232 446.321,370.469 447.821,369.379 449.675,369.379 451.175,370.469 451.749,372.232"/>
   <polyline fill="none" stroke="#0000ff" stroke-linecap="round" stroke-linejoin="round" stroke-width="0.5" points="460.251,368.631 459.679,370.395 458.179,371.484 456.325,371.484 454.825,370.395 454.251,368.631 454.825,366.868 456.325,365.778 458.179,365.778 459.679,366.868 460.251,368.631"/>
   <polyline fill="none" stroke="#0000ff" stroke-linecap="round" stroke-linejoin="round" stroke-width="0.5" points="468.755,365.031 468.182,366.794 466.682,367.884 464.828,367.884 463.328,366.794 462.755,365.031 463.328,363.268 464.828,362.178 466.682,362.178 468.182,363.268 468.755,365.031"/>
   <polyline fill="none" stroke="#0000ff" stroke-linecap="round" stroke-linejoin="round" stroke-width="0.5" points="477.258,361.485 476.685,363.248 475.185,364.338 473.331,364.338 471.831,363.248 471.258,361.485 471.831,359.722 473.331,358.632 475.185,358.632 476.685,359.722 477.258,361.485"/>
   <polyline fill="none" stroke="#0000ff" stroke-linecap="round" stroke-linejoin="round" stroke-width="0.5" points="485.761,357.939 485.188,359.702 483.688,360.792 481.834,360.792 480.334,359.702 479.761,357.939 480.334,356.175 481.834,355.086 483.688,355.086 485.188,356.175 485.761,357.939"/>
   <polyline fill="none" stroke="#0000ff" stroke-linecap="round" stroke-linejoin="round" stroke-width="0.5" points="494.264,354.393 493.691,356.156 492.191,357.246 490.337,357.246 488.837,356.156 488.264,354.393 488.837,352.629 490.337,351.54 492.191,351.54 493.691,352.629 494.264,354.393"/>
   <polyline fill="none" stroke="#0000ff" stroke-linecap="round" stroke-linejoin="round" stroke-width="0.5" points="502.768,350.847 502.194,352.61 500.694,353.7 498.84,353.7 497.34,352.61 496.768,350.847 497.34,349.083 498.84,347.994 500.694,347.994 502.194,349.083 502.768,350.847"/>
   <polyline fill="none" stroke="#0000ff" stroke-linecap="round" stroke-linejoin="round" stroke-width="0.5" points="511.271,347.355 510.698,349.119 509.198,350.208 507.344,350.208 505.844,349.119 505.271,347.355 505.844,345.592 507.344,344.502 509.198,344.502 510.698,345.592 511.271,347.355"/>
   <polyline fill="none" stroke="#0000ff" stroke-linecap="round" stroke-linejoin="round" stroke-width="0.5" points="519.774,343.864 519.201,345.627 517.701,346.717 515.847,346.717 514.347,345.627 513.774,343.864 514.347,342.101 515.847,341.011 517.701,341.011 519.201,342.101 519.774,343.864"/>
   <polyline fill="none" stroke="#0000ff" stroke-linecap="round" stroke-linejoin="round" stroke-width="0.5" points="528.277,340.373 527.704,342.136 526.204,343.226 524.35,343.226 522.85,342.136 522.277,340.373 522.85,338.609 524.35,337.52 526.204,337.52 527.704,338.609 528.277,340.373"/>
   <polyline fill="none" stroke="#0000ff" stroke-linecap="round" stroke-linejoin="round" stroke-width="0.5" points="536.78,336.881 536.207,338.645 534.707,339.734 532.853,339.734 531.353,338.645 530.78,336.881 531.353,335.118 532.853,334.028 534.707,334.028 536.207,335.118 536.78,336.881"/>
   <polyline fill="none" stroke="#0000ff" stroke-linecap="round" stroke-linejoin="round" stroke-width="0.5" points="545.283,333.39 544.71,335.153 543.21,336.243 541.356,336.243 539.856,335.153 539.283,333.39 539.856,331.626 541.356,330.537 543.21,330.537 544.71,331.626 545.283,333.39"/>
   <polyline fill="none" stroke="#0000ff" stroke-linecap="round" stroke-linejoin="round" stroke-width="0.5" points="553.787,329.898 553.213,331.662 551.713,332.751 549.859,332.751 548.359,331.662 547.787,329.898 548.359,328.135 549.859,327.045 551.713,327.045 553.213,328.135 553.787,329.898"/>
   <polyline fill="none" stroke="#0000ff" stroke-linecap="round" stroke-linejoin="round" stroke-width="0.5" points="562.29,326.461 561.717,328.225 560.217,329.314 558.363,329.314 556.863,328.225 556.29,326.461 556.863,324.698 558.363,323.608 560.217,323.608 561.717,324.698 562.29,326.461"/>
   <polyline fill="none" stroke="#0000ff" stroke-linecap="round" stroke-linejoin="round" stroke-width="0.5" points="570.793,322.97 570.22,324.733 568.72,325.823 566.866,325.823 565.366,324.733 564.793,322.97 565.366,321.207 566.866,320.117 568.72,320.117 570.22,321.207 570.793,322.97"/>
   <polyline fill="none" stroke="#0000ff" stroke-linecap="round" stroke-linejoin="round" stroke-width="0.5" points="579.296,319.479 578.723,321.242 577.223,322.332 575.369,322.332 573.869,321.242 573.296,319.479 573.869,317.715 575.369,316.625 577.223,316.625 578.723,317.715 579.296,319.479"/>
   <polyline fill="none" stroke="#0000ff" stroke-linecap="round" stroke-linejoin="round" stroke-width="0.5" points="587.799,316.042 587.227,317.805 585.727,318.895 583.872,318.895 582.372,317.805 581.799,316.042 582.372,314.278 583.872,313.188 585.727,313.188 587.227,314.278 587.799,316.042"/>
   <polyline fill="none" stroke="#0000ff" stroke-linecap="round" stroke-linejoin="round" stroke-width="0.5" points="596.302,312.55 595.729,314.313 594.229,315.403 592.375,315.403 590.875,314.313 590.302,312.55 590.875,310.787 592.375,309.697 594.229,309.697 595.729,310.787 596.302,312.55"/>
   <polyline fill="none" stroke="#0000ff" stroke-linecap="round" stroke-linejoin="round" stroke-width="0.5" points="604.806,309.059 604.233,310.822 602.733,311.912 600.878,311.912 599.378,310.822 598.806,309.059 599.378,307.295 600.878,306.206 602.733,306.206 604.233,307.295 604.806,309.059"/>
   <polyline fill="none" stroke="#0000ff" stroke-linecap="round" stroke-linejoin="round" stroke-width="0.5" points="613.309,305.567 612.736,307.331 611.236,308.421 609.382,308.421 607.882,307.331 607.309,305.567 607.882,303.804 609.382,302.714 611.236,302.714 612.736,303.804 613.309,305.567"/>
   <polyline fill="none" stroke="#0000ff" stroke-linecap="round" stroke-linejoin="round" stroke-width="0.5" points="621.812,302.076 621.239,303.839 619.739,304.929 617.885,304.929 616.385,303.839 615.812,302.076 616.385,300.312 617.885,299.223 619.739,299.223 621.239,300.312 621.812,302.076"/>
   <polyline fill="none" stroke="#0000ff" stroke-linecap="round" stroke-linejoin="round" stroke-width="0.5" points="630.315,298.584 629.742,300.348 628.242,301.438 626.388,301.438 624.888,300.348 624.315,298.584 624.888,296.821 626.388,295.731 628.242,295.731 629.742,296.821 630.315,298.584"/>
   <polyline fill="none" stroke="#0000ff" stroke-linecap="round" stroke-linejoin="round" stroke-width="0.5" points="638.818,295.093 638.246,296.856 636.746,297.946 634.891,297.946 633.391,296.856 632.818,295.093 633.391,293.33 634.891,292.24 636.746,292.24 638.246,293.33 638.818,295.093"/>
   <polyline fill="none" stroke="#0000ff" stroke-linecap="round" stroke-linejoin="round" stroke-width="0.5" points="647.321,291.547 646.749,293.311 645.249,294.4 643.395,294.4 641.895,293.311 641.321,291.547 641.895,289.784 643.395,288.694 645.249,288.694 646.749,289.784 647.321,291.547"/>
   <polyline fill="none" stroke="#0000ff" stroke-linecap="round" stroke-linejoin="round" stroke-width="0.5" points="655.825,288.001 655.252,289.765 653.752,290.854 651.897,290.854 650.397,289.765 649.825,288.001 650.397,286.238 651.897,285.148 653.752,285.148 655.252,286.238 655.825,288.001"/>
   <polyline fill="none" stroke="#0000ff" stroke-linecap="round" stroke-linejoin="round" stroke-width="0.5" points="664.328,284.455 663.755,286.219 662.255,287.309 660.401,287.309 658.901,286.219 658.328,284.455 658.901,282.692 660.401,281.602 662.255,281.602 663.755,282.692 664.328,284.455"/>
   <polyline fill="none" stroke="#0000ff" stroke-linecap="round" stroke-linejoin="round" stroke-width="0.5" points="672.831,280.909 672.258,282.673 670.758,283.763 668.904,283.763 667.404,282.673 666.831,280.909 667.404,279.146 668.904,278.056 670.758,278.056 672.258,279.146 672.831,280.909"/>
   <polyline fill="none" stroke="#0000ff" stroke-linecap="round" stroke-linejoin="round" stroke-width="0.5" points="681.334,277.309 680.761,279.072 679.261,280.162 677.407,280.162 675.907,279.072 675.334,277.309 675.907,275.545 677.407,274.456 679.261,274.456 680.761,275.545 681.334,277.309"/>
   <polyline fill="none" stroke="#0000ff" stroke-linecap="round" stroke-linejoin="round" stroke-width="0.5" points="689.837,273.708 689.265,275.472 687.765,276.562 685.91,276.562 684.41,275.472 683.837,273.708 684.41,271.945 685.91,270.855 687.765,270.855 689.265,271.945 689.837,273.708"/>
   <polyline fill="none" stroke="#0000ff" stroke-linecap="round" stroke-linejoin="round" stroke-width="0.5" points="698.34,270.053 697.768,271.816 696.268,272.906 694.414,272.906 692.914,271.816 692.34,270.053 692.914,268.29 694.414,267.2 696.268,267.2 697.768,268.29 698.34,270.053"/>
   <polyline fill="none" stroke="#0000ff" stroke-linecap="round" stroke-linejoin="round" stroke-width="0.5" points="706.844,266.398 706.271,268.162 704.771,269.251 702.917,269.251 701.417,268.162 700.844,266.398 701.417,264.635 702.917,263.545 704.771,263.545 706.271,264.635 706.844,266.398"/>
   <polyline fill="none" stroke="#0000ff" stroke-linecap="round" stroke-linejoin="round" stroke-width="0.5" points="715.347,262.743 714.774,264.506 713.274,265.596 711.42,265.596 709.92,264.506 709.347,262.743 709.92,260.979 711.42,259.89 713.274,259.89 714.774,260.979 715.347,262.743"/>
   <polyline fill="none" stroke="#0000ff" stroke-linecap="round" stroke-linejoin="round" stroke-width="0.5" points="723.85,259.033 723.277,260.797 721.777,261.887 719.923,261.887 718.423,260.797 717.85,259.033 718.423,257.27 719.923,256.18 721.777,256.18 723.277,257.27 723.85,259.033"/>
   <polyline fill="none" stroke="#0000ff" stroke-linecap="round" stroke-linejoin="round" stroke-width="0.5" points="732.354,255.269 731.78,257.033 730.28,258.123 728.426,258.123 726.926,257.033 726.354,255.269 726.926,253.506 728.426,252.416 730.28,252.416 731.78,253.506 732.354,255.269"/>
   <polyline fill="none" stroke="#0000ff" stroke-linecap="round" stroke-linejoin="round" stroke-width="0.5" points="740.856,251.505 740.284,253.269 738.784,254.358 736.93,254.358 735.429,253.269 734.856,251.505 735.429,249.742 736.93,248.652 738.784,248.652 740.284,249.742 740.856,251.505"/>
   <polyline fill="none" stroke="#0000ff" stroke-linecap="round" stroke-linejoin="round" stroke-width="0.5" points="749.36,247.686 748.787,249.45 747.287,250.54 745.433,250.54 743.933,249.45 743.36,247.686 743.933,245.923 745.433,244.833 747.287,244.833 748.787,245.923 749.36,247.686"/>
   <polyline fill="none" stroke="#0000ff" stroke-linecap="round" stroke-linejoin="round" stroke-width="0.5" points="757.863,243.868 757.29,245.631 755.79,246.721 753.936,246.721 752.436,245.631 751.863,243.868 752.436,242.104 753.936,241.014 755.79,241.014 757.29,242.104 757.863,243.868"/>
   <polyline fill="none" stroke="#0000ff" stroke-linecap="round" stroke-linejoin="round" stroke-width="0.5" points="766.366,239.939 765.793,241.703 764.293,242.793 762.439,242.793 760.939,241.703 760.366,239.939 760.939,238.176 762.439,237.086 764.293,237.086 765.793,238.176 766.366,239.939"/>
   <polyline fill="none" stroke="#0000ff" stroke-linecap="round" stroke-linejoin="round" stroke-width="0.5" points="774.869,236.012 774.296,237.775 772.796,238.865 770.942,238.865 769.442,237.775 768.869,236.012 769.442,234.249 770.942,233.159 772.796,233.159 774.296,234.249 774.869,236.012"/>
   <polyline fill="none" stroke="#0000ff" stroke-linecap="round" stroke-linejoin="round" stroke-width="0.5" points="783.373,232.029 782.799,233.793 781.299,234.883 779.445,234.883 777.945,233.793 777.373,232.029 777.945,230.266 779.445,229.176 781.299,229.176 782.799,230.266 783.373,232.029"/>
   <polyline fill="none" stroke="#0000ff" stroke-linecap="round" stroke-linejoin="round" stroke-width="0.5" points="791.875,227.993 791.303,229.756 789.803,230.846 787.948,230.846 786.448,229.756 785.875,227.993 786.448,226.229 787.948,225.139 789.803,225.139 791.303,226.229 791.875,227.993"/>
   <polyline fill="none" stroke="#0000ff" stroke-linecap="round" stroke-linejoin="round" stroke-width="0.5" points="800.379,223.901 799.806,225.664 798.306,226.754 796.452,226.754 794.952,225.664 794.379,223.901 794.952,222.138 796.452,221.048 798.306,221.048 799.806,222.138 800.379,223.901"/>
   <polyline fill="none" stroke="#0000ff" stroke-linecap="round" stroke-linejoin="round" stroke-width="0.5" points="808.882,219.755 808.309,221.518 806.809,222.608 804.955,222.608 803.455,221.518 802.882,219.755 803.455,217.992 804.955,216.902 806.809,216.902 808.309,217.992 808.882,219.755"/>
   <polyline fill="none" stroke="#0000ff" stroke-linecap="round" stroke-linejoin="round" stroke-width="0.5" points="817.385,215.554 816.812,217.317 815.312,218.407 813.458,218.407 811.958,217.317 811.385,215.554 811.958,213.791 813.458,212.701 815.312,212.701 816.812,213.791 817.385,215.554"/>
   <polyline fill="none" stroke="#0000ff" stroke-linecap="round" stroke-linejoin="round" stroke-width="0.5" points="825.888,211.245 825.315,213.008 823.815,214.098 821.961,214.098 820.461,213.008 819.888,211.245 820.461,209.481 821.961,208.392 823.815,208.392 825.315,209.481 825.888,211.245"/>
   <polyline fill="none" stroke="#0000ff" stroke-linecap="round" stroke-linejoin="round" stroke-width="0.5" points="834.392,206.826 833.818,208.589 832.318,209.679 830.464,209.679 828.964,208.589 828.392,206.826 828.964,205.062 830.464,203.973 832.318,203.973 833.818,205.062 834.392,206.826"/>
   <polyline fill="none" stroke="#0000ff" stroke-linecap="round" stroke-linejoin="round" stroke-width="0.5" points="842.895,202.353 842.322,204.116 840.822,205.206 838.968,205.206 837.468,204.116 836.895,202.353 837.468,200.589 838.968,199.499 840.822,199.499 842.322,200.589 842.895,202.353"/>
   <polyline fill="none" stroke="#0000ff" stroke-linecap="round" stroke-linejoin="round" stroke-width="0.5" points="851.398,197.824 850.825,199.588 849.325,200.678 847.471,200.678 845.971,199.588 845.398,197.824 845.971,196.061 847.471,194.971 849.325,194.971 850.825,196.061 851.398,197.824"/>
   <polyline fill="none" stroke="#0000ff" stroke-linecap="round" stroke-linejoin="round" stroke-width="0.5" points="859.901,193.133 859.328,194.896 857.828,195.986 855.974,195.986 854.474,194.896 853.901,193.133 854.474,191.37 855.974,190.28 857.828,190.28 859.328,191.37 859.901,193.133"/>
   <polyline fill="none" stroke="#0000ff" stroke-linecap="round" stroke-linejoin="round" stroke-width="0.5" points="868.404,188.332 867.831,190.095 866.331,191.185 864.477,191.185 862.977,190.095 862.404,188.332 862.977,186.569 864.477,185.479 866.331,185.479 867.831,186.569 868.404,188.332"/>
   <polyline fill="none" stroke="#0000ff" stroke-linecap="round" stroke-linejoin="round" stroke-width="0.5" points="876.907,183.368 876.334,185.131 874.834,186.221 872.98,186.221 871.48,185.131 870.907,183.368 871.48,181.604 872.98,180.515 874.834,180.515 876.334,181.604 876.907,183.368"/>
   <polyline fill="none" stroke="#0000ff" stroke-linecap="round" stroke-linejoin="round" stroke-width="0.5" points="885.411,178.294 884.837,180.058 883.337,181.147 881.483,181.147 879.983,180.058 879.411,178.294 879.983,176.531 881.483,175.441 883.337,175.441 884.837,176.531 885.411,178.294"/>
   <polyline fill="none" stroke="#0000ff" stroke-linecap="round" stroke-linejoin="round" stroke-width="0.5" points="893.914,173.057 893.341,174.82 891.841,175.91 889.987,175.91 888.487,174.82 887.914,173.057 888.487,171.294 889.987,170.204 891.841,170.204 893.341,171.294 893.914,173.057"/>
   <polyline fill="none" stroke="#0000ff" stroke-linecap="round" stroke-linejoin="round" stroke-width="0.5" points="902.417,167.602 901.844,169.365 900.344,170.455 898.49,170.455 896.99,169.365 896.417,167.602 896.99,165.838 898.49,164.749 900.344,164.749 901.844,165.838 902.417,167.602"/>
   <polyline fill="none" stroke="#0000ff" stroke-linecap="round" stroke-linejoin="round" stroke-width="0.5" points="910.92,161.928 910.347,163.691 908.847,164.781 906.993,164.781 905.493,163.691 904.92,161.928 905.493,160.165 906.993,159.075 908.847,159.075 910.347,160.165 910.92,161.928"/>
   <polyline fill="none" stroke="#0000ff" stroke-linecap="round" stroke-linejoin="round" stroke-width="0.5" points="919.423,156.036 918.85,157.8 917.35,158.89 915.496,158.89 913.996,157.8 913.423,156.036 913.996,154.273 915.496,153.183 917.35,153.183 918.85,154.273 919.423,156.036"/>
   <polyline fill="none" stroke="#0000ff" stroke-linecap="round" stroke-linejoin="round" stroke-width="0.5" points="927.926,149.817 927.354,151.581 925.854,152.67 924,152.67 922.5,151.581 921.926,149.817 922.5,148.054 924,146.964 925.854,146.964 927.354,148.054 927.926,149.817"/>
   <polyline fill="none" stroke="#0000ff" stroke-linecap="round" stroke-linejoin="round" stroke-width="0.5" points="936.43,143.216 935.856,144.979 934.356,146.069 932.502,146.069 931.002,144.979 930.43,143.216 931.002,141.453 932.502,140.363 934.356,140.363 935.856,141.453 936.43,143.216"/>
   <polyline fill="none" stroke="#0000ff" stroke-linecap="round" stroke-linejoin="round" stroke-width="0.5" points="944.933,136.125 944.36,137.888 942.86,138.978 941.006,138.978 939.506,137.888 938.933,136.125 939.506,134.361 941.006,133.271 942.86,133.271 944.36,134.361 944.933,136.125"/>
   <polyline fill="none" stroke="#0000ff" stroke-linecap="round" stroke-linejoin="round" stroke-width="0.5" points="953.436,128.542 952.863,130.305 951.363,131.395 949.509,131.395 948.009,130.305 947.436,128.542 948.009,126.778 949.509,125.688 951.363,125.688 952.863,126.778 953.436,128.542"/>
   <polyline fill="none" stroke="#0000ff" stroke-linecap="round" stroke-linejoin="round" stroke-width="0.5" points="961.939,120.14 961.366,121.903 959.866,122.993 958.012,122.993 956.512,121.903 955.939,120.14 956.512,118.377 958.012,117.287 959.866,117.287 961.366,118.377 961.939,120.14"/>
   <polyline fill="none" stroke="#0000ff" stroke-linecap="round" stroke-linejoin="round" stroke-width="0.5" points="970.442,110.648 969.869,112.411 968.369,113.501 966.515,113.501 965.015,112.411 964.442,110.648 965.015,108.885 966.515,107.795 968.369,107.795 969.869,108.885 970.442,110.648"/>
   <polyline fill="none" stroke="#0000ff" stroke-linecap="round" stroke-linejoin="round" stroke-width="0.5" points="978.945,99.4644 978.373,101.228 976.873,102.317 975.019,102.317 973.519,101.228 972.945,99.4644 973.519,97.7012 975.019,96.6113 976.873,96.6113 978.373,97.7012 978.945,99.4644"/>
   <polyline fill="none" stroke="#0000ff" stroke-linecap="round" stroke-linejoin="round" stroke-width="0.5" points="987.449,85.0078 986.875,86.771 985.376,87.8608 983.521,87.8608 982.021,86.771 981.449,85.0078 982.021,83.2441 983.521,82.1548 985.376,82.1548 986.875,83.2441 987.449,85.0078"/>
   <polyline fill="none" stroke="#0000ff" stroke-linecap="round" stroke-linejoin="round" stroke-width="0.5" points="995.952,50.2026 995.379,51.9658 993.879,53.0557 992.025,53.0557 990.525,51.9658 989.952,50.2026 990.525,48.4395 992.025,47.3496 993.879,47.3496 995.379,48.4395 995.952,50.2026"/>
  </g>
 </g>
</svg>
