  0
SECTION
  2
HEADER
  9
$ACADVER
  1
AC1009
  9
$INSBASE
 10
0.0
 20
0.0
 30
0.0
  9
$EXTMIN
 10
0.0
 20
0.0
 30
0.0
  9
$EXTMAX
 10
100.0
 20
100.0
 30
0.0
  9
$UNITMODE
 70
0
  9
$AUNITS
 70
0
  9
$ANGBASE
 50
0.0
  9
$ANGDIR
 70
0
  0
ENDSEC
  0
SECTION
  2
TABLES
  0
TABLE
  2
LTYPE
 70
19
  0
LTYPE
  2
CONTINUOUS
 70
0
  3
Solid
 72
65
 73
0
 40
0.0
  0
LTYPE
  2
CENTER
 70
0
  3
Center ____ _ ____ _ ____ _ ____ _ ____ _ ____
 72
65
 73
4
 40
2.0
 49
1.25
 49
-0.25
 49
0.25
 49
-0.25
  0
LTYPE
  2
CENTERX2
 70
0
  3
Center (2x) ________  __  ________  __  ________
 72
65
 73
4
 40
3.5
 49
2.5
 49
-0.25
 49
0.5
 49
-0.25
  0
LTYPE
  2
CENTER2
 70
0
  3
Center (.5x) ____ _ ____ _ ____ _ ____ _ ____
 72
65
 73
4
 40
1.0
 49
0.625
 49
-0.125
 49
0.125
 49
-0.125
  0
LTYPE
  2
DASHED
 70
0
  3
Dashed __ __ __ __ __ __ __ __ __ __ __ __ __ _
 72
65
 73
2
 40
0.6
 49
0.5
 49
-0.1
  0
LTYPE
  2
DASHEDX2
 70
0
  3
Dashed (2x) ____  ____  ____  ____  ____  ____
 72
65
 73
2
 40
1.2
 49
1.0
 49
-0.2
  0
LTYPE
  2
DASHED2
 70
0
  3
Dashed (.5x) _ _ _ _ _ _ _ _ _ _ _ _ _ _
 72
65
 73
2
 40
0.3
 49
0.25
 49
-0.05
  0
LTYPE
  2
PHANTOM
 70
0
  3
Phantom ______  __  __  ______  __  __  ______
 72
65
 73
6
 40
2.5
 49
1.25
 49
-0.25
 49
0.25
 49
-0.25
 49
0.25
 49
-0.25
  0
LTYPE
  2
PHANTOMX2
 70
0
  3
Phantom (2x)____________    ____    ____    ____________
 72
65
 73
6
 40
4.25
 49
2.5
 49
-0.25
 49
0.5
 49
-0.25
 49
0.5
 49
-0.25
  0
LTYPE
  2
PHANTOM2
 70
0
  3
Phantom (.5x) ___ _ _ ___ _ _ ___ _ _ ___ _ _ ___
 72
65
 73
6
 40
1.25
 49
0.625
 49
-0.125
 49
0.125
 49
-0.125
 49
0.125
 49
-0.125
  0
LTYPE
  2
DASHDOT
 70
0
  3
Dash dot __ . __ . __ . __ . __ . __ . __ . __
 72
65
 73
4
 40
1.4
 49
1.0
 49
-0.2
 49
0.0
 49
-0.2
  0
LTYPE
  2
DASHDOTX2
 70
0
  3
Dash dot (2x) ____  .  ____  .  ____  .  ____
 72
65
 73
4
 40
2.4
 49
2.0
 49
-0.2
 49
0.0
 49
-0.2
  0
LTYPE
  2
DASHDOT2
 70
0
  3
Dash dot (.5x) _ . _ . _ . _ . _ . _ . _ . _
 72
65
 73
4
 40
0.7
 49
0.5
 49
-0.1
 49
0.0
 49
-0.1
  0
LTYPE
  2
DOT
 70
0
  3
Dot .  .  .  .  .  .  .  .  .  .  .  .  .  .  .  .
 72
65
 73
2
 40
0.2
 49
0.0
 49
-0.2
  0
LTYPE
  2
DOTX2
 70
0
  3
Dot (2x) .    .    .    .    .    .    .    . 
 72
65
 73
2
 40
0.4
 49
0.0
 49
-0.4
  0
LTYPE
  2
DOT2
 70
0
  3
Dot (.5) . . . . . . . . . . . . . . . . . . . 
 72
65
 73
2
 40
0.1
 49
0.0
 49
-0.1
  0
LTYPE
  2
DIVIDE
 70
0
  3
Divide __ . . __ . . __ . . __ . . __ . . __
 72
65
 73
6
 40
1.6
 49
1.0
 49
-0.2
 49
0.0
 49
-0.2
 49
0.0
 49
-0.2
  0
LTYPE
  2
DIVIDEX2
 70
0
  3
Divide (2x) ____  . .  ____  . .  ____  . .  ____
 72
65
 73
6
 40
2.6
 49
2.0
 49
-0.2
 49
0.0
 49
-0.2
 49
0.0
 49
-0.2
  0
LTYPE
  2
DIVIDE2
 70
0
  3
Divide(.5x) _ . _ . _ . _ . _ . _ . _ . _
 72
65
 73
6
 40
0.8
 49
0.5
 49
-0.1
 49
0.0
 49
-0.1
 49
0.0
 49
-0.1
  0
ENDTAB
  0
TABLE
  2
LAYER
 70
13
  0
LAYER
  2
DIMENSIONS
 70
0
 62
1
  6
CONTINUOUS
  0
LAYER
  2
TABLEBACKGROUND
 70
0
 62
1
  6
CONTINUOUS
  0
LAYER
  2
TABLECONTENT
 70
0
 62
1
  6
CONTINUOUS
  0
LAYER
  2
TABLEGRID
 70
0
 62
1
  6
CONTINUOUS
  0
LAYER
  2
VIEWPORTS
 70
0
 62
7
  6
CONTINUOUS
  0
LAYER
  2
holes_0.8mm
 70
0
 62
1
  6
CONTINUOUS
  0
LAYER
  2
holes_0.9mm
 70
0
 62
1
  6
CONTINUOUS
  0
LAYER
  2
holes_1.0mm
 70
0
 62
1
  6
CONTINUOUS
  0
LAYER
  2
holes_1.1mm
 70
0
 62
1
  6
CONTINUOUS
  0
LAYER
  2
holes_1.2mm
 70
0
 62
1
  6
CONTINUOUS
  0
LAYER
  2
holes_1.3mm
 70
0
 62
1
  6
CONTINUOUS
  0
LAYER
  2
holes_1.5mm
 70
0
 62
1
  6
CONTINUOUS
  0
LAYER
  2
holes_2.0mm
 70
0
 62
1
  6
CONTINUOUS
  0
ENDTAB
  0
TABLE
  2
STYLE
 70
12
  0
STYLE
  2
STANDARD
 70
0
 40
0.0
 41
1.0
 42
1.0
 50
0.0
 71
0
  3
arial.ttf
  4

  0
STYLE
  2
ARIAL
 70
0
 40
0.0
 41
1.0
 42
1.0
 50
0.0
 71
0
  3
arial.ttf
  4

  0
STYLE
  2
ARIAL_BOLD
 70
0
 40
0.0
 41
1.0
 42
1.0
 50
0.0
 71
0
  3
arialbd.ttf
  4

  0
STYLE
  2
ARIAL_ITALIC
 70
0
 40
0.0
 41
1.0
 42
1.0
 50
0.0
 71
0
  3
ariali.ttf
  4

  0
STYLE
  2
ARIAL_BOLD_ITALIC
 70
0
 40
0.0
 41
1.0
 42
1.0
 50
0.0
 71
0
  3
arialbi.ttf
  4

  0
STYLE
  2
ARIAL_BLACK
 70
0
 40
0.0
 41
1.0
 42
1.0
 50
0.0
 71
0
  3
ariblk.ttf
  4

  0
STYLE
  2
ISOCPEUR
 70
0
 40
0.0
 41
1.0
 42
1.0
 50
0.0
 71
0
  3
isocpeur.ttf
  4

  0
STYLE
  2
ISOCPEUR_ITALIC
 70
0
 40
0.0
 41
1.0
 42
1.0
 50
0.0
 71
0
  3
isocpeui.ttf
  4

  0
STYLE
  2
TIMES
 70
0
 40
0.0
 41
1.0
 42
1.0
 50
0.0
 71
0
  3
times.ttf
  4

  0
STYLE
  2
TIMES_BOLD
 70
0
 40
0.0
 41
1.0
 42
1.0
 50
0.0
 71
0
  3
timesbd.ttf
  4

  0
STYLE
  2
TIMES_ITALIC
 70
0
 40
0.0
 41
1.0
 42
1.0
 50
0.0
 71
0
  3
timesi.ttf
  4

  0
STYLE
  2
TIMES_BOLD_ITALIC
 70
0
 40
0.0
 41
1.0
 42
1.0
 50
0.0
 71
0
  3
timesbi.ttf
  4

  0
ENDTAB
  0
TABLE
  2
VIEW
 70
0
  0
ENDTAB
  0
TABLE
  2
APPID
 70
1
  0
APPID
  2
DXFWRITE
 70
0
  0
ENDTAB
  0
TABLE
  2
VPORT
 70
0
  0
ENDTAB
  0
TABLE
  2
UCS
 70
0
  0
ENDTAB
  0
ENDSEC
  0
SECTION
  2
BLOCKS
  0
ENDSEC
  0
SECTION
  2
ENTITIES
  0
VIEWPORT
  8
VIEWPORTS
 67
1
 10
0.0
 20
0.0
 30
0.0
 40
1.0
 41
1.0
 68
1
 69
1
1001
ACAD
1000
MVIEW
1002
{
1070
16
1010
0.0
1020
0.0
1030
0.0
1010
0.0
1020
0.0
1030
0.0
1040
0.0
1040
1.0
1040
0.0
1040
0.0
1040
50.0
1040
0.0
1040
0.0
1070
0
1070
100
1070
1
1070
3
1070
0
1070
0
1070
0
1070
0
1040
0.0
1040
0.0
1040
0.0
1040
0.1
1040
0.1
1040
0.1
1040
0.1
1070
0
1002
{
1002
}
1002
}
  0
CIRCLE
  8
holes_0.8mm
 10
15.789
 20
-31.6
 30
0.0
 40
0.4
  0
CIRCLE
  8
holes_0.8mm
 10
15.789
 20
-70.6
 30
0.0
 40
0.4
  0
CIRCLE
  8
holes_0.8mm
 10
16.389
 20
-34.1
 30
0.0
 40
0.4
  0
CIRCLE
  8
holes_0.8mm
 10
16.389
 20
-73.1
 30
0.0
 40
0.4
  0
CIRCLE
  8
holes_0.8mm
 10
25.054
 20
-28.51
 30
0.0
 40
0.4
  0
CIRCLE
  8
holes_0.8mm
 10
25.054
 20
-67.51
 30
0.0
 40
0.4
  0
CIRCLE
  8
holes_0.8mm
 10
25.089
 20
-26.7
 30
0.0
 40
0.4
  0
CIRCLE
  8
holes_0.8mm
 10
25.089
 20
-65.7
 30
0.0
 40
0.4
  0
CIRCLE
  8
holes_0.8mm
 10
25.294
 20
-38.805
 30
0.0
 40
0.4
  0
CIRCLE
  8
holes_0.8mm
 10
25.294
 20
-77.805
 30
0.0
 40
0.4
  0
CIRCLE
  8
holes_0.8mm
 10
31.989
 20
-46.7
 30
0.0
 40
0.4
  0
CIRCLE
  8
holes_0.8mm
 10
31.989
 20
-85.7
 30
0.0
 40
0.4
  0
CIRCLE
  8
holes_0.8mm
 10
62.063
 20
-31.6
 30
0.0
 40
0.4
  0
CIRCLE
  8
holes_0.8mm
 10
62.063
 20
-70.6
 30
0.0
 40
0.4
  0
CIRCLE
  8
holes_0.8mm
 10
62.663
 20
-34.1
 30
0.0
 40
0.4
  0
CIRCLE
  8
holes_0.8mm
 10
62.663
 20
-73.1
 30
0.0
 40
0.4
  0
CIRCLE
  8
holes_0.8mm
 10
71.328
 20
-28.51
 30
0.0
 40
0.4
  0
CIRCLE
  8
holes_0.8mm
 10
71.328
 20
-67.51
 30
0.0
 40
0.4
  0
CIRCLE
  8
holes_0.8mm
 10
71.363
 20
-26.7
 30
0.0
 40
0.4
  0
CIRCLE
  8
holes_0.8mm
 10
71.363
 20
-65.7
 30
0.0
 40
0.4
  0
CIRCLE
  8
holes_0.8mm
 10
71.569
 20
-38.805
 30
0.0
 40
0.4
  0
CIRCLE
  8
holes_0.8mm
 10
71.569
 20
-77.805
 30
0.0
 40
0.4
  0
CIRCLE
  8
holes_0.8mm
 10
78.263
 20
-46.7
 30
0.0
 40
0.4
  0
CIRCLE
  8
holes_0.8mm
 10
78.263
 20
-85.7
 30
0.0
 40
0.4
  0
CIRCLE
  8
holes_0.8mm
 10
108.337
 20
-31.6
 30
0.0
 40
0.4
  0
CIRCLE
  8
holes_0.8mm
 10
108.337
 20
-70.6
 30
0.0
 40
0.4
  0
CIRCLE
  8
holes_0.8mm
 10
108.937
 20
-34.1
 30
0.0
 40
0.4
  0
CIRCLE
  8
holes_0.8mm
 10
108.937
 20
-73.1
 30
0.0
 40
0.4
  0
CIRCLE
  8
holes_0.8mm
 10
117.602
 20
-28.51
 30
0.0
 40
0.4
  0
CIRCLE
  8
holes_0.8mm
 10
117.602
 20
-67.51
 30
0.0
 40
0.4
  0
CIRCLE
  8
holes_0.8mm
 10
117.637
 20
-26.7
 30
0.0
 40
0.4
  0
CIRCLE
  8
holes_0.8mm
 10
117.637
 20
-65.7
 30
0.0
 40
0.4
  0
CIRCLE
  8
holes_0.8mm
 10
117.843
 20
-38.805
 30
0.0
 40
0.4
  0
CIRCLE
  8
holes_0.8mm
 10
117.843
 20
-77.805
 30
0.0
 40
0.4
  0
CIRCLE
  8
holes_0.8mm
 10
124.537
 20
-46.7
 30
0.0
 40
0.4
  0
CIRCLE
  8
holes_0.8mm
 10
124.537
 20
-85.7
 30
0.0
 40
0.4
  0
CIRCLE
  8
holes_0.8mm
 10
154.612
 20
-31.6
 30
0.0
 40
0.4
  0
CIRCLE
  8
holes_0.8mm
 10
154.612
 20
-70.6
 30
0.0
 40
0.4
  0
CIRCLE
  8
holes_0.8mm
 10
155.212
 20
-34.1
 30
0.0
 40
0.4
  0
CIRCLE
  8
holes_0.8mm
 10
155.212
 20
-73.1
 30
0.0
 40
0.4
  0
CIRCLE
  8
holes_0.8mm
 10
163.877
 20
-28.51
 30
0.0
 40
0.4
  0
CIRCLE
  8
holes_0.8mm
 10
163.877
 20
-67.51
 30
0.0
 40
0.4
  0
CIRCLE
  8
holes_0.8mm
 10
163.912
 20
-26.7
 30
0.0
 40
0.4
  0
CIRCLE
  8
holes_0.8mm
 10
163.912
 20
-65.7
 30
0.0
 40
0.4
  0
CIRCLE
  8
holes_0.8mm
 10
164.117
 20
-38.805
 30
0.0
 40
0.4
  0
CIRCLE
  8
holes_0.8mm
 10
164.117
 20
-77.805
 30
0.0
 40
0.4
  0
CIRCLE
  8
holes_0.8mm
 10
170.812
 20
-46.7
 30
0.0
 40
0.4
  0
CIRCLE
  8
holes_0.8mm
 10
170.812
 20
-85.7
 30
0.0
 40
0.4
  0
CIRCLE
  8
holes_0.8mm
 10
10.589
 20
-26.7
 30
0.0
 40
0.4
  0
CIRCLE
  8
holes_0.8mm
 10
10.589
 20
-34.32
 30
0.0
 40
0.4
  0
CIRCLE
  8
holes_0.8mm
 10
10.589
 20
-65.7
 30
0.0
 40
0.4
  0
CIRCLE
  8
holes_0.8mm
 10
10.589
 20
-73.32
 30
0.0
 40
0.4
  0
CIRCLE
  8
holes_0.8mm
 10
13.129
 20
-26.7
 30
0.0
 40
0.4
  0
CIRCLE
  8
holes_0.8mm
 10
13.129
 20
-34.32
 30
0.0
 40
0.4
  0
CIRCLE
  8
holes_0.8mm
 10
13.129
 20
-65.7
 30
0.0
 40
0.4
  0
CIRCLE
  8
holes_0.8mm
 10
13.129
 20
-73.32
 30
0.0
 40
0.4
  0
CIRCLE
  8
holes_0.8mm
 10
17.789
 20
-26.7
 30
0.0
 40
0.4
  0
CIRCLE
  8
holes_0.8mm
 10
17.789
 20
-65.7
 30
0.0
 40
0.4
  0
CIRCLE
  8
holes_0.8mm
 10
17.989
 20
-39.48
 30
0.0
 40
0.4
  0
CIRCLE
  8
holes_0.8mm
 10
17.989
 20
-47.1
 30
0.0
 40
0.4
  0
CIRCLE
  8
holes_0.8mm
 10
17.989
 20
-78.48
 30
0.0
 40
0.4
  0
CIRCLE
  8
holes_0.8mm
 10
17.989
 20
-86.1
 30
0.0
 40
0.4
  0
CIRCLE
  8
holes_0.8mm
 10
20.289
 20
-26.7
 30
0.0
 40
0.4
  0
CIRCLE
  8
holes_0.8mm
 10
20.289
 20
-65.7
 30
0.0
 40
0.4
  0
CIRCLE
  8
holes_0.8mm
 10
20.529
 20
-39.48
 30
0.0
 40
0.4
  0
CIRCLE
  8
holes_0.8mm
 10
20.529
 20
-47.1
 30
0.0
 40
0.4
  0
CIRCLE
  8
holes_0.8mm
 10
20.529
 20
-78.48
 30
0.0
 40
0.4
  0
CIRCLE
  8
holes_0.8mm
 10
20.529
 20
-86.1
 30
0.0
 40
0.4
  0
CIRCLE
  8
holes_0.8mm
 10
33.389
 20
-23.9
 30
0.0
 40
0.4
  0
CIRCLE
  8
holes_0.8mm
 10
33.389
 20
-39.14
 30
0.0
 40
0.4
  0
CIRCLE
  8
holes_0.8mm
 10
33.389
 20
-62.9
 30
0.0
 40
0.4
  0
CIRCLE
  8
holes_0.8mm
 10
33.389
 20
-78.14
 30
0.0
 40
0.4
  0
CIRCLE
  8
holes_0.8mm
 10
36.789
 20
-40.4
 30
0.0
 40
0.4
  0
CIRCLE
  8
holes_0.8mm
 10
36.789
 20
-79.4
 30
0.0
 40
0.4
  0
CIRCLE
  8
holes_0.8mm
 10
39.329
 20
-40.4
 30
0.0
 40
0.4
  0
CIRCLE
  8
holes_0.8mm
 10
39.329
 20
-79.4
 30
0.0
 40
0.4
  0
CIRCLE
  8
holes_0.8mm
 10
56.863
 20
-26.7
 30
0.0
 40
0.4
  0
CIRCLE
  8
holes_0.8mm
 10
56.863
 20
-34.32
 30
0.0
 40
0.4
  0
CIRCLE
  8
holes_0.8mm
 10
56.863
 20
-65.7
 30
0.0
 40
0.4
  0
CIRCLE
  8
holes_0.8mm
 10
56.863
 20
-73.32
 30
0.0
 40
0.4
  0
CIRCLE
  8
holes_0.8mm
 10
59.403
 20
-26.7
 30
0.0
 40
0.4
  0
CIRCLE
  8
holes_0.8mm
 10
59.403
 20
-34.32
 30
0.0
 40
0.4
  0
CIRCLE
  8
holes_0.8mm
 10
59.403
 20
-65.7
 30
0.0
 40
0.4
  0
CIRCLE
  8
holes_0.8mm
 10
59.403
 20
-73.32
 30
0.0
 40
0.4
  0
CIRCLE
  8
holes_0.8mm
 10
64.063
 20
-26.7
 30
0.0
 40
0.4
  0
CIRCLE
  8
holes_0.8mm
 10
64.063
 20
-65.7
 30
0.0
 40
0.4
  0
CIRCLE
  8
holes_0.8mm
 10
64.263
 20
-39.48
 30
0.0
 40
0.4
  0
CIRCLE
  8
holes_0.8mm
 10
64.263
 20
-47.1
 30
0.0
 40
0.4
  0
CIRCLE
  8
holes_0.8mm
 10
64.263
 20
-78.48
 30
0.0
 40
0.4
  0
CIRCLE
  8
holes_0.8mm
 10
64.263
 20
-86.1
 30
0.0
 40
0.4
  0
CIRCLE
  8
holes_0.8mm
 10
66.563
 20
-26.7
 30
0.0
 40
0.4
  0
CIRCLE
  8
holes_0.8mm
 10
66.563
 20
-65.7
 30
0.0
 40
0.4
  0
CIRCLE
  8
holes_0.8mm
 10
66.803
 20
-39.48
 30
0.0
 40
0.4
  0
CIRCLE
  8
holes_0.8mm
 10
66.803
 20
-47.1
 30
0.0
 40
0.4
  0
CIRCLE
  8
holes_0.8mm
 10
66.803
 20
-78.48
 30
0.0
 40
0.4
  0
CIRCLE
  8
holes_0.8mm
 10
66.803
 20
-86.1
 30
0.0
 40
0.4
  0
CIRCLE
  8
holes_0.8mm
 10
79.663
 20
-23.9
 30
0.0
 40
0.4
  0
CIRCLE
  8
holes_0.8mm
 10
79.663
 20
-39.14
 30
0.0
 40
0.4
  0
CIRCLE
  8
holes_0.8mm
 10
79.663
 20
-62.9
 30
0.0
 40
0.4
  0
CIRCLE
  8
holes_0.8mm
 10
79.663
 20
-78.14
 30
0.0
 40
0.4
  0
CIRCLE
  8
holes_0.8mm
 10
83.063
 20
-40.4
 30
0.0
 40
0.4
  0
CIRCLE
  8
holes_0.8mm
 10
83.063
 20
-79.4
 30
0.0
 40
0.4
  0
CIRCLE
  8
holes_0.8mm
 10
85.603
 20
-40.4
 30
0.0
 40
0.4
  0
CIRCLE
  8
holes_0.8mm
 10
85.603
 20
-79.4
 30
0.0
 40
0.4
  0
CIRCLE
  8
holes_0.8mm
 10
103.137
 20
-26.7
 30
0.0
 40
0.4
  0
CIRCLE
  8
holes_0.8mm
 10
103.137
 20
-34.32
 30
0.0
 40
0.4
  0
CIRCLE
  8
holes_0.8mm
 10
103.137
 20
-65.7
 30
0.0
 40
0.4
  0
CIRCLE
  8
holes_0.8mm
 10
103.137
 20
-73.32
 30
0.0
 40
0.4
  0
CIRCLE
  8
holes_0.8mm
 10
105.677
 20
-26.7
 30
0.0
 40
0.4
  0
CIRCLE
  8
holes_0.8mm
 10
105.677
 20
-34.32
 30
0.0
 40
0.4
  0
CIRCLE
  8
holes_0.8mm
 10
105.677
 20
-65.7
 30
0.0
 40
0.4
  0
CIRCLE
  8
holes_0.8mm
 10
105.677
 20
-73.32
 30
0.0
 40
0.4
  0
CIRCLE
  8
holes_0.8mm
 10
110.337
 20
-26.7
 30
0.0
 40
0.4
  0
CIRCLE
  8
holes_0.8mm
 10
110.337
 20
-65.7
 30
0.0
 40
0.4
  0
CIRCLE
  8
holes_0.8mm
 10
110.537
 20
-39.48
 30
0.0
 40
0.4
  0
CIRCLE
  8
holes_0.8mm
 10
110.537
 20
-47.1
 30
0.0
 40
0.4
  0
CIRCLE
  8
holes_0.8mm
 10
110.537
 20
-78.48
 30
0.0
 40
0.4
  0
CIRCLE
  8
holes_0.8mm
 10
110.537
 20
-86.1
 30
0.0
 40
0.4
  0
CIRCLE
  8
holes_0.8mm
 10
112.837
 20
-26.7
 30
0.0
 40
0.4
  0
CIRCLE
  8
holes_0.8mm
 10
112.837
 20
-65.7
 30
0.0
 40
0.4
  0
CIRCLE
  8
holes_0.8mm
 10
113.077
 20
-39.48
 30
0.0
 40
0.4
  0
CIRCLE
  8
holes_0.8mm
 10
113.077
 20
-47.1
 30
0.0
 40
0.4
  0
CIRCLE
  8
holes_0.8mm
 10
113.077
 20
-78.48
 30
0.0
 40
0.4
  0
CIRCLE
  8
holes_0.8mm
 10
113.077
 20
-86.1
 30
0.0
 40
0.4
  0
CIRCLE
  8
holes_0.8mm
 10
125.937
 20
-23.9
 30
0.0
 40
0.4
  0
CIRCLE
  8
holes_0.8mm
 10
125.937
 20
-39.14
 30
0.0
 40
0.4
  0
CIRCLE
  8
holes_0.8mm
 10
125.937
 20
-62.9
 30
0.0
 40
0.4
  0
CIRCLE
  8
holes_0.8mm
 10
125.937
 20
-78.14
 30
0.0
 40
0.4
  0
CIRCLE
  8
holes_0.8mm
 10
129.337
 20
-40.4
 30
0.0
 40
0.4
  0
CIRCLE
  8
holes_0.8mm
 10
129.337
 20
-79.4
 30
0.0
 40
0.4
  0
CIRCLE
  8
holes_0.8mm
 10
131.877
 20
-40.4
 30
0.0
 40
0.4
  0
CIRCLE
  8
holes_0.8mm
 10
131.877
 20
-79.4
 30
0.0
 40
0.4
  0
CIRCLE
  8
holes_0.8mm
 10
149.412
 20
-26.7
 30
0.0
 40
0.4
  0
CIRCLE
  8
holes_0.8mm
 10
149.412
 20
-34.32
 30
0.0
 40
0.4
  0
CIRCLE
  8
holes_0.8mm
 10
149.412
 20
-65.7
 30
0.0
 40
0.4
  0
CIRCLE
  8
holes_0.8mm
 10
149.412
 20
-73.32
 30
0.0
 40
0.4
  0
CIRCLE
  8
holes_0.8mm
 10
151.952
 20
-26.7
 30
0.0
 40
0.4
  0
CIRCLE
  8
holes_0.8mm
 10
151.952
 20
-34.32
 30
0.0
 40
0.4
  0
CIRCLE
  8
holes_0.8mm
 10
151.952
 20
-65.7
 30
0.0
 40
0.4
  0
CIRCLE
  8
holes_0.8mm
 10
151.952
 20
-73.32
 30
0.0
 40
0.4
  0
CIRCLE
  8
holes_0.8mm
 10
156.612
 20
-26.7
 30
0.0
 40
0.4
  0
CIRCLE
  8
holes_0.8mm
 10
156.612
 20
-65.7
 30
0.0
 40
0.4
  0
CIRCLE
  8
holes_0.8mm
 10
156.812
 20
-39.48
 30
0.0
 40
0.4
  0
CIRCLE
  8
holes_0.8mm
 10
156.812
 20
-47.1
 30
0.0
 40
0.4
  0
CIRCLE
  8
holes_0.8mm
 10
156.812
 20
-78.48
 30
0.0
 40
0.4
  0
CIRCLE
  8
holes_0.8mm
 10
156.812
 20
-86.1
 30
0.0
 40
0.4
  0
CIRCLE
  8
holes_0.8mm
 10
159.112
 20
-26.7
 30
0.0
 40
0.4
  0
CIRCLE
  8
holes_0.8mm
 10
159.112
 20
-65.7
 30
0.0
 40
0.4
  0
CIRCLE
  8
holes_0.8mm
 10
159.352
 20
-39.48
 30
0.0
 40
0.4
  0
CIRCLE
  8
holes_0.8mm
 10
159.352
 20
-47.1
 30
0.0
 40
0.4
  0
CIRCLE
  8
holes_0.8mm
 10
159.352
 20
-78.48
 30
0.0
 40
0.4
  0
CIRCLE
  8
holes_0.8mm
 10
159.352
 20
-86.1
 30
0.0
 40
0.4
  0
CIRCLE
  8
holes_0.8mm
 10
172.212
 20
-23.9
 30
0.0
 40
0.4
  0
CIRCLE
  8
holes_0.8mm
 10
172.212
 20
-39.14
 30
0.0
 40
0.4
  0
CIRCLE
  8
holes_0.8mm
 10
172.212
 20
-62.9
 30
0.0
 40
0.4
  0
CIRCLE
  8
holes_0.8mm
 10
172.212
 20
-78.14
 30
0.0
 40
0.4
  0
CIRCLE
  8
holes_0.8mm
 10
175.612
 20
-40.4
 30
0.0
 40
0.4
  0
CIRCLE
  8
holes_0.8mm
 10
175.612
 20
-79.4
 30
0.0
 40
0.4
  0
CIRCLE
  8
holes_0.8mm
 10
178.152
 20
-40.4
 30
0.0
 40
0.4
  0
CIRCLE
  8
holes_0.8mm
 10
178.152
 20
-79.4
 30
0.0
 40
0.4
  0
CIRCLE
  8
holes_0.9mm
 10
16.109
 20
-36.6
 30
0.0
 40
0.45
  0
CIRCLE
  8
holes_0.9mm
 10
16.109
 20
-75.6
 30
0.0
 40
0.45
  0
CIRCLE
  8
holes_0.9mm
 10
18.649
 20
-36.6
 30
0.0
 40
0.45
  0
CIRCLE
  8
holes_0.9mm
 10
18.649
 20
-75.6
 30
0.0
 40
0.45
  0
CIRCLE
  8
holes_0.9mm
 10
21.189
 20
-36.6
 30
0.0
 40
0.45
  0
CIRCLE
  8
holes_0.9mm
 10
21.189
 20
-75.6
 30
0.0
 40
0.45
  0
CIRCLE
  8
holes_0.9mm
 10
23.729
 20
-36.6
 30
0.0
 40
0.45
  0
CIRCLE
  8
holes_0.9mm
 10
23.729
 20
-75.6
 30
0.0
 40
0.45
  0
CIRCLE
  8
holes_0.9mm
 10
62.383
 20
-36.6
 30
0.0
 40
0.45
  0
CIRCLE
  8
holes_0.9mm
 10
62.383
 20
-75.6
 30
0.0
 40
0.45
  0
CIRCLE
  8
holes_0.9mm
 10
64.923
 20
-36.6
 30
0.0
 40
0.45
  0
CIRCLE
  8
holes_0.9mm
 10
64.923
 20
-75.6
 30
0.0
 40
0.45
  0
CIRCLE
  8
holes_0.9mm
 10
67.463
 20
-36.6
 30
0.0
 40
0.45
  0
CIRCLE
  8
holes_0.9mm
 10
67.463
 20
-75.6
 30
0.0
 40
0.45
  0
CIRCLE
  8
holes_0.9mm
 10
70.003
 20
-36.6
 30
0.0
 40
0.45
  0
CIRCLE
  8
holes_0.9mm
 10
70.003
 20
-75.6
 30
0.0
 40
0.45
  0
CIRCLE
  8
holes_0.9mm
 10
108.657
 20
-36.6
 30
0.0
 40
0.45
  0
CIRCLE
  8
holes_0.9mm
 10
108.657
 20
-75.6
 30
0.0
 40
0.45
  0
CIRCLE
  8
holes_0.9mm
 10
111.197
 20
-36.6
 30
0.0
 40
0.45
  0
CIRCLE
  8
holes_0.9mm
 10
111.197
 20
-75.6
 30
0.0
 40
0.45
  0
CIRCLE
  8
holes_0.9mm
 10
113.737
 20
-36.6
 30
0.0
 40
0.45
  0
CIRCLE
  8
holes_0.9mm
 10
113.737
 20
-75.6
 30
0.0
 40
0.45
  0
CIRCLE
  8
holes_0.9mm
 10
116.277
 20
-36.6
 30
0.0
 40
0.45
  0
CIRCLE
  8
holes_0.9mm
 10
116.277
 20
-75.6
 30
0.0
 40
0.45
  0
CIRCLE
  8
holes_0.9mm
 10
154.932
 20
-36.6
 30
0.0
 40
0.45
  0
CIRCLE
  8
holes_0.9mm
 10
154.932
 20
-75.6
 30
0.0
 40
0.45
  0
CIRCLE
  8
holes_0.9mm
 10
157.472
 20
-36.6
 30
0.0
 40
0.45
  0
CIRCLE
  8
holes_0.9mm
 10
157.472
 20
-75.6
 30
0.0
 40
0.45
  0
CIRCLE
  8
holes_0.9mm
 10
160.012
 20
-36.6
 30
0.0
 40
0.45
  0
CIRCLE
  8
holes_0.9mm
 10
160.012
 20
-75.6
 30
0.0
 40
0.45
  0
CIRCLE
  8
holes_0.9mm
 10
162.552
 20
-36.6
 30
0.0
 40
0.45
  0
CIRCLE
  8
holes_0.9mm
 10
162.552
 20
-75.6
 30
0.0
 40
0.45
  0
CIRCLE
  8
holes_1.0mm
 10
15.489
 20
-15.3
 30
0.0
 40
0.5
  0
CIRCLE
  8
holes_1.0mm
 10
15.489
 20
-54.3
 30
0.0
 40
0.5
  0
CIRCLE
  8
holes_1.0mm
 10
22.989
 20
-15.3
 30
0.0
 40
0.5
  0
CIRCLE
  8
holes_1.0mm
 10
22.989
 20
-54.3
 30
0.0
 40
0.5
  0
CIRCLE
  8
holes_1.0mm
 10
61.763
 20
-15.3
 30
0.0
 40
0.5
  0
CIRCLE
  8
holes_1.0mm
 10
61.763
 20
-54.3
 30
0.0
 40
0.5
  0
CIRCLE
  8
holes_1.0mm
 10
69.263
 20
-15.3
 30
0.0
 40
0.5
  0
CIRCLE
  8
holes_1.0mm
 10
69.263
 20
-54.3
 30
0.0
 40
0.5
  0
CIRCLE
  8
holes_1.0mm
 10
108.037
 20
-15.3
 30
0.0
 40
0.5
  0
CIRCLE
  8
holes_1.0mm
 10
108.037
 20
-54.3
 30
0.0
 40
0.5
  0
CIRCLE
  8
holes_1.0mm
 10
115.537
 20
-15.3
 30
0.0
 40
0.5
  0
CIRCLE
  8
holes_1.0mm
 10
115.537
 20
-54.3
 30
0.0
 40
0.5
  0
CIRCLE
  8
holes_1.0mm
 10
154.312
 20
-15.3
 30
0.0
 40
0.5
  0
CIRCLE
  8
holes_1.0mm
 10
154.312
 20
-54.3
 30
0.0
 40
0.5
  0
CIRCLE
  8
holes_1.0mm
 10
161.812
 20
-15.3
 30
0.0
 40
0.5
  0
CIRCLE
  8
holes_1.0mm
 10
161.812
 20
-54.3
 30
0.0
 40
0.5
  0
CIRCLE
  8
holes_1.1mm
 10
43.189
 20
-27.96
 30
0.0
 40
0.55
  0
CIRCLE
  8
holes_1.1mm
 10
43.189
 20
-33.04
 30
0.0
 40
0.55
  0
CIRCLE
  8
holes_1.1mm
 10
43.189
 20
-66.96
 30
0.0
 40
0.55
  0
CIRCLE
  8
holes_1.1mm
 10
43.189
 20
-72.04
 30
0.0
 40
0.55
  0
CIRCLE
  8
holes_1.1mm
 10
89.463
 20
-27.96
 30
0.0
 40
0.55
  0
CIRCLE
  8
holes_1.1mm
 10
89.463
 20
-33.04
 30
0.0
 40
0.55
  0
CIRCLE
  8
holes_1.1mm
 10
89.463
 20
-66.96
 30
0.0
 40
0.55
  0
CIRCLE
  8
holes_1.1mm
 10
89.463
 20
-72.04
 30
0.0
 40
0.55
  0
CIRCLE
  8
holes_1.1mm
 10
135.737
 20
-27.96
 30
0.0
 40
0.55
  0
CIRCLE
  8
holes_1.1mm
 10
135.737
 20
-33.04
 30
0.0
 40
0.55
  0
CIRCLE
  8
holes_1.1mm
 10
135.737
 20
-66.96
 30
0.0
 40
0.55
  0
CIRCLE
  8
holes_1.1mm
 10
135.737
 20
-72.04
 30
0.0
 40
0.55
  0
CIRCLE
  8
holes_1.1mm
 10
182.012
 20
-27.96
 30
0.0
 40
0.55
  0
CIRCLE
  8
holes_1.1mm
 10
182.012
 20
-33.04
 30
0.0
 40
0.55
  0
CIRCLE
  8
holes_1.1mm
 10
182.012
 20
-66.96
 30
0.0
 40
0.55
  0
CIRCLE
  8
holes_1.1mm
 10
182.012
 20
-72.04
 30
0.0
 40
0.55
  0
CIRCLE
  8
holes_1.2mm
 10
24.689
 20
-44.8
 30
0.0
 40
0.6
  0
CIRCLE
  8
holes_1.2mm
 10
24.689
 20
-83.8
 30
0.0
 40
0.6
  0
CIRCLE
  8
holes_1.2mm
 10
28.189
 20
-44.8
 30
0.0
 40
0.6
  0
CIRCLE
  8
holes_1.2mm
 10
28.189
 20
-83.8
 30
0.0
 40
0.6
  0
CIRCLE
  8
holes_1.2mm
 10
30.589
 20
-23.7
 30
0.0
 40
0.6
  0
CIRCLE
  8
holes_1.2mm
 10
30.589
 20
-38.7
 30
0.0
 40
0.6
  0
CIRCLE
  8
holes_1.2mm
 10
30.589
 20
-62.7
 30
0.0
 40
0.6
  0
CIRCLE
  8
holes_1.2mm
 10
30.589
 20
-77.7
 30
0.0
 40
0.6
  0
CIRCLE
  8
holes_1.2mm
 10
36.389
 20
-34.25
 30
0.0
 40
0.6
  0
CIRCLE
  8
holes_1.2mm
 10
36.389
 20
-73.25
 30
0.0
 40
0.6
  0
CIRCLE
  8
holes_1.2mm
 10
38.789
 20
-26.75
 30
0.0
 40
0.6
  0
CIRCLE
  8
holes_1.2mm
 10
38.789
 20
-65.75
 30
0.0
 40
0.6
  0
CIRCLE
  8
holes_1.2mm
 10
70.963
 20
-44.8
 30
0.0
 40
0.6
  0
CIRCLE
  8
holes_1.2mm
 10
70.963
 20
-83.8
 30
0.0
 40
0.6
  0
CIRCLE
  8
holes_1.2mm
 10
74.463
 20
-44.8
 30
0.0
 40
0.6
  0
CIRCLE
  8
holes_1.2mm
 10
74.463
 20
-83.8
 30
0.0
 40
0.6
  0
CIRCLE
  8
holes_1.2mm
 10
76.863
 20
-23.7
 30
0.0
 40
0.6
  0
CIRCLE
  8
holes_1.2mm
 10
76.863
 20
-38.7
 30
0.0
 40
0.6
  0
CIRCLE
  8
holes_1.2mm
 10
76.863
 20
-62.7
 30
0.0
 40
0.6
  0
CIRCLE
  8
holes_1.2mm
 10
76.863
 20
-77.7
 30
0.0
 40
0.6
  0
CIRCLE
  8
holes_1.2mm
 10
82.663
 20
-34.25
 30
0.0
 40
0.6
  0
CIRCLE
  8
holes_1.2mm
 10
82.663
 20
-73.25
 30
0.0
 40
0.6
  0
CIRCLE
  8
holes_1.2mm
 10
85.063
 20
-26.75
 30
0.0
 40
0.6
  0
CIRCLE
  8
holes_1.2mm
 10
85.063
 20
-65.75
 30
0.0
 40
0.6
  0
CIRCLE
  8
holes_1.2mm
 10
117.237
 20
-44.8
 30
0.0
 40
0.6
  0
CIRCLE
  8
holes_1.2mm
 10
117.237
 20
-83.8
 30
0.0
 40
0.6
  0
CIRCLE
  8
holes_1.2mm
 10
120.737
 20
-44.8
 30
0.0
 40
0.6
  0
CIRCLE
  8
holes_1.2mm
 10
120.737
 20
-83.8
 30
0.0
 40
0.6
  0
CIRCLE
  8
holes_1.2mm
 10
123.137
 20
-23.7
 30
0.0
 40
0.6
  0
CIRCLE
  8
holes_1.2mm
 10
123.137
 20
-38.7
 30
0.0
 40
0.6
  0
CIRCLE
  8
holes_1.2mm
 10
123.137
 20
-62.7
 30
0.0
 40
0.6
  0
CIRCLE
  8
holes_1.2mm
 10
123.137
 20
-77.7
 30
0.0
 40
0.6
  0
CIRCLE
  8
holes_1.2mm
 10
128.937
 20
-34.25
 30
0.0
 40
0.6
  0
CIRCLE
  8
holes_1.2mm
 10
128.937
 20
-73.25
 30
0.0
 40
0.6
  0
CIRCLE
  8
holes_1.2mm
 10
131.337
 20
-26.75
 30
0.0
 40
0.6
  0
CIRCLE
  8
holes_1.2mm
 10
131.337
 20
-65.75
 30
0.0
 40
0.6
  0
CIRCLE
  8
holes_1.2mm
 10
163.512
 20
-44.8
 30
0.0
 40
0.6
  0
CIRCLE
  8
holes_1.2mm
 10
163.512
 20
-83.8
 30
0.0
 40
0.6
  0
CIRCLE
  8
holes_1.2mm
 10
167.012
 20
-44.8
 30
0.0
 40
0.6
  0
CIRCLE
  8
holes_1.2mm
 10
167.012
 20
-83.8
 30
0.0
 40
0.6
  0
CIRCLE
  8
holes_1.2mm
 10
169.412
 20
-23.7
 30
0.0
 40
0.6
  0
CIRCLE
  8
holes_1.2mm
 10
169.412
 20
-38.7
 30
0.0
 40
0.6
  0
CIRCLE
  8
holes_1.2mm
 10
169.412
 20
-62.7
 30
0.0
 40
0.6
  0
CIRCLE
  8
holes_1.2mm
 10
169.412
 20
-77.7
 30
0.0
 40
0.6
  0
CIRCLE
  8
holes_1.2mm
 10
175.212
 20
-34.25
 30
0.0
 40
0.6
  0
CIRCLE
  8
holes_1.2mm
 10
175.212
 20
-73.25
 30
0.0
 40
0.6
  0
CIRCLE
  8
holes_1.2mm
 10
177.612
 20
-26.75
 30
0.0
 40
0.6
  0
CIRCLE
  8
holes_1.2mm
 10
177.612
 20
-65.75
 30
0.0
 40
0.6
  0
CIRCLE
  8
holes_1.3mm
 10
26.589
 20
-17.168
 30
0.0
 40
0.65
  0
CIRCLE
  8
holes_1.3mm
 10
26.589
 20
-56.167
 30
0.0
 40
0.65
  0
CIRCLE
  8
holes_1.3mm
 10
31.669
 20
-17.168
 30
0.0
 40
0.65
  0
CIRCLE
  8
holes_1.3mm
 10
31.669
 20
-56.167
 30
0.0
 40
0.65
  0
CIRCLE
  8
holes_1.3mm
 10
36.989
 20
-17.168
 30
0.0
 40
0.65
  0
CIRCLE
  8
holes_1.3mm
 10
36.989
 20
-56.167
 30
0.0
 40
0.65
  0
CIRCLE
  8
holes_1.3mm
 10
42.069
 20
-17.168
 30
0.0
 40
0.65
  0
CIRCLE
  8
holes_1.3mm
 10
42.069
 20
-56.167
 30
0.0
 40
0.65
  0
CIRCLE
  8
holes_1.3mm
 10
72.863
 20
-17.168
 30
0.0
 40
0.65
  0
CIRCLE
  8
holes_1.3mm
 10
72.863
 20
-56.167
 30
0.0
 40
0.65
  0
CIRCLE
  8
holes_1.3mm
 10
77.943
 20
-17.168
 30
0.0
 40
0.65
  0
CIRCLE
  8
holes_1.3mm
 10
77.943
 20
-56.167
 30
0.0
 40
0.65
  0
CIRCLE
  8
holes_1.3mm
 10
83.263
 20
-17.168
 30
0.0
 40
0.65
  0
CIRCLE
  8
holes_1.3mm
 10
83.263
 20
-56.167
 30
0.0
 40
0.65
  0
CIRCLE
  8
holes_1.3mm
 10
88.343
 20
-17.168
 30
0.0
 40
0.65
  0
CIRCLE
  8
holes_1.3mm
 10
88.343
 20
-56.167
 30
0.0
 40
0.65
  0
CIRCLE
  8
holes_1.3mm
 10
119.137
 20
-17.168
 30
0.0
 40
0.65
  0
CIRCLE
  8
holes_1.3mm
 10
119.137
 20
-56.167
 30
0.0
 40
0.65
  0
CIRCLE
  8
holes_1.3mm
 10
124.217
 20
-17.168
 30
0.0
 40
0.65
  0
CIRCLE
  8
holes_1.3mm
 10
124.217
 20
-56.167
 30
0.0
 40
0.65
  0
CIRCLE
  8
holes_1.3mm
 10
129.537
 20
-17.168
 30
0.0
 40
0.65
  0
CIRCLE
  8
holes_1.3mm
 10
129.537
 20
-56.167
 30
0.0
 40
0.65
  0
CIRCLE
  8
holes_1.3mm
 10
134.617
 20
-17.168
 30
0.0
 40
0.65
  0
CIRCLE
  8
holes_1.3mm
 10
134.617
 20
-56.167
 30
0.0
 40
0.65
  0
CIRCLE
  8
holes_1.3mm
 10
165.412
 20
-17.168
 30
0.0
 40
0.65
  0
CIRCLE
  8
holes_1.3mm
 10
165.412
 20
-56.167
 30
0.0
 40
0.65
  0
CIRCLE
  8
holes_1.3mm
 10
170.492
 20
-17.168
 30
0.0
 40
0.65
  0
CIRCLE
  8
holes_1.3mm
 10
170.492
 20
-56.167
 30
0.0
 40
0.65
  0
CIRCLE
  8
holes_1.3mm
 10
175.812
 20
-17.168
 30
0.0
 40
0.65
  0
CIRCLE
  8
holes_1.3mm
 10
175.812
 20
-56.167
 30
0.0
 40
0.65
  0
CIRCLE
  8
holes_1.3mm
 10
180.892
 20
-17.168
 30
0.0
 40
0.65
  0
CIRCLE
  8
holes_1.3mm
 10
180.892
 20
-56.167
 30
0.0
 40
0.65
  0
CIRCLE
  8
holes_1.5mm
 10
43.189
 20
-25.05
 30
0.0
 40
0.75
  0
CIRCLE
  8
holes_1.5mm
 10
43.189
 20
-30.5
 30
0.0
 40
0.75
  0
CIRCLE
  8
holes_1.5mm
 10
43.189
 20
-35.95
 30
0.0
 40
0.75
  0
CIRCLE
  8
holes_1.5mm
 10
43.189
 20
-64.05
 30
0.0
 40
0.75
  0
CIRCLE
  8
holes_1.5mm
 10
43.189
 20
-69.5
 30
0.0
 40
0.75
  0
CIRCLE
  8
holes_1.5mm
 10
43.189
 20
-74.95
 30
0.0
 40
0.75
  0
CIRCLE
  8
holes_1.5mm
 10
89.463
 20
-25.05
 30
0.0
 40
0.75
  0
CIRCLE
  8
holes_1.5mm
 10
89.463
 20
-30.5
 30
0.0
 40
0.75
  0
CIRCLE
  8
holes_1.5mm
 10
89.463
 20
-35.95
 30
0.0
 40
0.75
  0
CIRCLE
  8
holes_1.5mm
 10
89.463
 20
-64.05
 30
0.0
 40
0.75
  0
CIRCLE
  8
holes_1.5mm
 10
89.463
 20
-69.5
 30
0.0
 40
0.75
  0
CIRCLE
  8
holes_1.5mm
 10
89.463
 20
-74.95
 30
0.0
 40
0.75
  0
CIRCLE
  8
holes_1.5mm
 10
135.737
 20
-25.05
 30
0.0
 40
0.75
  0
CIRCLE
  8
holes_1.5mm
 10
135.737
 20
-30.5
 30
0.0
 40
0.75
  0
CIRCLE
  8
holes_1.5mm
 10
135.737
 20
-35.95
 30
0.0
 40
0.75
  0
CIRCLE
  8
holes_1.5mm
 10
135.737
 20
-64.05
 30
0.0
 40
0.75
  0
CIRCLE
  8
holes_1.5mm
 10
135.737
 20
-69.5
 30
0.0
 40
0.75
  0
CIRCLE
  8
holes_1.5mm
 10
135.737
 20
-74.95
 30
0.0
 40
0.75
  0
CIRCLE
  8
holes_1.5mm
 10
182.012
 20
-25.05
 30
0.0
 40
0.75
  0
CIRCLE
  8
holes_1.5mm
 10
182.012
 20
-30.5
 30
0.0
 40
0.75
  0
CIRCLE
  8
holes_1.5mm
 10
182.012
 20
-35.95
 30
0.0
 40
0.75
  0
CIRCLE
  8
holes_1.5mm
 10
182.012
 20
-64.05
 30
0.0
 40
0.75
  0
CIRCLE
  8
holes_1.5mm
 10
182.012
 20
-69.5
 30
0.0
 40
0.75
  0
CIRCLE
  8
holes_1.5mm
 10
182.012
 20
-74.95
 30
0.0
 40
0.75
  0
CIRCLE
  8
holes_0.8mm
 10
8.852
 20
-33.501
 30
0.0
 40
0.4
  0
CIRCLE
  8
holes_0.8mm
 10
8.852
 20
-72.501
 30
0.0
 40
0.4
  0
CIRCLE
  8
holes_0.8mm
 10
8.852
 20
-32.001
 30
0.0
 40
0.4
  0
CIRCLE
  8
holes_0.8mm
 10
8.852
 20
-71.001
 30
0.0
 40
0.4
  0
CIRCLE
  8
holes_0.8mm
 10
8.852
 20
-30.5
 30
0.0
 40
0.4
  0
CIRCLE
  8
holes_0.8mm
 10
8.852
 20
-69.5
 30
0.0
 40
0.4
  0
CIRCLE
  8
holes_0.8mm
 10
8.852
 20
-29.0
 30
0.0
 40
0.4
  0
CIRCLE
  8
holes_0.8mm
 10
8.852
 20
-68.0
 30
0.0
 40
0.4
  0
CIRCLE
  8
holes_0.8mm
 10
8.852
 20
-27.499
 30
0.0
 40
0.4
  0
CIRCLE
  8
holes_0.8mm
 10
8.852
 20
-66.499
 30
0.0
 40
0.4
  0
CIRCLE
  8
holes_0.8mm
 10
27.588
 20
-12.4
 30
0.0
 40
0.4
  0
CIRCLE
  8
holes_0.8mm
 10
27.588
 20
-48.6
 30
0.0
 40
0.4
  0
CIRCLE
  8
holes_0.8mm
 10
27.588
 20
-51.4
 30
0.0
 40
0.4
  0
CIRCLE
  8
holes_0.8mm
 10
27.588
 20
-87.6
 30
0.0
 40
0.4
  0
CIRCLE
  8
holes_0.8mm
 10
29.088
 20
-12.4
 30
0.0
 40
0.4
  0
CIRCLE
  8
holes_0.8mm
 10
29.088
 20
-48.6
 30
0.0
 40
0.4
  0
CIRCLE
  8
holes_0.8mm
 10
29.088
 20
-51.4
 30
0.0
 40
0.4
  0
CIRCLE
  8
holes_0.8mm
 10
29.088
 20
-87.6
 30
0.0
 40
0.4
  0
CIRCLE
  8
holes_0.8mm
 10
30.589
 20
-12.4
 30
0.0
 40
0.4
  0
CIRCLE
  8
holes_0.8mm
 10
30.589
 20
-48.6
 30
0.0
 40
0.4
  0
CIRCLE
  8
holes_0.8mm
 10
30.589
 20
-51.4
 30
0.0
 40
0.4
  0
CIRCLE
  8
holes_0.8mm
 10
30.589
 20
-87.6
 30
0.0
 40
0.4
  0
CIRCLE
  8
holes_0.8mm
 10
32.089
 20
-12.4
 30
0.0
 40
0.4
  0
CIRCLE
  8
holes_0.8mm
 10
32.089
 20
-48.6
 30
0.0
 40
0.4
  0
CIRCLE
  8
holes_0.8mm
 10
32.089
 20
-51.4
 30
0.0
 40
0.4
  0
CIRCLE
  8
holes_0.8mm
 10
32.089
 20
-87.6
 30
0.0
 40
0.4
  0
CIRCLE
  8
holes_0.8mm
 10
33.59
 20
-12.4
 30
0.0
 40
0.4
  0
CIRCLE
  8
holes_0.8mm
 10
33.59
 20
-48.6
 30
0.0
 40
0.4
  0
CIRCLE
  8
holes_0.8mm
 10
33.59
 20
-51.4
 30
0.0
 40
0.4
  0
CIRCLE
  8
holes_0.8mm
 10
33.59
 20
-87.6
 30
0.0
 40
0.4
  0
CIRCLE
  8
holes_0.8mm
 10
52.326
 20
-33.501
 30
0.0
 40
0.4
  0
CIRCLE
  8
holes_0.8mm
 10
52.326
 20
-72.501
 30
0.0
 40
0.4
  0
CIRCLE
  8
holes_0.8mm
 10
52.326
 20
-32.0
 30
0.0
 40
0.4
  0
CIRCLE
  8
holes_0.8mm
 10
52.326
 20
-71.0
 30
0.0
 40
0.4
  0
CIRCLE
  8
holes_0.8mm
 10
52.326
 20
-30.5
 30
0.0
 40
0.4
  0
CIRCLE
  8
holes_0.8mm
 10
52.326
 20
-69.5
 30
0.0
 40
0.4
  0
CIRCLE
  8
holes_0.8mm
 10
52.326
 20
-28.999
 30
0.0
 40
0.4
  0
CIRCLE
  8
holes_0.8mm
 10
52.326
 20
-67.999
 30
0.0
 40
0.4
  0
CIRCLE
  8
holes_0.8mm
 10
52.326
 20
-27.499
 30
0.0
 40
0.4
  0
CIRCLE
  8
holes_0.8mm
 10
52.326
 20
-66.499
 30
0.0
 40
0.4
  0
CIRCLE
  8
holes_0.8mm
 10
55.126
 20
-33.501
 30
0.0
 40
0.4
  0
CIRCLE
  8
holes_0.8mm
 10
55.126
 20
-72.501
 30
0.0
 40
0.4
  0
CIRCLE
  8
holes_0.8mm
 10
55.126
 20
-32.001
 30
0.0
 40
0.4
  0
CIRCLE
  8
holes_0.8mm
 10
55.126
 20
-71.001
 30
0.0
 40
0.4
  0
CIRCLE
  8
holes_0.8mm
 10
55.126
 20
-30.5
 30
0.0
 40
0.4
  0
CIRCLE
  8
holes_0.8mm
 10
55.126
 20
-69.5
 30
0.0
 40
0.4
  0
CIRCLE
  8
holes_0.8mm
 10
55.126
 20
-29.0
 30
0.0
 40
0.4
  0
CIRCLE
  8
holes_0.8mm
 10
55.126
 20
-68.0
 30
0.0
 40
0.4
  0
CIRCLE
  8
holes_0.8mm
 10
55.126
 20
-27.499
 30
0.0
 40
0.4
  0
CIRCLE
  8
holes_0.8mm
 10
55.126
 20
-66.499
 30
0.0
 40
0.4
  0
CIRCLE
  8
holes_0.8mm
 10
73.862
 20
-12.4
 30
0.0
 40
0.4
  0
CIRCLE
  8
holes_0.8mm
 10
73.862
 20
-48.6
 30
0.0
 40
0.4
  0
CIRCLE
  8
holes_0.8mm
 10
73.862
 20
-51.4
 30
0.0
 40
0.4
  0
CIRCLE
  8
holes_0.8mm
 10
73.862
 20
-87.6
 30
0.0
 40
0.4
  0
CIRCLE
  8
holes_0.8mm
 10
75.362
 20
-12.4
 30
0.0
 40
0.4
  0
CIRCLE
  8
holes_0.8mm
 10
75.362
 20
-48.6
 30
0.0
 40
0.4
  0
CIRCLE
  8
holes_0.8mm
 10
75.362
 20
-51.4
 30
0.0
 40
0.4
  0
CIRCLE
  8
holes_0.8mm
 10
75.362
 20
-87.6
 30
0.0
 40
0.4
  0
CIRCLE
  8
holes_0.8mm
 10
76.863
 20
-12.4
 30
0.0
 40
0.4
  0
CIRCLE
  8
holes_0.8mm
 10
76.863
 20
-48.6
 30
0.0
 40
0.4
  0
CIRCLE
  8
holes_0.8mm
 10
76.863
 20
-51.4
 30
0.0
 40
0.4
  0
CIRCLE
  8
holes_0.8mm
 10
76.863
 20
-87.6
 30
0.0
 40
0.4
  0
CIRCLE
  8
holes_0.8mm
 10
78.363
 20
-12.4
 30
0.0
 40
0.4
  0
CIRCLE
  8
holes_0.8mm
 10
78.363
 20
-48.6
 30
0.0
 40
0.4
  0
CIRCLE
  8
holes_0.8mm
 10
78.363
 20
-51.4
 30
0.0
 40
0.4
  0
CIRCLE
  8
holes_0.8mm
 10
78.363
 20
-87.6
 30
0.0
 40
0.4
  0
CIRCLE
  8
holes_0.8mm
 10
79.864
 20
-12.4
 30
0.0
 40
0.4
  0
CIRCLE
  8
holes_0.8mm
 10
79.864
 20
-48.6
 30
0.0
 40
0.4
  0
CIRCLE
  8
holes_0.8mm
 10
79.864
 20
-51.4
 30
0.0
 40
0.4
  0
CIRCLE
  8
holes_0.8mm
 10
79.864
 20
-87.6
 30
0.0
 40
0.4
  0
CIRCLE
  8
holes_0.8mm
 10
98.6
 20
-33.501
 30
0.0
 40
0.4
  0
CIRCLE
  8
holes_0.8mm
 10
98.6
 20
-72.501
 30
0.0
 40
0.4
  0
CIRCLE
  8
holes_0.8mm
 10
98.6
 20
-32.0
 30
0.0
 40
0.4
  0
CIRCLE
  8
holes_0.8mm
 10
98.6
 20
-71.0
 30
0.0
 40
0.4
  0
CIRCLE
  8
holes_0.8mm
 10
98.6
 20
-30.5
 30
0.0
 40
0.4
  0
CIRCLE
  8
holes_0.8mm
 10
98.6
 20
-69.5
 30
0.0
 40
0.4
  0
CIRCLE
  8
holes_0.8mm
 10
98.6
 20
-28.999
 30
0.0
 40
0.4
  0
CIRCLE
  8
holes_0.8mm
 10
98.6
 20
-67.999
 30
0.0
 40
0.4
  0
CIRCLE
  8
holes_0.8mm
 10
98.6
 20
-27.499
 30
0.0
 40
0.4
  0
CIRCLE
  8
holes_0.8mm
 10
98.6
 20
-66.499
 30
0.0
 40
0.4
  0
CIRCLE
  8
holes_0.8mm
 10
101.4
 20
-33.501
 30
0.0
 40
0.4
  0
CIRCLE
  8
holes_0.8mm
 10
101.4
 20
-72.501
 30
0.0
 40
0.4
  0
CIRCLE
  8
holes_0.8mm
 10
101.4
 20
-32.001
 30
0.0
 40
0.4
  0
CIRCLE
  8
holes_0.8mm
 10
101.4
 20
-71.001
 30
0.0
 40
0.4
  0
CIRCLE
  8
holes_0.8mm
 10
101.4
 20
-30.5
 30
0.0
 40
0.4
  0
CIRCLE
  8
holes_0.8mm
 10
101.4
 20
-69.5
 30
0.0
 40
0.4
  0
CIRCLE
  8
holes_0.8mm
 10
101.4
 20
-29.0
 30
0.0
 40
0.4
  0
CIRCLE
  8
holes_0.8mm
 10
101.4
 20
-68.0
 30
0.0
 40
0.4
  0
CIRCLE
  8
holes_0.8mm
 10
101.4
 20
-27.499
 30
0.0
 40
0.4
  0
CIRCLE
  8
holes_0.8mm
 10
101.4
 20
-66.499
 30
0.0
 40
0.4
  0
CIRCLE
  8
holes_0.8mm
 10
120.136
 20
-12.4
 30
0.0
 40
0.4
  0
CIRCLE
  8
holes_0.8mm
 10
120.136
 20
-48.6
 30
0.0
 40
0.4
  0
CIRCLE
  8
holes_0.8mm
 10
120.136
 20
-51.4
 30
0.0
 40
0.4
  0
CIRCLE
  8
holes_0.8mm
 10
120.136
 20
-87.6
 30
0.0
 40
0.4
  0
CIRCLE
  8
holes_0.8mm
 10
121.637
 20
-12.4
 30
0.0
 40
0.4
  0
CIRCLE
  8
holes_0.8mm
 10
121.637
 20
-48.6
 30
0.0
 40
0.4
  0
CIRCLE
  8
holes_0.8mm
 10
121.637
 20
-51.4
 30
0.0
 40
0.4
  0
CIRCLE
  8
holes_0.8mm
 10
121.637
 20
-87.6
 30
0.0
 40
0.4
  0
CIRCLE
  8
holes_0.8mm
 10
123.137
 20
-12.4
 30
0.0
 40
0.4
  0
CIRCLE
  8
holes_0.8mm
 10
123.137
 20
-48.6
 30
0.0
 40
0.4
  0
CIRCLE
  8
holes_0.8mm
 10
123.137
 20
-51.4
 30
0.0
 40
0.4
  0
CIRCLE
  8
holes_0.8mm
 10
123.137
 20
-87.6
 30
0.0
 40
0.4
  0
CIRCLE
  8
holes_0.8mm
 10
124.638
 20
-12.4
 30
0.0
 40
0.4
  0
CIRCLE
  8
holes_0.8mm
 10
124.638
 20
-48.6
 30
0.0
 40
0.4
  0
CIRCLE
  8
holes_0.8mm
 10
124.638
 20
-51.4
 30
0.0
 40
0.4
  0
CIRCLE
  8
holes_0.8mm
 10
124.638
 20
-87.6
 30
0.0
 40
0.4
  0
CIRCLE
  8
holes_0.8mm
 10
126.138
 20
-12.4
 30
0.0
 40
0.4
  0
CIRCLE
  8
holes_0.8mm
 10
126.138
 20
-48.6
 30
0.0
 40
0.4
  0
CIRCLE
  8
holes_0.8mm
 10
126.138
 20
-51.4
 30
0.0
 40
0.4
  0
CIRCLE
  8
holes_0.8mm
 10
126.138
 20
-87.6
 30
0.0
 40
0.4
  0
CIRCLE
  8
holes_0.8mm
 10
144.874
 20
-33.501
 30
0.0
 40
0.4
  0
CIRCLE
  8
holes_0.8mm
 10
144.874
 20
-72.501
 30
0.0
 40
0.4
  0
CIRCLE
  8
holes_0.8mm
 10
144.874
 20
-32.0
 30
0.0
 40
0.4
  0
CIRCLE
  8
holes_0.8mm
 10
144.874
 20
-71.0
 30
0.0
 40
0.4
  0
CIRCLE
  8
holes_0.8mm
 10
144.874
 20
-30.5
 30
0.0
 40
0.4
  0
CIRCLE
  8
holes_0.8mm
 10
144.874
 20
-69.5
 30
0.0
 40
0.4
  0
CIRCLE
  8
holes_0.8mm
 10
144.874
 20
-28.999
 30
0.0
 40
0.4
  0
CIRCLE
  8
holes_0.8mm
 10
144.874
 20
-67.999
 30
0.0
 40
0.4
  0
CIRCLE
  8
holes_0.8mm
 10
144.874
 20
-27.499
 30
0.0
 40
0.4
  0
CIRCLE
  8
holes_0.8mm
 10
144.874
 20
-66.499
 30
0.0
 40
0.4
  0
CIRCLE
  8
holes_0.8mm
 10
147.674
 20
-33.501
 30
0.0
 40
0.4
  0
CIRCLE
  8
holes_0.8mm
 10
147.674
 20
-72.501
 30
0.0
 40
0.4
  0
CIRCLE
  8
holes_0.8mm
 10
147.674
 20
-32.001
 30
0.0
 40
0.4
  0
CIRCLE
  8
holes_0.8mm
 10
147.674
 20
-71.001
 30
0.0
 40
0.4
  0
CIRCLE
  8
holes_0.8mm
 10
147.674
 20
-30.5
 30
0.0
 40
0.4
  0
CIRCLE
  8
holes_0.8mm
 10
147.674
 20
-69.5
 30
0.0
 40
0.4
  0
CIRCLE
  8
holes_0.8mm
 10
147.674
 20
-29.0
 30
0.0
 40
0.4
  0
CIRCLE
  8
holes_0.8mm
 10
147.674
 20
-68.0
 30
0.0
 40
0.4
  0
CIRCLE
  8
holes_0.8mm
 10
147.674
 20
-27.499
 30
0.0
 40
0.4
  0
CIRCLE
  8
holes_0.8mm
 10
147.674
 20
-66.499
 30
0.0
 40
0.4
  0
CIRCLE
  8
holes_0.8mm
 10
166.41
 20
-12.4
 30
0.0
 40
0.4
  0
CIRCLE
  8
holes_0.8mm
 10
166.41
 20
-48.6
 30
0.0
 40
0.4
  0
CIRCLE
  8
holes_0.8mm
 10
166.41
 20
-51.4
 30
0.0
 40
0.4
  0
CIRCLE
  8
holes_0.8mm
 10
166.41
 20
-87.6
 30
0.0
 40
0.4
  0
CIRCLE
  8
holes_0.8mm
 10
167.911
 20
-12.4
 30
0.0
 40
0.4
  0
CIRCLE
  8
holes_0.8mm
 10
167.911
 20
-48.6
 30
0.0
 40
0.4
  0
CIRCLE
  8
holes_0.8mm
 10
167.911
 20
-51.4
 30
0.0
 40
0.4
  0
CIRCLE
  8
holes_0.8mm
 10
167.911
 20
-87.6
 30
0.0
 40
0.4
  0
CIRCLE
  8
holes_0.8mm
 10
169.411
 20
-12.4
 30
0.0
 40
0.4
  0
CIRCLE
  8
holes_0.8mm
 10
169.411
 20
-48.6
 30
0.0
 40
0.4
  0
CIRCLE
  8
holes_0.8mm
 10
169.411
 20
-51.4
 30
0.0
 40
0.4
  0
CIRCLE
  8
holes_0.8mm
 10
169.411
 20
-87.6
 30
0.0
 40
0.4
  0
CIRCLE
  8
holes_0.8mm
 10
170.912
 20
-12.4
 30
0.0
 40
0.4
  0
CIRCLE
  8
holes_0.8mm
 10
170.912
 20
-48.6
 30
0.0
 40
0.4
  0
CIRCLE
  8
holes_0.8mm
 10
170.912
 20
-51.4
 30
0.0
 40
0.4
  0
CIRCLE
  8
holes_0.8mm
 10
170.912
 20
-87.6
 30
0.0
 40
0.4
  0
CIRCLE
  8
holes_0.8mm
 10
172.412
 20
-12.4
 30
0.0
 40
0.4
  0
CIRCLE
  8
holes_0.8mm
 10
172.412
 20
-48.6
 30
0.0
 40
0.4
  0
CIRCLE
  8
holes_0.8mm
 10
172.412
 20
-51.4
 30
0.0
 40
0.4
  0
CIRCLE
  8
holes_0.8mm
 10
172.412
 20
-87.6
 30
0.0
 40
0.4
  0
CIRCLE
  8
holes_0.8mm
 10
191.148
 20
-33.501
 30
0.0
 40
0.4
  0
CIRCLE
  8
holes_0.8mm
 10
191.148
 20
-72.501
 30
0.0
 40
0.4
  0
CIRCLE
  8
holes_0.8mm
 10
191.148
 20
-32.0
 30
0.0
 40
0.4
  0
CIRCLE
  8
holes_0.8mm
 10
191.148
 20
-71.0
 30
0.0
 40
0.4
  0
CIRCLE
  8
holes_0.8mm
 10
191.148
 20
-30.5
 30
0.0
 40
0.4
  0
CIRCLE
  8
holes_0.8mm
 10
191.148
 20
-69.5
 30
0.0
 40
0.4
  0
CIRCLE
  8
holes_0.8mm
 10
191.148
 20
-28.999
 30
0.0
 40
0.4
  0
CIRCLE
  8
holes_0.8mm
 10
191.148
 20
-67.999
 30
0.0
 40
0.4
  0
CIRCLE
  8
holes_0.8mm
 10
191.148
 20
-27.499
 30
0.0
 40
0.4
  0
CIRCLE
  8
holes_0.8mm
 10
191.148
 20
-66.499
 30
0.0
 40
0.4
  0
CIRCLE
  8
holes_2.0mm
 10
3.0
 20
-3.0
 30
0.0
 40
1.0
  0
CIRCLE
  8
holes_2.0mm
 10
3.0
 20
-97.0
 30
0.0
 40
1.0
  0
CIRCLE
  8
holes_2.0mm
 10
197.0
 20
-3.0
 30
0.0
 40
1.0
  0
CIRCLE
  8
holes_2.0mm
 10
197.0
 20
-97.0
 30
0.0
 40
1.0
  0
ENDSEC
  0
EOF
