%TF.GenerationSoftware,KiCad,Pcbnew,9.0.2-9.0.2-0~ubuntu24.04.1*%
%TF.CreationDate,2025-05-26T21:32:44+03:00*%
%TF.ProjectId,PCutSpeedCTRL,50437574-5370-4656-9564-4354524c2e6b,V01*%
%TF.SameCoordinates,PX5f5e100PY5f5e100*%
%TF.FileFunction,Profile,NP*%
%FSLAX46Y46*%
G04 Gerber Fmt 4.6, Leading zero omitted, Abs format (unit mm)*
G04 Created by KiCad (PCBNEW 9.0.2-9.0.2-0~ubuntu24.04.1) date 2025-05-26 21:32:44*
%MOMM*%
%LPD*%
G01*
G04 APERTURE LIST*
%TA.AperFunction,Profile*%
%ADD10C,0.100000*%
%TD*%
G04 APERTURE END LIST*
D10*
X0Y3800000D02*
G75*
G02*
X0Y9800000I0J3000000D01*
G01*
X-13600000Y-13000000D02*
X-1800000Y-13000000D01*
X-13600000Y-13000000D02*
G75*
G02*
X-13600000Y-11400000I0J800000D01*
G01*
X0Y9800000D02*
G75*
G02*
X0Y8200000I0J-800000D01*
G01*
X0Y5400000D02*
G75*
G02*
X0Y3800000I0J-800000D01*
G01*
X0Y5400000D02*
G75*
G02*
X0Y8200000I0J1400000D01*
G01*
X-13600000Y-11400000D02*
X-1800000Y-11400000D01*
X-1800000Y-11400000D02*
G75*
G02*
X-1800000Y-13000000I0J-800000D01*
G01*
X-18362741Y13865200D02*
G75*
G02*
X-21637254Y8134797I-1637259J-2865200D01*
G01*
X-21637254Y8134797D02*
X-21637369Y-8134860D01*
X18362492Y-13864778D02*
G75*
G02*
X21636765Y-8134798I1637508J2864778D01*
G01*
X-16000000Y18000000D02*
X16000000Y18000000D01*
X-21637369Y-8134861D02*
G75*
G02*
X-18362741Y-13865202I1637369J-2865139D01*
G01*
X18362247Y13865202D02*
X16000000Y18000000D01*
X-18362741Y-13865202D02*
X-16000494Y-18000000D01*
X-16000494Y-18000000D02*
X15999506Y-18000000D01*
X21636875Y8134861D02*
G75*
G02*
X18362244Y13865207I-1637375J2865139D01*
G01*
X18362492Y-13864777D02*
X15999506Y-18000000D01*
X-18362741Y13865200D02*
X-16000000Y18000000D01*
X21636875Y8134861D02*
X21636765Y-8134798D01*
M02*
