%TF.GenerationSoftware,KiCad,Pcbnew,9.0.2-9.0.2-0~ubuntu24.04.1*%
%TF.CreationDate,2025-05-26T21:32:44+03:00*%
%TF.ProjectId,PCutSpeedCTRL,50437574-5370-4656-9564-4354524c2e6b,V01*%
%TF.SameCoordinates,PX5f5e100PY5f5e100*%
%TF.FileFunction,AssemblyDrawing,Bot*%
%FSLAX46Y46*%
G04 Gerber Fmt 4.6, Leading zero omitted, Abs format (unit mm)*
G04 Created by KiCad (PCBNEW 9.0.2-9.0.2-0~ubuntu24.04.1) date 2025-05-26 21:32:44*
%MOMM*%
%LPD*%
G01*
G04 APERTURE LIST*
%ADD10C,0.100000*%
%ADD11C,0.080000*%
%ADD12C,0.100000*%
%TD*%
G04 APERTURE END LIST*
D10*
X26000000Y11000000D02*
G75*
G02*
X14000000Y11000000I-6000000J0D01*
G01*
X14000000Y11000000D02*
G75*
G02*
X26000000Y11000000I6000000J0D01*
G01*
X26000000Y-11000000D02*
G75*
G02*
X14000000Y-11000000I-6000000J0D01*
G01*
X14000000Y-11000000D02*
G75*
G02*
X26000000Y-11000000I6000000J0D01*
G01*
X-14000000Y11000000D02*
G75*
G02*
X-26000000Y11000000I-6000000J0D01*
G01*
X-26000000Y11000000D02*
G75*
G02*
X-14000000Y11000000I6000000J0D01*
G01*
X-14000000Y-11000000D02*
G75*
G02*
X-26000000Y-11000000I-6000000J0D01*
G01*
X-26000000Y-11000000D02*
G75*
G02*
X-14000000Y-11000000I6000000J0D01*
G01*
D11*
X-13500000Y9680327D02*
X-13100000Y9680327D01*
X-13300000Y9680327D02*
X-13300000Y10380327D01*
X-13300000Y10380327D02*
X-13233333Y10280327D01*
X-13233333Y10280327D02*
X-13166666Y10213660D01*
X-13166666Y10213660D02*
X-13100000Y10180327D01*
X-13800000Y9680327D02*
X-13800000Y10380327D01*
X-13800000Y10380327D02*
X-14200000Y9680327D01*
X-14200000Y9680327D02*
X-14200000Y10380327D01*
X-14833333Y10146994D02*
X-14833333Y9680327D01*
X-14666666Y10413660D02*
X-14500000Y9913660D01*
X-14500000Y9913660D02*
X-14933333Y9913660D01*
X-15566667Y9680327D02*
X-15166667Y9680327D01*
X-15366667Y9680327D02*
X-15366667Y10380327D01*
X-15366667Y10380327D02*
X-15300000Y10280327D01*
X-15300000Y10280327D02*
X-15233333Y10213660D01*
X-15233333Y10213660D02*
X-15166667Y10180327D01*
X-16166667Y10146994D02*
X-16166667Y9680327D01*
X-16000000Y10413660D02*
X-15833334Y9913660D01*
X-15833334Y9913660D02*
X-16266667Y9913660D01*
X-16633334Y10080327D02*
X-16566667Y10113660D01*
X-16566667Y10113660D02*
X-16533334Y10146994D01*
X-16533334Y10146994D02*
X-16500001Y10213660D01*
X-16500001Y10213660D02*
X-16500001Y10246994D01*
X-16500001Y10246994D02*
X-16533334Y10313660D01*
X-16533334Y10313660D02*
X-16566667Y10346994D01*
X-16566667Y10346994D02*
X-16633334Y10380327D01*
X-16633334Y10380327D02*
X-16766667Y10380327D01*
X-16766667Y10380327D02*
X-16833334Y10346994D01*
X-16833334Y10346994D02*
X-16866667Y10313660D01*
X-16866667Y10313660D02*
X-16900001Y10246994D01*
X-16900001Y10246994D02*
X-16900001Y10213660D01*
X-16900001Y10213660D02*
X-16866667Y10146994D01*
X-16866667Y10146994D02*
X-16833334Y10113660D01*
X-16833334Y10113660D02*
X-16766667Y10080327D01*
X-16766667Y10080327D02*
X-16633334Y10080327D01*
X-16633334Y10080327D02*
X-16566667Y10046994D01*
X-16566667Y10046994D02*
X-16533334Y10013660D01*
X-16533334Y10013660D02*
X-16500001Y9946994D01*
X-16500001Y9946994D02*
X-16500001Y9813660D01*
X-16500001Y9813660D02*
X-16533334Y9746994D01*
X-16533334Y9746994D02*
X-16566667Y9713660D01*
X-16566667Y9713660D02*
X-16633334Y9680327D01*
X-16633334Y9680327D02*
X-16766667Y9680327D01*
X-16766667Y9680327D02*
X-16833334Y9713660D01*
X-16833334Y9713660D02*
X-16866667Y9746994D01*
X-16866667Y9746994D02*
X-16900001Y9813660D01*
X-16900001Y9813660D02*
X-16900001Y9946994D01*
X-16900001Y9946994D02*
X-16866667Y10013660D01*
X-16866667Y10013660D02*
X-16833334Y10046994D01*
X-16833334Y10046994D02*
X-16766667Y10080327D01*
X-13083334Y10680327D02*
X-13083334Y11380327D01*
X-13083334Y11380327D02*
X-13250001Y11380327D01*
X-13250001Y11380327D02*
X-13350001Y11346994D01*
X-13350001Y11346994D02*
X-13416667Y11280327D01*
X-13416667Y11280327D02*
X-13450001Y11213660D01*
X-13450001Y11213660D02*
X-13483334Y11080327D01*
X-13483334Y11080327D02*
X-13483334Y10980327D01*
X-13483334Y10980327D02*
X-13450001Y10846994D01*
X-13450001Y10846994D02*
X-13416667Y10780327D01*
X-13416667Y10780327D02*
X-13350001Y10713660D01*
X-13350001Y10713660D02*
X-13250001Y10680327D01*
X-13250001Y10680327D02*
X-13083334Y10680327D01*
X-13716667Y11380327D02*
X-14183334Y11380327D01*
X-14183334Y11380327D02*
X-13883334Y10680327D01*
X-1650001Y2113660D02*
X-1683334Y2146994D01*
X-1683334Y2146994D02*
X-1750001Y2180327D01*
X-1750001Y2180327D02*
X-1916667Y2180327D01*
X-1916667Y2180327D02*
X-1983334Y2146994D01*
X-1983334Y2146994D02*
X-2016667Y2113660D01*
X-2016667Y2113660D02*
X-2050001Y2046994D01*
X-2050001Y2046994D02*
X-2050001Y1980327D01*
X-2050001Y1980327D02*
X-2016667Y1880327D01*
X-2016667Y1880327D02*
X-1616667Y1480327D01*
X-1616667Y1480327D02*
X-2050001Y1480327D01*
X-2316668Y2113660D02*
X-2350001Y2146994D01*
X-2350001Y2146994D02*
X-2416668Y2180327D01*
X-2416668Y2180327D02*
X-2583334Y2180327D01*
X-2583334Y2180327D02*
X-2650001Y2146994D01*
X-2650001Y2146994D02*
X-2683334Y2113660D01*
X-2683334Y2113660D02*
X-2716668Y2046994D01*
X-2716668Y2046994D02*
X-2716668Y1980327D01*
X-2716668Y1980327D02*
X-2683334Y1880327D01*
X-2683334Y1880327D02*
X-2283334Y1480327D01*
X-2283334Y1480327D02*
X-2716668Y1480327D01*
X-3316668Y1946994D02*
X-3316668Y1480327D01*
X-3016668Y1946994D02*
X-3016668Y1580327D01*
X-3016668Y1580327D02*
X-3050001Y1513660D01*
X-3050001Y1513660D02*
X-3116668Y1480327D01*
X-3116668Y1480327D02*
X-3216668Y1480327D01*
X-3216668Y1480327D02*
X-3283335Y1513660D01*
X-3283335Y1513660D02*
X-3316668Y1546994D01*
X-3883334Y1846994D02*
X-3650001Y1846994D01*
X-3650001Y1480327D02*
X-3650001Y2180327D01*
X-3650001Y2180327D02*
X-3983334Y2180327D01*
X-5083334Y2180327D02*
X-4950001Y2180327D01*
X-4950001Y2180327D02*
X-4883334Y2146994D01*
X-4883334Y2146994D02*
X-4850001Y2113660D01*
X-4850001Y2113660D02*
X-4783334Y2013660D01*
X-4783334Y2013660D02*
X-4750001Y1880327D01*
X-4750001Y1880327D02*
X-4750001Y1613660D01*
X-4750001Y1613660D02*
X-4783334Y1546994D01*
X-4783334Y1546994D02*
X-4816667Y1513660D01*
X-4816667Y1513660D02*
X-4883334Y1480327D01*
X-4883334Y1480327D02*
X-5016667Y1480327D01*
X-5016667Y1480327D02*
X-5083334Y1513660D01*
X-5083334Y1513660D02*
X-5116667Y1546994D01*
X-5116667Y1546994D02*
X-5150001Y1613660D01*
X-5150001Y1613660D02*
X-5150001Y1780327D01*
X-5150001Y1780327D02*
X-5116667Y1846994D01*
X-5116667Y1846994D02*
X-5083334Y1880327D01*
X-5083334Y1880327D02*
X-5016667Y1913660D01*
X-5016667Y1913660D02*
X-4883334Y1913660D01*
X-4883334Y1913660D02*
X-4816667Y1880327D01*
X-4816667Y1880327D02*
X-4783334Y1846994D01*
X-4783334Y1846994D02*
X-4750001Y1780327D01*
X-5450001Y1546994D02*
X-5483334Y1513660D01*
X-5483334Y1513660D02*
X-5450001Y1480327D01*
X-5450001Y1480327D02*
X-5416668Y1513660D01*
X-5416668Y1513660D02*
X-5450001Y1546994D01*
X-5450001Y1546994D02*
X-5450001Y1480327D01*
X-5716667Y2180327D02*
X-6150001Y2180327D01*
X-6150001Y2180327D02*
X-5916667Y1913660D01*
X-5916667Y1913660D02*
X-6016667Y1913660D01*
X-6016667Y1913660D02*
X-6083334Y1880327D01*
X-6083334Y1880327D02*
X-6116667Y1846994D01*
X-6116667Y1846994D02*
X-6150001Y1780327D01*
X-6150001Y1780327D02*
X-6150001Y1613660D01*
X-6150001Y1613660D02*
X-6116667Y1546994D01*
X-6116667Y1546994D02*
X-6083334Y1513660D01*
X-6083334Y1513660D02*
X-6016667Y1480327D01*
X-6016667Y1480327D02*
X-5816667Y1480327D01*
X-5816667Y1480327D02*
X-5750001Y1513660D01*
X-5750001Y1513660D02*
X-5716667Y1546994D01*
X-6350001Y2180327D02*
X-6583334Y1480327D01*
X-6583334Y1480327D02*
X-6816668Y2180327D01*
X-9583334Y2046994D02*
X-9550001Y2013660D01*
X-9550001Y2013660D02*
X-9450001Y1980327D01*
X-9450001Y1980327D02*
X-9383334Y1980327D01*
X-9383334Y1980327D02*
X-9283334Y2013660D01*
X-9283334Y2013660D02*
X-9216667Y2080327D01*
X-9216667Y2080327D02*
X-9183334Y2146994D01*
X-9183334Y2146994D02*
X-9150001Y2280327D01*
X-9150001Y2280327D02*
X-9150001Y2380327D01*
X-9150001Y2380327D02*
X-9183334Y2513660D01*
X-9183334Y2513660D02*
X-9216667Y2580327D01*
X-9216667Y2580327D02*
X-9283334Y2646994D01*
X-9283334Y2646994D02*
X-9383334Y2680327D01*
X-9383334Y2680327D02*
X-9450001Y2680327D01*
X-9450001Y2680327D02*
X-9550001Y2646994D01*
X-9550001Y2646994D02*
X-9583334Y2613660D01*
X-10183334Y2680327D02*
X-10050001Y2680327D01*
X-10050001Y2680327D02*
X-9983334Y2646994D01*
X-9983334Y2646994D02*
X-9950001Y2613660D01*
X-9950001Y2613660D02*
X-9883334Y2513660D01*
X-9883334Y2513660D02*
X-9850001Y2380327D01*
X-9850001Y2380327D02*
X-9850001Y2113660D01*
X-9850001Y2113660D02*
X-9883334Y2046994D01*
X-9883334Y2046994D02*
X-9916667Y2013660D01*
X-9916667Y2013660D02*
X-9983334Y1980327D01*
X-9983334Y1980327D02*
X-10116667Y1980327D01*
X-10116667Y1980327D02*
X-10183334Y2013660D01*
X-10183334Y2013660D02*
X-10216667Y2046994D01*
X-10216667Y2046994D02*
X-10250001Y2113660D01*
X-10250001Y2113660D02*
X-10250001Y2280327D01*
X-10250001Y2280327D02*
X-10216667Y2346994D01*
X-10216667Y2346994D02*
X-10183334Y2380327D01*
X-10183334Y2380327D02*
X-10116667Y2413660D01*
X-10116667Y2413660D02*
X-9983334Y2413660D01*
X-9983334Y2413660D02*
X-9916667Y2380327D01*
X-9916667Y2380327D02*
X-9883334Y2346994D01*
X-9883334Y2346994D02*
X-9850001Y2280327D01*
X-14316667Y1910327D02*
X-13916667Y1910327D01*
X-14116667Y1910327D02*
X-14116667Y2610327D01*
X-14116667Y2610327D02*
X-14050000Y2510327D01*
X-14050000Y2510327D02*
X-13983333Y2443660D01*
X-13983333Y2443660D02*
X-13916667Y2410327D01*
X-14750000Y2610327D02*
X-14816667Y2610327D01*
X-14816667Y2610327D02*
X-14883334Y2576994D01*
X-14883334Y2576994D02*
X-14916667Y2543660D01*
X-14916667Y2543660D02*
X-14950000Y2476994D01*
X-14950000Y2476994D02*
X-14983334Y2343660D01*
X-14983334Y2343660D02*
X-14983334Y2176994D01*
X-14983334Y2176994D02*
X-14950000Y2043660D01*
X-14950000Y2043660D02*
X-14916667Y1976994D01*
X-14916667Y1976994D02*
X-14883334Y1943660D01*
X-14883334Y1943660D02*
X-14816667Y1910327D01*
X-14816667Y1910327D02*
X-14750000Y1910327D01*
X-14750000Y1910327D02*
X-14683334Y1943660D01*
X-14683334Y1943660D02*
X-14650000Y1976994D01*
X-14650000Y1976994D02*
X-14616667Y2043660D01*
X-14616667Y2043660D02*
X-14583334Y2176994D01*
X-14583334Y2176994D02*
X-14583334Y2343660D01*
X-14583334Y2343660D02*
X-14616667Y2476994D01*
X-14616667Y2476994D02*
X-14650000Y2543660D01*
X-14650000Y2543660D02*
X-14683334Y2576994D01*
X-14683334Y2576994D02*
X-14750000Y2610327D01*
X-15416667Y2610327D02*
X-15483334Y2610327D01*
X-15483334Y2610327D02*
X-15550001Y2576994D01*
X-15550001Y2576994D02*
X-15583334Y2543660D01*
X-15583334Y2543660D02*
X-15616667Y2476994D01*
X-15616667Y2476994D02*
X-15650001Y2343660D01*
X-15650001Y2343660D02*
X-15650001Y2176994D01*
X-15650001Y2176994D02*
X-15616667Y2043660D01*
X-15616667Y2043660D02*
X-15583334Y1976994D01*
X-15583334Y1976994D02*
X-15550001Y1943660D01*
X-15550001Y1943660D02*
X-15483334Y1910327D01*
X-15483334Y1910327D02*
X-15416667Y1910327D01*
X-15416667Y1910327D02*
X-15350001Y1943660D01*
X-15350001Y1943660D02*
X-15316667Y1976994D01*
X-15316667Y1976994D02*
X-15283334Y2043660D01*
X-15283334Y2043660D02*
X-15250001Y2176994D01*
X-15250001Y2176994D02*
X-15250001Y2343660D01*
X-15250001Y2343660D02*
X-15283334Y2476994D01*
X-15283334Y2476994D02*
X-15316667Y2543660D01*
X-15316667Y2543660D02*
X-15350001Y2576994D01*
X-15350001Y2576994D02*
X-15416667Y2610327D01*
X-15950001Y2376994D02*
X-15950001Y1910327D01*
X-15950001Y2310327D02*
X-15983334Y2343660D01*
X-15983334Y2343660D02*
X-16050001Y2376994D01*
X-16050001Y2376994D02*
X-16150001Y2376994D01*
X-16150001Y2376994D02*
X-16216668Y2343660D01*
X-16216668Y2343660D02*
X-16250001Y2276994D01*
X-16250001Y2276994D02*
X-16250001Y1910327D01*
X-16816667Y2276994D02*
X-16583334Y2276994D01*
X-16583334Y1910327D02*
X-16583334Y2610327D01*
X-16583334Y2610327D02*
X-16916667Y2610327D01*
X-15283334Y546994D02*
X-15250001Y513660D01*
X-15250001Y513660D02*
X-15150001Y480327D01*
X-15150001Y480327D02*
X-15083334Y480327D01*
X-15083334Y480327D02*
X-14983334Y513660D01*
X-14983334Y513660D02*
X-14916667Y580327D01*
X-14916667Y580327D02*
X-14883334Y646994D01*
X-14883334Y646994D02*
X-14850001Y780327D01*
X-14850001Y780327D02*
X-14850001Y880327D01*
X-14850001Y880327D02*
X-14883334Y1013660D01*
X-14883334Y1013660D02*
X-14916667Y1080327D01*
X-14916667Y1080327D02*
X-14983334Y1146994D01*
X-14983334Y1146994D02*
X-15083334Y1180327D01*
X-15083334Y1180327D02*
X-15150001Y1180327D01*
X-15150001Y1180327D02*
X-15250001Y1146994D01*
X-15250001Y1146994D02*
X-15283334Y1113660D01*
X-15616667Y480327D02*
X-15750001Y480327D01*
X-15750001Y480327D02*
X-15816667Y513660D01*
X-15816667Y513660D02*
X-15850001Y546994D01*
X-15850001Y546994D02*
X-15916667Y646994D01*
X-15916667Y646994D02*
X-15950001Y780327D01*
X-15950001Y780327D02*
X-15950001Y1046994D01*
X-15950001Y1046994D02*
X-15916667Y1113660D01*
X-15916667Y1113660D02*
X-15883334Y1146994D01*
X-15883334Y1146994D02*
X-15816667Y1180327D01*
X-15816667Y1180327D02*
X-15683334Y1180327D01*
X-15683334Y1180327D02*
X-15616667Y1146994D01*
X-15616667Y1146994D02*
X-15583334Y1113660D01*
X-15583334Y1113660D02*
X-15550001Y1046994D01*
X-15550001Y1046994D02*
X-15550001Y880327D01*
X-15550001Y880327D02*
X-15583334Y813660D01*
X-15583334Y813660D02*
X-15616667Y780327D01*
X-15616667Y780327D02*
X-15683334Y746994D01*
X-15683334Y746994D02*
X-15816667Y746994D01*
X-15816667Y746994D02*
X-15883334Y780327D01*
X-15883334Y780327D02*
X-15916667Y813660D01*
X-15916667Y813660D02*
X-15950001Y880327D01*
X-14080327Y17400001D02*
X-14080327Y17800001D01*
X-14080327Y17600001D02*
X-14780327Y17600001D01*
X-14780327Y17600001D02*
X-14680327Y17666668D01*
X-14680327Y17666668D02*
X-14613660Y17733334D01*
X-14613660Y17733334D02*
X-14580327Y17800001D01*
X-14080327Y17100001D02*
X-14780327Y17100001D01*
X-14780327Y17100001D02*
X-14080327Y16700001D01*
X-14080327Y16700001D02*
X-14780327Y16700001D01*
X-14546994Y16066668D02*
X-14080327Y16066668D01*
X-14813660Y16233334D02*
X-14313660Y16400001D01*
X-14313660Y16400001D02*
X-14313660Y15966668D01*
X-14080327Y15333334D02*
X-14080327Y15733334D01*
X-14080327Y15533334D02*
X-14780327Y15533334D01*
X-14780327Y15533334D02*
X-14680327Y15600001D01*
X-14680327Y15600001D02*
X-14613660Y15666667D01*
X-14613660Y15666667D02*
X-14580327Y15733334D01*
X-14546994Y14733334D02*
X-14080327Y14733334D01*
X-14813660Y14900000D02*
X-14313660Y15066667D01*
X-14313660Y15066667D02*
X-14313660Y14633334D01*
X-14480327Y14266667D02*
X-14513660Y14333333D01*
X-14513660Y14333333D02*
X-14546994Y14366667D01*
X-14546994Y14366667D02*
X-14613660Y14400000D01*
X-14613660Y14400000D02*
X-14646994Y14400000D01*
X-14646994Y14400000D02*
X-14713660Y14366667D01*
X-14713660Y14366667D02*
X-14746994Y14333333D01*
X-14746994Y14333333D02*
X-14780327Y14266667D01*
X-14780327Y14266667D02*
X-14780327Y14133333D01*
X-14780327Y14133333D02*
X-14746994Y14066667D01*
X-14746994Y14066667D02*
X-14713660Y14033333D01*
X-14713660Y14033333D02*
X-14646994Y14000000D01*
X-14646994Y14000000D02*
X-14613660Y14000000D01*
X-14613660Y14000000D02*
X-14546994Y14033333D01*
X-14546994Y14033333D02*
X-14513660Y14066667D01*
X-14513660Y14066667D02*
X-14480327Y14133333D01*
X-14480327Y14133333D02*
X-14480327Y14266667D01*
X-14480327Y14266667D02*
X-14446994Y14333333D01*
X-14446994Y14333333D02*
X-14413660Y14366667D01*
X-14413660Y14366667D02*
X-14346994Y14400000D01*
X-14346994Y14400000D02*
X-14213660Y14400000D01*
X-14213660Y14400000D02*
X-14146994Y14366667D01*
X-14146994Y14366667D02*
X-14113660Y14333333D01*
X-14113660Y14333333D02*
X-14080327Y14266667D01*
X-14080327Y14266667D02*
X-14080327Y14133333D01*
X-14080327Y14133333D02*
X-14113660Y14066667D01*
X-14113660Y14066667D02*
X-14146994Y14033333D01*
X-14146994Y14033333D02*
X-14213660Y14000000D01*
X-14213660Y14000000D02*
X-14346994Y14000000D01*
X-14346994Y14000000D02*
X-14413660Y14033333D01*
X-14413660Y14033333D02*
X-14446994Y14066667D01*
X-14446994Y14066667D02*
X-14480327Y14133333D01*
X-15080327Y16616667D02*
X-15780327Y16616667D01*
X-15780327Y16616667D02*
X-15780327Y16450000D01*
X-15780327Y16450000D02*
X-15746994Y16350000D01*
X-15746994Y16350000D02*
X-15680327Y16283333D01*
X-15680327Y16283333D02*
X-15613660Y16250000D01*
X-15613660Y16250000D02*
X-15480327Y16216667D01*
X-15480327Y16216667D02*
X-15380327Y16216667D01*
X-15380327Y16216667D02*
X-15246994Y16250000D01*
X-15246994Y16250000D02*
X-15180327Y16283333D01*
X-15180327Y16283333D02*
X-15113660Y16350000D01*
X-15113660Y16350000D02*
X-15080327Y16450000D01*
X-15080327Y16450000D02*
X-15080327Y16616667D01*
X-15713660Y15950000D02*
X-15746994Y15916667D01*
X-15746994Y15916667D02*
X-15780327Y15850000D01*
X-15780327Y15850000D02*
X-15780327Y15683333D01*
X-15780327Y15683333D02*
X-15746994Y15616667D01*
X-15746994Y15616667D02*
X-15713660Y15583333D01*
X-15713660Y15583333D02*
X-15646994Y15550000D01*
X-15646994Y15550000D02*
X-15580327Y15550000D01*
X-15580327Y15550000D02*
X-15480327Y15583333D01*
X-15480327Y15583333D02*
X-15080327Y15983333D01*
X-15080327Y15983333D02*
X-15080327Y15550000D01*
X7254096Y-4480050D02*
X7536938Y-4762893D01*
X7395517Y-4621471D02*
X7890492Y-4126497D01*
X7890492Y-4126497D02*
X7866922Y-4244348D01*
X7866922Y-4244348D02*
X7866922Y-4338629D01*
X7866922Y-4338629D02*
X7890492Y-4409339D01*
X7442657Y-3678662D02*
X7395517Y-3631522D01*
X7395517Y-3631522D02*
X7324806Y-3607951D01*
X7324806Y-3607951D02*
X7277666Y-3607951D01*
X7277666Y-3607951D02*
X7206955Y-3631522D01*
X7206955Y-3631522D02*
X7089104Y-3702232D01*
X7089104Y-3702232D02*
X6971253Y-3820083D01*
X6971253Y-3820083D02*
X6900542Y-3937935D01*
X6900542Y-3937935D02*
X6876972Y-4008645D01*
X6876972Y-4008645D02*
X6876972Y-4055786D01*
X6876972Y-4055786D02*
X6900542Y-4126496D01*
X6900542Y-4126496D02*
X6947682Y-4173637D01*
X6947682Y-4173637D02*
X7018393Y-4197207D01*
X7018393Y-4197207D02*
X7065534Y-4197207D01*
X7065534Y-4197207D02*
X7136244Y-4173637D01*
X7136244Y-4173637D02*
X7254095Y-4102926D01*
X7254095Y-4102926D02*
X7371947Y-3985075D01*
X7371947Y-3985075D02*
X7442657Y-3867224D01*
X7442657Y-3867224D02*
X7466227Y-3796513D01*
X7466227Y-3796513D02*
X7466227Y-3749373D01*
X7466227Y-3749373D02*
X7442657Y-3678662D01*
X6900542Y-3466530D02*
X6570559Y-3796513D01*
X6853401Y-3513670D02*
X6853401Y-3466530D01*
X6853401Y-3466530D02*
X6829831Y-3395819D01*
X6829831Y-3395819D02*
X6759120Y-3325108D01*
X6759120Y-3325108D02*
X6688410Y-3301538D01*
X6688410Y-3301538D02*
X6617699Y-3325108D01*
X6617699Y-3325108D02*
X6358427Y-3584381D01*
X6217005Y-2924415D02*
X6381997Y-3089406D01*
X6122725Y-3348679D02*
X6617699Y-2853704D01*
X6617699Y-2853704D02*
X6381997Y-2618002D01*
X5062065Y-2288019D02*
X5344907Y-2570862D01*
X5203486Y-2429440D02*
X5698461Y-1934466D01*
X5698461Y-1934466D02*
X5674891Y-2052317D01*
X5674891Y-2052317D02*
X5674891Y-2146598D01*
X5674891Y-2146598D02*
X5698461Y-2217308D01*
X4849932Y-2075887D02*
X5344907Y-1580912D01*
X4991354Y-1840184D02*
X4661371Y-1887325D01*
X4991354Y-1557342D02*
X4991354Y-1934465D01*
X5014924Y-1250929D02*
X4354957Y-1580912D01*
X4354957Y-1580912D02*
X4684941Y-920945D01*
X7303592Y-1861398D02*
X7303592Y-1908538D01*
X7303592Y-1908538D02*
X7350733Y-2002819D01*
X7350733Y-2002819D02*
X7397873Y-2049960D01*
X7397873Y-2049960D02*
X7492154Y-2097100D01*
X7492154Y-2097100D02*
X7586435Y-2097100D01*
X7586435Y-2097100D02*
X7657146Y-2073530D01*
X7657146Y-2073530D02*
X7774997Y-2002819D01*
X7774997Y-2002819D02*
X7845708Y-1932108D01*
X7845708Y-1932108D02*
X7916418Y-1814257D01*
X7916418Y-1814257D02*
X7939988Y-1743547D01*
X7939988Y-1743547D02*
X7939988Y-1649266D01*
X7939988Y-1649266D02*
X7892848Y-1554985D01*
X7892848Y-1554985D02*
X7845708Y-1507844D01*
X7845708Y-1507844D02*
X7751427Y-1460704D01*
X7751427Y-1460704D02*
X7704286Y-1460704D01*
X7256452Y-1342853D02*
X7327163Y-1366423D01*
X7327163Y-1366423D02*
X7374303Y-1366423D01*
X7374303Y-1366423D02*
X7445014Y-1342853D01*
X7445014Y-1342853D02*
X7468584Y-1319283D01*
X7468584Y-1319283D02*
X7492154Y-1248572D01*
X7492154Y-1248572D02*
X7492154Y-1201431D01*
X7492154Y-1201431D02*
X7468584Y-1130721D01*
X7468584Y-1130721D02*
X7374303Y-1036440D01*
X7374303Y-1036440D02*
X7303592Y-1012870D01*
X7303592Y-1012870D02*
X7256452Y-1012870D01*
X7256452Y-1012870D02*
X7185741Y-1036440D01*
X7185741Y-1036440D02*
X7162171Y-1060010D01*
X7162171Y-1060010D02*
X7138601Y-1130721D01*
X7138601Y-1130721D02*
X7138601Y-1177861D01*
X7138601Y-1177861D02*
X7162171Y-1248572D01*
X7162171Y-1248572D02*
X7256452Y-1342853D01*
X7256452Y-1342853D02*
X7280022Y-1413563D01*
X7280022Y-1413563D02*
X7280022Y-1460704D01*
X7280022Y-1460704D02*
X7256452Y-1531415D01*
X7256452Y-1531415D02*
X7162171Y-1625696D01*
X7162171Y-1625696D02*
X7091460Y-1649266D01*
X7091460Y-1649266D02*
X7044320Y-1649266D01*
X7044320Y-1649266D02*
X6973609Y-1625696D01*
X6973609Y-1625696D02*
X6879328Y-1531415D01*
X6879328Y-1531415D02*
X6855758Y-1460704D01*
X6855758Y-1460704D02*
X6855758Y-1413563D01*
X6855758Y-1413563D02*
X6879328Y-1342853D01*
X6879328Y-1342853D02*
X6973609Y-1248572D01*
X6973609Y-1248572D02*
X7044320Y-1225002D01*
X7044320Y-1225002D02*
X7091460Y-1225002D01*
X7091460Y-1225002D02*
X7162171Y-1248572D01*
X-19716667Y1613660D02*
X-19750000Y1646994D01*
X-19750000Y1646994D02*
X-19816667Y1680327D01*
X-19816667Y1680327D02*
X-19983333Y1680327D01*
X-19983333Y1680327D02*
X-20050000Y1646994D01*
X-20050000Y1646994D02*
X-20083333Y1613660D01*
X-20083333Y1613660D02*
X-20116667Y1546994D01*
X-20116667Y1546994D02*
X-20116667Y1480327D01*
X-20116667Y1480327D02*
X-20083333Y1380327D01*
X-20083333Y1380327D02*
X-19683333Y980327D01*
X-19683333Y980327D02*
X-20116667Y980327D01*
X-20383334Y1613660D02*
X-20416667Y1646994D01*
X-20416667Y1646994D02*
X-20483334Y1680327D01*
X-20483334Y1680327D02*
X-20650000Y1680327D01*
X-20650000Y1680327D02*
X-20716667Y1646994D01*
X-20716667Y1646994D02*
X-20750000Y1613660D01*
X-20750000Y1613660D02*
X-20783334Y1546994D01*
X-20783334Y1546994D02*
X-20783334Y1480327D01*
X-20783334Y1480327D02*
X-20750000Y1380327D01*
X-20750000Y1380327D02*
X-20350000Y980327D01*
X-20350000Y980327D02*
X-20783334Y980327D01*
X-21083334Y980327D02*
X-21083334Y1680327D01*
X-21483334Y980327D02*
X-21183334Y1380327D01*
X-21483334Y1680327D02*
X-21083334Y1280327D01*
X-17850000Y980327D02*
X-17616667Y1313660D01*
X-17450000Y980327D02*
X-17450000Y1680327D01*
X-17450000Y1680327D02*
X-17716667Y1680327D01*
X-17716667Y1680327D02*
X-17783333Y1646994D01*
X-17783333Y1646994D02*
X-17816667Y1613660D01*
X-17816667Y1613660D02*
X-17850000Y1546994D01*
X-17850000Y1546994D02*
X-17850000Y1446994D01*
X-17850000Y1446994D02*
X-17816667Y1380327D01*
X-17816667Y1380327D02*
X-17783333Y1346994D01*
X-17783333Y1346994D02*
X-17716667Y1313660D01*
X-17716667Y1313660D02*
X-17450000Y1313660D01*
X-18516667Y980327D02*
X-18116667Y980327D01*
X-18316667Y980327D02*
X-18316667Y1680327D01*
X-18316667Y1680327D02*
X-18250000Y1580327D01*
X-18250000Y1580327D02*
X-18183333Y1513660D01*
X-18183333Y1513660D02*
X-18116667Y1480327D01*
X-19116667Y1446994D02*
X-19116667Y980327D01*
X-18950000Y1713660D02*
X-18783334Y1213660D01*
X-18783334Y1213660D02*
X-19216667Y1213660D01*
X-8780327Y17200001D02*
X-8780327Y17600001D01*
X-8780327Y17400001D02*
X-9480327Y17400001D01*
X-9480327Y17400001D02*
X-9380327Y17466668D01*
X-9380327Y17466668D02*
X-9313660Y17533334D01*
X-9313660Y17533334D02*
X-9280327Y17600001D01*
X-8780327Y16900001D02*
X-9480327Y16900001D01*
X-9480327Y16900001D02*
X-8780327Y16500001D01*
X-8780327Y16500001D02*
X-9480327Y16500001D01*
X-9246994Y15866668D02*
X-8780327Y15866668D01*
X-9513660Y16033334D02*
X-9013660Y16200001D01*
X-9013660Y16200001D02*
X-9013660Y15766668D01*
X-8780327Y15133334D02*
X-8780327Y15533334D01*
X-8780327Y15333334D02*
X-9480327Y15333334D01*
X-9480327Y15333334D02*
X-9380327Y15400001D01*
X-9380327Y15400001D02*
X-9313660Y15466667D01*
X-9313660Y15466667D02*
X-9280327Y15533334D01*
X-9246994Y14533334D02*
X-8780327Y14533334D01*
X-9513660Y14700000D02*
X-9013660Y14866667D01*
X-9013660Y14866667D02*
X-9013660Y14433334D01*
X-9180327Y14066667D02*
X-9213660Y14133333D01*
X-9213660Y14133333D02*
X-9246994Y14166667D01*
X-9246994Y14166667D02*
X-9313660Y14200000D01*
X-9313660Y14200000D02*
X-9346994Y14200000D01*
X-9346994Y14200000D02*
X-9413660Y14166667D01*
X-9413660Y14166667D02*
X-9446994Y14133333D01*
X-9446994Y14133333D02*
X-9480327Y14066667D01*
X-9480327Y14066667D02*
X-9480327Y13933333D01*
X-9480327Y13933333D02*
X-9446994Y13866667D01*
X-9446994Y13866667D02*
X-9413660Y13833333D01*
X-9413660Y13833333D02*
X-9346994Y13800000D01*
X-9346994Y13800000D02*
X-9313660Y13800000D01*
X-9313660Y13800000D02*
X-9246994Y13833333D01*
X-9246994Y13833333D02*
X-9213660Y13866667D01*
X-9213660Y13866667D02*
X-9180327Y13933333D01*
X-9180327Y13933333D02*
X-9180327Y14066667D01*
X-9180327Y14066667D02*
X-9146994Y14133333D01*
X-9146994Y14133333D02*
X-9113660Y14166667D01*
X-9113660Y14166667D02*
X-9046994Y14200000D01*
X-9046994Y14200000D02*
X-8913660Y14200000D01*
X-8913660Y14200000D02*
X-8846994Y14166667D01*
X-8846994Y14166667D02*
X-8813660Y14133333D01*
X-8813660Y14133333D02*
X-8780327Y14066667D01*
X-8780327Y14066667D02*
X-8780327Y13933333D01*
X-8780327Y13933333D02*
X-8813660Y13866667D01*
X-8813660Y13866667D02*
X-8846994Y13833333D01*
X-8846994Y13833333D02*
X-8913660Y13800000D01*
X-8913660Y13800000D02*
X-9046994Y13800000D01*
X-9046994Y13800000D02*
X-9113660Y13833333D01*
X-9113660Y13833333D02*
X-9146994Y13866667D01*
X-9146994Y13866667D02*
X-9180327Y13933333D01*
X-7780327Y17416667D02*
X-8480327Y17416667D01*
X-8480327Y17416667D02*
X-8480327Y17250000D01*
X-8480327Y17250000D02*
X-8446994Y17150000D01*
X-8446994Y17150000D02*
X-8380327Y17083333D01*
X-8380327Y17083333D02*
X-8313660Y17050000D01*
X-8313660Y17050000D02*
X-8180327Y17016667D01*
X-8180327Y17016667D02*
X-8080327Y17016667D01*
X-8080327Y17016667D02*
X-7946994Y17050000D01*
X-7946994Y17050000D02*
X-7880327Y17083333D01*
X-7880327Y17083333D02*
X-7813660Y17150000D01*
X-7813660Y17150000D02*
X-7780327Y17250000D01*
X-7780327Y17250000D02*
X-7780327Y17416667D01*
X-7780327Y16350000D02*
X-7780327Y16750000D01*
X-7780327Y16550000D02*
X-8480327Y16550000D01*
X-8480327Y16550000D02*
X-8380327Y16616667D01*
X-8380327Y16616667D02*
X-8313660Y16683333D01*
X-8313660Y16683333D02*
X-8280327Y16750000D01*
X-4583334Y11980327D02*
X-4183334Y11980327D01*
X-4383334Y11980327D02*
X-4383334Y12680327D01*
X-4383334Y12680327D02*
X-4316667Y12580327D01*
X-4316667Y12580327D02*
X-4250000Y12513660D01*
X-4250000Y12513660D02*
X-4183334Y12480327D01*
X-5016667Y12680327D02*
X-5083334Y12680327D01*
X-5083334Y12680327D02*
X-5150001Y12646994D01*
X-5150001Y12646994D02*
X-5183334Y12613660D01*
X-5183334Y12613660D02*
X-5216667Y12546994D01*
X-5216667Y12546994D02*
X-5250001Y12413660D01*
X-5250001Y12413660D02*
X-5250001Y12246994D01*
X-5250001Y12246994D02*
X-5216667Y12113660D01*
X-5216667Y12113660D02*
X-5183334Y12046994D01*
X-5183334Y12046994D02*
X-5150001Y12013660D01*
X-5150001Y12013660D02*
X-5083334Y11980327D01*
X-5083334Y11980327D02*
X-5016667Y11980327D01*
X-5016667Y11980327D02*
X-4950001Y12013660D01*
X-4950001Y12013660D02*
X-4916667Y12046994D01*
X-4916667Y12046994D02*
X-4883334Y12113660D01*
X-4883334Y12113660D02*
X-4850001Y12246994D01*
X-4850001Y12246994D02*
X-4850001Y12413660D01*
X-4850001Y12413660D02*
X-4883334Y12546994D01*
X-4883334Y12546994D02*
X-4916667Y12613660D01*
X-4916667Y12613660D02*
X-4950001Y12646994D01*
X-4950001Y12646994D02*
X-5016667Y12680327D01*
X-5683334Y12680327D02*
X-5750001Y12680327D01*
X-5750001Y12680327D02*
X-5816668Y12646994D01*
X-5816668Y12646994D02*
X-5850001Y12613660D01*
X-5850001Y12613660D02*
X-5883334Y12546994D01*
X-5883334Y12546994D02*
X-5916668Y12413660D01*
X-5916668Y12413660D02*
X-5916668Y12246994D01*
X-5916668Y12246994D02*
X-5883334Y12113660D01*
X-5883334Y12113660D02*
X-5850001Y12046994D01*
X-5850001Y12046994D02*
X-5816668Y12013660D01*
X-5816668Y12013660D02*
X-5750001Y11980327D01*
X-5750001Y11980327D02*
X-5683334Y11980327D01*
X-5683334Y11980327D02*
X-5616668Y12013660D01*
X-5616668Y12013660D02*
X-5583334Y12046994D01*
X-5583334Y12046994D02*
X-5550001Y12113660D01*
X-5550001Y12113660D02*
X-5516668Y12246994D01*
X-5516668Y12246994D02*
X-5516668Y12413660D01*
X-5516668Y12413660D02*
X-5550001Y12546994D01*
X-5550001Y12546994D02*
X-5583334Y12613660D01*
X-5583334Y12613660D02*
X-5616668Y12646994D01*
X-5616668Y12646994D02*
X-5683334Y12680327D01*
X-6216668Y12446994D02*
X-6216668Y11980327D01*
X-6216668Y12380327D02*
X-6250001Y12413660D01*
X-6250001Y12413660D02*
X-6316668Y12446994D01*
X-6316668Y12446994D02*
X-6416668Y12446994D01*
X-6416668Y12446994D02*
X-6483335Y12413660D01*
X-6483335Y12413660D02*
X-6516668Y12346994D01*
X-6516668Y12346994D02*
X-6516668Y11980327D01*
X-7083334Y12346994D02*
X-6850001Y12346994D01*
X-6850001Y11980327D02*
X-6850001Y12680327D01*
X-6850001Y12680327D02*
X-7183334Y12680327D01*
X-8316667Y12680327D02*
X-7983334Y12680327D01*
X-7983334Y12680327D02*
X-7950001Y12346994D01*
X-7950001Y12346994D02*
X-7983334Y12380327D01*
X-7983334Y12380327D02*
X-8050001Y12413660D01*
X-8050001Y12413660D02*
X-8216667Y12413660D01*
X-8216667Y12413660D02*
X-8283334Y12380327D01*
X-8283334Y12380327D02*
X-8316667Y12346994D01*
X-8316667Y12346994D02*
X-8350001Y12280327D01*
X-8350001Y12280327D02*
X-8350001Y12113660D01*
X-8350001Y12113660D02*
X-8316667Y12046994D01*
X-8316667Y12046994D02*
X-8283334Y12013660D01*
X-8283334Y12013660D02*
X-8216667Y11980327D01*
X-8216667Y11980327D02*
X-8050001Y11980327D01*
X-8050001Y11980327D02*
X-7983334Y12013660D01*
X-7983334Y12013660D02*
X-7950001Y12046994D01*
X-8783334Y12680327D02*
X-8850001Y12680327D01*
X-8850001Y12680327D02*
X-8916668Y12646994D01*
X-8916668Y12646994D02*
X-8950001Y12613660D01*
X-8950001Y12613660D02*
X-8983334Y12546994D01*
X-8983334Y12546994D02*
X-9016668Y12413660D01*
X-9016668Y12413660D02*
X-9016668Y12246994D01*
X-9016668Y12246994D02*
X-8983334Y12113660D01*
X-8983334Y12113660D02*
X-8950001Y12046994D01*
X-8950001Y12046994D02*
X-8916668Y12013660D01*
X-8916668Y12013660D02*
X-8850001Y11980327D01*
X-8850001Y11980327D02*
X-8783334Y11980327D01*
X-8783334Y11980327D02*
X-8716668Y12013660D01*
X-8716668Y12013660D02*
X-8683334Y12046994D01*
X-8683334Y12046994D02*
X-8650001Y12113660D01*
X-8650001Y12113660D02*
X-8616668Y12246994D01*
X-8616668Y12246994D02*
X-8616668Y12413660D01*
X-8616668Y12413660D02*
X-8650001Y12546994D01*
X-8650001Y12546994D02*
X-8683334Y12613660D01*
X-8683334Y12613660D02*
X-8716668Y12646994D01*
X-8716668Y12646994D02*
X-8783334Y12680327D01*
X-9216668Y12680327D02*
X-9450001Y11980327D01*
X-9450001Y11980327D02*
X-9683335Y12680327D01*
X-12583334Y12046994D02*
X-12550001Y12013660D01*
X-12550001Y12013660D02*
X-12450001Y11980327D01*
X-12450001Y11980327D02*
X-12383334Y11980327D01*
X-12383334Y11980327D02*
X-12283334Y12013660D01*
X-12283334Y12013660D02*
X-12216667Y12080327D01*
X-12216667Y12080327D02*
X-12183334Y12146994D01*
X-12183334Y12146994D02*
X-12150001Y12280327D01*
X-12150001Y12280327D02*
X-12150001Y12380327D01*
X-12150001Y12380327D02*
X-12183334Y12513660D01*
X-12183334Y12513660D02*
X-12216667Y12580327D01*
X-12216667Y12580327D02*
X-12283334Y12646994D01*
X-12283334Y12646994D02*
X-12383334Y12680327D01*
X-12383334Y12680327D02*
X-12450001Y12680327D01*
X-12450001Y12680327D02*
X-12550001Y12646994D01*
X-12550001Y12646994D02*
X-12583334Y12613660D01*
X-13183334Y12446994D02*
X-13183334Y11980327D01*
X-13016667Y12713660D02*
X-12850001Y12213660D01*
X-12850001Y12213660D02*
X-13283334Y12213660D01*
X1016666Y1746994D02*
X1016666Y1280327D01*
X1183333Y2013660D02*
X1349999Y1513660D01*
X1349999Y1513660D02*
X916666Y1513660D01*
X649999Y1346994D02*
X616666Y1313660D01*
X616666Y1313660D02*
X649999Y1280327D01*
X649999Y1280327D02*
X683332Y1313660D01*
X683332Y1313660D02*
X649999Y1346994D01*
X649999Y1346994D02*
X649999Y1280327D01*
X383333Y1980327D02*
X-83334Y1980327D01*
X-83334Y1980327D02*
X216666Y1280327D01*
X-350001Y1280327D02*
X-350001Y1980327D01*
X-750001Y1280327D02*
X-450001Y1680327D01*
X-750001Y1980327D02*
X-350001Y1580327D01*
X416666Y280327D02*
X649999Y613660D01*
X816666Y280327D02*
X816666Y980327D01*
X816666Y980327D02*
X549999Y980327D01*
X549999Y980327D02*
X483333Y946994D01*
X483333Y946994D02*
X449999Y913660D01*
X449999Y913660D02*
X416666Y846994D01*
X416666Y846994D02*
X416666Y746994D01*
X416666Y746994D02*
X449999Y680327D01*
X449999Y680327D02*
X483333Y646994D01*
X483333Y646994D02*
X549999Y613660D01*
X549999Y613660D02*
X816666Y613660D01*
X183333Y980327D02*
X-283334Y980327D01*
X-283334Y980327D02*
X16666Y280327D01*
X9000000Y-9519673D02*
X9400000Y-9519673D01*
X9200000Y-9519673D02*
X9200000Y-8819673D01*
X9200000Y-8819673D02*
X9266667Y-8919673D01*
X9266667Y-8919673D02*
X9333334Y-8986340D01*
X9333334Y-8986340D02*
X9400000Y-9019673D01*
X8700000Y-9519673D02*
X8700000Y-8819673D01*
X8700000Y-8819673D02*
X8300000Y-9519673D01*
X8300000Y-9519673D02*
X8300000Y-8819673D01*
X7666667Y-9053006D02*
X7666667Y-9519673D01*
X7833334Y-8786340D02*
X8000000Y-9286340D01*
X8000000Y-9286340D02*
X7566667Y-9286340D01*
X6933333Y-9519673D02*
X7333333Y-9519673D01*
X7133333Y-9519673D02*
X7133333Y-8819673D01*
X7133333Y-8819673D02*
X7200000Y-8919673D01*
X7200000Y-8919673D02*
X7266667Y-8986340D01*
X7266667Y-8986340D02*
X7333333Y-9019673D01*
X6333333Y-9053006D02*
X6333333Y-9519673D01*
X6500000Y-8786340D02*
X6666666Y-9286340D01*
X6666666Y-9286340D02*
X6233333Y-9286340D01*
X5866666Y-9119673D02*
X5933333Y-9086340D01*
X5933333Y-9086340D02*
X5966666Y-9053006D01*
X5966666Y-9053006D02*
X5999999Y-8986340D01*
X5999999Y-8986340D02*
X5999999Y-8953006D01*
X5999999Y-8953006D02*
X5966666Y-8886340D01*
X5966666Y-8886340D02*
X5933333Y-8853006D01*
X5933333Y-8853006D02*
X5866666Y-8819673D01*
X5866666Y-8819673D02*
X5733333Y-8819673D01*
X5733333Y-8819673D02*
X5666666Y-8853006D01*
X5666666Y-8853006D02*
X5633333Y-8886340D01*
X5633333Y-8886340D02*
X5599999Y-8953006D01*
X5599999Y-8953006D02*
X5599999Y-8986340D01*
X5599999Y-8986340D02*
X5633333Y-9053006D01*
X5633333Y-9053006D02*
X5666666Y-9086340D01*
X5666666Y-9086340D02*
X5733333Y-9119673D01*
X5733333Y-9119673D02*
X5866666Y-9119673D01*
X5866666Y-9119673D02*
X5933333Y-9153006D01*
X5933333Y-9153006D02*
X5966666Y-9186340D01*
X5966666Y-9186340D02*
X5999999Y-9253006D01*
X5999999Y-9253006D02*
X5999999Y-9386340D01*
X5999999Y-9386340D02*
X5966666Y-9453006D01*
X5966666Y-9453006D02*
X5933333Y-9486340D01*
X5933333Y-9486340D02*
X5866666Y-9519673D01*
X5866666Y-9519673D02*
X5733333Y-9519673D01*
X5733333Y-9519673D02*
X5666666Y-9486340D01*
X5666666Y-9486340D02*
X5633333Y-9453006D01*
X5633333Y-9453006D02*
X5599999Y-9386340D01*
X5599999Y-9386340D02*
X5599999Y-9253006D01*
X5599999Y-9253006D02*
X5633333Y-9186340D01*
X5633333Y-9186340D02*
X5666666Y-9153006D01*
X5666666Y-9153006D02*
X5733333Y-9119673D01*
X7943666Y-6214673D02*
X7943666Y-5514673D01*
X7943666Y-5514673D02*
X7776999Y-5514673D01*
X7776999Y-5514673D02*
X7676999Y-5548006D01*
X7676999Y-5548006D02*
X7610333Y-5614673D01*
X7610333Y-5614673D02*
X7576999Y-5681340D01*
X7576999Y-5681340D02*
X7543666Y-5814673D01*
X7543666Y-5814673D02*
X7543666Y-5914673D01*
X7543666Y-5914673D02*
X7576999Y-6048006D01*
X7576999Y-6048006D02*
X7610333Y-6114673D01*
X7610333Y-6114673D02*
X7676999Y-6181340D01*
X7676999Y-6181340D02*
X7776999Y-6214673D01*
X7776999Y-6214673D02*
X7943666Y-6214673D01*
X6943666Y-5748006D02*
X6943666Y-6214673D01*
X7110333Y-5481340D02*
X7276999Y-5981340D01*
X7276999Y-5981340D02*
X6843666Y-5981340D01*
X1853006Y-10483333D02*
X2319673Y-10483333D01*
X1586340Y-10316667D02*
X2086340Y-10150000D01*
X2086340Y-10150000D02*
X2086340Y-10583333D01*
X2253006Y-10850000D02*
X2286340Y-10883334D01*
X2286340Y-10883334D02*
X2319673Y-10850000D01*
X2319673Y-10850000D02*
X2286340Y-10816667D01*
X2286340Y-10816667D02*
X2253006Y-10850000D01*
X2253006Y-10850000D02*
X2319673Y-10850000D01*
X1619673Y-11116667D02*
X1619673Y-11583333D01*
X1619673Y-11583333D02*
X2319673Y-11283333D01*
X2319673Y-11850000D02*
X1619673Y-11850000D01*
X2319673Y-12250000D02*
X1919673Y-11950000D01*
X1619673Y-12250000D02*
X2019673Y-11850000D01*
X3219673Y-10949999D02*
X2886340Y-10716666D01*
X3219673Y-10549999D02*
X2519673Y-10549999D01*
X2519673Y-10549999D02*
X2519673Y-10816666D01*
X2519673Y-10816666D02*
X2553006Y-10883333D01*
X2553006Y-10883333D02*
X2586340Y-10916666D01*
X2586340Y-10916666D02*
X2653006Y-10949999D01*
X2653006Y-10949999D02*
X2753006Y-10949999D01*
X2753006Y-10949999D02*
X2819673Y-10916666D01*
X2819673Y-10916666D02*
X2853006Y-10883333D01*
X2853006Y-10883333D02*
X2886340Y-10816666D01*
X2886340Y-10816666D02*
X2886340Y-10549999D01*
X3219673Y-11616666D02*
X3219673Y-11216666D01*
X3219673Y-11416666D02*
X2519673Y-11416666D01*
X2519673Y-11416666D02*
X2619673Y-11349999D01*
X2619673Y-11349999D02*
X2686340Y-11283333D01*
X2686340Y-11283333D02*
X2719673Y-11216666D01*
X3219673Y-12283333D02*
X3219673Y-11883333D01*
X3219673Y-12083333D02*
X2519673Y-12083333D01*
X2519673Y-12083333D02*
X2619673Y-12016666D01*
X2619673Y-12016666D02*
X2686340Y-11950000D01*
X2686340Y-11950000D02*
X2719673Y-11883333D01*
X-20780327Y-2483333D02*
X-20780327Y-2083333D01*
X-20780327Y-2283333D02*
X-21480327Y-2283333D01*
X-21480327Y-2283333D02*
X-21380327Y-2216666D01*
X-21380327Y-2216666D02*
X-21313660Y-2150000D01*
X-21313660Y-2150000D02*
X-21280327Y-2083333D01*
X-21480327Y-2916667D02*
X-21480327Y-2983333D01*
X-21480327Y-2983333D02*
X-21446994Y-3050000D01*
X-21446994Y-3050000D02*
X-21413660Y-3083333D01*
X-21413660Y-3083333D02*
X-21346994Y-3116667D01*
X-21346994Y-3116667D02*
X-21213660Y-3150000D01*
X-21213660Y-3150000D02*
X-21046994Y-3150000D01*
X-21046994Y-3150000D02*
X-20913660Y-3116667D01*
X-20913660Y-3116667D02*
X-20846994Y-3083333D01*
X-20846994Y-3083333D02*
X-20813660Y-3050000D01*
X-20813660Y-3050000D02*
X-20780327Y-2983333D01*
X-20780327Y-2983333D02*
X-20780327Y-2916667D01*
X-20780327Y-2916667D02*
X-20813660Y-2850000D01*
X-20813660Y-2850000D02*
X-20846994Y-2816667D01*
X-20846994Y-2816667D02*
X-20913660Y-2783333D01*
X-20913660Y-2783333D02*
X-21046994Y-2750000D01*
X-21046994Y-2750000D02*
X-21213660Y-2750000D01*
X-21213660Y-2750000D02*
X-21346994Y-2783333D01*
X-21346994Y-2783333D02*
X-21413660Y-2816667D01*
X-21413660Y-2816667D02*
X-21446994Y-2850000D01*
X-21446994Y-2850000D02*
X-21480327Y-2916667D01*
X-21480327Y-3583334D02*
X-21480327Y-3650000D01*
X-21480327Y-3650000D02*
X-21446994Y-3716667D01*
X-21446994Y-3716667D02*
X-21413660Y-3750000D01*
X-21413660Y-3750000D02*
X-21346994Y-3783334D01*
X-21346994Y-3783334D02*
X-21213660Y-3816667D01*
X-21213660Y-3816667D02*
X-21046994Y-3816667D01*
X-21046994Y-3816667D02*
X-20913660Y-3783334D01*
X-20913660Y-3783334D02*
X-20846994Y-3750000D01*
X-20846994Y-3750000D02*
X-20813660Y-3716667D01*
X-20813660Y-3716667D02*
X-20780327Y-3650000D01*
X-20780327Y-3650000D02*
X-20780327Y-3583334D01*
X-20780327Y-3583334D02*
X-20813660Y-3516667D01*
X-20813660Y-3516667D02*
X-20846994Y-3483334D01*
X-20846994Y-3483334D02*
X-20913660Y-3450000D01*
X-20913660Y-3450000D02*
X-21046994Y-3416667D01*
X-21046994Y-3416667D02*
X-21213660Y-3416667D01*
X-21213660Y-3416667D02*
X-21346994Y-3450000D01*
X-21346994Y-3450000D02*
X-21413660Y-3483334D01*
X-21413660Y-3483334D02*
X-21446994Y-3516667D01*
X-21446994Y-3516667D02*
X-21480327Y-3583334D01*
X-20780327Y-4116667D02*
X-21480327Y-4116667D01*
X-20780327Y-4516667D02*
X-21180327Y-4216667D01*
X-21480327Y-4516667D02*
X-21080327Y-4116667D01*
X-20142827Y-549999D02*
X-20476160Y-316666D01*
X-20142827Y-149999D02*
X-20842827Y-149999D01*
X-20842827Y-149999D02*
X-20842827Y-416666D01*
X-20842827Y-416666D02*
X-20809494Y-483333D01*
X-20809494Y-483333D02*
X-20776160Y-516666D01*
X-20776160Y-516666D02*
X-20709494Y-549999D01*
X-20709494Y-549999D02*
X-20609494Y-549999D01*
X-20609494Y-549999D02*
X-20542827Y-516666D01*
X-20542827Y-516666D02*
X-20509494Y-483333D01*
X-20509494Y-483333D02*
X-20476160Y-416666D01*
X-20476160Y-416666D02*
X-20476160Y-149999D01*
X-20142827Y-1216666D02*
X-20142827Y-816666D01*
X-20142827Y-1016666D02*
X-20842827Y-1016666D01*
X-20842827Y-1016666D02*
X-20742827Y-949999D01*
X-20742827Y-949999D02*
X-20676160Y-883333D01*
X-20676160Y-883333D02*
X-20642827Y-816666D01*
X-20842827Y-1450000D02*
X-20842827Y-1883333D01*
X-20842827Y-1883333D02*
X-20576160Y-1650000D01*
X-20576160Y-1650000D02*
X-20576160Y-1750000D01*
X-20576160Y-1750000D02*
X-20542827Y-1816666D01*
X-20542827Y-1816666D02*
X-20509494Y-1850000D01*
X-20509494Y-1850000D02*
X-20442827Y-1883333D01*
X-20442827Y-1883333D02*
X-20276160Y-1883333D01*
X-20276160Y-1883333D02*
X-20209494Y-1850000D01*
X-20209494Y-1850000D02*
X-20176160Y-1816666D01*
X-20176160Y-1816666D02*
X-20142827Y-1750000D01*
X-20142827Y-1750000D02*
X-20142827Y-1550000D01*
X-20142827Y-1550000D02*
X-20176160Y-1483333D01*
X-20176160Y-1483333D02*
X-20209494Y-1450000D01*
X6419673Y-14099999D02*
X6419673Y-13699999D01*
X6419673Y-13899999D02*
X5719673Y-13899999D01*
X5719673Y-13899999D02*
X5819673Y-13833332D01*
X5819673Y-13833332D02*
X5886340Y-13766666D01*
X5886340Y-13766666D02*
X5919673Y-13699999D01*
X6419673Y-14399999D02*
X5719673Y-14399999D01*
X5719673Y-14399999D02*
X6419673Y-14799999D01*
X6419673Y-14799999D02*
X5719673Y-14799999D01*
X5953006Y-15433332D02*
X6419673Y-15433332D01*
X5686340Y-15266666D02*
X6186340Y-15099999D01*
X6186340Y-15099999D02*
X6186340Y-15533332D01*
X6419673Y-16166666D02*
X6419673Y-15766666D01*
X6419673Y-15966666D02*
X5719673Y-15966666D01*
X5719673Y-15966666D02*
X5819673Y-15899999D01*
X5819673Y-15899999D02*
X5886340Y-15833333D01*
X5886340Y-15833333D02*
X5919673Y-15766666D01*
X5953006Y-16766666D02*
X6419673Y-16766666D01*
X5686340Y-16600000D02*
X6186340Y-16433333D01*
X6186340Y-16433333D02*
X6186340Y-16866666D01*
X6019673Y-17233333D02*
X5986340Y-17166667D01*
X5986340Y-17166667D02*
X5953006Y-17133333D01*
X5953006Y-17133333D02*
X5886340Y-17100000D01*
X5886340Y-17100000D02*
X5853006Y-17100000D01*
X5853006Y-17100000D02*
X5786340Y-17133333D01*
X5786340Y-17133333D02*
X5753006Y-17166667D01*
X5753006Y-17166667D02*
X5719673Y-17233333D01*
X5719673Y-17233333D02*
X5719673Y-17366667D01*
X5719673Y-17366667D02*
X5753006Y-17433333D01*
X5753006Y-17433333D02*
X5786340Y-17466667D01*
X5786340Y-17466667D02*
X5853006Y-17500000D01*
X5853006Y-17500000D02*
X5886340Y-17500000D01*
X5886340Y-17500000D02*
X5953006Y-17466667D01*
X5953006Y-17466667D02*
X5986340Y-17433333D01*
X5986340Y-17433333D02*
X6019673Y-17366667D01*
X6019673Y-17366667D02*
X6019673Y-17233333D01*
X6019673Y-17233333D02*
X6053006Y-17166667D01*
X6053006Y-17166667D02*
X6086340Y-17133333D01*
X6086340Y-17133333D02*
X6153006Y-17100000D01*
X6153006Y-17100000D02*
X6286340Y-17100000D01*
X6286340Y-17100000D02*
X6353006Y-17133333D01*
X6353006Y-17133333D02*
X6386340Y-17166667D01*
X6386340Y-17166667D02*
X6419673Y-17233333D01*
X6419673Y-17233333D02*
X6419673Y-17366667D01*
X6419673Y-17366667D02*
X6386340Y-17433333D01*
X6386340Y-17433333D02*
X6353006Y-17466667D01*
X6353006Y-17466667D02*
X6286340Y-17500000D01*
X6286340Y-17500000D02*
X6153006Y-17500000D01*
X6153006Y-17500000D02*
X6086340Y-17466667D01*
X6086340Y-17466667D02*
X6053006Y-17433333D01*
X6053006Y-17433333D02*
X6019673Y-17366667D01*
X5219673Y-15683333D02*
X4519673Y-15683333D01*
X4519673Y-15683333D02*
X4519673Y-15850000D01*
X4519673Y-15850000D02*
X4553006Y-15950000D01*
X4553006Y-15950000D02*
X4619673Y-16016667D01*
X4619673Y-16016667D02*
X4686340Y-16050000D01*
X4686340Y-16050000D02*
X4819673Y-16083333D01*
X4819673Y-16083333D02*
X4919673Y-16083333D01*
X4919673Y-16083333D02*
X5053006Y-16050000D01*
X5053006Y-16050000D02*
X5119673Y-16016667D01*
X5119673Y-16016667D02*
X5186340Y-15950000D01*
X5186340Y-15950000D02*
X5219673Y-15850000D01*
X5219673Y-15850000D02*
X5219673Y-15683333D01*
X4519673Y-16716667D02*
X4519673Y-16383333D01*
X4519673Y-16383333D02*
X4853006Y-16350000D01*
X4853006Y-16350000D02*
X4819673Y-16383333D01*
X4819673Y-16383333D02*
X4786340Y-16450000D01*
X4786340Y-16450000D02*
X4786340Y-16616667D01*
X4786340Y-16616667D02*
X4819673Y-16683333D01*
X4819673Y-16683333D02*
X4853006Y-16716667D01*
X4853006Y-16716667D02*
X4919673Y-16750000D01*
X4919673Y-16750000D02*
X5086340Y-16750000D01*
X5086340Y-16750000D02*
X5153006Y-16716667D01*
X5153006Y-16716667D02*
X5186340Y-16683333D01*
X5186340Y-16683333D02*
X5219673Y-16616667D01*
X5219673Y-16616667D02*
X5219673Y-16450000D01*
X5219673Y-16450000D02*
X5186340Y-16383333D01*
X5186340Y-16383333D02*
X5153006Y-16350000D01*
X10019673Y-15333333D02*
X10019673Y-15200000D01*
X10019673Y-15200000D02*
X10053006Y-15133333D01*
X10053006Y-15133333D02*
X10086340Y-15100000D01*
X10086340Y-15100000D02*
X10186340Y-15033333D01*
X10186340Y-15033333D02*
X10319673Y-15000000D01*
X10319673Y-15000000D02*
X10586340Y-15000000D01*
X10586340Y-15000000D02*
X10653006Y-15033333D01*
X10653006Y-15033333D02*
X10686340Y-15066667D01*
X10686340Y-15066667D02*
X10719673Y-15133333D01*
X10719673Y-15133333D02*
X10719673Y-15266667D01*
X10719673Y-15266667D02*
X10686340Y-15333333D01*
X10686340Y-15333333D02*
X10653006Y-15366667D01*
X10653006Y-15366667D02*
X10586340Y-15400000D01*
X10586340Y-15400000D02*
X10419673Y-15400000D01*
X10419673Y-15400000D02*
X10353006Y-15366667D01*
X10353006Y-15366667D02*
X10319673Y-15333333D01*
X10319673Y-15333333D02*
X10286340Y-15266667D01*
X10286340Y-15266667D02*
X10286340Y-15133333D01*
X10286340Y-15133333D02*
X10319673Y-15066667D01*
X10319673Y-15066667D02*
X10353006Y-15033333D01*
X10353006Y-15033333D02*
X10419673Y-15000000D01*
X10653006Y-15700000D02*
X10686340Y-15733334D01*
X10686340Y-15733334D02*
X10719673Y-15700000D01*
X10719673Y-15700000D02*
X10686340Y-15666667D01*
X10686340Y-15666667D02*
X10653006Y-15700000D01*
X10653006Y-15700000D02*
X10719673Y-15700000D01*
X10719673Y-16400000D02*
X10719673Y-16000000D01*
X10719673Y-16200000D02*
X10019673Y-16200000D01*
X10019673Y-16200000D02*
X10119673Y-16133333D01*
X10119673Y-16133333D02*
X10186340Y-16066667D01*
X10186340Y-16066667D02*
X10219673Y-16000000D01*
X10019673Y-16600000D02*
X10719673Y-16833334D01*
X10719673Y-16833334D02*
X10019673Y-17066667D01*
X9619673Y-14983333D02*
X8919673Y-14983333D01*
X8919673Y-14983333D02*
X8919673Y-15150000D01*
X8919673Y-15150000D02*
X8953006Y-15250000D01*
X8953006Y-15250000D02*
X9019673Y-15316667D01*
X9019673Y-15316667D02*
X9086340Y-15350000D01*
X9086340Y-15350000D02*
X9219673Y-15383333D01*
X9219673Y-15383333D02*
X9319673Y-15383333D01*
X9319673Y-15383333D02*
X9453006Y-15350000D01*
X9453006Y-15350000D02*
X9519673Y-15316667D01*
X9519673Y-15316667D02*
X9586340Y-15250000D01*
X9586340Y-15250000D02*
X9619673Y-15150000D01*
X9619673Y-15150000D02*
X9619673Y-14983333D01*
X8919673Y-15616667D02*
X8919673Y-16050000D01*
X8919673Y-16050000D02*
X9186340Y-15816667D01*
X9186340Y-15816667D02*
X9186340Y-15916667D01*
X9186340Y-15916667D02*
X9219673Y-15983333D01*
X9219673Y-15983333D02*
X9253006Y-16016667D01*
X9253006Y-16016667D02*
X9319673Y-16050000D01*
X9319673Y-16050000D02*
X9486340Y-16050000D01*
X9486340Y-16050000D02*
X9553006Y-16016667D01*
X9553006Y-16016667D02*
X9586340Y-15983333D01*
X9586340Y-15983333D02*
X9619673Y-15916667D01*
X9619673Y-15916667D02*
X9619673Y-15716667D01*
X9619673Y-15716667D02*
X9586340Y-15650000D01*
X9586340Y-15650000D02*
X9553006Y-15616667D01*
X8116666Y-11153006D02*
X8116666Y-11619673D01*
X8283333Y-10886340D02*
X8449999Y-11386340D01*
X8449999Y-11386340D02*
X8016666Y-11386340D01*
X7749999Y-11553006D02*
X7716666Y-11586340D01*
X7716666Y-11586340D02*
X7749999Y-11619673D01*
X7749999Y-11619673D02*
X7783332Y-11586340D01*
X7783332Y-11586340D02*
X7749999Y-11553006D01*
X7749999Y-11553006D02*
X7749999Y-11619673D01*
X7483333Y-10919673D02*
X7016666Y-10919673D01*
X7016666Y-10919673D02*
X7316666Y-11619673D01*
X6749999Y-11619673D02*
X6749999Y-10919673D01*
X6349999Y-11619673D02*
X6649999Y-11219673D01*
X6349999Y-10919673D02*
X6749999Y-11319673D01*
X7750000Y-12519673D02*
X7983333Y-12186340D01*
X8150000Y-12519673D02*
X8150000Y-11819673D01*
X8150000Y-11819673D02*
X7883333Y-11819673D01*
X7883333Y-11819673D02*
X7816667Y-11853006D01*
X7816667Y-11853006D02*
X7783333Y-11886340D01*
X7783333Y-11886340D02*
X7750000Y-11953006D01*
X7750000Y-11953006D02*
X7750000Y-12053006D01*
X7750000Y-12053006D02*
X7783333Y-12119673D01*
X7783333Y-12119673D02*
X7816667Y-12153006D01*
X7816667Y-12153006D02*
X7883333Y-12186340D01*
X7883333Y-12186340D02*
X8150000Y-12186340D01*
X7083333Y-12519673D02*
X7483333Y-12519673D01*
X7283333Y-12519673D02*
X7283333Y-11819673D01*
X7283333Y-11819673D02*
X7350000Y-11919673D01*
X7350000Y-11919673D02*
X7416667Y-11986340D01*
X7416667Y-11986340D02*
X7483333Y-12019673D01*
X6816666Y-11886340D02*
X6783333Y-11853006D01*
X6783333Y-11853006D02*
X6716666Y-11819673D01*
X6716666Y-11819673D02*
X6550000Y-11819673D01*
X6550000Y-11819673D02*
X6483333Y-11853006D01*
X6483333Y-11853006D02*
X6450000Y-11886340D01*
X6450000Y-11886340D02*
X6416666Y-11953006D01*
X6416666Y-11953006D02*
X6416666Y-12019673D01*
X6416666Y-12019673D02*
X6450000Y-12119673D01*
X6450000Y-12119673D02*
X6850000Y-12519673D01*
X6850000Y-12519673D02*
X6416666Y-12519673D01*
X-6583660Y-8850000D02*
X-6616994Y-8883333D01*
X-6616994Y-8883333D02*
X-6650327Y-8950000D01*
X-6650327Y-8950000D02*
X-6650327Y-9116667D01*
X-6650327Y-9116667D02*
X-6616994Y-9183333D01*
X-6616994Y-9183333D02*
X-6583660Y-9216667D01*
X-6583660Y-9216667D02*
X-6516994Y-9250000D01*
X-6516994Y-9250000D02*
X-6450327Y-9250000D01*
X-6450327Y-9250000D02*
X-6350327Y-9216667D01*
X-6350327Y-9216667D02*
X-5950327Y-8816667D01*
X-5950327Y-8816667D02*
X-5950327Y-9250000D01*
X-6016994Y-9550000D02*
X-5983660Y-9583334D01*
X-5983660Y-9583334D02*
X-5950327Y-9550000D01*
X-5950327Y-9550000D02*
X-5983660Y-9516667D01*
X-5983660Y-9516667D02*
X-6016994Y-9550000D01*
X-6016994Y-9550000D02*
X-5950327Y-9550000D01*
X-6583660Y-9850000D02*
X-6616994Y-9883333D01*
X-6616994Y-9883333D02*
X-6650327Y-9950000D01*
X-6650327Y-9950000D02*
X-6650327Y-10116667D01*
X-6650327Y-10116667D02*
X-6616994Y-10183333D01*
X-6616994Y-10183333D02*
X-6583660Y-10216667D01*
X-6583660Y-10216667D02*
X-6516994Y-10250000D01*
X-6516994Y-10250000D02*
X-6450327Y-10250000D01*
X-6450327Y-10250000D02*
X-6350327Y-10216667D01*
X-6350327Y-10216667D02*
X-5950327Y-9816667D01*
X-5950327Y-9816667D02*
X-5950327Y-10250000D01*
X-5950327Y-10550000D02*
X-6650327Y-10550000D01*
X-5950327Y-10950000D02*
X-6350327Y-10650000D01*
X-6650327Y-10950000D02*
X-6250327Y-10550000D01*
X-7380327Y-9783333D02*
X-7713660Y-9550000D01*
X-7380327Y-9383333D02*
X-8080327Y-9383333D01*
X-8080327Y-9383333D02*
X-8080327Y-9650000D01*
X-8080327Y-9650000D02*
X-8046994Y-9716667D01*
X-8046994Y-9716667D02*
X-8013660Y-9750000D01*
X-8013660Y-9750000D02*
X-7946994Y-9783333D01*
X-7946994Y-9783333D02*
X-7846994Y-9783333D01*
X-7846994Y-9783333D02*
X-7780327Y-9750000D01*
X-7780327Y-9750000D02*
X-7746994Y-9716667D01*
X-7746994Y-9716667D02*
X-7713660Y-9650000D01*
X-7713660Y-9650000D02*
X-7713660Y-9383333D01*
X-8080327Y-10383333D02*
X-8080327Y-10250000D01*
X-8080327Y-10250000D02*
X-8046994Y-10183333D01*
X-8046994Y-10183333D02*
X-8013660Y-10150000D01*
X-8013660Y-10150000D02*
X-7913660Y-10083333D01*
X-7913660Y-10083333D02*
X-7780327Y-10050000D01*
X-7780327Y-10050000D02*
X-7513660Y-10050000D01*
X-7513660Y-10050000D02*
X-7446994Y-10083333D01*
X-7446994Y-10083333D02*
X-7413660Y-10116667D01*
X-7413660Y-10116667D02*
X-7380327Y-10183333D01*
X-7380327Y-10183333D02*
X-7380327Y-10316667D01*
X-7380327Y-10316667D02*
X-7413660Y-10383333D01*
X-7413660Y-10383333D02*
X-7446994Y-10416667D01*
X-7446994Y-10416667D02*
X-7513660Y-10450000D01*
X-7513660Y-10450000D02*
X-7680327Y-10450000D01*
X-7680327Y-10450000D02*
X-7746994Y-10416667D01*
X-7746994Y-10416667D02*
X-7780327Y-10383333D01*
X-7780327Y-10383333D02*
X-7813660Y-10316667D01*
X-7813660Y-10316667D02*
X-7813660Y-10183333D01*
X-7813660Y-10183333D02*
X-7780327Y-10116667D01*
X-7780327Y-10116667D02*
X-7746994Y-10083333D01*
X-7746994Y-10083333D02*
X-7680327Y-10050000D01*
X7519673Y-15416667D02*
X8219673Y-15583333D01*
X8219673Y-15583333D02*
X7719673Y-15716667D01*
X7719673Y-15716667D02*
X8219673Y-15850000D01*
X8219673Y-15850000D02*
X7519673Y-16016667D01*
X8219673Y-16283333D02*
X7519673Y-16283333D01*
X8219673Y-16583333D02*
X7853006Y-16583333D01*
X7853006Y-16583333D02*
X7786340Y-16550000D01*
X7786340Y-16550000D02*
X7753006Y-16483333D01*
X7753006Y-16483333D02*
X7753006Y-16383333D01*
X7753006Y-16383333D02*
X7786340Y-16316667D01*
X7786340Y-16316667D02*
X7819673Y-16283333D01*
X8219673Y-16916666D02*
X7753006Y-16916666D01*
X7519673Y-16916666D02*
X7553006Y-16883333D01*
X7553006Y-16883333D02*
X7586340Y-16916666D01*
X7586340Y-16916666D02*
X7553006Y-16950000D01*
X7553006Y-16950000D02*
X7519673Y-16916666D01*
X7519673Y-16916666D02*
X7586340Y-16916666D01*
X7753006Y-17149999D02*
X7753006Y-17416666D01*
X7519673Y-17249999D02*
X8119673Y-17249999D01*
X8119673Y-17249999D02*
X8186340Y-17283333D01*
X8186340Y-17283333D02*
X8219673Y-17349999D01*
X8219673Y-17349999D02*
X8219673Y-17416666D01*
X8186340Y-17916666D02*
X8219673Y-17849999D01*
X8219673Y-17849999D02*
X8219673Y-17716666D01*
X8219673Y-17716666D02*
X8186340Y-17649999D01*
X8186340Y-17649999D02*
X8119673Y-17616666D01*
X8119673Y-17616666D02*
X7853006Y-17616666D01*
X7853006Y-17616666D02*
X7786340Y-17649999D01*
X7786340Y-17649999D02*
X7753006Y-17716666D01*
X7753006Y-17716666D02*
X7753006Y-17849999D01*
X7753006Y-17849999D02*
X7786340Y-17916666D01*
X7786340Y-17916666D02*
X7853006Y-17949999D01*
X7853006Y-17949999D02*
X7919673Y-17949999D01*
X7919673Y-17949999D02*
X7986340Y-17616666D01*
X8319673Y-13883333D02*
X7619673Y-13883333D01*
X7619673Y-13883333D02*
X7619673Y-14050000D01*
X7619673Y-14050000D02*
X7653006Y-14150000D01*
X7653006Y-14150000D02*
X7719673Y-14216667D01*
X7719673Y-14216667D02*
X7786340Y-14250000D01*
X7786340Y-14250000D02*
X7919673Y-14283333D01*
X7919673Y-14283333D02*
X8019673Y-14283333D01*
X8019673Y-14283333D02*
X8153006Y-14250000D01*
X8153006Y-14250000D02*
X8219673Y-14216667D01*
X8219673Y-14216667D02*
X8286340Y-14150000D01*
X8286340Y-14150000D02*
X8319673Y-14050000D01*
X8319673Y-14050000D02*
X8319673Y-13883333D01*
X8319673Y-14616667D02*
X8319673Y-14750000D01*
X8319673Y-14750000D02*
X8286340Y-14816667D01*
X8286340Y-14816667D02*
X8253006Y-14850000D01*
X8253006Y-14850000D02*
X8153006Y-14916667D01*
X8153006Y-14916667D02*
X8019673Y-14950000D01*
X8019673Y-14950000D02*
X7753006Y-14950000D01*
X7753006Y-14950000D02*
X7686340Y-14916667D01*
X7686340Y-14916667D02*
X7653006Y-14883333D01*
X7653006Y-14883333D02*
X7619673Y-14816667D01*
X7619673Y-14816667D02*
X7619673Y-14683333D01*
X7619673Y-14683333D02*
X7653006Y-14616667D01*
X7653006Y-14616667D02*
X7686340Y-14583333D01*
X7686340Y-14583333D02*
X7753006Y-14550000D01*
X7753006Y-14550000D02*
X7919673Y-14550000D01*
X7919673Y-14550000D02*
X7986340Y-14583333D01*
X7986340Y-14583333D02*
X8019673Y-14616667D01*
X8019673Y-14616667D02*
X8053006Y-14683333D01*
X8053006Y-14683333D02*
X8053006Y-14816667D01*
X8053006Y-14816667D02*
X8019673Y-14883333D01*
X8019673Y-14883333D02*
X7986340Y-14916667D01*
X7986340Y-14916667D02*
X7919673Y-14950000D01*
X-11450001Y-16549673D02*
X-11050001Y-16549673D01*
X-11250001Y-16549673D02*
X-11250001Y-15849673D01*
X-11250001Y-15849673D02*
X-11183334Y-15949673D01*
X-11183334Y-15949673D02*
X-11116667Y-16016340D01*
X-11116667Y-16016340D02*
X-11050001Y-16049673D01*
X-11750001Y-16549673D02*
X-11750001Y-15849673D01*
X-12150001Y-16549673D02*
X-11850001Y-16149673D01*
X-12150001Y-15849673D02*
X-11750001Y-16249673D01*
X-11150000Y-15119673D02*
X-10916667Y-14786340D01*
X-10750000Y-15119673D02*
X-10750000Y-14419673D01*
X-10750000Y-14419673D02*
X-11016667Y-14419673D01*
X-11016667Y-14419673D02*
X-11083333Y-14453006D01*
X-11083333Y-14453006D02*
X-11116667Y-14486340D01*
X-11116667Y-14486340D02*
X-11150000Y-14553006D01*
X-11150000Y-14553006D02*
X-11150000Y-14653006D01*
X-11150000Y-14653006D02*
X-11116667Y-14719673D01*
X-11116667Y-14719673D02*
X-11083333Y-14753006D01*
X-11083333Y-14753006D02*
X-11016667Y-14786340D01*
X-11016667Y-14786340D02*
X-10750000Y-14786340D01*
X-11816667Y-15119673D02*
X-11416667Y-15119673D01*
X-11616667Y-15119673D02*
X-11616667Y-14419673D01*
X-11616667Y-14419673D02*
X-11550000Y-14519673D01*
X-11550000Y-14519673D02*
X-11483333Y-14586340D01*
X-11483333Y-14586340D02*
X-11416667Y-14619673D01*
X-12416667Y-14419673D02*
X-12283334Y-14419673D01*
X-12283334Y-14419673D02*
X-12216667Y-14453006D01*
X-12216667Y-14453006D02*
X-12183334Y-14486340D01*
X-12183334Y-14486340D02*
X-12116667Y-14586340D01*
X-12116667Y-14586340D02*
X-12083334Y-14719673D01*
X-12083334Y-14719673D02*
X-12083334Y-14986340D01*
X-12083334Y-14986340D02*
X-12116667Y-15053006D01*
X-12116667Y-15053006D02*
X-12150000Y-15086340D01*
X-12150000Y-15086340D02*
X-12216667Y-15119673D01*
X-12216667Y-15119673D02*
X-12350000Y-15119673D01*
X-12350000Y-15119673D02*
X-12416667Y-15086340D01*
X-12416667Y-15086340D02*
X-12450000Y-15053006D01*
X-12450000Y-15053006D02*
X-12483334Y-14986340D01*
X-12483334Y-14986340D02*
X-12483334Y-14819673D01*
X-12483334Y-14819673D02*
X-12450000Y-14753006D01*
X-12450000Y-14753006D02*
X-12416667Y-14719673D01*
X-12416667Y-14719673D02*
X-12350000Y-14686340D01*
X-12350000Y-14686340D02*
X-12216667Y-14686340D01*
X-12216667Y-14686340D02*
X-12150000Y-14719673D01*
X-12150000Y-14719673D02*
X-12116667Y-14753006D01*
X-12116667Y-14753006D02*
X-12083334Y-14819673D01*
X12849999Y-16419673D02*
X13249999Y-16419673D01*
X13049999Y-16419673D02*
X13049999Y-15719673D01*
X13049999Y-15719673D02*
X13116666Y-15819673D01*
X13116666Y-15819673D02*
X13183333Y-15886340D01*
X13183333Y-15886340D02*
X13249999Y-15919673D01*
X12549999Y-16419673D02*
X12549999Y-15719673D01*
X12149999Y-16419673D02*
X12449999Y-16019673D01*
X12149999Y-15719673D02*
X12549999Y-16119673D01*
X12950000Y-15419673D02*
X13183333Y-15086340D01*
X13350000Y-15419673D02*
X13350000Y-14719673D01*
X13350000Y-14719673D02*
X13083333Y-14719673D01*
X13083333Y-14719673D02*
X13016667Y-14753006D01*
X13016667Y-14753006D02*
X12983333Y-14786340D01*
X12983333Y-14786340D02*
X12950000Y-14853006D01*
X12950000Y-14853006D02*
X12950000Y-14953006D01*
X12950000Y-14953006D02*
X12983333Y-15019673D01*
X12983333Y-15019673D02*
X13016667Y-15053006D01*
X13016667Y-15053006D02*
X13083333Y-15086340D01*
X13083333Y-15086340D02*
X13350000Y-15086340D01*
X12283333Y-15419673D02*
X12683333Y-15419673D01*
X12483333Y-15419673D02*
X12483333Y-14719673D01*
X12483333Y-14719673D02*
X12550000Y-14819673D01*
X12550000Y-14819673D02*
X12616667Y-14886340D01*
X12616667Y-14886340D02*
X12683333Y-14919673D01*
X11650000Y-14719673D02*
X11983333Y-14719673D01*
X11983333Y-14719673D02*
X12016666Y-15053006D01*
X12016666Y-15053006D02*
X11983333Y-15019673D01*
X11983333Y-15019673D02*
X11916666Y-14986340D01*
X11916666Y-14986340D02*
X11750000Y-14986340D01*
X11750000Y-14986340D02*
X11683333Y-15019673D01*
X11683333Y-15019673D02*
X11650000Y-15053006D01*
X11650000Y-15053006D02*
X11616666Y-15119673D01*
X11616666Y-15119673D02*
X11616666Y-15286340D01*
X11616666Y-15286340D02*
X11650000Y-15353006D01*
X11650000Y-15353006D02*
X11683333Y-15386340D01*
X11683333Y-15386340D02*
X11750000Y-15419673D01*
X11750000Y-15419673D02*
X11916666Y-15419673D01*
X11916666Y-15419673D02*
X11983333Y-15386340D01*
X11983333Y-15386340D02*
X12016666Y-15353006D01*
X2019673Y2550000D02*
X2019673Y2116667D01*
X2019673Y2116667D02*
X2286340Y2350000D01*
X2286340Y2350000D02*
X2286340Y2250000D01*
X2286340Y2250000D02*
X2319673Y2183334D01*
X2319673Y2183334D02*
X2353006Y2150000D01*
X2353006Y2150000D02*
X2419673Y2116667D01*
X2419673Y2116667D02*
X2586340Y2116667D01*
X2586340Y2116667D02*
X2653006Y2150000D01*
X2653006Y2150000D02*
X2686340Y2183334D01*
X2686340Y2183334D02*
X2719673Y2250000D01*
X2719673Y2250000D02*
X2719673Y2450000D01*
X2719673Y2450000D02*
X2686340Y2516667D01*
X2686340Y2516667D02*
X2653006Y2550000D01*
X2019673Y1883333D02*
X2019673Y1450000D01*
X2019673Y1450000D02*
X2286340Y1683333D01*
X2286340Y1683333D02*
X2286340Y1583333D01*
X2286340Y1583333D02*
X2319673Y1516667D01*
X2319673Y1516667D02*
X2353006Y1483333D01*
X2353006Y1483333D02*
X2419673Y1450000D01*
X2419673Y1450000D02*
X2586340Y1450000D01*
X2586340Y1450000D02*
X2653006Y1483333D01*
X2653006Y1483333D02*
X2686340Y1516667D01*
X2686340Y1516667D02*
X2719673Y1583333D01*
X2719673Y1583333D02*
X2719673Y1783333D01*
X2719673Y1783333D02*
X2686340Y1850000D01*
X2686340Y1850000D02*
X2653006Y1883333D01*
X2019673Y1016666D02*
X2019673Y950000D01*
X2019673Y950000D02*
X2053006Y883333D01*
X2053006Y883333D02*
X2086340Y850000D01*
X2086340Y850000D02*
X2153006Y816666D01*
X2153006Y816666D02*
X2286340Y783333D01*
X2286340Y783333D02*
X2453006Y783333D01*
X2453006Y783333D02*
X2586340Y816666D01*
X2586340Y816666D02*
X2653006Y850000D01*
X2653006Y850000D02*
X2686340Y883333D01*
X2686340Y883333D02*
X2719673Y950000D01*
X2719673Y950000D02*
X2719673Y1016666D01*
X2719673Y1016666D02*
X2686340Y1083333D01*
X2686340Y1083333D02*
X2653006Y1116666D01*
X2653006Y1116666D02*
X2586340Y1150000D01*
X2586340Y1150000D02*
X2453006Y1183333D01*
X2453006Y1183333D02*
X2286340Y1183333D01*
X2286340Y1183333D02*
X2153006Y1150000D01*
X2153006Y1150000D02*
X2086340Y1116666D01*
X2086340Y1116666D02*
X2053006Y1083333D01*
X2053006Y1083333D02*
X2019673Y1016666D01*
X2719673Y83333D02*
X2386340Y316666D01*
X2719673Y483333D02*
X2019673Y483333D01*
X2019673Y483333D02*
X2019673Y216666D01*
X2019673Y216666D02*
X2053006Y149999D01*
X2053006Y149999D02*
X2086340Y116666D01*
X2086340Y116666D02*
X2153006Y83333D01*
X2153006Y83333D02*
X2253006Y83333D01*
X2253006Y83333D02*
X2319673Y116666D01*
X2319673Y116666D02*
X2353006Y149999D01*
X2353006Y149999D02*
X2386340Y216666D01*
X2386340Y216666D02*
X2386340Y483333D01*
X4019673Y1416667D02*
X3686340Y1650000D01*
X4019673Y1816667D02*
X3319673Y1816667D01*
X3319673Y1816667D02*
X3319673Y1550000D01*
X3319673Y1550000D02*
X3353006Y1483333D01*
X3353006Y1483333D02*
X3386340Y1450000D01*
X3386340Y1450000D02*
X3453006Y1416667D01*
X3453006Y1416667D02*
X3553006Y1416667D01*
X3553006Y1416667D02*
X3619673Y1450000D01*
X3619673Y1450000D02*
X3653006Y1483333D01*
X3653006Y1483333D02*
X3686340Y1550000D01*
X3686340Y1550000D02*
X3686340Y1816667D01*
X3319673Y783333D02*
X3319673Y1116667D01*
X3319673Y1116667D02*
X3653006Y1150000D01*
X3653006Y1150000D02*
X3619673Y1116667D01*
X3619673Y1116667D02*
X3586340Y1050000D01*
X3586340Y1050000D02*
X3586340Y883333D01*
X3586340Y883333D02*
X3619673Y816667D01*
X3619673Y816667D02*
X3653006Y783333D01*
X3653006Y783333D02*
X3719673Y750000D01*
X3719673Y750000D02*
X3886340Y750000D01*
X3886340Y750000D02*
X3953006Y783333D01*
X3953006Y783333D02*
X3986340Y816667D01*
X3986340Y816667D02*
X4019673Y883333D01*
X4019673Y883333D02*
X4019673Y1050000D01*
X4019673Y1050000D02*
X3986340Y1116667D01*
X3986340Y1116667D02*
X3953006Y1150000D01*
X4319673Y5950000D02*
X4319673Y5516667D01*
X4319673Y5516667D02*
X4586340Y5750000D01*
X4586340Y5750000D02*
X4586340Y5650000D01*
X4586340Y5650000D02*
X4619673Y5583334D01*
X4619673Y5583334D02*
X4653006Y5550000D01*
X4653006Y5550000D02*
X4719673Y5516667D01*
X4719673Y5516667D02*
X4886340Y5516667D01*
X4886340Y5516667D02*
X4953006Y5550000D01*
X4953006Y5550000D02*
X4986340Y5583334D01*
X4986340Y5583334D02*
X5019673Y5650000D01*
X5019673Y5650000D02*
X5019673Y5850000D01*
X5019673Y5850000D02*
X4986340Y5916667D01*
X4986340Y5916667D02*
X4953006Y5950000D01*
X4319673Y5283333D02*
X4319673Y4850000D01*
X4319673Y4850000D02*
X4586340Y5083333D01*
X4586340Y5083333D02*
X4586340Y4983333D01*
X4586340Y4983333D02*
X4619673Y4916667D01*
X4619673Y4916667D02*
X4653006Y4883333D01*
X4653006Y4883333D02*
X4719673Y4850000D01*
X4719673Y4850000D02*
X4886340Y4850000D01*
X4886340Y4850000D02*
X4953006Y4883333D01*
X4953006Y4883333D02*
X4986340Y4916667D01*
X4986340Y4916667D02*
X5019673Y4983333D01*
X5019673Y4983333D02*
X5019673Y5183333D01*
X5019673Y5183333D02*
X4986340Y5250000D01*
X4986340Y5250000D02*
X4953006Y5283333D01*
X4319673Y4416666D02*
X4319673Y4350000D01*
X4319673Y4350000D02*
X4353006Y4283333D01*
X4353006Y4283333D02*
X4386340Y4250000D01*
X4386340Y4250000D02*
X4453006Y4216666D01*
X4453006Y4216666D02*
X4586340Y4183333D01*
X4586340Y4183333D02*
X4753006Y4183333D01*
X4753006Y4183333D02*
X4886340Y4216666D01*
X4886340Y4216666D02*
X4953006Y4250000D01*
X4953006Y4250000D02*
X4986340Y4283333D01*
X4986340Y4283333D02*
X5019673Y4350000D01*
X5019673Y4350000D02*
X5019673Y4416666D01*
X5019673Y4416666D02*
X4986340Y4483333D01*
X4986340Y4483333D02*
X4953006Y4516666D01*
X4953006Y4516666D02*
X4886340Y4550000D01*
X4886340Y4550000D02*
X4753006Y4583333D01*
X4753006Y4583333D02*
X4586340Y4583333D01*
X4586340Y4583333D02*
X4453006Y4550000D01*
X4453006Y4550000D02*
X4386340Y4516666D01*
X4386340Y4516666D02*
X4353006Y4483333D01*
X4353006Y4483333D02*
X4319673Y4416666D01*
X5019673Y3483333D02*
X4686340Y3716666D01*
X5019673Y3883333D02*
X4319673Y3883333D01*
X4319673Y3883333D02*
X4319673Y3616666D01*
X4319673Y3616666D02*
X4353006Y3549999D01*
X4353006Y3549999D02*
X4386340Y3516666D01*
X4386340Y3516666D02*
X4453006Y3483333D01*
X4453006Y3483333D02*
X4553006Y3483333D01*
X4553006Y3483333D02*
X4619673Y3516666D01*
X4619673Y3516666D02*
X4653006Y3549999D01*
X4653006Y3549999D02*
X4686340Y3616666D01*
X4686340Y3616666D02*
X4686340Y3883333D01*
X6319673Y3016667D02*
X5986340Y3250000D01*
X6319673Y3416667D02*
X5619673Y3416667D01*
X5619673Y3416667D02*
X5619673Y3150000D01*
X5619673Y3150000D02*
X5653006Y3083333D01*
X5653006Y3083333D02*
X5686340Y3050000D01*
X5686340Y3050000D02*
X5753006Y3016667D01*
X5753006Y3016667D02*
X5853006Y3016667D01*
X5853006Y3016667D02*
X5919673Y3050000D01*
X5919673Y3050000D02*
X5953006Y3083333D01*
X5953006Y3083333D02*
X5986340Y3150000D01*
X5986340Y3150000D02*
X5986340Y3416667D01*
X5853006Y2416667D02*
X6319673Y2416667D01*
X5586340Y2583333D02*
X6086340Y2750000D01*
X6086340Y2750000D02*
X6086340Y2316667D01*
X11819673Y-5583333D02*
X11819673Y-5183333D01*
X11819673Y-5383333D02*
X11119673Y-5383333D01*
X11119673Y-5383333D02*
X11219673Y-5316666D01*
X11219673Y-5316666D02*
X11286340Y-5250000D01*
X11286340Y-5250000D02*
X11319673Y-5183333D01*
X11119673Y-6016667D02*
X11119673Y-6083333D01*
X11119673Y-6083333D02*
X11153006Y-6150000D01*
X11153006Y-6150000D02*
X11186340Y-6183333D01*
X11186340Y-6183333D02*
X11253006Y-6216667D01*
X11253006Y-6216667D02*
X11386340Y-6250000D01*
X11386340Y-6250000D02*
X11553006Y-6250000D01*
X11553006Y-6250000D02*
X11686340Y-6216667D01*
X11686340Y-6216667D02*
X11753006Y-6183333D01*
X11753006Y-6183333D02*
X11786340Y-6150000D01*
X11786340Y-6150000D02*
X11819673Y-6083333D01*
X11819673Y-6083333D02*
X11819673Y-6016667D01*
X11819673Y-6016667D02*
X11786340Y-5950000D01*
X11786340Y-5950000D02*
X11753006Y-5916667D01*
X11753006Y-5916667D02*
X11686340Y-5883333D01*
X11686340Y-5883333D02*
X11553006Y-5850000D01*
X11553006Y-5850000D02*
X11386340Y-5850000D01*
X11386340Y-5850000D02*
X11253006Y-5883333D01*
X11253006Y-5883333D02*
X11186340Y-5916667D01*
X11186340Y-5916667D02*
X11153006Y-5950000D01*
X11153006Y-5950000D02*
X11119673Y-6016667D01*
X11119673Y-6683334D02*
X11119673Y-6750000D01*
X11119673Y-6750000D02*
X11153006Y-6816667D01*
X11153006Y-6816667D02*
X11186340Y-6850000D01*
X11186340Y-6850000D02*
X11253006Y-6883334D01*
X11253006Y-6883334D02*
X11386340Y-6916667D01*
X11386340Y-6916667D02*
X11553006Y-6916667D01*
X11553006Y-6916667D02*
X11686340Y-6883334D01*
X11686340Y-6883334D02*
X11753006Y-6850000D01*
X11753006Y-6850000D02*
X11786340Y-6816667D01*
X11786340Y-6816667D02*
X11819673Y-6750000D01*
X11819673Y-6750000D02*
X11819673Y-6683334D01*
X11819673Y-6683334D02*
X11786340Y-6616667D01*
X11786340Y-6616667D02*
X11753006Y-6583334D01*
X11753006Y-6583334D02*
X11686340Y-6550000D01*
X11686340Y-6550000D02*
X11553006Y-6516667D01*
X11553006Y-6516667D02*
X11386340Y-6516667D01*
X11386340Y-6516667D02*
X11253006Y-6550000D01*
X11253006Y-6550000D02*
X11186340Y-6583334D01*
X11186340Y-6583334D02*
X11153006Y-6616667D01*
X11153006Y-6616667D02*
X11119673Y-6683334D01*
X11819673Y-7616667D02*
X11486340Y-7383334D01*
X11819673Y-7216667D02*
X11119673Y-7216667D01*
X11119673Y-7216667D02*
X11119673Y-7483334D01*
X11119673Y-7483334D02*
X11153006Y-7550001D01*
X11153006Y-7550001D02*
X11186340Y-7583334D01*
X11186340Y-7583334D02*
X11253006Y-7616667D01*
X11253006Y-7616667D02*
X11353006Y-7616667D01*
X11353006Y-7616667D02*
X11419673Y-7583334D01*
X11419673Y-7583334D02*
X11453006Y-7550001D01*
X11453006Y-7550001D02*
X11486340Y-7483334D01*
X11486340Y-7483334D02*
X11486340Y-7216667D01*
X12319673Y-8783333D02*
X11986340Y-8550000D01*
X12319673Y-8383333D02*
X11619673Y-8383333D01*
X11619673Y-8383333D02*
X11619673Y-8650000D01*
X11619673Y-8650000D02*
X11653006Y-8716667D01*
X11653006Y-8716667D02*
X11686340Y-8750000D01*
X11686340Y-8750000D02*
X11753006Y-8783333D01*
X11753006Y-8783333D02*
X11853006Y-8783333D01*
X11853006Y-8783333D02*
X11919673Y-8750000D01*
X11919673Y-8750000D02*
X11953006Y-8716667D01*
X11953006Y-8716667D02*
X11986340Y-8650000D01*
X11986340Y-8650000D02*
X11986340Y-8383333D01*
X11619673Y-9016667D02*
X11619673Y-9450000D01*
X11619673Y-9450000D02*
X11886340Y-9216667D01*
X11886340Y-9216667D02*
X11886340Y-9316667D01*
X11886340Y-9316667D02*
X11919673Y-9383333D01*
X11919673Y-9383333D02*
X11953006Y-9416667D01*
X11953006Y-9416667D02*
X12019673Y-9450000D01*
X12019673Y-9450000D02*
X12186340Y-9450000D01*
X12186340Y-9450000D02*
X12253006Y-9416667D01*
X12253006Y-9416667D02*
X12286340Y-9383333D01*
X12286340Y-9383333D02*
X12319673Y-9316667D01*
X12319673Y-9316667D02*
X12319673Y-9116667D01*
X12319673Y-9116667D02*
X12286340Y-9050000D01*
X12286340Y-9050000D02*
X12253006Y-9016667D01*
X-10133333Y-1019673D02*
X-9800000Y-1019673D01*
X-9800000Y-1019673D02*
X-9800000Y-319673D01*
X-10766667Y-1019673D02*
X-10533334Y-686340D01*
X-10366667Y-1019673D02*
X-10366667Y-319673D01*
X-10366667Y-319673D02*
X-10633334Y-319673D01*
X-10633334Y-319673D02*
X-10700000Y-353006D01*
X-10700000Y-353006D02*
X-10733334Y-386340D01*
X-10733334Y-386340D02*
X-10766667Y-453006D01*
X-10766667Y-453006D02*
X-10766667Y-553006D01*
X-10766667Y-553006D02*
X-10733334Y-619673D01*
X-10733334Y-619673D02*
X-10700000Y-653006D01*
X-10700000Y-653006D02*
X-10633334Y-686340D01*
X-10633334Y-686340D02*
X-10366667Y-686340D01*
X-11100000Y-1019673D02*
X-11233334Y-1019673D01*
X-11233334Y-1019673D02*
X-11300000Y-986340D01*
X-11300000Y-986340D02*
X-11333334Y-953006D01*
X-11333334Y-953006D02*
X-11400000Y-853006D01*
X-11400000Y-853006D02*
X-11433334Y-719673D01*
X-11433334Y-719673D02*
X-11433334Y-453006D01*
X-11433334Y-453006D02*
X-11400000Y-386340D01*
X-11400000Y-386340D02*
X-11366667Y-353006D01*
X-11366667Y-353006D02*
X-11300000Y-319673D01*
X-11300000Y-319673D02*
X-11166667Y-319673D01*
X-11166667Y-319673D02*
X-11100000Y-353006D01*
X-11100000Y-353006D02*
X-11066667Y-386340D01*
X-11066667Y-386340D02*
X-11033334Y-453006D01*
X-11033334Y-453006D02*
X-11033334Y-619673D01*
X-11033334Y-619673D02*
X-11066667Y-686340D01*
X-11066667Y-686340D02*
X-11100000Y-719673D01*
X-11100000Y-719673D02*
X-11166667Y-753006D01*
X-11166667Y-753006D02*
X-11300000Y-753006D01*
X-11300000Y-753006D02*
X-11366667Y-719673D01*
X-11366667Y-719673D02*
X-11400000Y-686340D01*
X-11400000Y-686340D02*
X-11433334Y-619673D01*
X-12100001Y-1019673D02*
X-11700001Y-1019673D01*
X-11900001Y-1019673D02*
X-11900001Y-319673D01*
X-11900001Y-319673D02*
X-11833334Y-419673D01*
X-11833334Y-419673D02*
X-11766667Y-486340D01*
X-11766667Y-486340D02*
X-11700001Y-519673D01*
X-12533334Y-319673D02*
X-12600001Y-319673D01*
X-12600001Y-319673D02*
X-12666668Y-353006D01*
X-12666668Y-353006D02*
X-12700001Y-386340D01*
X-12700001Y-386340D02*
X-12733334Y-453006D01*
X-12733334Y-453006D02*
X-12766668Y-586340D01*
X-12766668Y-586340D02*
X-12766668Y-753006D01*
X-12766668Y-753006D02*
X-12733334Y-886340D01*
X-12733334Y-886340D02*
X-12700001Y-953006D01*
X-12700001Y-953006D02*
X-12666668Y-986340D01*
X-12666668Y-986340D02*
X-12600001Y-1019673D01*
X-12600001Y-1019673D02*
X-12533334Y-1019673D01*
X-12533334Y-1019673D02*
X-12466668Y-986340D01*
X-12466668Y-986340D02*
X-12433334Y-953006D01*
X-12433334Y-953006D02*
X-12400001Y-886340D01*
X-12400001Y-886340D02*
X-12366668Y-753006D01*
X-12366668Y-753006D02*
X-12366668Y-586340D01*
X-12366668Y-586340D02*
X-12400001Y-453006D01*
X-12400001Y-453006D02*
X-12433334Y-386340D01*
X-12433334Y-386340D02*
X-12466668Y-353006D01*
X-12466668Y-353006D02*
X-12533334Y-319673D01*
X-13033335Y-386340D02*
X-13066668Y-353006D01*
X-13066668Y-353006D02*
X-13133335Y-319673D01*
X-13133335Y-319673D02*
X-13300001Y-319673D01*
X-13300001Y-319673D02*
X-13366668Y-353006D01*
X-13366668Y-353006D02*
X-13400001Y-386340D01*
X-13400001Y-386340D02*
X-13433335Y-453006D01*
X-13433335Y-453006D02*
X-13433335Y-519673D01*
X-13433335Y-519673D02*
X-13400001Y-619673D01*
X-13400001Y-619673D02*
X-13000001Y-1019673D01*
X-13000001Y-1019673D02*
X-13433335Y-1019673D01*
X-11880327Y1333334D02*
X-11313660Y1333334D01*
X-11313660Y1333334D02*
X-11246994Y1300000D01*
X-11246994Y1300000D02*
X-11213660Y1266667D01*
X-11213660Y1266667D02*
X-11180327Y1200000D01*
X-11180327Y1200000D02*
X-11180327Y1066667D01*
X-11180327Y1066667D02*
X-11213660Y1000000D01*
X-11213660Y1000000D02*
X-11246994Y966667D01*
X-11246994Y966667D02*
X-11313660Y933334D01*
X-11313660Y933334D02*
X-11880327Y933334D01*
X-11880327Y266667D02*
X-11880327Y600001D01*
X-11880327Y600001D02*
X-11546994Y633334D01*
X-11546994Y633334D02*
X-11580327Y600001D01*
X-11580327Y600001D02*
X-11613660Y533334D01*
X-11613660Y533334D02*
X-11613660Y366667D01*
X-11613660Y366667D02*
X-11580327Y300001D01*
X-11580327Y300001D02*
X-11546994Y266667D01*
X-11546994Y266667D02*
X-11480327Y233334D01*
X-11480327Y233334D02*
X-11313660Y233334D01*
X-11313660Y233334D02*
X-11246994Y266667D01*
X-11246994Y266667D02*
X-11213660Y300001D01*
X-11213660Y300001D02*
X-11180327Y366667D01*
X-11180327Y366667D02*
X-11180327Y533334D01*
X-11180327Y533334D02*
X-11213660Y600001D01*
X-11213660Y600001D02*
X-11246994Y633334D01*
X15716666Y-13919673D02*
X15716666Y-13219673D01*
X15716666Y-13219673D02*
X15483333Y-13719673D01*
X15483333Y-13719673D02*
X15249999Y-13219673D01*
X15249999Y-13219673D02*
X15249999Y-13919673D01*
X14916666Y-13919673D02*
X14916666Y-13219673D01*
X14916666Y-13219673D02*
X14683333Y-13719673D01*
X14683333Y-13719673D02*
X14449999Y-13219673D01*
X14449999Y-13219673D02*
X14449999Y-13919673D01*
X13883333Y-13553006D02*
X13783333Y-13586340D01*
X13783333Y-13586340D02*
X13749999Y-13619673D01*
X13749999Y-13619673D02*
X13716666Y-13686340D01*
X13716666Y-13686340D02*
X13716666Y-13786340D01*
X13716666Y-13786340D02*
X13749999Y-13853006D01*
X13749999Y-13853006D02*
X13783333Y-13886340D01*
X13783333Y-13886340D02*
X13849999Y-13919673D01*
X13849999Y-13919673D02*
X14116666Y-13919673D01*
X14116666Y-13919673D02*
X14116666Y-13219673D01*
X14116666Y-13219673D02*
X13883333Y-13219673D01*
X13883333Y-13219673D02*
X13816666Y-13253006D01*
X13816666Y-13253006D02*
X13783333Y-13286340D01*
X13783333Y-13286340D02*
X13749999Y-13353006D01*
X13749999Y-13353006D02*
X13749999Y-13419673D01*
X13749999Y-13419673D02*
X13783333Y-13486340D01*
X13783333Y-13486340D02*
X13816666Y-13519673D01*
X13816666Y-13519673D02*
X13883333Y-13553006D01*
X13883333Y-13553006D02*
X14116666Y-13553006D01*
X13516666Y-13219673D02*
X13116666Y-13219673D01*
X13316666Y-13919673D02*
X13316666Y-13219673D01*
X12916666Y-13719673D02*
X12583333Y-13719673D01*
X12983333Y-13919673D02*
X12750000Y-13219673D01*
X12750000Y-13219673D02*
X12516666Y-13919673D01*
X11983333Y-13453006D02*
X11983333Y-13919673D01*
X12150000Y-13186340D02*
X12316666Y-13686340D01*
X12316666Y-13686340D02*
X11883333Y-13686340D01*
X11649999Y-13286340D02*
X11616666Y-13253006D01*
X11616666Y-13253006D02*
X11549999Y-13219673D01*
X11549999Y-13219673D02*
X11383333Y-13219673D01*
X11383333Y-13219673D02*
X11316666Y-13253006D01*
X11316666Y-13253006D02*
X11283333Y-13286340D01*
X11283333Y-13286340D02*
X11249999Y-13353006D01*
X11249999Y-13353006D02*
X11249999Y-13419673D01*
X11249999Y-13419673D02*
X11283333Y-13519673D01*
X11283333Y-13519673D02*
X11683333Y-13919673D01*
X11683333Y-13919673D02*
X11249999Y-13919673D01*
X12866666Y-12586340D02*
X12933333Y-12553006D01*
X12933333Y-12553006D02*
X13000000Y-12486340D01*
X13000000Y-12486340D02*
X13100000Y-12386340D01*
X13100000Y-12386340D02*
X13166666Y-12353006D01*
X13166666Y-12353006D02*
X13233333Y-12353006D01*
X13200000Y-12519673D02*
X13266666Y-12486340D01*
X13266666Y-12486340D02*
X13333333Y-12419673D01*
X13333333Y-12419673D02*
X13366666Y-12286340D01*
X13366666Y-12286340D02*
X13366666Y-12053006D01*
X13366666Y-12053006D02*
X13333333Y-11919673D01*
X13333333Y-11919673D02*
X13266666Y-11853006D01*
X13266666Y-11853006D02*
X13200000Y-11819673D01*
X13200000Y-11819673D02*
X13066666Y-11819673D01*
X13066666Y-11819673D02*
X13000000Y-11853006D01*
X13000000Y-11853006D02*
X12933333Y-11919673D01*
X12933333Y-11919673D02*
X12900000Y-12053006D01*
X12900000Y-12053006D02*
X12900000Y-12286340D01*
X12900000Y-12286340D02*
X12933333Y-12419673D01*
X12933333Y-12419673D02*
X13000000Y-12486340D01*
X13000000Y-12486340D02*
X13066666Y-12519673D01*
X13066666Y-12519673D02*
X13200000Y-12519673D01*
X12633333Y-11886340D02*
X12600000Y-11853006D01*
X12600000Y-11853006D02*
X12533333Y-11819673D01*
X12533333Y-11819673D02*
X12366667Y-11819673D01*
X12366667Y-11819673D02*
X12300000Y-11853006D01*
X12300000Y-11853006D02*
X12266667Y-11886340D01*
X12266667Y-11886340D02*
X12233333Y-11953006D01*
X12233333Y-11953006D02*
X12233333Y-12019673D01*
X12233333Y-12019673D02*
X12266667Y-12119673D01*
X12266667Y-12119673D02*
X12666667Y-12519673D01*
X12666667Y-12519673D02*
X12233333Y-12519673D01*
X-3650000Y-5153006D02*
X-3616667Y-5186340D01*
X-3616667Y-5186340D02*
X-3516667Y-5219673D01*
X-3516667Y-5219673D02*
X-3450000Y-5219673D01*
X-3450000Y-5219673D02*
X-3350000Y-5186340D01*
X-3350000Y-5186340D02*
X-3283333Y-5119673D01*
X-3283333Y-5119673D02*
X-3250000Y-5053006D01*
X-3250000Y-5053006D02*
X-3216667Y-4919673D01*
X-3216667Y-4919673D02*
X-3216667Y-4819673D01*
X-3216667Y-4819673D02*
X-3250000Y-4686340D01*
X-3250000Y-4686340D02*
X-3283333Y-4619673D01*
X-3283333Y-4619673D02*
X-3350000Y-4553006D01*
X-3350000Y-4553006D02*
X-3450000Y-4519673D01*
X-3450000Y-4519673D02*
X-3516667Y-4519673D01*
X-3516667Y-4519673D02*
X-3616667Y-4553006D01*
X-3616667Y-4553006D02*
X-3650000Y-4586340D01*
X-3950000Y-5219673D02*
X-3950000Y-4519673D01*
X-3950000Y-4853006D02*
X-4350000Y-4853006D01*
X-4350000Y-5219673D02*
X-4350000Y-4519673D01*
X-4616666Y-4519673D02*
X-5050000Y-4519673D01*
X-5050000Y-4519673D02*
X-4816666Y-4786340D01*
X-4816666Y-4786340D02*
X-4916666Y-4786340D01*
X-4916666Y-4786340D02*
X-4983333Y-4819673D01*
X-4983333Y-4819673D02*
X-5016666Y-4853006D01*
X-5016666Y-4853006D02*
X-5050000Y-4919673D01*
X-5050000Y-4919673D02*
X-5050000Y-5086340D01*
X-5050000Y-5086340D02*
X-5016666Y-5153006D01*
X-5016666Y-5153006D02*
X-4983333Y-5186340D01*
X-4983333Y-5186340D02*
X-4916666Y-5219673D01*
X-4916666Y-5219673D02*
X-4716666Y-5219673D01*
X-4716666Y-5219673D02*
X-4650000Y-5186340D01*
X-4650000Y-5186340D02*
X-4616666Y-5153006D01*
X-5316667Y-4586340D02*
X-5350000Y-4553006D01*
X-5350000Y-4553006D02*
X-5416667Y-4519673D01*
X-5416667Y-4519673D02*
X-5583333Y-4519673D01*
X-5583333Y-4519673D02*
X-5650000Y-4553006D01*
X-5650000Y-4553006D02*
X-5683333Y-4586340D01*
X-5683333Y-4586340D02*
X-5716667Y-4653006D01*
X-5716667Y-4653006D02*
X-5716667Y-4719673D01*
X-5716667Y-4719673D02*
X-5683333Y-4819673D01*
X-5683333Y-4819673D02*
X-5283333Y-5219673D01*
X-5283333Y-5219673D02*
X-5716667Y-5219673D01*
X-5916667Y-4519673D02*
X-6150000Y-5219673D01*
X-6150000Y-5219673D02*
X-6383334Y-4519673D01*
X-6750000Y-4519673D02*
X-6816667Y-4519673D01*
X-6816667Y-4519673D02*
X-6883334Y-4553006D01*
X-6883334Y-4553006D02*
X-6916667Y-4586340D01*
X-6916667Y-4586340D02*
X-6950000Y-4653006D01*
X-6950000Y-4653006D02*
X-6983334Y-4786340D01*
X-6983334Y-4786340D02*
X-6983334Y-4953006D01*
X-6983334Y-4953006D02*
X-6950000Y-5086340D01*
X-6950000Y-5086340D02*
X-6916667Y-5153006D01*
X-6916667Y-5153006D02*
X-6883334Y-5186340D01*
X-6883334Y-5186340D02*
X-6816667Y-5219673D01*
X-6816667Y-5219673D02*
X-6750000Y-5219673D01*
X-6750000Y-5219673D02*
X-6683334Y-5186340D01*
X-6683334Y-5186340D02*
X-6650000Y-5153006D01*
X-6650000Y-5153006D02*
X-6616667Y-5086340D01*
X-6616667Y-5086340D02*
X-6583334Y-4953006D01*
X-6583334Y-4953006D02*
X-6583334Y-4786340D01*
X-6583334Y-4786340D02*
X-6616667Y-4653006D01*
X-6616667Y-4653006D02*
X-6650000Y-4586340D01*
X-6650000Y-4586340D02*
X-6683334Y-4553006D01*
X-6683334Y-4553006D02*
X-6750000Y-4519673D01*
X-7416667Y-4519673D02*
X-7483334Y-4519673D01*
X-7483334Y-4519673D02*
X-7550001Y-4553006D01*
X-7550001Y-4553006D02*
X-7583334Y-4586340D01*
X-7583334Y-4586340D02*
X-7616667Y-4653006D01*
X-7616667Y-4653006D02*
X-7650001Y-4786340D01*
X-7650001Y-4786340D02*
X-7650001Y-4953006D01*
X-7650001Y-4953006D02*
X-7616667Y-5086340D01*
X-7616667Y-5086340D02*
X-7583334Y-5153006D01*
X-7583334Y-5153006D02*
X-7550001Y-5186340D01*
X-7550001Y-5186340D02*
X-7483334Y-5219673D01*
X-7483334Y-5219673D02*
X-7416667Y-5219673D01*
X-7416667Y-5219673D02*
X-7350001Y-5186340D01*
X-7350001Y-5186340D02*
X-7316667Y-5153006D01*
X-7316667Y-5153006D02*
X-7283334Y-5086340D01*
X-7283334Y-5086340D02*
X-7250001Y-4953006D01*
X-7250001Y-4953006D02*
X-7250001Y-4786340D01*
X-7250001Y-4786340D02*
X-7283334Y-4653006D01*
X-7283334Y-4653006D02*
X-7316667Y-4586340D01*
X-7316667Y-4586340D02*
X-7350001Y-4553006D01*
X-7350001Y-4553006D02*
X-7416667Y-4519673D01*
X-7883334Y-4519673D02*
X-8316668Y-4519673D01*
X-8316668Y-4519673D02*
X-8083334Y-4786340D01*
X-8083334Y-4786340D02*
X-8183334Y-4786340D01*
X-8183334Y-4786340D02*
X-8250001Y-4819673D01*
X-8250001Y-4819673D02*
X-8283334Y-4853006D01*
X-8283334Y-4853006D02*
X-8316668Y-4919673D01*
X-8316668Y-4919673D02*
X-8316668Y-5086340D01*
X-8316668Y-5086340D02*
X-8283334Y-5153006D01*
X-8283334Y-5153006D02*
X-8250001Y-5186340D01*
X-8250001Y-5186340D02*
X-8183334Y-5219673D01*
X-8183334Y-5219673D02*
X-7983334Y-5219673D01*
X-7983334Y-5219673D02*
X-7916668Y-5186340D01*
X-7916668Y-5186340D02*
X-7883334Y-5153006D01*
X-8816668Y-4519673D02*
X-8816668Y-5019673D01*
X-8816668Y-5019673D02*
X-8783335Y-5119673D01*
X-8783335Y-5119673D02*
X-8716668Y-5186340D01*
X-8716668Y-5186340D02*
X-8616668Y-5219673D01*
X-8616668Y-5219673D02*
X-8550001Y-5219673D01*
X-9450001Y-4753006D02*
X-9450001Y-5219673D01*
X-9283334Y-4486340D02*
X-9116668Y-4986340D01*
X-9116668Y-4986340D02*
X-9550001Y-4986340D01*
X-9816668Y-5219673D02*
X-9816668Y-4519673D01*
X-9816668Y-4519673D02*
X-10050001Y-5019673D01*
X-10050001Y-5019673D02*
X-10283335Y-4519673D01*
X-10283335Y-4519673D02*
X-10283335Y-5219673D01*
X-10916668Y-4519673D02*
X-10783335Y-4519673D01*
X-10783335Y-4519673D02*
X-10716668Y-4553006D01*
X-10716668Y-4553006D02*
X-10683335Y-4586340D01*
X-10683335Y-4586340D02*
X-10616668Y-4686340D01*
X-10616668Y-4686340D02*
X-10583335Y-4819673D01*
X-10583335Y-4819673D02*
X-10583335Y-5086340D01*
X-10583335Y-5086340D02*
X-10616668Y-5153006D01*
X-10616668Y-5153006D02*
X-10650001Y-5186340D01*
X-10650001Y-5186340D02*
X-10716668Y-5219673D01*
X-10716668Y-5219673D02*
X-10850001Y-5219673D01*
X-10850001Y-5219673D02*
X-10916668Y-5186340D01*
X-10916668Y-5186340D02*
X-10950001Y-5153006D01*
X-10950001Y-5153006D02*
X-10983335Y-5086340D01*
X-10983335Y-5086340D02*
X-10983335Y-4919673D01*
X-10983335Y-4919673D02*
X-10950001Y-4853006D01*
X-10950001Y-4853006D02*
X-10916668Y-4819673D01*
X-10916668Y-4819673D02*
X-10850001Y-4786340D01*
X-10850001Y-4786340D02*
X-10716668Y-4786340D01*
X-10716668Y-4786340D02*
X-10650001Y-4819673D01*
X-10650001Y-4819673D02*
X-10616668Y-4853006D01*
X-10616668Y-4853006D02*
X-10583335Y-4919673D01*
X-5266667Y-1219673D02*
X-5266667Y-1786340D01*
X-5266667Y-1786340D02*
X-5300000Y-1853006D01*
X-5300000Y-1853006D02*
X-5333334Y-1886340D01*
X-5333334Y-1886340D02*
X-5400000Y-1919673D01*
X-5400000Y-1919673D02*
X-5533334Y-1919673D01*
X-5533334Y-1919673D02*
X-5600000Y-1886340D01*
X-5600000Y-1886340D02*
X-5633334Y-1853006D01*
X-5633334Y-1853006D02*
X-5666667Y-1786340D01*
X-5666667Y-1786340D02*
X-5666667Y-1219673D01*
X-5933333Y-1219673D02*
X-6366667Y-1219673D01*
X-6366667Y-1219673D02*
X-6133333Y-1486340D01*
X-6133333Y-1486340D02*
X-6233333Y-1486340D01*
X-6233333Y-1486340D02*
X-6300000Y-1519673D01*
X-6300000Y-1519673D02*
X-6333333Y-1553006D01*
X-6333333Y-1553006D02*
X-6366667Y-1619673D01*
X-6366667Y-1619673D02*
X-6366667Y-1786340D01*
X-6366667Y-1786340D02*
X-6333333Y-1853006D01*
X-6333333Y-1853006D02*
X-6300000Y-1886340D01*
X-6300000Y-1886340D02*
X-6233333Y-1919673D01*
X-6233333Y-1919673D02*
X-6033333Y-1919673D01*
X-6033333Y-1919673D02*
X-5966667Y-1886340D01*
X-5966667Y-1886340D02*
X-5933333Y-1853006D01*
X3816667Y-6619673D02*
X3816667Y-5919673D01*
X3816667Y-5919673D02*
X3650000Y-5919673D01*
X3650000Y-5919673D02*
X3550000Y-5953006D01*
X3550000Y-5953006D02*
X3483334Y-6019673D01*
X3483334Y-6019673D02*
X3450000Y-6086340D01*
X3450000Y-6086340D02*
X3416667Y-6219673D01*
X3416667Y-6219673D02*
X3416667Y-6319673D01*
X3416667Y-6319673D02*
X3450000Y-6453006D01*
X3450000Y-6453006D02*
X3483334Y-6519673D01*
X3483334Y-6519673D02*
X3550000Y-6586340D01*
X3550000Y-6586340D02*
X3650000Y-6619673D01*
X3650000Y-6619673D02*
X3816667Y-6619673D01*
X2716667Y-6619673D02*
X2950000Y-6286340D01*
X3116667Y-6619673D02*
X3116667Y-5919673D01*
X3116667Y-5919673D02*
X2850000Y-5919673D01*
X2850000Y-5919673D02*
X2783334Y-5953006D01*
X2783334Y-5953006D02*
X2750000Y-5986340D01*
X2750000Y-5986340D02*
X2716667Y-6053006D01*
X2716667Y-6053006D02*
X2716667Y-6153006D01*
X2716667Y-6153006D02*
X2750000Y-6219673D01*
X2750000Y-6219673D02*
X2783334Y-6253006D01*
X2783334Y-6253006D02*
X2850000Y-6286340D01*
X2850000Y-6286340D02*
X3116667Y-6286340D01*
X2516667Y-5919673D02*
X2283334Y-6619673D01*
X2283334Y-6619673D02*
X2050000Y-5919673D01*
X1483334Y-5919673D02*
X1816667Y-5919673D01*
X1816667Y-5919673D02*
X1850000Y-6253006D01*
X1850000Y-6253006D02*
X1816667Y-6219673D01*
X1816667Y-6219673D02*
X1750000Y-6186340D01*
X1750000Y-6186340D02*
X1583334Y-6186340D01*
X1583334Y-6186340D02*
X1516667Y-6219673D01*
X1516667Y-6219673D02*
X1483334Y-6253006D01*
X1483334Y-6253006D02*
X1450000Y-6319673D01*
X1450000Y-6319673D02*
X1450000Y-6486340D01*
X1450000Y-6486340D02*
X1483334Y-6553006D01*
X1483334Y-6553006D02*
X1516667Y-6586340D01*
X1516667Y-6586340D02*
X1583334Y-6619673D01*
X1583334Y-6619673D02*
X1750000Y-6619673D01*
X1750000Y-6619673D02*
X1816667Y-6586340D01*
X1816667Y-6586340D02*
X1850000Y-6553006D01*
X1016667Y-5919673D02*
X950000Y-5919673D01*
X950000Y-5919673D02*
X883333Y-5953006D01*
X883333Y-5953006D02*
X850000Y-5986340D01*
X850000Y-5986340D02*
X816667Y-6053006D01*
X816667Y-6053006D02*
X783333Y-6186340D01*
X783333Y-6186340D02*
X783333Y-6353006D01*
X783333Y-6353006D02*
X816667Y-6486340D01*
X816667Y-6486340D02*
X850000Y-6553006D01*
X850000Y-6553006D02*
X883333Y-6586340D01*
X883333Y-6586340D02*
X950000Y-6619673D01*
X950000Y-6619673D02*
X1016667Y-6619673D01*
X1016667Y-6619673D02*
X1083333Y-6586340D01*
X1083333Y-6586340D02*
X1116667Y-6553006D01*
X1116667Y-6553006D02*
X1150000Y-6486340D01*
X1150000Y-6486340D02*
X1183333Y-6353006D01*
X1183333Y-6353006D02*
X1183333Y-6186340D01*
X1183333Y-6186340D02*
X1150000Y-6053006D01*
X1150000Y-6053006D02*
X1116667Y-5986340D01*
X1116667Y-5986340D02*
X1083333Y-5953006D01*
X1083333Y-5953006D02*
X1016667Y-5919673D01*
X516666Y-5986340D02*
X483333Y-5953006D01*
X483333Y-5953006D02*
X416666Y-5919673D01*
X416666Y-5919673D02*
X250000Y-5919673D01*
X250000Y-5919673D02*
X183333Y-5953006D01*
X183333Y-5953006D02*
X150000Y-5986340D01*
X150000Y-5986340D02*
X116666Y-6053006D01*
X116666Y-6053006D02*
X116666Y-6119673D01*
X116666Y-6119673D02*
X150000Y-6219673D01*
X150000Y-6219673D02*
X550000Y-6619673D01*
X550000Y-6619673D02*
X116666Y-6619673D01*
X-116667Y-5919673D02*
X-550001Y-5919673D01*
X-550001Y-5919673D02*
X-316667Y-6186340D01*
X-316667Y-6186340D02*
X-416667Y-6186340D01*
X-416667Y-6186340D02*
X-483334Y-6219673D01*
X-483334Y-6219673D02*
X-516667Y-6253006D01*
X-516667Y-6253006D02*
X-550001Y-6319673D01*
X-550001Y-6319673D02*
X-550001Y-6486340D01*
X-550001Y-6486340D02*
X-516667Y-6553006D01*
X-516667Y-6553006D02*
X-483334Y-6586340D01*
X-483334Y-6586340D02*
X-416667Y-6619673D01*
X-416667Y-6619673D02*
X-216667Y-6619673D01*
X-216667Y-6619673D02*
X-150001Y-6586340D01*
X-150001Y-6586340D02*
X-116667Y-6553006D01*
X-1083334Y-6253006D02*
X-850001Y-6253006D01*
X-850001Y-6619673D02*
X-850001Y-5919673D01*
X-850001Y-5919673D02*
X-1183334Y-5919673D01*
X-1416668Y-6419673D02*
X-1750001Y-6419673D01*
X-1350001Y-6619673D02*
X-1583334Y-5919673D01*
X-1583334Y-5919673D02*
X-1816668Y-6619673D01*
X-2550001Y-6586340D02*
X-2650001Y-6619673D01*
X-2650001Y-6619673D02*
X-2816667Y-6619673D01*
X-2816667Y-6619673D02*
X-2883334Y-6586340D01*
X-2883334Y-6586340D02*
X-2916667Y-6553006D01*
X-2916667Y-6553006D02*
X-2950001Y-6486340D01*
X-2950001Y-6486340D02*
X-2950001Y-6419673D01*
X-2950001Y-6419673D02*
X-2916667Y-6353006D01*
X-2916667Y-6353006D02*
X-2883334Y-6319673D01*
X-2883334Y-6319673D02*
X-2816667Y-6286340D01*
X-2816667Y-6286340D02*
X-2683334Y-6253006D01*
X-2683334Y-6253006D02*
X-2616667Y-6219673D01*
X-2616667Y-6219673D02*
X-2583334Y-6186340D01*
X-2583334Y-6186340D02*
X-2550001Y-6119673D01*
X-2550001Y-6119673D02*
X-2550001Y-6053006D01*
X-2550001Y-6053006D02*
X-2583334Y-5986340D01*
X-2583334Y-5986340D02*
X-2616667Y-5953006D01*
X-2616667Y-5953006D02*
X-2683334Y-5919673D01*
X-2683334Y-5919673D02*
X-2850001Y-5919673D01*
X-2850001Y-5919673D02*
X-2950001Y-5953006D01*
X-3250001Y-6619673D02*
X-3250001Y-5919673D01*
X-3250001Y-5919673D02*
X-3483334Y-6419673D01*
X-3483334Y-6419673D02*
X-3716668Y-5919673D01*
X-3716668Y-5919673D02*
X-3716668Y-6619673D01*
X-4050001Y-6619673D02*
X-4050001Y-5919673D01*
X-4050001Y-5919673D02*
X-4216668Y-5919673D01*
X-4216668Y-5919673D02*
X-4316668Y-5953006D01*
X-4316668Y-5953006D02*
X-4383334Y-6019673D01*
X-4383334Y-6019673D02*
X-4416668Y-6086340D01*
X-4416668Y-6086340D02*
X-4450001Y-6219673D01*
X-4450001Y-6219673D02*
X-4450001Y-6319673D01*
X-4450001Y-6319673D02*
X-4416668Y-6453006D01*
X-4416668Y-6453006D02*
X-4383334Y-6519673D01*
X-4383334Y-6519673D02*
X-4316668Y-6586340D01*
X-4316668Y-6586340D02*
X-4216668Y-6619673D01*
X-4216668Y-6619673D02*
X-4050001Y-6619673D01*
X-380327Y-3666666D02*
X186340Y-3666666D01*
X186340Y-3666666D02*
X253006Y-3700000D01*
X253006Y-3700000D02*
X286340Y-3733333D01*
X286340Y-3733333D02*
X319673Y-3800000D01*
X319673Y-3800000D02*
X319673Y-3933333D01*
X319673Y-3933333D02*
X286340Y-4000000D01*
X286340Y-4000000D02*
X253006Y-4033333D01*
X253006Y-4033333D02*
X186340Y-4066666D01*
X186340Y-4066666D02*
X-380327Y-4066666D01*
X-146994Y-4699999D02*
X319673Y-4699999D01*
X-413660Y-4533333D02*
X86340Y-4366666D01*
X86340Y-4366666D02*
X86340Y-4799999D01*
X14119673Y-5583333D02*
X14119673Y-5183333D01*
X14119673Y-5383333D02*
X13419673Y-5383333D01*
X13419673Y-5383333D02*
X13519673Y-5316666D01*
X13519673Y-5316666D02*
X13586340Y-5250000D01*
X13586340Y-5250000D02*
X13619673Y-5183333D01*
X13419673Y-6016667D02*
X13419673Y-6083333D01*
X13419673Y-6083333D02*
X13453006Y-6150000D01*
X13453006Y-6150000D02*
X13486340Y-6183333D01*
X13486340Y-6183333D02*
X13553006Y-6216667D01*
X13553006Y-6216667D02*
X13686340Y-6250000D01*
X13686340Y-6250000D02*
X13853006Y-6250000D01*
X13853006Y-6250000D02*
X13986340Y-6216667D01*
X13986340Y-6216667D02*
X14053006Y-6183333D01*
X14053006Y-6183333D02*
X14086340Y-6150000D01*
X14086340Y-6150000D02*
X14119673Y-6083333D01*
X14119673Y-6083333D02*
X14119673Y-6016667D01*
X14119673Y-6016667D02*
X14086340Y-5950000D01*
X14086340Y-5950000D02*
X14053006Y-5916667D01*
X14053006Y-5916667D02*
X13986340Y-5883333D01*
X13986340Y-5883333D02*
X13853006Y-5850000D01*
X13853006Y-5850000D02*
X13686340Y-5850000D01*
X13686340Y-5850000D02*
X13553006Y-5883333D01*
X13553006Y-5883333D02*
X13486340Y-5916667D01*
X13486340Y-5916667D02*
X13453006Y-5950000D01*
X13453006Y-5950000D02*
X13419673Y-6016667D01*
X13419673Y-6683334D02*
X13419673Y-6750000D01*
X13419673Y-6750000D02*
X13453006Y-6816667D01*
X13453006Y-6816667D02*
X13486340Y-6850000D01*
X13486340Y-6850000D02*
X13553006Y-6883334D01*
X13553006Y-6883334D02*
X13686340Y-6916667D01*
X13686340Y-6916667D02*
X13853006Y-6916667D01*
X13853006Y-6916667D02*
X13986340Y-6883334D01*
X13986340Y-6883334D02*
X14053006Y-6850000D01*
X14053006Y-6850000D02*
X14086340Y-6816667D01*
X14086340Y-6816667D02*
X14119673Y-6750000D01*
X14119673Y-6750000D02*
X14119673Y-6683334D01*
X14119673Y-6683334D02*
X14086340Y-6616667D01*
X14086340Y-6616667D02*
X14053006Y-6583334D01*
X14053006Y-6583334D02*
X13986340Y-6550000D01*
X13986340Y-6550000D02*
X13853006Y-6516667D01*
X13853006Y-6516667D02*
X13686340Y-6516667D01*
X13686340Y-6516667D02*
X13553006Y-6550000D01*
X13553006Y-6550000D02*
X13486340Y-6583334D01*
X13486340Y-6583334D02*
X13453006Y-6616667D01*
X13453006Y-6616667D02*
X13419673Y-6683334D01*
X14119673Y-7616667D02*
X13786340Y-7383334D01*
X14119673Y-7216667D02*
X13419673Y-7216667D01*
X13419673Y-7216667D02*
X13419673Y-7483334D01*
X13419673Y-7483334D02*
X13453006Y-7550001D01*
X13453006Y-7550001D02*
X13486340Y-7583334D01*
X13486340Y-7583334D02*
X13553006Y-7616667D01*
X13553006Y-7616667D02*
X13653006Y-7616667D01*
X13653006Y-7616667D02*
X13719673Y-7583334D01*
X13719673Y-7583334D02*
X13753006Y-7550001D01*
X13753006Y-7550001D02*
X13786340Y-7483334D01*
X13786340Y-7483334D02*
X13786340Y-7216667D01*
X13819673Y-8449999D02*
X13486340Y-8216666D01*
X13819673Y-8049999D02*
X13119673Y-8049999D01*
X13119673Y-8049999D02*
X13119673Y-8316666D01*
X13119673Y-8316666D02*
X13153006Y-8383333D01*
X13153006Y-8383333D02*
X13186340Y-8416666D01*
X13186340Y-8416666D02*
X13253006Y-8449999D01*
X13253006Y-8449999D02*
X13353006Y-8449999D01*
X13353006Y-8449999D02*
X13419673Y-8416666D01*
X13419673Y-8416666D02*
X13453006Y-8383333D01*
X13453006Y-8383333D02*
X13486340Y-8316666D01*
X13486340Y-8316666D02*
X13486340Y-8049999D01*
X13819673Y-9116666D02*
X13819673Y-8716666D01*
X13819673Y-8916666D02*
X13119673Y-8916666D01*
X13119673Y-8916666D02*
X13219673Y-8849999D01*
X13219673Y-8849999D02*
X13286340Y-8783333D01*
X13286340Y-8783333D02*
X13319673Y-8716666D01*
X13119673Y-9550000D02*
X13119673Y-9616666D01*
X13119673Y-9616666D02*
X13153006Y-9683333D01*
X13153006Y-9683333D02*
X13186340Y-9716666D01*
X13186340Y-9716666D02*
X13253006Y-9750000D01*
X13253006Y-9750000D02*
X13386340Y-9783333D01*
X13386340Y-9783333D02*
X13553006Y-9783333D01*
X13553006Y-9783333D02*
X13686340Y-9750000D01*
X13686340Y-9750000D02*
X13753006Y-9716666D01*
X13753006Y-9716666D02*
X13786340Y-9683333D01*
X13786340Y-9683333D02*
X13819673Y-9616666D01*
X13819673Y-9616666D02*
X13819673Y-9550000D01*
X13819673Y-9550000D02*
X13786340Y-9483333D01*
X13786340Y-9483333D02*
X13753006Y-9450000D01*
X13753006Y-9450000D02*
X13686340Y-9416666D01*
X13686340Y-9416666D02*
X13553006Y-9383333D01*
X13553006Y-9383333D02*
X13386340Y-9383333D01*
X13386340Y-9383333D02*
X13253006Y-9416666D01*
X13253006Y-9416666D02*
X13186340Y-9450000D01*
X13186340Y-9450000D02*
X13153006Y-9483333D01*
X13153006Y-9483333D02*
X13119673Y-9550000D01*
X-13451229Y7480327D02*
X-13051229Y7480327D01*
X-13251229Y7480327D02*
X-13251229Y8180327D01*
X-13251229Y8180327D02*
X-13184562Y8080327D01*
X-13184562Y8080327D02*
X-13117895Y8013660D01*
X-13117895Y8013660D02*
X-13051229Y7980327D01*
X-13751229Y7480327D02*
X-13751229Y8180327D01*
X-13751229Y8180327D02*
X-14151229Y7480327D01*
X-14151229Y7480327D02*
X-14151229Y8180327D01*
X-14784562Y7946994D02*
X-14784562Y7480327D01*
X-14617895Y8213660D02*
X-14451229Y7713660D01*
X-14451229Y7713660D02*
X-14884562Y7713660D01*
X-15517896Y7480327D02*
X-15117896Y7480327D01*
X-15317896Y7480327D02*
X-15317896Y8180327D01*
X-15317896Y8180327D02*
X-15251229Y8080327D01*
X-15251229Y8080327D02*
X-15184562Y8013660D01*
X-15184562Y8013660D02*
X-15117896Y7980327D01*
X-16117896Y7946994D02*
X-16117896Y7480327D01*
X-15951229Y8213660D02*
X-15784563Y7713660D01*
X-15784563Y7713660D02*
X-16217896Y7713660D01*
X-16584563Y7880327D02*
X-16517896Y7913660D01*
X-16517896Y7913660D02*
X-16484563Y7946994D01*
X-16484563Y7946994D02*
X-16451230Y8013660D01*
X-16451230Y8013660D02*
X-16451230Y8046994D01*
X-16451230Y8046994D02*
X-16484563Y8113660D01*
X-16484563Y8113660D02*
X-16517896Y8146994D01*
X-16517896Y8146994D02*
X-16584563Y8180327D01*
X-16584563Y8180327D02*
X-16717896Y8180327D01*
X-16717896Y8180327D02*
X-16784563Y8146994D01*
X-16784563Y8146994D02*
X-16817896Y8113660D01*
X-16817896Y8113660D02*
X-16851230Y8046994D01*
X-16851230Y8046994D02*
X-16851230Y8013660D01*
X-16851230Y8013660D02*
X-16817896Y7946994D01*
X-16817896Y7946994D02*
X-16784563Y7913660D01*
X-16784563Y7913660D02*
X-16717896Y7880327D01*
X-16717896Y7880327D02*
X-16584563Y7880327D01*
X-16584563Y7880327D02*
X-16517896Y7846994D01*
X-16517896Y7846994D02*
X-16484563Y7813660D01*
X-16484563Y7813660D02*
X-16451230Y7746994D01*
X-16451230Y7746994D02*
X-16451230Y7613660D01*
X-16451230Y7613660D02*
X-16484563Y7546994D01*
X-16484563Y7546994D02*
X-16517896Y7513660D01*
X-16517896Y7513660D02*
X-16584563Y7480327D01*
X-16584563Y7480327D02*
X-16717896Y7480327D01*
X-16717896Y7480327D02*
X-16784563Y7513660D01*
X-16784563Y7513660D02*
X-16817896Y7546994D01*
X-16817896Y7546994D02*
X-16851230Y7613660D01*
X-16851230Y7613660D02*
X-16851230Y7746994D01*
X-16851230Y7746994D02*
X-16817896Y7813660D01*
X-16817896Y7813660D02*
X-16784563Y7846994D01*
X-16784563Y7846994D02*
X-16717896Y7880327D01*
X-13583334Y8380327D02*
X-13583334Y9080327D01*
X-13583334Y9080327D02*
X-13750001Y9080327D01*
X-13750001Y9080327D02*
X-13850001Y9046994D01*
X-13850001Y9046994D02*
X-13916667Y8980327D01*
X-13916667Y8980327D02*
X-13950001Y8913660D01*
X-13950001Y8913660D02*
X-13983334Y8780327D01*
X-13983334Y8780327D02*
X-13983334Y8680327D01*
X-13983334Y8680327D02*
X-13950001Y8546994D01*
X-13950001Y8546994D02*
X-13916667Y8480327D01*
X-13916667Y8480327D02*
X-13850001Y8413660D01*
X-13850001Y8413660D02*
X-13750001Y8380327D01*
X-13750001Y8380327D02*
X-13583334Y8380327D01*
X-14583334Y9080327D02*
X-14450001Y9080327D01*
X-14450001Y9080327D02*
X-14383334Y9046994D01*
X-14383334Y9046994D02*
X-14350001Y9013660D01*
X-14350001Y9013660D02*
X-14283334Y8913660D01*
X-14283334Y8913660D02*
X-14250001Y8780327D01*
X-14250001Y8780327D02*
X-14250001Y8513660D01*
X-14250001Y8513660D02*
X-14283334Y8446994D01*
X-14283334Y8446994D02*
X-14316667Y8413660D01*
X-14316667Y8413660D02*
X-14383334Y8380327D01*
X-14383334Y8380327D02*
X-14516667Y8380327D01*
X-14516667Y8380327D02*
X-14583334Y8413660D01*
X-14583334Y8413660D02*
X-14616667Y8446994D01*
X-14616667Y8446994D02*
X-14650001Y8513660D01*
X-14650001Y8513660D02*
X-14650001Y8680327D01*
X-14650001Y8680327D02*
X-14616667Y8746994D01*
X-14616667Y8746994D02*
X-14583334Y8780327D01*
X-14583334Y8780327D02*
X-14516667Y8813660D01*
X-14516667Y8813660D02*
X-14383334Y8813660D01*
X-14383334Y8813660D02*
X-14316667Y8780327D01*
X-14316667Y8780327D02*
X-14283334Y8746994D01*
X-14283334Y8746994D02*
X-14250001Y8680327D01*
X-4216667Y3080327D02*
X-3816667Y3080327D01*
X-4016667Y3080327D02*
X-4016667Y3780327D01*
X-4016667Y3780327D02*
X-3950000Y3680327D01*
X-3950000Y3680327D02*
X-3883333Y3613660D01*
X-3883333Y3613660D02*
X-3816667Y3580327D01*
X-4650000Y3780327D02*
X-4716667Y3780327D01*
X-4716667Y3780327D02*
X-4783334Y3746994D01*
X-4783334Y3746994D02*
X-4816667Y3713660D01*
X-4816667Y3713660D02*
X-4850000Y3646994D01*
X-4850000Y3646994D02*
X-4883334Y3513660D01*
X-4883334Y3513660D02*
X-4883334Y3346994D01*
X-4883334Y3346994D02*
X-4850000Y3213660D01*
X-4850000Y3213660D02*
X-4816667Y3146994D01*
X-4816667Y3146994D02*
X-4783334Y3113660D01*
X-4783334Y3113660D02*
X-4716667Y3080327D01*
X-4716667Y3080327D02*
X-4650000Y3080327D01*
X-4650000Y3080327D02*
X-4583334Y3113660D01*
X-4583334Y3113660D02*
X-4550000Y3146994D01*
X-4550000Y3146994D02*
X-4516667Y3213660D01*
X-4516667Y3213660D02*
X-4483334Y3346994D01*
X-4483334Y3346994D02*
X-4483334Y3513660D01*
X-4483334Y3513660D02*
X-4516667Y3646994D01*
X-4516667Y3646994D02*
X-4550000Y3713660D01*
X-4550000Y3713660D02*
X-4583334Y3746994D01*
X-4583334Y3746994D02*
X-4650000Y3780327D01*
X-5316667Y3780327D02*
X-5383334Y3780327D01*
X-5383334Y3780327D02*
X-5450001Y3746994D01*
X-5450001Y3746994D02*
X-5483334Y3713660D01*
X-5483334Y3713660D02*
X-5516667Y3646994D01*
X-5516667Y3646994D02*
X-5550001Y3513660D01*
X-5550001Y3513660D02*
X-5550001Y3346994D01*
X-5550001Y3346994D02*
X-5516667Y3213660D01*
X-5516667Y3213660D02*
X-5483334Y3146994D01*
X-5483334Y3146994D02*
X-5450001Y3113660D01*
X-5450001Y3113660D02*
X-5383334Y3080327D01*
X-5383334Y3080327D02*
X-5316667Y3080327D01*
X-5316667Y3080327D02*
X-5250001Y3113660D01*
X-5250001Y3113660D02*
X-5216667Y3146994D01*
X-5216667Y3146994D02*
X-5183334Y3213660D01*
X-5183334Y3213660D02*
X-5150001Y3346994D01*
X-5150001Y3346994D02*
X-5150001Y3513660D01*
X-5150001Y3513660D02*
X-5183334Y3646994D01*
X-5183334Y3646994D02*
X-5216667Y3713660D01*
X-5216667Y3713660D02*
X-5250001Y3746994D01*
X-5250001Y3746994D02*
X-5316667Y3780327D01*
X-5850001Y3546994D02*
X-5850001Y3080327D01*
X-5850001Y3480327D02*
X-5883334Y3513660D01*
X-5883334Y3513660D02*
X-5950001Y3546994D01*
X-5950001Y3546994D02*
X-6050001Y3546994D01*
X-6050001Y3546994D02*
X-6116668Y3513660D01*
X-6116668Y3513660D02*
X-6150001Y3446994D01*
X-6150001Y3446994D02*
X-6150001Y3080327D01*
X-6716667Y3446994D02*
X-6483334Y3446994D01*
X-6483334Y3080327D02*
X-6483334Y3780327D01*
X-6483334Y3780327D02*
X-6816667Y3780327D01*
X-9583334Y3146994D02*
X-9550001Y3113660D01*
X-9550001Y3113660D02*
X-9450001Y3080327D01*
X-9450001Y3080327D02*
X-9383334Y3080327D01*
X-9383334Y3080327D02*
X-9283334Y3113660D01*
X-9283334Y3113660D02*
X-9216667Y3180327D01*
X-9216667Y3180327D02*
X-9183334Y3246994D01*
X-9183334Y3246994D02*
X-9150001Y3380327D01*
X-9150001Y3380327D02*
X-9150001Y3480327D01*
X-9150001Y3480327D02*
X-9183334Y3613660D01*
X-9183334Y3613660D02*
X-9216667Y3680327D01*
X-9216667Y3680327D02*
X-9283334Y3746994D01*
X-9283334Y3746994D02*
X-9383334Y3780327D01*
X-9383334Y3780327D02*
X-9450001Y3780327D01*
X-9450001Y3780327D02*
X-9550001Y3746994D01*
X-9550001Y3746994D02*
X-9583334Y3713660D01*
X-10216667Y3780327D02*
X-9883334Y3780327D01*
X-9883334Y3780327D02*
X-9850001Y3446994D01*
X-9850001Y3446994D02*
X-9883334Y3480327D01*
X-9883334Y3480327D02*
X-9950001Y3513660D01*
X-9950001Y3513660D02*
X-10116667Y3513660D01*
X-10116667Y3513660D02*
X-10183334Y3480327D01*
X-10183334Y3480327D02*
X-10216667Y3446994D01*
X-10216667Y3446994D02*
X-10250001Y3380327D01*
X-10250001Y3380327D02*
X-10250001Y3213660D01*
X-10250001Y3213660D02*
X-10216667Y3146994D01*
X-10216667Y3146994D02*
X-10183334Y3113660D01*
X-10183334Y3113660D02*
X-10116667Y3080327D01*
X-10116667Y3080327D02*
X-9950001Y3080327D01*
X-9950001Y3080327D02*
X-9883334Y3113660D01*
X-9883334Y3113660D02*
X-9850001Y3146994D01*
X1016666Y-2153006D02*
X1016666Y-2619673D01*
X1183333Y-1886340D02*
X1349999Y-2386340D01*
X1349999Y-2386340D02*
X916666Y-2386340D01*
X649999Y-2553006D02*
X616666Y-2586340D01*
X616666Y-2586340D02*
X649999Y-2619673D01*
X649999Y-2619673D02*
X683332Y-2586340D01*
X683332Y-2586340D02*
X649999Y-2553006D01*
X649999Y-2553006D02*
X649999Y-2619673D01*
X383333Y-1919673D02*
X-83334Y-1919673D01*
X-83334Y-1919673D02*
X216666Y-2619673D01*
X-350001Y-2619673D02*
X-350001Y-1919673D01*
X-750001Y-2619673D02*
X-450001Y-2219673D01*
X-750001Y-1919673D02*
X-350001Y-2319673D01*
X416666Y-1519673D02*
X649999Y-1186340D01*
X816666Y-1519673D02*
X816666Y-819673D01*
X816666Y-819673D02*
X549999Y-819673D01*
X549999Y-819673D02*
X483333Y-853006D01*
X483333Y-853006D02*
X449999Y-886340D01*
X449999Y-886340D02*
X416666Y-953006D01*
X416666Y-953006D02*
X416666Y-1053006D01*
X416666Y-1053006D02*
X449999Y-1119673D01*
X449999Y-1119673D02*
X483333Y-1153006D01*
X483333Y-1153006D02*
X549999Y-1186340D01*
X549999Y-1186340D02*
X816666Y-1186340D01*
X16666Y-1119673D02*
X83333Y-1086340D01*
X83333Y-1086340D02*
X116666Y-1053006D01*
X116666Y-1053006D02*
X149999Y-986340D01*
X149999Y-986340D02*
X149999Y-953006D01*
X149999Y-953006D02*
X116666Y-886340D01*
X116666Y-886340D02*
X83333Y-853006D01*
X83333Y-853006D02*
X16666Y-819673D01*
X16666Y-819673D02*
X-116667Y-819673D01*
X-116667Y-819673D02*
X-183334Y-853006D01*
X-183334Y-853006D02*
X-216667Y-886340D01*
X-216667Y-886340D02*
X-250001Y-953006D01*
X-250001Y-953006D02*
X-250001Y-986340D01*
X-250001Y-986340D02*
X-216667Y-1053006D01*
X-216667Y-1053006D02*
X-183334Y-1086340D01*
X-183334Y-1086340D02*
X-116667Y-1119673D01*
X-116667Y-1119673D02*
X16666Y-1119673D01*
X16666Y-1119673D02*
X83333Y-1153006D01*
X83333Y-1153006D02*
X116666Y-1186340D01*
X116666Y-1186340D02*
X149999Y-1253006D01*
X149999Y-1253006D02*
X149999Y-1386340D01*
X149999Y-1386340D02*
X116666Y-1453006D01*
X116666Y-1453006D02*
X83333Y-1486340D01*
X83333Y-1486340D02*
X16666Y-1519673D01*
X16666Y-1519673D02*
X-116667Y-1519673D01*
X-116667Y-1519673D02*
X-183334Y-1486340D01*
X-183334Y-1486340D02*
X-216667Y-1453006D01*
X-216667Y-1453006D02*
X-250001Y-1386340D01*
X-250001Y-1386340D02*
X-250001Y-1253006D01*
X-250001Y-1253006D02*
X-216667Y-1186340D01*
X-216667Y-1186340D02*
X-183334Y-1153006D01*
X-183334Y-1153006D02*
X-116667Y-1119673D01*
X-7083334Y6450327D02*
X-6683334Y6450327D01*
X-6883334Y6450327D02*
X-6883334Y7150327D01*
X-6883334Y7150327D02*
X-6816667Y7050327D01*
X-6816667Y7050327D02*
X-6750000Y6983660D01*
X-6750000Y6983660D02*
X-6683334Y6950327D01*
X-7516667Y7150327D02*
X-7583334Y7150327D01*
X-7583334Y7150327D02*
X-7650001Y7116994D01*
X-7650001Y7116994D02*
X-7683334Y7083660D01*
X-7683334Y7083660D02*
X-7716667Y7016994D01*
X-7716667Y7016994D02*
X-7750001Y6883660D01*
X-7750001Y6883660D02*
X-7750001Y6716994D01*
X-7750001Y6716994D02*
X-7716667Y6583660D01*
X-7716667Y6583660D02*
X-7683334Y6516994D01*
X-7683334Y6516994D02*
X-7650001Y6483660D01*
X-7650001Y6483660D02*
X-7583334Y6450327D01*
X-7583334Y6450327D02*
X-7516667Y6450327D01*
X-7516667Y6450327D02*
X-7450001Y6483660D01*
X-7450001Y6483660D02*
X-7416667Y6516994D01*
X-7416667Y6516994D02*
X-7383334Y6583660D01*
X-7383334Y6583660D02*
X-7350001Y6716994D01*
X-7350001Y6716994D02*
X-7350001Y6883660D01*
X-7350001Y6883660D02*
X-7383334Y7016994D01*
X-7383334Y7016994D02*
X-7416667Y7083660D01*
X-7416667Y7083660D02*
X-7450001Y7116994D01*
X-7450001Y7116994D02*
X-7516667Y7150327D01*
X-8183334Y7150327D02*
X-8250001Y7150327D01*
X-8250001Y7150327D02*
X-8316668Y7116994D01*
X-8316668Y7116994D02*
X-8350001Y7083660D01*
X-8350001Y7083660D02*
X-8383334Y7016994D01*
X-8383334Y7016994D02*
X-8416668Y6883660D01*
X-8416668Y6883660D02*
X-8416668Y6716994D01*
X-8416668Y6716994D02*
X-8383334Y6583660D01*
X-8383334Y6583660D02*
X-8350001Y6516994D01*
X-8350001Y6516994D02*
X-8316668Y6483660D01*
X-8316668Y6483660D02*
X-8250001Y6450327D01*
X-8250001Y6450327D02*
X-8183334Y6450327D01*
X-8183334Y6450327D02*
X-8116668Y6483660D01*
X-8116668Y6483660D02*
X-8083334Y6516994D01*
X-8083334Y6516994D02*
X-8050001Y6583660D01*
X-8050001Y6583660D02*
X-8016668Y6716994D01*
X-8016668Y6716994D02*
X-8016668Y6883660D01*
X-8016668Y6883660D02*
X-8050001Y7016994D01*
X-8050001Y7016994D02*
X-8083334Y7083660D01*
X-8083334Y7083660D02*
X-8116668Y7116994D01*
X-8116668Y7116994D02*
X-8183334Y7150327D01*
X-9116668Y6450327D02*
X-8883335Y6783660D01*
X-8716668Y6450327D02*
X-8716668Y7150327D01*
X-8716668Y7150327D02*
X-8983335Y7150327D01*
X-8983335Y7150327D02*
X-9050001Y7116994D01*
X-9050001Y7116994D02*
X-9083335Y7083660D01*
X-9083335Y7083660D02*
X-9116668Y7016994D01*
X-9116668Y7016994D02*
X-9116668Y6916994D01*
X-9116668Y6916994D02*
X-9083335Y6850327D01*
X-9083335Y6850327D02*
X-9050001Y6816994D01*
X-9050001Y6816994D02*
X-8983335Y6783660D01*
X-8983335Y6783660D02*
X-8716668Y6783660D01*
X-7883334Y8980327D02*
X-7650001Y9313660D01*
X-7483334Y8980327D02*
X-7483334Y9680327D01*
X-7483334Y9680327D02*
X-7750001Y9680327D01*
X-7750001Y9680327D02*
X-7816667Y9646994D01*
X-7816667Y9646994D02*
X-7850001Y9613660D01*
X-7850001Y9613660D02*
X-7883334Y9546994D01*
X-7883334Y9546994D02*
X-7883334Y9446994D01*
X-7883334Y9446994D02*
X-7850001Y9380327D01*
X-7850001Y9380327D02*
X-7816667Y9346994D01*
X-7816667Y9346994D02*
X-7750001Y9313660D01*
X-7750001Y9313660D02*
X-7483334Y9313660D01*
X-8216667Y8980327D02*
X-8350001Y8980327D01*
X-8350001Y8980327D02*
X-8416667Y9013660D01*
X-8416667Y9013660D02*
X-8450001Y9046994D01*
X-8450001Y9046994D02*
X-8516667Y9146994D01*
X-8516667Y9146994D02*
X-8550001Y9280327D01*
X-8550001Y9280327D02*
X-8550001Y9546994D01*
X-8550001Y9546994D02*
X-8516667Y9613660D01*
X-8516667Y9613660D02*
X-8483334Y9646994D01*
X-8483334Y9646994D02*
X-8416667Y9680327D01*
X-8416667Y9680327D02*
X-8283334Y9680327D01*
X-8283334Y9680327D02*
X-8216667Y9646994D01*
X-8216667Y9646994D02*
X-8183334Y9613660D01*
X-8183334Y9613660D02*
X-8150001Y9546994D01*
X-8150001Y9546994D02*
X-8150001Y9380327D01*
X-8150001Y9380327D02*
X-8183334Y9313660D01*
X-8183334Y9313660D02*
X-8216667Y9280327D01*
X-8216667Y9280327D02*
X-8283334Y9246994D01*
X-8283334Y9246994D02*
X-8416667Y9246994D01*
X-8416667Y9246994D02*
X-8483334Y9280327D01*
X-8483334Y9280327D02*
X-8516667Y9313660D01*
X-8516667Y9313660D02*
X-8550001Y9380327D01*
X3119673Y-16300000D02*
X2786340Y-16066667D01*
X3119673Y-15900000D02*
X2419673Y-15900000D01*
X2419673Y-15900000D02*
X2419673Y-16166667D01*
X2419673Y-16166667D02*
X2453006Y-16233334D01*
X2453006Y-16233334D02*
X2486340Y-16266667D01*
X2486340Y-16266667D02*
X2553006Y-16300000D01*
X2553006Y-16300000D02*
X2653006Y-16300000D01*
X2653006Y-16300000D02*
X2719673Y-16266667D01*
X2719673Y-16266667D02*
X2753006Y-16233334D01*
X2753006Y-16233334D02*
X2786340Y-16166667D01*
X2786340Y-16166667D02*
X2786340Y-15900000D01*
X3086340Y-16866667D02*
X3119673Y-16800000D01*
X3119673Y-16800000D02*
X3119673Y-16666667D01*
X3119673Y-16666667D02*
X3086340Y-16600000D01*
X3086340Y-16600000D02*
X3019673Y-16566667D01*
X3019673Y-16566667D02*
X2753006Y-16566667D01*
X2753006Y-16566667D02*
X2686340Y-16600000D01*
X2686340Y-16600000D02*
X2653006Y-16666667D01*
X2653006Y-16666667D02*
X2653006Y-16800000D01*
X2653006Y-16800000D02*
X2686340Y-16866667D01*
X2686340Y-16866667D02*
X2753006Y-16900000D01*
X2753006Y-16900000D02*
X2819673Y-16900000D01*
X2819673Y-16900000D02*
X2886340Y-16566667D01*
X3119673Y-17500000D02*
X2419673Y-17500000D01*
X3086340Y-17500000D02*
X3119673Y-17433334D01*
X3119673Y-17433334D02*
X3119673Y-17300000D01*
X3119673Y-17300000D02*
X3086340Y-17233334D01*
X3086340Y-17233334D02*
X3053006Y-17200000D01*
X3053006Y-17200000D02*
X2986340Y-17166667D01*
X2986340Y-17166667D02*
X2786340Y-17166667D01*
X2786340Y-17166667D02*
X2719673Y-17200000D01*
X2719673Y-17200000D02*
X2686340Y-17233334D01*
X2686340Y-17233334D02*
X2653006Y-17300000D01*
X2653006Y-17300000D02*
X2653006Y-17433334D01*
X2653006Y-17433334D02*
X2686340Y-17500000D01*
X3119673Y-13883333D02*
X2419673Y-13883333D01*
X2419673Y-13883333D02*
X2419673Y-14050000D01*
X2419673Y-14050000D02*
X2453006Y-14150000D01*
X2453006Y-14150000D02*
X2519673Y-14216667D01*
X2519673Y-14216667D02*
X2586340Y-14250000D01*
X2586340Y-14250000D02*
X2719673Y-14283333D01*
X2719673Y-14283333D02*
X2819673Y-14283333D01*
X2819673Y-14283333D02*
X2953006Y-14250000D01*
X2953006Y-14250000D02*
X3019673Y-14216667D01*
X3019673Y-14216667D02*
X3086340Y-14150000D01*
X3086340Y-14150000D02*
X3119673Y-14050000D01*
X3119673Y-14050000D02*
X3119673Y-13883333D01*
X2719673Y-14683333D02*
X2686340Y-14616667D01*
X2686340Y-14616667D02*
X2653006Y-14583333D01*
X2653006Y-14583333D02*
X2586340Y-14550000D01*
X2586340Y-14550000D02*
X2553006Y-14550000D01*
X2553006Y-14550000D02*
X2486340Y-14583333D01*
X2486340Y-14583333D02*
X2453006Y-14616667D01*
X2453006Y-14616667D02*
X2419673Y-14683333D01*
X2419673Y-14683333D02*
X2419673Y-14816667D01*
X2419673Y-14816667D02*
X2453006Y-14883333D01*
X2453006Y-14883333D02*
X2486340Y-14916667D01*
X2486340Y-14916667D02*
X2553006Y-14950000D01*
X2553006Y-14950000D02*
X2586340Y-14950000D01*
X2586340Y-14950000D02*
X2653006Y-14916667D01*
X2653006Y-14916667D02*
X2686340Y-14883333D01*
X2686340Y-14883333D02*
X2719673Y-14816667D01*
X2719673Y-14816667D02*
X2719673Y-14683333D01*
X2719673Y-14683333D02*
X2753006Y-14616667D01*
X2753006Y-14616667D02*
X2786340Y-14583333D01*
X2786340Y-14583333D02*
X2853006Y-14550000D01*
X2853006Y-14550000D02*
X2986340Y-14550000D01*
X2986340Y-14550000D02*
X3053006Y-14583333D01*
X3053006Y-14583333D02*
X3086340Y-14616667D01*
X3086340Y-14616667D02*
X3119673Y-14683333D01*
X3119673Y-14683333D02*
X3119673Y-14816667D01*
X3119673Y-14816667D02*
X3086340Y-14883333D01*
X3086340Y-14883333D02*
X3053006Y-14916667D01*
X3053006Y-14916667D02*
X2986340Y-14950000D01*
X2986340Y-14950000D02*
X2853006Y-14950000D01*
X2853006Y-14950000D02*
X2786340Y-14916667D01*
X2786340Y-14916667D02*
X2753006Y-14883333D01*
X2753006Y-14883333D02*
X2719673Y-14816667D01*
X10419673Y-5850000D02*
X10419673Y-5450000D01*
X10419673Y-5650000D02*
X9719673Y-5650000D01*
X9719673Y-5650000D02*
X9819673Y-5583333D01*
X9819673Y-5583333D02*
X9886340Y-5516667D01*
X9886340Y-5516667D02*
X9919673Y-5450000D01*
X9719673Y-6283334D02*
X9719673Y-6350000D01*
X9719673Y-6350000D02*
X9753006Y-6416667D01*
X9753006Y-6416667D02*
X9786340Y-6450000D01*
X9786340Y-6450000D02*
X9853006Y-6483334D01*
X9853006Y-6483334D02*
X9986340Y-6516667D01*
X9986340Y-6516667D02*
X10153006Y-6516667D01*
X10153006Y-6516667D02*
X10286340Y-6483334D01*
X10286340Y-6483334D02*
X10353006Y-6450000D01*
X10353006Y-6450000D02*
X10386340Y-6416667D01*
X10386340Y-6416667D02*
X10419673Y-6350000D01*
X10419673Y-6350000D02*
X10419673Y-6283334D01*
X10419673Y-6283334D02*
X10386340Y-6216667D01*
X10386340Y-6216667D02*
X10353006Y-6183334D01*
X10353006Y-6183334D02*
X10286340Y-6150000D01*
X10286340Y-6150000D02*
X10153006Y-6116667D01*
X10153006Y-6116667D02*
X9986340Y-6116667D01*
X9986340Y-6116667D02*
X9853006Y-6150000D01*
X9853006Y-6150000D02*
X9786340Y-6183334D01*
X9786340Y-6183334D02*
X9753006Y-6216667D01*
X9753006Y-6216667D02*
X9719673Y-6283334D01*
X9953006Y-6816667D02*
X10419673Y-6816667D01*
X10019673Y-6816667D02*
X9986340Y-6850001D01*
X9986340Y-6850001D02*
X9953006Y-6916667D01*
X9953006Y-6916667D02*
X9953006Y-7016667D01*
X9953006Y-7016667D02*
X9986340Y-7083334D01*
X9986340Y-7083334D02*
X10053006Y-7116667D01*
X10053006Y-7116667D02*
X10419673Y-7116667D01*
X10053006Y-7683334D02*
X10053006Y-7450000D01*
X10419673Y-7450000D02*
X9719673Y-7450000D01*
X9719673Y-7450000D02*
X9719673Y-7783334D01*
X10753006Y-8783333D02*
X10786340Y-8750000D01*
X10786340Y-8750000D02*
X10819673Y-8650000D01*
X10819673Y-8650000D02*
X10819673Y-8583333D01*
X10819673Y-8583333D02*
X10786340Y-8483333D01*
X10786340Y-8483333D02*
X10719673Y-8416667D01*
X10719673Y-8416667D02*
X10653006Y-8383333D01*
X10653006Y-8383333D02*
X10519673Y-8350000D01*
X10519673Y-8350000D02*
X10419673Y-8350000D01*
X10419673Y-8350000D02*
X10286340Y-8383333D01*
X10286340Y-8383333D02*
X10219673Y-8416667D01*
X10219673Y-8416667D02*
X10153006Y-8483333D01*
X10153006Y-8483333D02*
X10119673Y-8583333D01*
X10119673Y-8583333D02*
X10119673Y-8650000D01*
X10119673Y-8650000D02*
X10153006Y-8750000D01*
X10153006Y-8750000D02*
X10186340Y-8783333D01*
X10119673Y-9016667D02*
X10119673Y-9483333D01*
X10119673Y-9483333D02*
X10819673Y-9183333D01*
X-18880327Y183334D02*
X-19580327Y183334D01*
X-19580327Y183334D02*
X-19580327Y-83333D01*
X-19580327Y-83333D02*
X-19546994Y-150000D01*
X-19546994Y-150000D02*
X-19513660Y-183333D01*
X-19513660Y-183333D02*
X-19446994Y-216666D01*
X-19446994Y-216666D02*
X-19346994Y-216666D01*
X-19346994Y-216666D02*
X-19280327Y-183333D01*
X-19280327Y-183333D02*
X-19246994Y-150000D01*
X-19246994Y-150000D02*
X-19213660Y-83333D01*
X-19213660Y-83333D02*
X-19213660Y183334D01*
X-19580327Y-716666D02*
X-19080327Y-716666D01*
X-19080327Y-716666D02*
X-18980327Y-683333D01*
X-18980327Y-683333D02*
X-18913660Y-616666D01*
X-18913660Y-616666D02*
X-18880327Y-516666D01*
X-18880327Y-516666D02*
X-18880327Y-450000D01*
X-19080327Y-1016666D02*
X-19080327Y-1349999D01*
X-18880327Y-949999D02*
X-19580327Y-1183333D01*
X-19580327Y-1183333D02*
X-18880327Y-1416666D01*
X-19580327Y-1583333D02*
X-19580327Y-2016666D01*
X-19580327Y-2016666D02*
X-19313660Y-1783333D01*
X-19313660Y-1783333D02*
X-19313660Y-1883333D01*
X-19313660Y-1883333D02*
X-19280327Y-1949999D01*
X-19280327Y-1949999D02*
X-19246994Y-1983333D01*
X-19246994Y-1983333D02*
X-19180327Y-2016666D01*
X-19180327Y-2016666D02*
X-19013660Y-2016666D01*
X-19013660Y-2016666D02*
X-18946994Y-1983333D01*
X-18946994Y-1983333D02*
X-18913660Y-1949999D01*
X-18913660Y-1949999D02*
X-18880327Y-1883333D01*
X-18880327Y-1883333D02*
X-18880327Y-1683333D01*
X-18880327Y-1683333D02*
X-18913660Y-1616666D01*
X-18913660Y-1616666D02*
X-18946994Y-1583333D01*
X-19346994Y-2616666D02*
X-18880327Y-2616666D01*
X-19613660Y-2450000D02*
X-19113660Y-2283333D01*
X-19113660Y-2283333D02*
X-19113660Y-2716666D01*
X-19346994Y-3283333D02*
X-18880327Y-3283333D01*
X-19613660Y-3116667D02*
X-19113660Y-2950000D01*
X-19113660Y-2950000D02*
X-19113660Y-3383333D01*
X-19580327Y-3783334D02*
X-19580327Y-3850000D01*
X-19580327Y-3850000D02*
X-19546994Y-3916667D01*
X-19546994Y-3916667D02*
X-19513660Y-3950000D01*
X-19513660Y-3950000D02*
X-19446994Y-3983334D01*
X-19446994Y-3983334D02*
X-19313660Y-4016667D01*
X-19313660Y-4016667D02*
X-19146994Y-4016667D01*
X-19146994Y-4016667D02*
X-19013660Y-3983334D01*
X-19013660Y-3983334D02*
X-18946994Y-3950000D01*
X-18946994Y-3950000D02*
X-18913660Y-3916667D01*
X-18913660Y-3916667D02*
X-18880327Y-3850000D01*
X-18880327Y-3850000D02*
X-18880327Y-3783334D01*
X-18880327Y-3783334D02*
X-18913660Y-3716667D01*
X-18913660Y-3716667D02*
X-18946994Y-3683334D01*
X-18946994Y-3683334D02*
X-19013660Y-3650000D01*
X-19013660Y-3650000D02*
X-19146994Y-3616667D01*
X-19146994Y-3616667D02*
X-19313660Y-3616667D01*
X-19313660Y-3616667D02*
X-19446994Y-3650000D01*
X-19446994Y-3650000D02*
X-19513660Y-3683334D01*
X-19513660Y-3683334D02*
X-19546994Y-3716667D01*
X-19546994Y-3716667D02*
X-19580327Y-3783334D01*
X-17933334Y-1386340D02*
X-17866667Y-1353006D01*
X-17866667Y-1353006D02*
X-17800000Y-1286340D01*
X-17800000Y-1286340D02*
X-17700000Y-1186340D01*
X-17700000Y-1186340D02*
X-17633334Y-1153006D01*
X-17633334Y-1153006D02*
X-17566667Y-1153006D01*
X-17600000Y-1319673D02*
X-17533334Y-1286340D01*
X-17533334Y-1286340D02*
X-17466667Y-1219673D01*
X-17466667Y-1219673D02*
X-17433334Y-1086340D01*
X-17433334Y-1086340D02*
X-17433334Y-853006D01*
X-17433334Y-853006D02*
X-17466667Y-719673D01*
X-17466667Y-719673D02*
X-17533334Y-653006D01*
X-17533334Y-653006D02*
X-17600000Y-619673D01*
X-17600000Y-619673D02*
X-17733334Y-619673D01*
X-17733334Y-619673D02*
X-17800000Y-653006D01*
X-17800000Y-653006D02*
X-17866667Y-719673D01*
X-17866667Y-719673D02*
X-17900000Y-853006D01*
X-17900000Y-853006D02*
X-17900000Y-1086340D01*
X-17900000Y-1086340D02*
X-17866667Y-1219673D01*
X-17866667Y-1219673D02*
X-17800000Y-1286340D01*
X-17800000Y-1286340D02*
X-17733334Y-1319673D01*
X-17733334Y-1319673D02*
X-17600000Y-1319673D01*
X-18133333Y-619673D02*
X-18566667Y-619673D01*
X-18566667Y-619673D02*
X-18333333Y-886340D01*
X-18333333Y-886340D02*
X-18433333Y-886340D01*
X-18433333Y-886340D02*
X-18500000Y-919673D01*
X-18500000Y-919673D02*
X-18533333Y-953006D01*
X-18533333Y-953006D02*
X-18566667Y-1019673D01*
X-18566667Y-1019673D02*
X-18566667Y-1186340D01*
X-18566667Y-1186340D02*
X-18533333Y-1253006D01*
X-18533333Y-1253006D02*
X-18500000Y-1286340D01*
X-18500000Y-1286340D02*
X-18433333Y-1319673D01*
X-18433333Y-1319673D02*
X-18233333Y-1319673D01*
X-18233333Y-1319673D02*
X-18166667Y-1286340D01*
X-18166667Y-1286340D02*
X-18133333Y-1253006D01*
D10*
%TO.C,D7*%
X-12900000Y11300000D02*
X-12900000Y9500000D01*
X-12900000Y9500000D02*
X-10100000Y9500000D01*
X-11750000Y10800000D02*
X-11750000Y10000000D01*
X-11750000Y10400000D02*
X-12250000Y10400000D01*
X-11750000Y10000000D02*
X-11150000Y10400000D01*
X-11150000Y10400000D02*
X-11750000Y10800000D01*
X-11150000Y10400000D02*
X-11150000Y10950000D01*
X-11150000Y10400000D02*
X-11150000Y9850000D01*
X-10750000Y10400000D02*
X-11150000Y10400000D01*
X-10100000Y11300000D02*
X-12900000Y11300000D01*
X-10100000Y9500000D02*
X-10100000Y11300000D01*
%TO.C,C6*%
X-8600000Y2300000D02*
X-8600000Y1500000D01*
X-8600000Y1500000D02*
X-7000000Y1500000D01*
X-7000000Y2300000D02*
X-8600000Y2300000D01*
X-7000000Y1500000D02*
X-7000000Y2300000D01*
%TO.C,C9*%
X-16200000Y1200000D02*
X-16200000Y400000D01*
X-16200000Y400000D02*
X-14600000Y400000D01*
X-14600000Y1200000D02*
X-16200000Y1200000D01*
X-14600000Y400000D02*
X-14600000Y1200000D01*
%TO.C,D2*%
X-13946990Y16900000D02*
X-13946990Y14100000D01*
X-13946990Y14100000D02*
X-12146990Y14100000D01*
X-13446990Y15250000D02*
X-12646990Y15250000D01*
X-13046990Y16250000D02*
X-13046990Y15850000D01*
X-13046990Y15850000D02*
X-13596990Y15850000D01*
X-13046990Y15850000D02*
X-13446990Y15250000D01*
X-13046990Y15850000D02*
X-12496990Y15850000D01*
X-13046990Y15250000D02*
X-13046990Y14750000D01*
X-12646990Y15250000D02*
X-13046990Y15850000D01*
X-12146990Y16900000D02*
X-13946990Y16900000D01*
X-12146990Y14100000D02*
X-12146990Y16900000D01*
%TO.C,C8*%
X5702944Y-1034315D02*
X7965685Y-3297056D01*
X6834315Y97056D02*
X5702944Y-1034315D01*
X7965685Y-3297056D02*
X9097056Y-2165685D01*
X9097056Y-2165685D02*
X6834315Y97056D01*
%TO.C,R14*%
X-20450000Y2662500D02*
X-20450000Y1837500D01*
X-20450000Y1837500D02*
X-18850000Y1837500D01*
X-18850000Y2662500D02*
X-20450000Y2662500D01*
X-18850000Y1837500D02*
X-18850000Y2662500D01*
%TO.C,D1*%
X-11500000Y16900000D02*
X-11500000Y14100000D01*
X-11500000Y14100000D02*
X-9700000Y14100000D01*
X-11000000Y15750000D02*
X-10600000Y15150000D01*
X-10600000Y15750000D02*
X-10600000Y16250000D01*
X-10600000Y15150000D02*
X-11150000Y15150000D01*
X-10600000Y15150000D02*
X-10200000Y15750000D01*
X-10600000Y15150000D02*
X-10050000Y15150000D01*
X-10600000Y14750000D02*
X-10600000Y15150000D01*
X-10200000Y15750000D02*
X-11000000Y15750000D01*
X-9700000Y16900000D02*
X-11500000Y16900000D01*
X-9700000Y14100000D02*
X-9700000Y16900000D01*
%TO.C,C4*%
X-11900000Y13025000D02*
X-11900000Y11775000D01*
X-11900000Y11775000D02*
X-9900000Y11775000D01*
X-9900000Y13025000D02*
X-11900000Y13025000D01*
X-9900000Y11775000D02*
X-9900000Y13025000D01*
%TO.C,R7*%
X-500000Y1112500D02*
X-500000Y287500D01*
X-500000Y287500D02*
X1100000Y287500D01*
X1100000Y1112500D02*
X-500000Y1112500D01*
X1100000Y287500D02*
X1100000Y1112500D01*
%TO.C,D4*%
X5900000Y-6900000D02*
X5900000Y-8700000D01*
X5900000Y-8700000D02*
X8700000Y-8700000D01*
X7050000Y-7400000D02*
X7050000Y-8200000D01*
X7050000Y-7800000D02*
X6550000Y-7800000D01*
X7050000Y-8200000D02*
X7650000Y-7800000D01*
X7650000Y-7800000D02*
X7050000Y-7400000D01*
X7650000Y-7800000D02*
X7650000Y-7250000D01*
X7650000Y-7800000D02*
X7650000Y-8350000D01*
X8050000Y-7800000D02*
X7650000Y-7800000D01*
X8700000Y-6900000D02*
X5900000Y-6900000D01*
X8700000Y-8700000D02*
X8700000Y-6900000D01*
%TO.C,R11*%
X2487500Y-10600000D02*
X2487500Y-12200000D01*
X2487500Y-12200000D02*
X3312500Y-12200000D01*
X3312500Y-10600000D02*
X2487500Y-10600000D01*
X3312500Y-12200000D02*
X3312500Y-10600000D01*
%TO.C,R13*%
X-20875000Y-200000D02*
X-20875000Y-1800000D01*
X-20875000Y-1800000D02*
X-20050000Y-1800000D01*
X-20050000Y-200000D02*
X-20875000Y-200000D01*
X-20050000Y-1800000D02*
X-20050000Y-200000D01*
%TO.C,D5*%
X3800000Y-11900000D02*
X3800000Y-14700000D01*
X3800000Y-14700000D02*
X5600000Y-14700000D01*
X4300000Y-13550000D02*
X5100000Y-13550000D01*
X4700000Y-12550000D02*
X4700000Y-12950000D01*
X4700000Y-12950000D02*
X4150000Y-12950000D01*
X4700000Y-12950000D02*
X4300000Y-13550000D01*
X4700000Y-12950000D02*
X5250000Y-12950000D01*
X4700000Y-13550000D02*
X4700000Y-14050000D01*
X5100000Y-13550000D02*
X4700000Y-12950000D01*
X5600000Y-11900000D02*
X3800000Y-11900000D01*
X5600000Y-14700000D02*
X5600000Y-11900000D01*
%TO.C,D3*%
X9000000Y-11900000D02*
X9000000Y-14700000D01*
X9000000Y-14700000D02*
X10800000Y-14700000D01*
X9500000Y-13550000D02*
X10300000Y-13550000D01*
X9900000Y-12550000D02*
X9900000Y-12950000D01*
X9900000Y-12950000D02*
X9350000Y-12950000D01*
X9900000Y-12950000D02*
X9500000Y-13550000D01*
X9900000Y-12950000D02*
X10450000Y-12950000D01*
X9900000Y-13550000D02*
X9900000Y-14050000D01*
X10300000Y-13550000D02*
X9900000Y-12950000D01*
X10800000Y-11900000D02*
X9000000Y-11900000D01*
X10800000Y-14700000D02*
X10800000Y-11900000D01*
%TO.C,R12*%
X6500000Y-11787500D02*
X6500000Y-12612500D01*
X6500000Y-12612500D02*
X8100000Y-12612500D01*
X8100000Y-11787500D02*
X6500000Y-11787500D01*
X8100000Y-12612500D02*
X8100000Y-11787500D01*
%TO.C,R6*%
X-8112500Y-9100000D02*
X-8112500Y-10700000D01*
X-8112500Y-10700000D02*
X-7287500Y-10700000D01*
X-7287500Y-9100000D02*
X-8112500Y-9100000D01*
X-7287500Y-10700000D02*
X-7287500Y-9100000D01*
%TO.C,D9*%
X7400000Y-13400000D02*
X8600000Y-13400000D01*
X7400000Y-15400000D02*
X7400000Y-13400000D01*
X8300000Y-15400000D02*
X7400000Y-15400000D01*
X8600000Y-13400000D02*
X8600000Y-15100000D01*
X8600000Y-15100000D02*
X8300000Y-15400000D01*
%TO.C,R16*%
X-12400000Y-14387500D02*
X-12400000Y-15212500D01*
X-12400000Y-15212500D02*
X-10800000Y-15212500D01*
X-10800000Y-14387500D02*
X-12400000Y-14387500D01*
X-10800000Y-15212500D02*
X-10800000Y-14387500D01*
%TO.C,R15*%
X11700000Y-14687500D02*
X11700000Y-15512500D01*
X11700000Y-15512500D02*
X13300000Y-15512500D01*
X13300000Y-14687500D02*
X11700000Y-14687500D01*
X13300000Y-15512500D02*
X13300000Y-14687500D01*
%TO.C,R5*%
X2900000Y2900000D02*
X2900000Y-300000D01*
X2900000Y-300000D02*
X4500000Y-300000D01*
X4500000Y2900000D02*
X2900000Y2900000D01*
X4500000Y-300000D02*
X4500000Y2900000D01*
%TO.C,R4*%
X5200000Y4500000D02*
X5200000Y1300000D01*
X5200000Y1300000D02*
X6800000Y1300000D01*
X6800000Y4500000D02*
X5200000Y4500000D01*
X6800000Y1300000D02*
X6800000Y4500000D01*
%TO.C,R3*%
X11587500Y-8100000D02*
X11587500Y-9700000D01*
X11587500Y-9700000D02*
X12412500Y-9700000D01*
X12412500Y-8100000D02*
X11587500Y-8100000D01*
X12412500Y-9700000D02*
X12412500Y-8100000D01*
%TO.C,U5*%
X-12950000Y1600000D02*
X-12950000Y0D01*
X-12950000Y0D02*
X-10450000Y0D01*
X-10450000Y0D02*
X-10050000Y400000D01*
X-10050000Y1600000D02*
X-12950000Y1600000D01*
X-10050000Y400000D02*
X-10050000Y1600000D01*
%TO.C,Q2*%
X11150000Y-11400000D02*
X11150000Y-13000000D01*
X11150000Y-13000000D02*
X13650000Y-13000000D01*
X13650000Y-13000000D02*
X14050000Y-12600000D01*
X14050000Y-11400000D02*
X11150000Y-11400000D01*
X14050000Y-12600000D02*
X14050000Y-11400000D01*
%TO.C,U3*%
X-7750000Y850000D02*
X-7750000Y-3075000D01*
X-7750000Y-3075000D02*
X-6775000Y-4050000D01*
X-6775000Y-4050000D02*
X-3850000Y-4050000D01*
X-3850000Y850000D02*
X-7750000Y850000D01*
X-3850000Y-4050000D02*
X-3850000Y850000D01*
%TO.C,U4*%
X-1450000Y-3400000D02*
X-1450000Y-5000000D01*
X-1450000Y-5000000D02*
X1050000Y-5000000D01*
X1050000Y-5000000D02*
X1450000Y-4600000D01*
X1450000Y-3400000D02*
X-1450000Y-3400000D01*
X1450000Y-4600000D02*
X1450000Y-3400000D01*
%TO.C,R10*%
X13087500Y-8100000D02*
X13087500Y-9700000D01*
X13087500Y-9700000D02*
X13912500Y-9700000D01*
X13912500Y-8100000D02*
X13087500Y-8100000D01*
X13912500Y-9700000D02*
X13912500Y-8100000D01*
%TO.C,D6*%
X-12900000Y9200000D02*
X-12900000Y7400000D01*
X-12900000Y7400000D02*
X-10100000Y7400000D01*
X-12250000Y8300000D02*
X-11850000Y8300000D01*
X-11850000Y8300000D02*
X-11850000Y8850000D01*
X-11850000Y8300000D02*
X-11850000Y7750000D01*
X-11850000Y8300000D02*
X-11250000Y7900000D01*
X-11250000Y8700000D02*
X-11850000Y8300000D01*
X-11250000Y8300000D02*
X-10750000Y8300000D01*
X-11250000Y7900000D02*
X-11250000Y8700000D01*
X-10100000Y9200000D02*
X-12900000Y9200000D01*
X-10100000Y7400000D02*
X-10100000Y9200000D01*
%TO.C,C5*%
X-8600000Y3800000D02*
X-8600000Y3000000D01*
X-8600000Y3000000D02*
X-7000000Y3000000D01*
X-7000000Y3800000D02*
X-8600000Y3800000D01*
X-7000000Y3000000D02*
X-7000000Y3800000D01*
%TO.C,R8*%
X-500000Y-687500D02*
X-500000Y-1512500D01*
X-500000Y-1512500D02*
X1100000Y-1512500D01*
X1100000Y-687500D02*
X-500000Y-687500D01*
X1100000Y-1512500D02*
X1100000Y-687500D01*
%TO.C,R9*%
X-8700000Y8612500D02*
X-8700000Y7787500D01*
X-8700000Y7787500D02*
X-7100000Y7787500D01*
X-7100000Y8612500D02*
X-8700000Y8612500D01*
X-7100000Y7787500D02*
X-7100000Y8612500D01*
%TO.C,D8*%
X2200000Y-13700000D02*
X2500000Y-13400000D01*
X2200000Y-15400000D02*
X2200000Y-13700000D01*
X2500000Y-13400000D02*
X3400000Y-13400000D01*
X3400000Y-13400000D02*
X3400000Y-15400000D01*
X3400000Y-15400000D02*
X2200000Y-15400000D01*
%TO.C,C7*%
X10100000Y-8100000D02*
X10100000Y-9700000D01*
X10100000Y-9700000D02*
X10900000Y-9700000D01*
X10900000Y-8100000D02*
X10100000Y-8100000D01*
X10900000Y-9700000D02*
X10900000Y-8100000D01*
%TO.C,Q3*%
X-18800000Y450000D02*
X-18800000Y-2050000D01*
X-18800000Y-2050000D02*
X-18400000Y-2450000D01*
X-18400000Y-2450000D02*
X-17200000Y-2450000D01*
X-17200000Y450000D02*
X-18800000Y450000D01*
X-17200000Y-2450000D02*
X-17200000Y450000D01*
%TD*%
D12*
%TO.C,U1*%
D10*
X-16910000Y4600000D02*
X-16814329Y4580970D01*
X-16733223Y4526777D01*
X-16679030Y4445671D01*
X-16660000Y4350000D01*
X-16660000Y3250000D01*
X-16679030Y3154329D01*
X-16733223Y3073223D01*
X-16814329Y3019030D01*
X-16910000Y3000000D01*
X-18010000Y3000000D01*
X-18105671Y3019030D01*
X-18186777Y3073223D01*
X-18240970Y3154329D01*
X-18260000Y3250000D01*
X-18260000Y4350000D01*
X-18240970Y4445671D01*
X-18186777Y4526777D01*
X-18105671Y4580970D01*
X-18010000Y4600000D01*
X-16910000Y4600000D01*
X-19200000Y3800000D02*
G75*
G02*
X-20800000Y3800000I-800000J0D01*
G01*
X-20800000Y3800000D02*
G75*
G02*
X-19200000Y3800000I800000J0D01*
G01*
X-19200000Y-3820000D02*
G75*
G02*
X-20800000Y-3820000I-800000J0D01*
G01*
X-20800000Y-3820000D02*
G75*
G02*
X-19200000Y-3820000I800000J0D01*
G01*
X-16660000Y-3820000D02*
G75*
G02*
X-18260000Y-3820000I-800000J0D01*
G01*
X-18260000Y-3820000D02*
G75*
G02*
X-16660000Y-3820000I800000J0D01*
G01*
%TD*%
%TO.C,Q1*%
X14100000Y6700000D02*
X14600000Y6200000D01*
X14600000Y4700000D01*
X14100000Y4200000D01*
X11100000Y4200000D01*
X10600000Y4700000D01*
X10600000Y6200000D01*
X11100000Y6700000D01*
X14100000Y6700000D01*
X11600000Y3890000D02*
X11600000Y1790000D01*
X13600000Y1790000D01*
X13600000Y3890000D01*
X11600000Y3890000D01*
X13600000Y1000000D02*
X11600000Y1000000D01*
X11600000Y-1000000D02*
G75*
G02*
X11600000Y1000000I0J1000000D01*
G01*
X11600000Y-1000000D02*
X13600000Y-1000000D01*
X13600000Y-1000000D02*
G75*
G03*
X13600000Y1000000I0J1000000D01*
G01*
X11600000Y-2790000D02*
X11600000Y-2890000D01*
X13600000Y-2890000D02*
G75*
G02*
X11600000Y-2890000I-1000000J0D01*
G01*
X13600000Y-2890000D02*
X13600000Y-2790000D01*
X13600000Y-2790000D02*
G75*
G03*
X11600000Y-2790000I-1000000J0D01*
G01*
X13350000Y-4200000D02*
X11850000Y-4200000D01*
X11850000Y-6700000D02*
G75*
G02*
X11850000Y-4200000I0J1250000D01*
G01*
X11850000Y-6700000D02*
X13350000Y-6700000D01*
X13350000Y-6700000D02*
G75*
G03*
X13350000Y-4200000I0J1250000D01*
G01*
%TD*%
%TO.C,RV1*%
X6900000Y-3750000D02*
G75*
G02*
X4700000Y-3750000I-1100000J0D01*
G01*
X4700000Y-3750000D02*
G75*
G02*
X6900000Y-3750000I1100000J0D01*
G01*
X9300000Y3750000D02*
G75*
G02*
X7100000Y3750000I-1100000J0D01*
G01*
X7100000Y3750000D02*
G75*
G02*
X9300000Y3750000I1100000J0D01*
G01*
%TD*%
%TO.C,J3*%
X-7660000Y-5250000D02*
X-7660000Y-6950000D01*
X-6060000Y-6950000D01*
X-6060000Y-5250000D01*
X-7660000Y-5250000D01*
X-9400000Y-5250000D02*
X-9400000Y-5250000D01*
X-9400000Y-6950000D02*
G75*
G02*
X-9400000Y-5250000I0J850000D01*
G01*
X-9400000Y-6950000D02*
X-9400000Y-6950000D01*
X-9400000Y-6950000D02*
G75*
G03*
X-9400000Y-5250000I0J850000D01*
G01*
X-11090000Y-6100000D02*
G75*
G02*
X-12790000Y-6100000I-850000J0D01*
G01*
X-12790000Y-6100000D02*
G75*
G02*
X-11090000Y-6100000I850000J0D01*
G01*
X-13630000Y-6100000D02*
G75*
G02*
X-15330000Y-6100000I-850000J0D01*
G01*
X-15330000Y-6100000D02*
G75*
G02*
X-13630000Y-6100000I850000J0D01*
G01*
%TD*%
D12*
%TO.C,U2*%
D10*
X-13150000Y-17400000D02*
X-13245671Y-17380970D01*
X-13326777Y-17326777D01*
X-13380970Y-17245671D01*
X-13400000Y-17150000D01*
X-13400000Y-16050000D01*
X-13380970Y-15954329D01*
X-13326777Y-15873223D01*
X-13245671Y-15819030D01*
X-13150000Y-15800000D01*
X-12050000Y-15800000D01*
X-11954329Y-15819030D01*
X-11873223Y-15873223D01*
X-11819030Y-15954329D01*
X-11800000Y-16050000D01*
X-11800000Y-17150000D01*
X-11819030Y-17245671D01*
X-11873223Y-17326777D01*
X-11954329Y-17380970D01*
X-12050000Y-17400000D01*
X-13150000Y-17400000D01*
X-9260000Y-16600000D02*
G75*
G02*
X-10860000Y-16600000I-800000J0D01*
G01*
X-10860000Y-16600000D02*
G75*
G02*
X-9260000Y-16600000I800000J0D01*
G01*
X-9260000Y-8980000D02*
G75*
G02*
X-10860000Y-8980000I-800000J0D01*
G01*
X-10860000Y-8980000D02*
G75*
G02*
X-9260000Y-8980000I800000J0D01*
G01*
X-11800000Y-8980000D02*
G75*
G02*
X-13400000Y-8980000I-800000J0D01*
G01*
X-13400000Y-8980000D02*
G75*
G02*
X-11800000Y-8980000I800000J0D01*
G01*
%TD*%
D12*
%TO.C,J4*%
D10*
X-7100000Y-13350001D02*
X-7080970Y-13254330D01*
X-7026776Y-13173224D01*
X-6945670Y-13119030D01*
X-6849998Y-13100001D01*
X-4950001Y-13100000D01*
X-4854330Y-13119030D01*
X-4773224Y-13173224D01*
X-4719030Y-13254330D01*
X-4700001Y-13350002D01*
X-4700000Y-15249999D01*
X-4719030Y-15345670D01*
X-4773224Y-15426776D01*
X-4854330Y-15480970D01*
X-4950002Y-15499999D01*
X-6849999Y-15500000D01*
X-6945670Y-15480970D01*
X-7026776Y-15426776D01*
X-7080970Y-15345670D01*
X-7099999Y-15249998D01*
X-7100000Y-13350001D01*
X-1200000Y-14300000D02*
G75*
G02*
X-3600000Y-14300000I-1200000J0D01*
G01*
X-3600000Y-14300000D02*
G75*
G02*
X-1200000Y-14300000I1200000J0D01*
G01*
%TD*%
D12*
%TO.C,J1*%
D10*
X-5250000Y14332500D02*
X-5230970Y14428171D01*
X-5176777Y14509277D01*
X-5095671Y14563470D01*
X-5000000Y14582500D01*
X-3000000Y14582500D01*
X-2904329Y14563470D01*
X-2823223Y14509277D01*
X-2769030Y14428171D01*
X-2750000Y14332500D01*
X-2750000Y12332500D01*
X-2769030Y12236829D01*
X-2823223Y12155723D01*
X-2904329Y12101530D01*
X-3000000Y12082500D01*
X-5000000Y12082500D01*
X-5095671Y12101530D01*
X-5176777Y12155723D01*
X-5230970Y12236829D01*
X-5250000Y12332500D01*
X-5250000Y14332500D01*
X2330000Y13332500D02*
G75*
G02*
X-170000Y13332500I-1250000J0D01*
G01*
X-170000Y13332500D02*
G75*
G02*
X2330000Y13332500I1250000J0D01*
G01*
%TD*%
%TO.C,R1*%
X3600000Y6600000D02*
G75*
G02*
X2000000Y6600000I-800000J0D01*
G01*
X2000000Y6600000D02*
G75*
G02*
X3600000Y6600000I800000J0D01*
G01*
X2800000Y-7840000D02*
X2800000Y-7840000D01*
X2800000Y-9440000D02*
G75*
G02*
X2800000Y-7840000I0J800000D01*
G01*
X2800000Y-9440000D02*
X2800000Y-9440000D01*
X2800000Y-9440000D02*
G75*
G03*
X2800000Y-7840000I0J800000D01*
G01*
%TD*%
%TO.C,C3*%
X1200000Y6800000D02*
G75*
G02*
X-1200000Y6800000I-1200000J0D01*
G01*
X-1200000Y6800000D02*
G75*
G02*
X1200000Y6800000I1200000J0D01*
G01*
X1200000Y-8200000D02*
G75*
G02*
X-1200000Y-8200000I-1200000J0D01*
G01*
X-1200000Y-8200000D02*
G75*
G02*
X1200000Y-8200000I1200000J0D01*
G01*
%TD*%
%TO.C,C2*%
X-13600000Y4600000D02*
X-13600000Y3000000D01*
X-12000000Y3000000D01*
X-12000000Y4600000D01*
X-13600000Y4600000D01*
X-9500000Y3800000D02*
G75*
G02*
X-11100000Y3800000I-800000J0D01*
G01*
X-11100000Y3800000D02*
G75*
G02*
X-9500000Y3800000I800000J0D01*
G01*
%TD*%
%TO.C,R2*%
X7000000Y-9900000D02*
G75*
G02*
X5400000Y-9900000I-800000J0D01*
G01*
X5400000Y-9900000D02*
G75*
G02*
X7000000Y-9900000I800000J0D01*
G01*
X7940000Y-9900000D02*
X7940000Y-9900000D01*
X9540000Y-9900000D02*
G75*
G02*
X7940000Y-9900000I-800000J0D01*
G01*
X9540000Y-9900000D02*
X9540000Y-9900000D01*
X9540000Y-9900000D02*
G75*
G03*
X7940000Y-9900000I-800000J0D01*
G01*
%TD*%
D12*
%TO.C,J2*%
D10*
X5150000Y14332500D02*
X5169030Y14428171D01*
X5223223Y14509277D01*
X5304329Y14563470D01*
X5400000Y14582500D01*
X7400000Y14582500D01*
X7495671Y14563470D01*
X7576777Y14509277D01*
X7630970Y14428171D01*
X7650000Y14332500D01*
X7650000Y12332500D01*
X7630970Y12236829D01*
X7576777Y12155723D01*
X7495671Y12101530D01*
X7400000Y12082500D01*
X5400000Y12082500D01*
X5304329Y12101530D01*
X5223223Y12155723D01*
X5169030Y12236829D01*
X5150000Y12332500D01*
X5150000Y14332500D01*
X12730000Y13332500D02*
G75*
G02*
X10230000Y13332500I-1250000J0D01*
G01*
X10230000Y13332500D02*
G75*
G02*
X12730000Y13332500I1250000J0D01*
G01*
%TD*%
%TO.C,C1*%
X-6600000Y15200000D02*
G75*
G02*
X-8600000Y15200000I-1000000J0D01*
G01*
X-8600000Y15200000D02*
G75*
G02*
X-6600000Y15200000I1000000J0D01*
G01*
X-14100000Y15200000D02*
G75*
G02*
X-16100000Y15200000I-1000000J0D01*
G01*
X-16100000Y15200000D02*
G75*
G02*
X-14100000Y15200000I1000000J0D01*
G01*
%TD*%
D12*
%TO.C,D7*%
D10*
X-10450000Y10745455D02*
X-10434430Y10823731D01*
X-10390090Y10890090D01*
X-10323731Y10934430D01*
X-10245454Y10949999D01*
X-9754545Y10950000D01*
X-9676269Y10934430D01*
X-9609910Y10890090D01*
X-9565570Y10823731D01*
X-9550001Y10745454D01*
X-9550000Y10054545D01*
X-9565570Y9976269D01*
X-9609910Y9909910D01*
X-9676269Y9865570D01*
X-9754546Y9850001D01*
X-10245455Y9850000D01*
X-10323731Y9865570D01*
X-10390090Y9909910D01*
X-10434430Y9976269D01*
X-10449999Y10054546D01*
X-10450000Y10745455D01*
D12*
D10*
X-13450000Y10745455D02*
X-13434430Y10823731D01*
X-13390090Y10890090D01*
X-13323731Y10934430D01*
X-13245454Y10949999D01*
X-12754545Y10950000D01*
X-12676269Y10934430D01*
X-12609910Y10890090D01*
X-12565570Y10823731D01*
X-12550001Y10745454D01*
X-12550000Y10054545D01*
X-12565570Y9976269D01*
X-12609910Y9909910D01*
X-12676269Y9865570D01*
X-12754546Y9850001D01*
X-13245455Y9850000D01*
X-13323731Y9865570D01*
X-13390090Y9909910D01*
X-13434430Y9976269D01*
X-13449999Y10054546D01*
X-13450000Y10745455D01*
%TD*%
D12*
%TO.C,C6*%
D10*
X-8125000Y1650000D02*
X-8142127Y1563896D01*
X-8190901Y1490901D01*
X-8263896Y1442127D01*
X-8350000Y1425000D01*
X-8800000Y1425000D01*
X-8886104Y1442127D01*
X-8959099Y1490901D01*
X-9007873Y1563896D01*
X-9025000Y1650000D01*
X-9025000Y2150000D01*
X-9007873Y2236104D01*
X-8959099Y2309099D01*
X-8886104Y2357873D01*
X-8800000Y2375000D01*
X-8350000Y2375000D01*
X-8263896Y2357873D01*
X-8190901Y2309099D01*
X-8142127Y2236104D01*
X-8125000Y2150000D01*
X-8125000Y1650000D01*
D12*
D10*
X-6575000Y1650000D02*
X-6592127Y1563896D01*
X-6640901Y1490901D01*
X-6713896Y1442127D01*
X-6800000Y1425000D01*
X-7250000Y1425000D01*
X-7336104Y1442127D01*
X-7409099Y1490901D01*
X-7457873Y1563896D01*
X-7475000Y1650000D01*
X-7475000Y2150000D01*
X-7457873Y2236104D01*
X-7409099Y2309099D01*
X-7336104Y2357873D01*
X-7250000Y2375000D01*
X-6800000Y2375000D01*
X-6713896Y2357873D01*
X-6640901Y2309099D01*
X-6592127Y2236104D01*
X-6575000Y2150000D01*
X-6575000Y1650000D01*
%TD*%
D12*
%TO.C,C9*%
D10*
X-15825000Y525000D02*
X-15840224Y448463D01*
X-15883579Y383579D01*
X-15948463Y340224D01*
X-16025000Y325000D01*
X-16425000Y325000D01*
X-16501537Y340224D01*
X-16566421Y383579D01*
X-16609776Y448463D01*
X-16625000Y525000D01*
X-16625000Y1075000D01*
X-16609776Y1151537D01*
X-16566421Y1216421D01*
X-16501537Y1259776D01*
X-16425000Y1275000D01*
X-16025000Y1275000D01*
X-15948463Y1259776D01*
X-15883579Y1216421D01*
X-15840224Y1151537D01*
X-15825000Y1075000D01*
X-15825000Y525000D01*
D12*
D10*
X-14175000Y525000D02*
X-14190224Y448463D01*
X-14233579Y383579D01*
X-14298463Y340224D01*
X-14375000Y325000D01*
X-14775000Y325000D01*
X-14851537Y340224D01*
X-14916421Y383579D01*
X-14959776Y448463D01*
X-14975000Y525000D01*
X-14975000Y1075000D01*
X-14959776Y1151537D01*
X-14916421Y1216421D01*
X-14851537Y1259776D01*
X-14775000Y1275000D01*
X-14375000Y1275000D01*
X-14298463Y1259776D01*
X-14233579Y1216421D01*
X-14190224Y1151537D01*
X-14175000Y1075000D01*
X-14175000Y525000D01*
%TD*%
D12*
%TO.C,D2*%
D10*
X-13392445Y16550000D02*
X-13470721Y16565570D01*
X-13537080Y16609910D01*
X-13581420Y16676269D01*
X-13596989Y16754546D01*
X-13596990Y17245455D01*
X-13581420Y17323731D01*
X-13537080Y17390090D01*
X-13470721Y17434430D01*
X-13392444Y17449999D01*
X-12701535Y17450000D01*
X-12623259Y17434430D01*
X-12556900Y17390090D01*
X-12512560Y17323731D01*
X-12496991Y17245454D01*
X-12496990Y16754545D01*
X-12512560Y16676269D01*
X-12556900Y16609910D01*
X-12623259Y16565570D01*
X-12701536Y16550001D01*
X-13392445Y16550000D01*
D12*
D10*
X-13392445Y13550000D02*
X-13470721Y13565570D01*
X-13537080Y13609910D01*
X-13581420Y13676269D01*
X-13596989Y13754546D01*
X-13596990Y14245455D01*
X-13581420Y14323731D01*
X-13537080Y14390090D01*
X-13470721Y14434430D01*
X-13392444Y14449999D01*
X-12701535Y14450000D01*
X-12623259Y14434430D01*
X-12556900Y14390090D01*
X-12512560Y14323731D01*
X-12496991Y14245454D01*
X-12496990Y13754545D01*
X-12512560Y13676269D01*
X-12556900Y13609910D01*
X-12623259Y13565570D01*
X-12701536Y13550001D01*
X-13392445Y13550000D01*
%TD*%
D12*
%TO.C,C8*%
D10*
X8802428Y-2000694D02*
X8856499Y-1964565D01*
X8920279Y-1951879D01*
X8984060Y-1964565D01*
X9038131Y-2000695D01*
X9332758Y-2295321D01*
X9368887Y-2349392D01*
X9381573Y-2413173D01*
X9368887Y-2476953D01*
X9332757Y-2531024D01*
X8331024Y-3532758D01*
X8276953Y-3568887D01*
X8213173Y-3581573D01*
X8149392Y-3568887D01*
X8095321Y-3532757D01*
X7800694Y-3238131D01*
X7764565Y-3184060D01*
X7751879Y-3120279D01*
X7764565Y-3056499D01*
X7800695Y-3002428D01*
X8802428Y-2000694D01*
D12*
D10*
X6468976Y332758D02*
X6523047Y368887D01*
X6586827Y381573D01*
X6650608Y368887D01*
X6704679Y332757D01*
X6999306Y38131D01*
X7035435Y-15940D01*
X7048121Y-79721D01*
X7035435Y-143501D01*
X6999305Y-197572D01*
X5997572Y-1199306D01*
X5943501Y-1235435D01*
X5879721Y-1248121D01*
X5815940Y-1235435D01*
X5761869Y-1199305D01*
X5467242Y-904679D01*
X5431113Y-850608D01*
X5418427Y-786827D01*
X5431113Y-723047D01*
X5467243Y-668976D01*
X6468976Y332758D01*
%TD*%
D12*
%TO.C,R14*%
D10*
X-19225000Y2525000D02*
X-19209776Y2601537D01*
X-19166421Y2666421D01*
X-19101537Y2709776D01*
X-19025000Y2725000D01*
X-18625000Y2725000D01*
X-18548463Y2709776D01*
X-18483579Y2666421D01*
X-18440224Y2601537D01*
X-18425000Y2525000D01*
X-18425000Y1975000D01*
X-18440224Y1898463D01*
X-18483579Y1833579D01*
X-18548463Y1790224D01*
X-18625000Y1775000D01*
X-19025000Y1775000D01*
X-19101537Y1790224D01*
X-19166421Y1833579D01*
X-19209776Y1898463D01*
X-19225000Y1975000D01*
X-19225000Y2525000D01*
D12*
D10*
X-20875000Y2525000D02*
X-20859776Y2601537D01*
X-20816421Y2666421D01*
X-20751537Y2709776D01*
X-20675000Y2725000D01*
X-20275000Y2725000D01*
X-20198463Y2709776D01*
X-20133579Y2666421D01*
X-20090224Y2601537D01*
X-20075000Y2525000D01*
X-20075000Y1975000D01*
X-20090224Y1898463D01*
X-20133579Y1833579D01*
X-20198463Y1790224D01*
X-20275000Y1775000D01*
X-20675000Y1775000D01*
X-20751537Y1790224D01*
X-20816421Y1833579D01*
X-20859776Y1898463D01*
X-20875000Y1975000D01*
X-20875000Y2525000D01*
%TD*%
D12*
%TO.C,D1*%
D10*
X-10254545Y14450000D02*
X-10176269Y14434430D01*
X-10109910Y14390090D01*
X-10065570Y14323731D01*
X-10050001Y14245454D01*
X-10050000Y13754545D01*
X-10065570Y13676269D01*
X-10109910Y13609910D01*
X-10176269Y13565570D01*
X-10254546Y13550001D01*
X-10945455Y13550000D01*
X-11023731Y13565570D01*
X-11090090Y13609910D01*
X-11134430Y13676269D01*
X-11149999Y13754546D01*
X-11150000Y14245455D01*
X-11134430Y14323731D01*
X-11090090Y14390090D01*
X-11023731Y14434430D01*
X-10945454Y14449999D01*
X-10254545Y14450000D01*
D12*
D10*
X-10254545Y17450000D02*
X-10176269Y17434430D01*
X-10109910Y17390090D01*
X-10065570Y17323731D01*
X-10050001Y17245454D01*
X-10050000Y16754545D01*
X-10065570Y16676269D01*
X-10109910Y16609910D01*
X-10176269Y16565570D01*
X-10254546Y16550001D01*
X-10945455Y16550000D01*
X-11023731Y16565570D01*
X-11090090Y16609910D01*
X-11134430Y16676269D01*
X-11149999Y16754546D01*
X-11150000Y17245455D01*
X-11134430Y17323731D01*
X-11090090Y17390090D01*
X-11023731Y17434430D01*
X-10945454Y17449999D01*
X-10254545Y17450000D01*
%TD*%
D12*
%TO.C,C4*%
D10*
X-11500000Y11895122D02*
X-11514853Y11820452D01*
X-11557150Y11757150D01*
X-11620452Y11714853D01*
X-11695122Y11700000D01*
X-12104878Y11700000D01*
X-12179548Y11714853D01*
X-12242850Y11757150D01*
X-12285147Y11820452D01*
X-12300000Y11895122D01*
X-12300000Y12904878D01*
X-12285147Y12979548D01*
X-12242850Y13042850D01*
X-12179548Y13085147D01*
X-12104878Y13100000D01*
X-11695122Y13100000D01*
X-11620452Y13085147D01*
X-11557150Y13042850D01*
X-11514853Y12979548D01*
X-11500000Y12904878D01*
X-11500000Y11895122D01*
D12*
D10*
X-9500000Y11895122D02*
X-9514853Y11820452D01*
X-9557150Y11757150D01*
X-9620452Y11714853D01*
X-9695122Y11700000D01*
X-10104878Y11700000D01*
X-10179548Y11714853D01*
X-10242850Y11757150D01*
X-10285147Y11820452D01*
X-10300000Y11895122D01*
X-10300000Y12904878D01*
X-10285147Y12979548D01*
X-10242850Y13042850D01*
X-10179548Y13085147D01*
X-10104878Y13100000D01*
X-9695122Y13100000D01*
X-9620452Y13085147D01*
X-9557150Y13042850D01*
X-9514853Y12979548D01*
X-9500000Y12904878D01*
X-9500000Y11895122D01*
%TD*%
D12*
%TO.C,R7*%
D10*
X725000Y975000D02*
X740224Y1051537D01*
X783579Y1116421D01*
X848463Y1159776D01*
X925000Y1175000D01*
X1325000Y1175000D01*
X1401537Y1159776D01*
X1466421Y1116421D01*
X1509776Y1051537D01*
X1525000Y975000D01*
X1525000Y425000D01*
X1509776Y348463D01*
X1466421Y283579D01*
X1401537Y240224D01*
X1325000Y225000D01*
X925000Y225000D01*
X848463Y240224D01*
X783579Y283579D01*
X740224Y348463D01*
X725000Y425000D01*
X725000Y975000D01*
D12*
D10*
X-925000Y975000D02*
X-909776Y1051537D01*
X-866421Y1116421D01*
X-801537Y1159776D01*
X-725000Y1175000D01*
X-325000Y1175000D01*
X-248463Y1159776D01*
X-183579Y1116421D01*
X-140224Y1051537D01*
X-125000Y975000D01*
X-125000Y425000D01*
X-140224Y348463D01*
X-183579Y283579D01*
X-248463Y240224D01*
X-325000Y225000D01*
X-725000Y225000D01*
X-801537Y240224D01*
X-866421Y283579D01*
X-909776Y348463D01*
X-925000Y425000D01*
X-925000Y975000D01*
%TD*%
D12*
%TO.C,D4*%
D10*
X8350000Y-7454545D02*
X8365570Y-7376269D01*
X8409910Y-7309910D01*
X8476269Y-7265570D01*
X8554546Y-7250001D01*
X9045455Y-7250000D01*
X9123731Y-7265570D01*
X9190090Y-7309910D01*
X9234430Y-7376269D01*
X9249999Y-7454546D01*
X9250000Y-8145455D01*
X9234430Y-8223731D01*
X9190090Y-8290090D01*
X9123731Y-8334430D01*
X9045454Y-8349999D01*
X8554545Y-8350000D01*
X8476269Y-8334430D01*
X8409910Y-8290090D01*
X8365570Y-8223731D01*
X8350001Y-8145454D01*
X8350000Y-7454545D01*
D12*
D10*
X5350000Y-7454545D02*
X5365570Y-7376269D01*
X5409910Y-7309910D01*
X5476269Y-7265570D01*
X5554546Y-7250001D01*
X6045455Y-7250000D01*
X6123731Y-7265570D01*
X6190090Y-7309910D01*
X6234430Y-7376269D01*
X6249999Y-7454546D01*
X6250000Y-8145455D01*
X6234430Y-8223731D01*
X6190090Y-8290090D01*
X6123731Y-8334430D01*
X6045454Y-8349999D01*
X5554545Y-8350000D01*
X5476269Y-8334430D01*
X5409910Y-8290090D01*
X5365570Y-8223731D01*
X5350001Y-8145454D01*
X5350000Y-7454545D01*
%TD*%
D12*
%TO.C,R11*%
D10*
X2625000Y-10975000D02*
X2548463Y-10959776D01*
X2483579Y-10916421D01*
X2440224Y-10851537D01*
X2425000Y-10775000D01*
X2425000Y-10375000D01*
X2440224Y-10298463D01*
X2483579Y-10233579D01*
X2548463Y-10190224D01*
X2625000Y-10175000D01*
X3175000Y-10175000D01*
X3251537Y-10190224D01*
X3316421Y-10233579D01*
X3359776Y-10298463D01*
X3375000Y-10375000D01*
X3375000Y-10775000D01*
X3359776Y-10851537D01*
X3316421Y-10916421D01*
X3251537Y-10959776D01*
X3175000Y-10975000D01*
X2625000Y-10975000D01*
D12*
D10*
X2625000Y-12625000D02*
X2548463Y-12609776D01*
X2483579Y-12566421D01*
X2440224Y-12501537D01*
X2425000Y-12425000D01*
X2425000Y-12025000D01*
X2440224Y-11948463D01*
X2483579Y-11883579D01*
X2548463Y-11840224D01*
X2625000Y-11825000D01*
X3175000Y-11825000D01*
X3251537Y-11840224D01*
X3316421Y-11883579D01*
X3359776Y-11948463D01*
X3375000Y-12025000D01*
X3375000Y-12425000D01*
X3359776Y-12501537D01*
X3316421Y-12566421D01*
X3251537Y-12609776D01*
X3175000Y-12625000D01*
X2625000Y-12625000D01*
%TD*%
D12*
%TO.C,R13*%
D10*
X-20187500Y-1425000D02*
X-20110963Y-1440224D01*
X-20046079Y-1483579D01*
X-20002724Y-1548463D01*
X-19987500Y-1625000D01*
X-19987500Y-2025000D01*
X-20002724Y-2101537D01*
X-20046079Y-2166421D01*
X-20110963Y-2209776D01*
X-20187500Y-2225000D01*
X-20737500Y-2225000D01*
X-20814037Y-2209776D01*
X-20878921Y-2166421D01*
X-20922276Y-2101537D01*
X-20937500Y-2025000D01*
X-20937500Y-1625000D01*
X-20922276Y-1548463D01*
X-20878921Y-1483579D01*
X-20814037Y-1440224D01*
X-20737500Y-1425000D01*
X-20187500Y-1425000D01*
D12*
D10*
X-20187500Y225000D02*
X-20110963Y209776D01*
X-20046079Y166421D01*
X-20002724Y101537D01*
X-19987500Y25000D01*
X-19987500Y-375000D01*
X-20002724Y-451537D01*
X-20046079Y-516421D01*
X-20110963Y-559776D01*
X-20187500Y-575000D01*
X-20737500Y-575000D01*
X-20814037Y-559776D01*
X-20878921Y-516421D01*
X-20922276Y-451537D01*
X-20937500Y-375000D01*
X-20937500Y25000D01*
X-20922276Y101537D01*
X-20878921Y166421D01*
X-20814037Y209776D01*
X-20737500Y225000D01*
X-20187500Y225000D01*
%TD*%
D12*
%TO.C,D5*%
D10*
X4354545Y-12250000D02*
X4276269Y-12234430D01*
X4209910Y-12190090D01*
X4165570Y-12123731D01*
X4150001Y-12045454D01*
X4150000Y-11554545D01*
X4165570Y-11476269D01*
X4209910Y-11409910D01*
X4276269Y-11365570D01*
X4354546Y-11350001D01*
X5045455Y-11350000D01*
X5123731Y-11365570D01*
X5190090Y-11409910D01*
X5234430Y-11476269D01*
X5249999Y-11554546D01*
X5250000Y-12045455D01*
X5234430Y-12123731D01*
X5190090Y-12190090D01*
X5123731Y-12234430D01*
X5045454Y-12249999D01*
X4354545Y-12250000D01*
D12*
D10*
X4354545Y-15250000D02*
X4276269Y-15234430D01*
X4209910Y-15190090D01*
X4165570Y-15123731D01*
X4150001Y-15045454D01*
X4150000Y-14554545D01*
X4165570Y-14476269D01*
X4209910Y-14409910D01*
X4276269Y-14365570D01*
X4354546Y-14350001D01*
X5045455Y-14350000D01*
X5123731Y-14365570D01*
X5190090Y-14409910D01*
X5234430Y-14476269D01*
X5249999Y-14554546D01*
X5250000Y-15045455D01*
X5234430Y-15123731D01*
X5190090Y-15190090D01*
X5123731Y-15234430D01*
X5045454Y-15249999D01*
X4354545Y-15250000D01*
%TD*%
D12*
%TO.C,D3*%
D10*
X9554545Y-12250000D02*
X9476269Y-12234430D01*
X9409910Y-12190090D01*
X9365570Y-12123731D01*
X9350001Y-12045454D01*
X9350000Y-11554545D01*
X9365570Y-11476269D01*
X9409910Y-11409910D01*
X9476269Y-11365570D01*
X9554546Y-11350001D01*
X10245455Y-11350000D01*
X10323731Y-11365570D01*
X10390090Y-11409910D01*
X10434430Y-11476269D01*
X10449999Y-11554546D01*
X10450000Y-12045455D01*
X10434430Y-12123731D01*
X10390090Y-12190090D01*
X10323731Y-12234430D01*
X10245454Y-12249999D01*
X9554545Y-12250000D01*
D12*
D10*
X9554545Y-15250000D02*
X9476269Y-15234430D01*
X9409910Y-15190090D01*
X9365570Y-15123731D01*
X9350001Y-15045454D01*
X9350000Y-14554545D01*
X9365570Y-14476269D01*
X9409910Y-14409910D01*
X9476269Y-14365570D01*
X9554546Y-14350001D01*
X10245455Y-14350000D01*
X10323731Y-14365570D01*
X10390090Y-14409910D01*
X10434430Y-14476269D01*
X10449999Y-14554546D01*
X10450000Y-15045455D01*
X10434430Y-15123731D01*
X10390090Y-15190090D01*
X10323731Y-15234430D01*
X10245454Y-15249999D01*
X9554545Y-15250000D01*
%TD*%
D12*
%TO.C,R12*%
D10*
X6875000Y-12475000D02*
X6859776Y-12551537D01*
X6816421Y-12616421D01*
X6751537Y-12659776D01*
X6675000Y-12675000D01*
X6275000Y-12675000D01*
X6198463Y-12659776D01*
X6133579Y-12616421D01*
X6090224Y-12551537D01*
X6075000Y-12475000D01*
X6075000Y-11925000D01*
X6090224Y-11848463D01*
X6133579Y-11783579D01*
X6198463Y-11740224D01*
X6275000Y-11725000D01*
X6675000Y-11725000D01*
X6751537Y-11740224D01*
X6816421Y-11783579D01*
X6859776Y-11848463D01*
X6875000Y-11925000D01*
X6875000Y-12475000D01*
D12*
D10*
X8525000Y-12475000D02*
X8509776Y-12551537D01*
X8466421Y-12616421D01*
X8401537Y-12659776D01*
X8325000Y-12675000D01*
X7925000Y-12675000D01*
X7848463Y-12659776D01*
X7783579Y-12616421D01*
X7740224Y-12551537D01*
X7725000Y-12475000D01*
X7725000Y-11925000D01*
X7740224Y-11848463D01*
X7783579Y-11783579D01*
X7848463Y-11740224D01*
X7925000Y-11725000D01*
X8325000Y-11725000D01*
X8401537Y-11740224D01*
X8466421Y-11783579D01*
X8509776Y-11848463D01*
X8525000Y-11925000D01*
X8525000Y-12475000D01*
%TD*%
D12*
%TO.C,R6*%
D10*
X-7975000Y-9475000D02*
X-8051537Y-9459776D01*
X-8116421Y-9416421D01*
X-8159776Y-9351537D01*
X-8175000Y-9275000D01*
X-8175000Y-8875000D01*
X-8159776Y-8798463D01*
X-8116421Y-8733579D01*
X-8051537Y-8690224D01*
X-7975000Y-8675000D01*
X-7425000Y-8675000D01*
X-7348463Y-8690224D01*
X-7283579Y-8733579D01*
X-7240224Y-8798463D01*
X-7225000Y-8875000D01*
X-7225000Y-9275000D01*
X-7240224Y-9351537D01*
X-7283579Y-9416421D01*
X-7348463Y-9459776D01*
X-7425000Y-9475000D01*
X-7975000Y-9475000D01*
D12*
D10*
X-7975000Y-11125000D02*
X-8051537Y-11109776D01*
X-8116421Y-11066421D01*
X-8159776Y-11001537D01*
X-8175000Y-10925000D01*
X-8175000Y-10525000D01*
X-8159776Y-10448463D01*
X-8116421Y-10383579D01*
X-8051537Y-10340224D01*
X-7975000Y-10325000D01*
X-7425000Y-10325000D01*
X-7348463Y-10340224D01*
X-7283579Y-10383579D01*
X-7240224Y-10448463D01*
X-7225000Y-10525000D01*
X-7225000Y-10925000D01*
X-7240224Y-11001537D01*
X-7283579Y-11066421D01*
X-7348463Y-11109776D01*
X-7425000Y-11125000D01*
X-7975000Y-11125000D01*
%TD*%
D12*
%TO.C,D9*%
D10*
X8500000Y-15000000D02*
X8576537Y-15015224D01*
X8641421Y-15058579D01*
X8684776Y-15123463D01*
X8700000Y-15200000D01*
X8700000Y-15600000D01*
X8684776Y-15676537D01*
X8641421Y-15741421D01*
X8576537Y-15784776D01*
X8500000Y-15800000D01*
X7500000Y-15800000D01*
X7423463Y-15784776D01*
X7358579Y-15741421D01*
X7315224Y-15676537D01*
X7300000Y-15600000D01*
X7300000Y-15200000D01*
X7315224Y-15123463D01*
X7358579Y-15058579D01*
X7423463Y-15015224D01*
X7500000Y-15000000D01*
X8500000Y-15000000D01*
D12*
D10*
X8500000Y-13000000D02*
X8576537Y-13015224D01*
X8641421Y-13058579D01*
X8684776Y-13123463D01*
X8700000Y-13200000D01*
X8700000Y-13600000D01*
X8684776Y-13676537D01*
X8641421Y-13741421D01*
X8576537Y-13784776D01*
X8500000Y-13800000D01*
X7500000Y-13800000D01*
X7423463Y-13784776D01*
X7358579Y-13741421D01*
X7315224Y-13676537D01*
X7300000Y-13600000D01*
X7300000Y-13200000D01*
X7315224Y-13123463D01*
X7358579Y-13058579D01*
X7423463Y-13015224D01*
X7500000Y-13000000D01*
X8500000Y-13000000D01*
%TD*%
D12*
%TO.C,R16*%
D10*
X-11175000Y-14525000D02*
X-11159776Y-14448463D01*
X-11116421Y-14383579D01*
X-11051537Y-14340224D01*
X-10975000Y-14325000D01*
X-10575000Y-14325000D01*
X-10498463Y-14340224D01*
X-10433579Y-14383579D01*
X-10390224Y-14448463D01*
X-10375000Y-14525000D01*
X-10375000Y-15075000D01*
X-10390224Y-15151537D01*
X-10433579Y-15216421D01*
X-10498463Y-15259776D01*
X-10575000Y-15275000D01*
X-10975000Y-15275000D01*
X-11051537Y-15259776D01*
X-11116421Y-15216421D01*
X-11159776Y-15151537D01*
X-11175000Y-15075000D01*
X-11175000Y-14525000D01*
D12*
D10*
X-12825000Y-14525000D02*
X-12809776Y-14448463D01*
X-12766421Y-14383579D01*
X-12701537Y-14340224D01*
X-12625000Y-14325000D01*
X-12225000Y-14325000D01*
X-12148463Y-14340224D01*
X-12083579Y-14383579D01*
X-12040224Y-14448463D01*
X-12025000Y-14525000D01*
X-12025000Y-15075000D01*
X-12040224Y-15151537D01*
X-12083579Y-15216421D01*
X-12148463Y-15259776D01*
X-12225000Y-15275000D01*
X-12625000Y-15275000D01*
X-12701537Y-15259776D01*
X-12766421Y-15216421D01*
X-12809776Y-15151537D01*
X-12825000Y-15075000D01*
X-12825000Y-14525000D01*
%TD*%
D12*
%TO.C,R15*%
D10*
X12075000Y-15375000D02*
X12059776Y-15451537D01*
X12016421Y-15516421D01*
X11951537Y-15559776D01*
X11875000Y-15575000D01*
X11475000Y-15575000D01*
X11398463Y-15559776D01*
X11333579Y-15516421D01*
X11290224Y-15451537D01*
X11275000Y-15375000D01*
X11275000Y-14825000D01*
X11290224Y-14748463D01*
X11333579Y-14683579D01*
X11398463Y-14640224D01*
X11475000Y-14625000D01*
X11875000Y-14625000D01*
X11951537Y-14640224D01*
X12016421Y-14683579D01*
X12059776Y-14748463D01*
X12075000Y-14825000D01*
X12075000Y-15375000D01*
D12*
D10*
X13725000Y-15375000D02*
X13709776Y-15451537D01*
X13666421Y-15516421D01*
X13601537Y-15559776D01*
X13525000Y-15575000D01*
X13125000Y-15575000D01*
X13048463Y-15559776D01*
X12983579Y-15516421D01*
X12940224Y-15451537D01*
X12925000Y-15375000D01*
X12925000Y-14825000D01*
X12940224Y-14748463D01*
X12983579Y-14683579D01*
X13048463Y-14640224D01*
X13125000Y-14625000D01*
X13525000Y-14625000D01*
X13601537Y-14640224D01*
X13666421Y-14683579D01*
X13709776Y-14748463D01*
X13725000Y-14825000D01*
X13725000Y-15375000D01*
%TD*%
D12*
%TO.C,R5*%
D10*
X4408333Y25000D02*
X4472114Y12313D01*
X4526184Y-23816D01*
X4562313Y-77886D01*
X4574999Y-141668D01*
X4575000Y-558333D01*
X4562313Y-622114D01*
X4526184Y-676184D01*
X4472114Y-712313D01*
X4408332Y-724999D01*
X2991667Y-725000D01*
X2927886Y-712313D01*
X2873816Y-676184D01*
X2837687Y-622114D01*
X2825001Y-558332D01*
X2825000Y-141667D01*
X2837687Y-77886D01*
X2873816Y-23816D01*
X2927886Y12313D01*
X2991668Y24999D01*
X4408333Y25000D01*
D12*
D10*
X4408333Y3325000D02*
X4472114Y3312313D01*
X4526184Y3276184D01*
X4562313Y3222114D01*
X4574999Y3158332D01*
X4575000Y2741667D01*
X4562313Y2677886D01*
X4526184Y2623816D01*
X4472114Y2587687D01*
X4408332Y2575001D01*
X2991667Y2575000D01*
X2927886Y2587687D01*
X2873816Y2623816D01*
X2837687Y2677886D01*
X2825001Y2741668D01*
X2825000Y3158333D01*
X2837687Y3222114D01*
X2873816Y3276184D01*
X2927886Y3312313D01*
X2991668Y3324999D01*
X4408333Y3325000D01*
%TD*%
D12*
%TO.C,R4*%
D10*
X6708333Y1625000D02*
X6772114Y1612313D01*
X6826184Y1576184D01*
X6862313Y1522114D01*
X6874999Y1458332D01*
X6875000Y1041667D01*
X6862313Y977886D01*
X6826184Y923816D01*
X6772114Y887687D01*
X6708332Y875001D01*
X5291667Y875000D01*
X5227886Y887687D01*
X5173816Y923816D01*
X5137687Y977886D01*
X5125001Y1041668D01*
X5125000Y1458333D01*
X5137687Y1522114D01*
X5173816Y1576184D01*
X5227886Y1612313D01*
X5291668Y1624999D01*
X6708333Y1625000D01*
D12*
D10*
X6708333Y4925000D02*
X6772114Y4912313D01*
X6826184Y4876184D01*
X6862313Y4822114D01*
X6874999Y4758332D01*
X6875000Y4341667D01*
X6862313Y4277886D01*
X6826184Y4223816D01*
X6772114Y4187687D01*
X6708332Y4175001D01*
X5291667Y4175000D01*
X5227886Y4187687D01*
X5173816Y4223816D01*
X5137687Y4277886D01*
X5125001Y4341668D01*
X5125000Y4758333D01*
X5137687Y4822114D01*
X5173816Y4876184D01*
X5227886Y4912313D01*
X5291668Y4924999D01*
X6708333Y4925000D01*
%TD*%
D12*
%TO.C,R3*%
D10*
X12275000Y-9325000D02*
X12351537Y-9340224D01*
X12416421Y-9383579D01*
X12459776Y-9448463D01*
X12475000Y-9525000D01*
X12475000Y-9925000D01*
X12459776Y-10001537D01*
X12416421Y-10066421D01*
X12351537Y-10109776D01*
X12275000Y-10125000D01*
X11725000Y-10125000D01*
X11648463Y-10109776D01*
X11583579Y-10066421D01*
X11540224Y-10001537D01*
X11525000Y-9925000D01*
X11525000Y-9525000D01*
X11540224Y-9448463D01*
X11583579Y-9383579D01*
X11648463Y-9340224D01*
X11725000Y-9325000D01*
X12275000Y-9325000D01*
D12*
D10*
X12275000Y-7675000D02*
X12351537Y-7690224D01*
X12416421Y-7733579D01*
X12459776Y-7798463D01*
X12475000Y-7875000D01*
X12475000Y-8275000D01*
X12459776Y-8351537D01*
X12416421Y-8416421D01*
X12351537Y-8459776D01*
X12275000Y-8475000D01*
X11725000Y-8475000D01*
X11648463Y-8459776D01*
X11583579Y-8416421D01*
X11540224Y-8351537D01*
X11525000Y-8275000D01*
X11525000Y-7875000D01*
X11540224Y-7798463D01*
X11583579Y-7733579D01*
X11648463Y-7690224D01*
X11725000Y-7675000D01*
X12275000Y-7675000D01*
%TD*%
D12*
%TO.C,U5*%
D10*
X-10412500Y0D02*
X-10359881Y-10467D01*
X-10315273Y-40273D01*
X-10285467Y-84881D01*
X-10275000Y-137500D01*
X-10275000Y-862500D01*
X-10285467Y-915119D01*
X-10315273Y-959727D01*
X-10359881Y-989533D01*
X-10412500Y-1000000D01*
X-10687500Y-1000000D01*
X-10740119Y-989533D01*
X-10784727Y-959727D01*
X-10814533Y-915119D01*
X-10825000Y-862500D01*
X-10825000Y-137500D01*
X-10814533Y-84881D01*
X-10784727Y-40273D01*
X-10740119Y-10467D01*
X-10687500Y0D01*
X-10412500Y0D01*
D12*
D10*
X-11362500Y0D02*
X-11309881Y-10467D01*
X-11265273Y-40273D01*
X-11235467Y-84881D01*
X-11225000Y-137500D01*
X-11225000Y-862500D01*
X-11235467Y-915119D01*
X-11265273Y-959727D01*
X-11309881Y-989533D01*
X-11362500Y-1000000D01*
X-11637500Y-1000000D01*
X-11690119Y-989533D01*
X-11734727Y-959727D01*
X-11764533Y-915119D01*
X-11775000Y-862500D01*
X-11775000Y-137500D01*
X-11764533Y-84881D01*
X-11734727Y-40273D01*
X-11690119Y-10467D01*
X-11637500Y0D01*
X-11362500Y0D01*
D12*
D10*
X-12312500Y0D02*
X-12259881Y-10467D01*
X-12215273Y-40273D01*
X-12185467Y-84881D01*
X-12175000Y-137500D01*
X-12175000Y-862500D01*
X-12185467Y-915119D01*
X-12215273Y-959727D01*
X-12259881Y-989533D01*
X-12312500Y-1000000D01*
X-12587500Y-1000000D01*
X-12640119Y-989533D01*
X-12684727Y-959727D01*
X-12714533Y-915119D01*
X-12725000Y-862500D01*
X-12725000Y-137500D01*
X-12714533Y-84881D01*
X-12684727Y-40273D01*
X-12640119Y-10467D01*
X-12587500Y0D01*
X-12312500Y0D01*
D12*
D10*
X-12312500Y2600000D02*
X-12259881Y2589533D01*
X-12215273Y2559727D01*
X-12185467Y2515119D01*
X-12175000Y2462500D01*
X-12175000Y1737500D01*
X-12185467Y1684881D01*
X-12215273Y1640273D01*
X-12259881Y1610467D01*
X-12312500Y1600000D01*
X-12587500Y1600000D01*
X-12640119Y1610467D01*
X-12684727Y1640273D01*
X-12714533Y1684881D01*
X-12725000Y1737500D01*
X-12725000Y2462500D01*
X-12714533Y2515119D01*
X-12684727Y2559727D01*
X-12640119Y2589533D01*
X-12587500Y2600000D01*
X-12312500Y2600000D01*
D12*
D10*
X-10412500Y2600000D02*
X-10359881Y2589533D01*
X-10315273Y2559727D01*
X-10285467Y2515119D01*
X-10275000Y2462500D01*
X-10275000Y1737500D01*
X-10285467Y1684881D01*
X-10315273Y1640273D01*
X-10359881Y1610467D01*
X-10412500Y1600000D01*
X-10687500Y1600000D01*
X-10740119Y1610467D01*
X-10784727Y1640273D01*
X-10814533Y1684881D01*
X-10825000Y1737500D01*
X-10825000Y2462500D01*
X-10814533Y2515119D01*
X-10784727Y2559727D01*
X-10740119Y2589533D01*
X-10687500Y2600000D01*
X-10412500Y2600000D01*
%TD*%
D12*
%TO.C,Q2*%
D10*
X13700000Y-12837500D02*
X13757403Y-12848918D01*
X13806066Y-12881434D01*
X13838582Y-12930097D01*
X13850000Y-12987500D01*
X13850000Y-13687500D01*
X13838582Y-13744903D01*
X13806066Y-13793566D01*
X13757403Y-13826082D01*
X13700000Y-13837500D01*
X13400000Y-13837500D01*
X13342597Y-13826082D01*
X13293934Y-13793566D01*
X13261418Y-13744903D01*
X13250000Y-13687500D01*
X13250000Y-12987500D01*
X13261418Y-12930097D01*
X13293934Y-12881434D01*
X13342597Y-12848918D01*
X13400000Y-12837500D01*
X13700000Y-12837500D01*
D12*
D10*
X11800000Y-12837500D02*
X11857403Y-12848918D01*
X11906066Y-12881434D01*
X11938582Y-12930097D01*
X11950000Y-12987500D01*
X11950000Y-13687500D01*
X11938582Y-13744903D01*
X11906066Y-13793566D01*
X11857403Y-13826082D01*
X11800000Y-13837500D01*
X11500000Y-13837500D01*
X11442597Y-13826082D01*
X11393934Y-13793566D01*
X11361418Y-13744903D01*
X11350000Y-13687500D01*
X11350000Y-12987500D01*
X11361418Y-12930097D01*
X11393934Y-12881434D01*
X11442597Y-12848918D01*
X11500000Y-12837500D01*
X11800000Y-12837500D01*
D12*
D10*
X12750000Y-10562500D02*
X12807403Y-10573918D01*
X12856066Y-10606434D01*
X12888582Y-10655097D01*
X12900000Y-10712500D01*
X12900000Y-11412500D01*
X12888582Y-11469903D01*
X12856066Y-11518566D01*
X12807403Y-11551082D01*
X12750000Y-11562500D01*
X12450000Y-11562500D01*
X12392597Y-11551082D01*
X12343934Y-11518566D01*
X12311418Y-11469903D01*
X12300000Y-11412500D01*
X12300000Y-10712500D01*
X12311418Y-10655097D01*
X12343934Y-10606434D01*
X12392597Y-10573918D01*
X12450000Y-10562500D01*
X12750000Y-10562500D01*
%TD*%
D12*
%TO.C,U3*%
D10*
X-7500000Y-3655000D02*
X-7511418Y-3712403D01*
X-7543934Y-3761066D01*
X-7592597Y-3793582D01*
X-7650000Y-3805000D01*
X-9100000Y-3805000D01*
X-9157403Y-3793582D01*
X-9206066Y-3761066D01*
X-9238582Y-3712403D01*
X-9250000Y-3655000D01*
X-9250000Y-3355000D01*
X-9238582Y-3297597D01*
X-9206066Y-3248934D01*
X-9157403Y-3216418D01*
X-9100000Y-3205000D01*
X-7650000Y-3205000D01*
X-7592597Y-3216418D01*
X-7543934Y-3248934D01*
X-7511418Y-3297597D01*
X-7500000Y-3355000D01*
X-7500000Y-3655000D01*
D12*
D10*
X-7500000Y-2385000D02*
X-7511418Y-2442403D01*
X-7543934Y-2491066D01*
X-7592597Y-2523582D01*
X-7650000Y-2535000D01*
X-9100000Y-2535000D01*
X-9157403Y-2523582D01*
X-9206066Y-2491066D01*
X-9238582Y-2442403D01*
X-9250000Y-2385000D01*
X-9250000Y-2085000D01*
X-9238582Y-2027597D01*
X-9206066Y-1978934D01*
X-9157403Y-1946418D01*
X-9100000Y-1935000D01*
X-7650000Y-1935000D01*
X-7592597Y-1946418D01*
X-7543934Y-1978934D01*
X-7511418Y-2027597D01*
X-7500000Y-2085000D01*
X-7500000Y-2385000D01*
D12*
D10*
X-7500000Y-1115000D02*
X-7511418Y-1172403D01*
X-7543934Y-1221066D01*
X-7592597Y-1253582D01*
X-7650000Y-1265000D01*
X-9100000Y-1265000D01*
X-9157403Y-1253582D01*
X-9206066Y-1221066D01*
X-9238582Y-1172403D01*
X-9250000Y-1115000D01*
X-9250000Y-815000D01*
X-9238582Y-757597D01*
X-9206066Y-708934D01*
X-9157403Y-676418D01*
X-9100000Y-665000D01*
X-7650000Y-665000D01*
X-7592597Y-676418D01*
X-7543934Y-708934D01*
X-7511418Y-757597D01*
X-7500000Y-815000D01*
X-7500000Y-1115000D01*
D12*
D10*
X-7500000Y155000D02*
X-7511418Y97597D01*
X-7543934Y48934D01*
X-7592597Y16418D01*
X-7650000Y5000D01*
X-9100000Y5000D01*
X-9157403Y16418D01*
X-9206066Y48934D01*
X-9238582Y97597D01*
X-9250000Y155000D01*
X-9250000Y455000D01*
X-9238582Y512403D01*
X-9206066Y561066D01*
X-9157403Y593582D01*
X-9100000Y605000D01*
X-7650000Y605000D01*
X-7592597Y593582D01*
X-7543934Y561066D01*
X-7511418Y512403D01*
X-7500000Y455000D01*
X-7500000Y155000D01*
D12*
D10*
X-2350000Y155000D02*
X-2361418Y97597D01*
X-2393934Y48934D01*
X-2442597Y16418D01*
X-2500000Y5000D01*
X-3950000Y5000D01*
X-4007403Y16418D01*
X-4056066Y48934D01*
X-4088582Y97597D01*
X-4100000Y155000D01*
X-4100000Y455000D01*
X-4088582Y512403D01*
X-4056066Y561066D01*
X-4007403Y593582D01*
X-3950000Y605000D01*
X-2500000Y605000D01*
X-2442597Y593582D01*
X-2393934Y561066D01*
X-2361418Y512403D01*
X-2350000Y455000D01*
X-2350000Y155000D01*
D12*
D10*
X-2350000Y-1115000D02*
X-2361418Y-1172403D01*
X-2393934Y-1221066D01*
X-2442597Y-1253582D01*
X-2500000Y-1265000D01*
X-3950000Y-1265000D01*
X-4007403Y-1253582D01*
X-4056066Y-1221066D01*
X-4088582Y-1172403D01*
X-4100000Y-1115000D01*
X-4100000Y-815000D01*
X-4088582Y-757597D01*
X-4056066Y-708934D01*
X-4007403Y-676418D01*
X-3950000Y-665000D01*
X-2500000Y-665000D01*
X-2442597Y-676418D01*
X-2393934Y-708934D01*
X-2361418Y-757597D01*
X-2350000Y-815000D01*
X-2350000Y-1115000D01*
D12*
D10*
X-2350000Y-2385000D02*
X-2361418Y-2442403D01*
X-2393934Y-2491066D01*
X-2442597Y-2523582D01*
X-2500000Y-2535000D01*
X-3950000Y-2535000D01*
X-4007403Y-2523582D01*
X-4056066Y-2491066D01*
X-4088582Y-2442403D01*
X-4100000Y-2385000D01*
X-4100000Y-2085000D01*
X-4088582Y-2027597D01*
X-4056066Y-1978934D01*
X-4007403Y-1946418D01*
X-3950000Y-1935000D01*
X-2500000Y-1935000D01*
X-2442597Y-1946418D01*
X-2393934Y-1978934D01*
X-2361418Y-2027597D01*
X-2350000Y-2085000D01*
X-2350000Y-2385000D01*
D12*
D10*
X-2350000Y-3655000D02*
X-2361418Y-3712403D01*
X-2393934Y-3761066D01*
X-2442597Y-3793582D01*
X-2500000Y-3805000D01*
X-3950000Y-3805000D01*
X-4007403Y-3793582D01*
X-4056066Y-3761066D01*
X-4088582Y-3712403D01*
X-4100000Y-3655000D01*
X-4100000Y-3355000D01*
X-4088582Y-3297597D01*
X-4056066Y-3248934D01*
X-4007403Y-3216418D01*
X-3950000Y-3205000D01*
X-2500000Y-3205000D01*
X-2442597Y-3216418D01*
X-2393934Y-3248934D01*
X-2361418Y-3297597D01*
X-2350000Y-3355000D01*
X-2350000Y-3655000D01*
%TD*%
D12*
%TO.C,U4*%
D10*
X1100000Y-4837500D02*
X1157403Y-4848918D01*
X1206066Y-4881434D01*
X1238582Y-4930097D01*
X1250000Y-4987500D01*
X1250000Y-5687500D01*
X1238582Y-5744903D01*
X1206066Y-5793566D01*
X1157403Y-5826082D01*
X1100000Y-5837500D01*
X800000Y-5837500D01*
X742597Y-5826082D01*
X693934Y-5793566D01*
X661418Y-5744903D01*
X650000Y-5687500D01*
X650000Y-4987500D01*
X661418Y-4930097D01*
X693934Y-4881434D01*
X742597Y-4848918D01*
X800000Y-4837500D01*
X1100000Y-4837500D01*
D12*
D10*
X-800000Y-4837500D02*
X-742597Y-4848918D01*
X-693934Y-4881434D01*
X-661418Y-4930097D01*
X-650000Y-4987500D01*
X-650000Y-5687500D01*
X-661418Y-5744903D01*
X-693934Y-5793566D01*
X-742597Y-5826082D01*
X-800000Y-5837500D01*
X-1100000Y-5837500D01*
X-1157403Y-5826082D01*
X-1206066Y-5793566D01*
X-1238582Y-5744903D01*
X-1250000Y-5687500D01*
X-1250000Y-4987500D01*
X-1238582Y-4930097D01*
X-1206066Y-4881434D01*
X-1157403Y-4848918D01*
X-1100000Y-4837500D01*
X-800000Y-4837500D01*
D12*
D10*
X150000Y-2562500D02*
X207403Y-2573918D01*
X256066Y-2606434D01*
X288582Y-2655097D01*
X300000Y-2712500D01*
X300000Y-3412500D01*
X288582Y-3469903D01*
X256066Y-3518566D01*
X207403Y-3551082D01*
X150000Y-3562500D01*
X-150000Y-3562500D01*
X-207403Y-3551082D01*
X-256066Y-3518566D01*
X-288582Y-3469903D01*
X-300000Y-3412500D01*
X-300000Y-2712500D01*
X-288582Y-2655097D01*
X-256066Y-2606434D01*
X-207403Y-2573918D01*
X-150000Y-2562500D01*
X150000Y-2562500D01*
%TD*%
D12*
%TO.C,R10*%
D10*
X13775000Y-9325000D02*
X13851537Y-9340224D01*
X13916421Y-9383579D01*
X13959776Y-9448463D01*
X13975000Y-9525000D01*
X13975000Y-9925000D01*
X13959776Y-10001537D01*
X13916421Y-10066421D01*
X13851537Y-10109776D01*
X13775000Y-10125000D01*
X13225000Y-10125000D01*
X13148463Y-10109776D01*
X13083579Y-10066421D01*
X13040224Y-10001537D01*
X13025000Y-9925000D01*
X13025000Y-9525000D01*
X13040224Y-9448463D01*
X13083579Y-9383579D01*
X13148463Y-9340224D01*
X13225000Y-9325000D01*
X13775000Y-9325000D01*
D12*
D10*
X13775000Y-7675000D02*
X13851537Y-7690224D01*
X13916421Y-7733579D01*
X13959776Y-7798463D01*
X13975000Y-7875000D01*
X13975000Y-8275000D01*
X13959776Y-8351537D01*
X13916421Y-8416421D01*
X13851537Y-8459776D01*
X13775000Y-8475000D01*
X13225000Y-8475000D01*
X13148463Y-8459776D01*
X13083579Y-8416421D01*
X13040224Y-8351537D01*
X13025000Y-8275000D01*
X13025000Y-7875000D01*
X13040224Y-7798463D01*
X13083579Y-7733579D01*
X13148463Y-7690224D01*
X13225000Y-7675000D01*
X13775000Y-7675000D01*
%TD*%
D12*
%TO.C,D6*%
D10*
X-12550000Y7954545D02*
X-12565570Y7876269D01*
X-12609910Y7809910D01*
X-12676269Y7765570D01*
X-12754546Y7750001D01*
X-13245455Y7750000D01*
X-13323731Y7765570D01*
X-13390090Y7809910D01*
X-13434430Y7876269D01*
X-13449999Y7954546D01*
X-13450000Y8645455D01*
X-13434430Y8723731D01*
X-13390090Y8790090D01*
X-13323731Y8834430D01*
X-13245454Y8849999D01*
X-12754545Y8850000D01*
X-12676269Y8834430D01*
X-12609910Y8790090D01*
X-12565570Y8723731D01*
X-12550001Y8645454D01*
X-12550000Y7954545D01*
D12*
D10*
X-9550000Y7954545D02*
X-9565570Y7876269D01*
X-9609910Y7809910D01*
X-9676269Y7765570D01*
X-9754546Y7750001D01*
X-10245455Y7750000D01*
X-10323731Y7765570D01*
X-10390090Y7809910D01*
X-10434430Y7876269D01*
X-10449999Y7954546D01*
X-10450000Y8645455D01*
X-10434430Y8723731D01*
X-10390090Y8790090D01*
X-10323731Y8834430D01*
X-10245454Y8849999D01*
X-9754545Y8850000D01*
X-9676269Y8834430D01*
X-9609910Y8790090D01*
X-9565570Y8723731D01*
X-9550001Y8645454D01*
X-9550000Y7954545D01*
%TD*%
D12*
%TO.C,C5*%
D10*
X-8225000Y3125000D02*
X-8240224Y3048463D01*
X-8283579Y2983579D01*
X-8348463Y2940224D01*
X-8425000Y2925000D01*
X-8825000Y2925000D01*
X-8901537Y2940224D01*
X-8966421Y2983579D01*
X-9009776Y3048463D01*
X-9025000Y3125000D01*
X-9025000Y3675000D01*
X-9009776Y3751537D01*
X-8966421Y3816421D01*
X-8901537Y3859776D01*
X-8825000Y3875000D01*
X-8425000Y3875000D01*
X-8348463Y3859776D01*
X-8283579Y3816421D01*
X-8240224Y3751537D01*
X-8225000Y3675000D01*
X-8225000Y3125000D01*
D12*
D10*
X-6575000Y3125000D02*
X-6590224Y3048463D01*
X-6633579Y2983579D01*
X-6698463Y2940224D01*
X-6775000Y2925000D01*
X-7175000Y2925000D01*
X-7251537Y2940224D01*
X-7316421Y2983579D01*
X-7359776Y3048463D01*
X-7375000Y3125000D01*
X-7375000Y3675000D01*
X-7359776Y3751537D01*
X-7316421Y3816421D01*
X-7251537Y3859776D01*
X-7175000Y3875000D01*
X-6775000Y3875000D01*
X-6698463Y3859776D01*
X-6633579Y3816421D01*
X-6590224Y3751537D01*
X-6575000Y3675000D01*
X-6575000Y3125000D01*
%TD*%
D12*
%TO.C,R8*%
D10*
X-125000Y-1375000D02*
X-140224Y-1451537D01*
X-183579Y-1516421D01*
X-248463Y-1559776D01*
X-325000Y-1575000D01*
X-725000Y-1575000D01*
X-801537Y-1559776D01*
X-866421Y-1516421D01*
X-909776Y-1451537D01*
X-925000Y-1375000D01*
X-925000Y-825000D01*
X-909776Y-748463D01*
X-866421Y-683579D01*
X-801537Y-640224D01*
X-725000Y-625000D01*
X-325000Y-625000D01*
X-248463Y-640224D01*
X-183579Y-683579D01*
X-140224Y-748463D01*
X-125000Y-825000D01*
X-125000Y-1375000D01*
D12*
D10*
X1525000Y-1375000D02*
X1509776Y-1451537D01*
X1466421Y-1516421D01*
X1401537Y-1559776D01*
X1325000Y-1575000D01*
X925000Y-1575000D01*
X848463Y-1559776D01*
X783579Y-1516421D01*
X740224Y-1451537D01*
X725000Y-1375000D01*
X725000Y-825000D01*
X740224Y-748463D01*
X783579Y-683579D01*
X848463Y-640224D01*
X925000Y-625000D01*
X1325000Y-625000D01*
X1401537Y-640224D01*
X1466421Y-683579D01*
X1509776Y-748463D01*
X1525000Y-825000D01*
X1525000Y-1375000D01*
%TD*%
D12*
%TO.C,R9*%
D10*
X-7475000Y8475000D02*
X-7459776Y8551537D01*
X-7416421Y8616421D01*
X-7351537Y8659776D01*
X-7275000Y8675000D01*
X-6875000Y8675000D01*
X-6798463Y8659776D01*
X-6733579Y8616421D01*
X-6690224Y8551537D01*
X-6675000Y8475000D01*
X-6675000Y7925000D01*
X-6690224Y7848463D01*
X-6733579Y7783579D01*
X-6798463Y7740224D01*
X-6875000Y7725000D01*
X-7275000Y7725000D01*
X-7351537Y7740224D01*
X-7416421Y7783579D01*
X-7459776Y7848463D01*
X-7475000Y7925000D01*
X-7475000Y8475000D01*
D12*
D10*
X-9125000Y8475000D02*
X-9109776Y8551537D01*
X-9066421Y8616421D01*
X-9001537Y8659776D01*
X-8925000Y8675000D01*
X-8525000Y8675000D01*
X-8448463Y8659776D01*
X-8383579Y8616421D01*
X-8340224Y8551537D01*
X-8325000Y8475000D01*
X-8325000Y7925000D01*
X-8340224Y7848463D01*
X-8383579Y7783579D01*
X-8448463Y7740224D01*
X-8525000Y7725000D01*
X-8925000Y7725000D01*
X-9001537Y7740224D01*
X-9066421Y7783579D01*
X-9109776Y7848463D01*
X-9125000Y7925000D01*
X-9125000Y8475000D01*
%TD*%
D12*
%TO.C,D8*%
D10*
X2300000Y-13800000D02*
X2223463Y-13784776D01*
X2158579Y-13741421D01*
X2115224Y-13676537D01*
X2100000Y-13600000D01*
X2100000Y-13200000D01*
X2115224Y-13123463D01*
X2158579Y-13058579D01*
X2223463Y-13015224D01*
X2300000Y-13000000D01*
X3300000Y-13000000D01*
X3376537Y-13015224D01*
X3441421Y-13058579D01*
X3484776Y-13123463D01*
X3500000Y-13200000D01*
X3500000Y-13600000D01*
X3484776Y-13676537D01*
X3441421Y-13741421D01*
X3376537Y-13784776D01*
X3300000Y-13800000D01*
X2300000Y-13800000D01*
D12*
D10*
X2300000Y-15800000D02*
X2223463Y-15784776D01*
X2158579Y-15741421D01*
X2115224Y-15676537D01*
X2100000Y-15600000D01*
X2100000Y-15200000D01*
X2115224Y-15123463D01*
X2158579Y-15058579D01*
X2223463Y-15015224D01*
X2300000Y-15000000D01*
X3300000Y-15000000D01*
X3376537Y-15015224D01*
X3441421Y-15058579D01*
X3484776Y-15123463D01*
X3500000Y-15200000D01*
X3500000Y-15600000D01*
X3484776Y-15676537D01*
X3441421Y-15741421D01*
X3376537Y-15784776D01*
X3300000Y-15800000D01*
X2300000Y-15800000D01*
%TD*%
D12*
%TO.C,C7*%
D10*
X10225000Y-8475000D02*
X10148463Y-8459776D01*
X10083579Y-8416421D01*
X10040224Y-8351537D01*
X10025000Y-8275000D01*
X10025000Y-7875000D01*
X10040224Y-7798463D01*
X10083579Y-7733579D01*
X10148463Y-7690224D01*
X10225000Y-7675000D01*
X10775000Y-7675000D01*
X10851537Y-7690224D01*
X10916421Y-7733579D01*
X10959776Y-7798463D01*
X10975000Y-7875000D01*
X10975000Y-8275000D01*
X10959776Y-8351537D01*
X10916421Y-8416421D01*
X10851537Y-8459776D01*
X10775000Y-8475000D01*
X10225000Y-8475000D01*
D12*
D10*
X10225000Y-10125000D02*
X10148463Y-10109776D01*
X10083579Y-10066421D01*
X10040224Y-10001537D01*
X10025000Y-9925000D01*
X10025000Y-9525000D01*
X10040224Y-9448463D01*
X10083579Y-9383579D01*
X10148463Y-9340224D01*
X10225000Y-9325000D01*
X10775000Y-9325000D01*
X10851537Y-9340224D01*
X10916421Y-9383579D01*
X10959776Y-9448463D01*
X10975000Y-9525000D01*
X10975000Y-9925000D01*
X10959776Y-10001537D01*
X10916421Y-10066421D01*
X10851537Y-10109776D01*
X10775000Y-10125000D01*
X10225000Y-10125000D01*
%TD*%
D12*
%TO.C,Q3*%
D10*
X-18637500Y-2100000D02*
X-18648918Y-2157403D01*
X-18681434Y-2206066D01*
X-18730097Y-2238582D01*
X-18787500Y-2250000D01*
X-19487500Y-2250000D01*
X-19544903Y-2238582D01*
X-19593566Y-2206066D01*
X-19626082Y-2157403D01*
X-19637500Y-2100000D01*
X-19637500Y-1800000D01*
X-19626082Y-1742597D01*
X-19593566Y-1693934D01*
X-19544903Y-1661418D01*
X-19487500Y-1650000D01*
X-18787500Y-1650000D01*
X-18730097Y-1661418D01*
X-18681434Y-1693934D01*
X-18648918Y-1742597D01*
X-18637500Y-1800000D01*
X-18637500Y-2100000D01*
D12*
D10*
X-18637500Y-200000D02*
X-18648918Y-257403D01*
X-18681434Y-306066D01*
X-18730097Y-338582D01*
X-18787500Y-350000D01*
X-19487500Y-350000D01*
X-19544903Y-338582D01*
X-19593566Y-306066D01*
X-19626082Y-257403D01*
X-19637500Y-200000D01*
X-19637500Y100000D01*
X-19626082Y157403D01*
X-19593566Y206066D01*
X-19544903Y238582D01*
X-19487500Y250000D01*
X-18787500Y250000D01*
X-18730097Y238582D01*
X-18681434Y206066D01*
X-18648918Y157403D01*
X-18637500Y100000D01*
X-18637500Y-200000D01*
D12*
D10*
X-16362500Y-1150000D02*
X-16373918Y-1207403D01*
X-16406434Y-1256066D01*
X-16455097Y-1288582D01*
X-16512500Y-1300000D01*
X-17212500Y-1300000D01*
X-17269903Y-1288582D01*
X-17318566Y-1256066D01*
X-17351082Y-1207403D01*
X-17362500Y-1150000D01*
X-17362500Y-850000D01*
X-17351082Y-792597D01*
X-17318566Y-743934D01*
X-17269903Y-711418D01*
X-17212500Y-700000D01*
X-16512500Y-700000D01*
X-16455097Y-711418D01*
X-16406434Y-743934D01*
X-16373918Y-792597D01*
X-16362500Y-850000D01*
X-16362500Y-1150000D01*
%TD*%
M02*
