%TF.GenerationSoftware,KiCad,Pcbnew,9.0.2-9.0.2-0~ubuntu24.04.1*%
%TF.CreationDate,2025-05-26T21:32:44+03:00*%
%TF.ProjectId,PCutSpeedCTRL,50437574-5370-4656-9564-4354524c2e6b,V01*%
%TF.SameCoordinates,PX5f5e100PY5f5e100*%
%TF.FileFunction,Copper,L2,Bot*%
%TF.FilePolarity,Positive*%
%FSLAX46Y46*%
G04 Gerber Fmt 4.6, Leading zero omitted, Abs format (unit mm)*
G04 Created by KiCad (PCBNEW 9.0.2-9.0.2-0~ubuntu24.04.1) date 2025-05-26 21:32:44*
%MOMM*%
%LPD*%
G01*
G04 APERTURE LIST*
G04 Aperture macros list*
%AMRoundRect*
0 Rectangle with rounded corners*
0 $1 Rounding radius*
0 $2 $3 $4 $5 $6 $7 $8 $9 X,Y pos of 4 corners*
0 Add a 4 corners polygon primitive as box body*
4,1,4,$2,$3,$4,$5,$6,$7,$8,$9,$2,$3,0*
0 Add four circle primitives for the rounded corners*
1,1,$1+$1,$2,$3*
1,1,$1+$1,$4,$5*
1,1,$1+$1,$6,$7*
1,1,$1+$1,$8,$9*
0 Add four rect primitives between the rounded corners*
20,1,$1+$1,$2,$3,$4,$5,0*
20,1,$1+$1,$4,$5,$6,$7,0*
20,1,$1+$1,$6,$7,$8,$9,0*
20,1,$1+$1,$8,$9,$2,$3,0*%
%AMOutline5P*
0 Free polygon, 5 corners , with rotation*
0 The origin of the aperture is its center*
0 number of corners: always 5*
0 $1 to $10 corner X, Y*
0 $11 Rotation angle, in degrees counterclockwise*
0 create outline with 5 corners*
4,1,5,$1,$2,$3,$4,$5,$6,$7,$8,$9,$10,$1,$2,$11*%
%AMOutline6P*
0 Free polygon, 6 corners , with rotation*
0 The origin of the aperture is its center*
0 number of corners: always 6*
0 $1 to $12 corner X, Y*
0 $13 Rotation angle, in degrees counterclockwise*
0 create outline with 6 corners*
4,1,6,$1,$2,$3,$4,$5,$6,$7,$8,$9,$10,$11,$12,$1,$2,$13*%
%AMOutline7P*
0 Free polygon, 7 corners , with rotation*
0 The origin of the aperture is its center*
0 number of corners: always 7*
0 $1 to $14 corner X, Y*
0 $15 Rotation angle, in degrees counterclockwise*
0 create outline with 7 corners*
4,1,7,$1,$2,$3,$4,$5,$6,$7,$8,$9,$10,$11,$12,$13,$14,$1,$2,$15*%
%AMOutline8P*
0 Free polygon, 8 corners , with rotation*
0 The origin of the aperture is its center*
0 number of corners: always 8*
0 $1 to $16 corner X, Y*
0 $17 Rotation angle, in degrees counterclockwise*
0 create outline with 8 corners*
4,1,8,$1,$2,$3,$4,$5,$6,$7,$8,$9,$10,$11,$12,$13,$14,$15,$16,$1,$2,$17*%
G04 Aperture macros list end*
%ADD10C,0.240000*%
%TA.AperFunction,NonConductor*%
%ADD11C,0.240000*%
%TD*%
%TA.AperFunction,ComponentPad*%
%ADD12RoundRect,0.250000X-0.550000X0.550000X-0.550000X-0.550000X0.550000X-0.550000X0.550000X0.550000X0*%
%TD*%
%TA.AperFunction,ComponentPad*%
%ADD13C,1.600000*%
%TD*%
%TA.AperFunction,ComponentPad*%
%ADD14Outline8P,-1.250000X1.500000X-0.750000X2.000000X0.750000X2.000000X1.250000X1.500000X1.250000X-1.500000X0.750000X-2.000000X-0.750000X-2.000000X-1.250000X-1.500000X270.000000*%
%TD*%
%TA.AperFunction,ComponentPad*%
%ADD15R,2.000000X2.100000*%
%TD*%
%TA.AperFunction,ComponentPad*%
%ADD16O,4.000000X2.000000*%
%TD*%
%TA.AperFunction,ComponentPad*%
%ADD17O,2.000000X2.100000*%
%TD*%
%TA.AperFunction,ComponentPad*%
%ADD18O,4.000000X2.500000*%
%TD*%
%TA.AperFunction,ComponentPad*%
%ADD19C,2.200000*%
%TD*%
%TA.AperFunction,ComponentPad*%
%ADD20R,1.600000X1.700000*%
%TD*%
%TA.AperFunction,ComponentPad*%
%ADD21O,1.700000X1.700000*%
%TD*%
%TA.AperFunction,ComponentPad*%
%ADD22C,1.700000*%
%TD*%
%TA.AperFunction,ComponentPad*%
%ADD23RoundRect,0.250000X0.550000X-0.550000X0.550000X0.550000X-0.550000X0.550000X-0.550000X-0.550000X0*%
%TD*%
%TA.AperFunction,ComponentPad*%
%ADD24RoundRect,0.250001X-0.949999X-0.949999X0.949999X-0.949999X0.949999X0.949999X-0.949999X0.949999X0*%
%TD*%
%TA.AperFunction,ComponentPad*%
%ADD25C,2.400000*%
%TD*%
%TA.AperFunction,ComponentPad*%
%ADD26RoundRect,0.250000X-1.000000X-1.000000X1.000000X-1.000000X1.000000X1.000000X-1.000000X1.000000X0*%
%TD*%
%TA.AperFunction,ComponentPad*%
%ADD27C,2.500000*%
%TD*%
%TA.AperFunction,ComponentPad*%
%ADD28O,1.600000X1.600000*%
%TD*%
%TA.AperFunction,ComponentPad*%
%ADD29R,1.600000X1.600000*%
%TD*%
%TA.AperFunction,ComponentPad*%
%ADD30C,2.000000*%
%TD*%
%TA.AperFunction,SMDPad,CuDef*%
%ADD31RoundRect,0.204545X-0.245455X-0.345455X0.245455X-0.345455X0.245455X0.345455X-0.245455X0.345455X0*%
%TD*%
%TA.AperFunction,SMDPad,CuDef*%
%ADD32RoundRect,0.225000X0.225000X0.250000X-0.225000X0.250000X-0.225000X-0.250000X0.225000X-0.250000X0*%
%TD*%
%TA.AperFunction,SMDPad,CuDef*%
%ADD33RoundRect,0.200000X0.200000X0.275000X-0.200000X0.275000X-0.200000X-0.275000X0.200000X-0.275000X0*%
%TD*%
%TA.AperFunction,SMDPad,CuDef*%
%ADD34RoundRect,0.204545X0.345455X-0.245455X0.345455X0.245455X-0.345455X0.245455X-0.345455X-0.245455X0*%
%TD*%
%TA.AperFunction,SMDPad,CuDef*%
%ADD35RoundRect,0.166667X-0.648181X-0.353553X-0.353553X-0.648181X0.648181X0.353553X0.353553X0.648181X0*%
%TD*%
%TA.AperFunction,SMDPad,CuDef*%
%ADD36RoundRect,0.200000X-0.200000X-0.275000X0.200000X-0.275000X0.200000X0.275000X-0.200000X0.275000X0*%
%TD*%
%TA.AperFunction,SMDPad,CuDef*%
%ADD37RoundRect,0.204545X-0.345455X0.245455X-0.345455X-0.245455X0.345455X-0.245455X0.345455X0.245455X0*%
%TD*%
%TA.AperFunction,SMDPad,CuDef*%
%ADD38RoundRect,0.195122X0.204878X0.504878X-0.204878X0.504878X-0.204878X-0.504878X0.204878X-0.504878X0*%
%TD*%
%TA.AperFunction,SMDPad,CuDef*%
%ADD39RoundRect,0.200000X0.275000X-0.200000X0.275000X0.200000X-0.275000X0.200000X-0.275000X-0.200000X0*%
%TD*%
%TA.AperFunction,SMDPad,CuDef*%
%ADD40RoundRect,0.200000X-0.275000X0.200000X-0.275000X-0.200000X0.275000X-0.200000X0.275000X0.200000X0*%
%TD*%
%TA.AperFunction,SMDPad,CuDef*%
%ADD41RoundRect,0.200000X-0.500000X0.200000X-0.500000X-0.200000X0.500000X-0.200000X0.500000X0.200000X0*%
%TD*%
%TA.AperFunction,SMDPad,CuDef*%
%ADD42RoundRect,0.166667X-0.708333X0.208333X-0.708333X-0.208333X0.708333X-0.208333X0.708333X0.208333X0*%
%TD*%
%TA.AperFunction,SMDPad,CuDef*%
%ADD43RoundRect,0.137500X-0.137500X0.362500X-0.137500X-0.362500X0.137500X-0.362500X0.137500X0.362500X0*%
%TD*%
%TA.AperFunction,SMDPad,CuDef*%
%ADD44RoundRect,0.150000X-0.150000X0.350000X-0.150000X-0.350000X0.150000X-0.350000X0.150000X0.350000X0*%
%TD*%
%TA.AperFunction,SMDPad,CuDef*%
%ADD45RoundRect,0.150000X0.725000X0.150000X-0.725000X0.150000X-0.725000X-0.150000X0.725000X-0.150000X0*%
%TD*%
%TA.AperFunction,SMDPad,CuDef*%
%ADD46RoundRect,0.204545X0.245455X0.345455X-0.245455X0.345455X-0.245455X-0.345455X0.245455X-0.345455X0*%
%TD*%
%TA.AperFunction,SMDPad,CuDef*%
%ADD47RoundRect,0.200000X0.500000X-0.200000X0.500000X0.200000X-0.500000X0.200000X-0.500000X-0.200000X0*%
%TD*%
%TA.AperFunction,SMDPad,CuDef*%
%ADD48RoundRect,0.150000X0.350000X0.150000X-0.350000X0.150000X-0.350000X-0.150000X0.350000X-0.150000X0*%
%TD*%
%TA.AperFunction,ViaPad*%
%ADD49C,1.500000*%
%TD*%
%TA.AperFunction,Conductor*%
%ADD50C,0.400000*%
%TD*%
%TA.AperFunction,Conductor*%
%ADD51C,0.300000*%
%TD*%
%TA.AperFunction,Conductor*%
%ADD52C,0.500000*%
%TD*%
%TA.AperFunction,Conductor*%
%ADD53C,0.350000*%
%TD*%
%TA.AperFunction,Conductor*%
%ADD54C,1.500000*%
%TD*%
%TA.AperFunction,Conductor*%
%ADD55C,0.260000*%
%TD*%
%TA.AperFunction,Conductor*%
%ADD56C,1.000000*%
%TD*%
%TA.AperFunction,Conductor*%
%ADD57C,0.700000*%
%TD*%
%TA.AperFunction,Conductor*%
%ADD58C,0.600000*%
%TD*%
G04 APERTURE END LIST*
D10*
D11*
X-5548371Y-17717520D02*
X-5691228Y-17765139D01*
X-5691228Y-17765139D02*
X-5929323Y-17765139D01*
X-5929323Y-17765139D02*
X-6024561Y-17717520D01*
X-6024561Y-17717520D02*
X-6072180Y-17669900D01*
X-6072180Y-17669900D02*
X-6119799Y-17574662D01*
X-6119799Y-17574662D02*
X-6119799Y-17479424D01*
X-6119799Y-17479424D02*
X-6072180Y-17384186D01*
X-6072180Y-17384186D02*
X-6024561Y-17336567D01*
X-6024561Y-17336567D02*
X-5929323Y-17288948D01*
X-5929323Y-17288948D02*
X-5738847Y-17241329D01*
X-5738847Y-17241329D02*
X-5643609Y-17193710D01*
X-5643609Y-17193710D02*
X-5595990Y-17146091D01*
X-5595990Y-17146091D02*
X-5548371Y-17050853D01*
X-5548371Y-17050853D02*
X-5548371Y-16955615D01*
X-5548371Y-16955615D02*
X-5595990Y-16860377D01*
X-5595990Y-16860377D02*
X-5643609Y-16812758D01*
X-5643609Y-16812758D02*
X-5738847Y-16765139D01*
X-5738847Y-16765139D02*
X-5976942Y-16765139D01*
X-5976942Y-16765139D02*
X-6119799Y-16812758D01*
X-6548371Y-17384186D02*
X-7310275Y-17384186D01*
X-6929323Y-17765139D02*
X-6929323Y-17003234D01*
D10*
D11*
X-2148371Y-17717520D02*
X-2291228Y-17765139D01*
X-2291228Y-17765139D02*
X-2529323Y-17765139D01*
X-2529323Y-17765139D02*
X-2624561Y-17717520D01*
X-2624561Y-17717520D02*
X-2672180Y-17669900D01*
X-2672180Y-17669900D02*
X-2719799Y-17574662D01*
X-2719799Y-17574662D02*
X-2719799Y-17479424D01*
X-2719799Y-17479424D02*
X-2672180Y-17384186D01*
X-2672180Y-17384186D02*
X-2624561Y-17336567D01*
X-2624561Y-17336567D02*
X-2529323Y-17288948D01*
X-2529323Y-17288948D02*
X-2338847Y-17241329D01*
X-2338847Y-17241329D02*
X-2243609Y-17193710D01*
X-2243609Y-17193710D02*
X-2195990Y-17146091D01*
X-2195990Y-17146091D02*
X-2148371Y-17050853D01*
X-2148371Y-17050853D02*
X-2148371Y-16955615D01*
X-2148371Y-16955615D02*
X-2195990Y-16860377D01*
X-2195990Y-16860377D02*
X-2243609Y-16812758D01*
X-2243609Y-16812758D02*
X-2338847Y-16765139D01*
X-2338847Y-16765139D02*
X-2576942Y-16765139D01*
X-2576942Y-16765139D02*
X-2719799Y-16812758D01*
X-3148371Y-17384186D02*
X-3910275Y-17384186D01*
D12*
%TO.P,U1,1*%
%TO.N,Net-(D1-K)*%
X-17460000Y3800000D03*
D13*
%TO.P,U1,2*%
%TO.N,Net-(D2-A)*%
X-20000000Y3800000D03*
%TO.P,U1,3*%
%TO.N,Net-(Q3-G)*%
X-20000000Y-3820000D03*
%TO.P,U1,4*%
%TO.N,+3V3*%
X-17460000Y-3820000D03*
%TD*%
D14*
%TO.P,Q1,1,A1*%
%TO.N,/ac1*%
X12600000Y5450000D03*
D15*
X12600000Y2840000D03*
D16*
%TO.P,Q1,2,A2*%
%TO.N,/load*%
X12600000Y0D03*
D17*
%TO.P,Q1,3,G*%
%TO.N,Net-(Q1-G)*%
X12600000Y-2840000D03*
D18*
X12600000Y-5450000D03*
%TD*%
D19*
%TO.P,RV1,1*%
%TO.N,/load*%
X5800000Y-3750000D03*
%TO.P,RV1,2*%
%TO.N,/ac1*%
X8200000Y3750000D03*
%TD*%
D20*
%TO.P,J3,1,Pin_1*%
%TO.N,/TX*%
X-6860000Y-6100000D03*
D21*
%TO.P,J3,2,Pin_2*%
%TO.N,/SWIO*%
X-9400000Y-6100000D03*
D22*
%TO.P,J3,3,Pin_3*%
%TO.N,GND*%
X-11940000Y-6100000D03*
%TO.P,J3,4,Pin_4*%
%TO.N,+3V3*%
X-14480000Y-6100000D03*
%TD*%
D23*
%TO.P,U2,1*%
%TO.N,Net-(R16-Pad2)*%
X-12600000Y-16600000D03*
D13*
%TO.P,U2,2*%
%TO.N,Net-(J4-Pin_2)*%
X-10060000Y-16600000D03*
%TO.P,U2,3*%
%TO.N,/IC_PWM*%
X-10060000Y-8980000D03*
%TO.P,U2,4*%
%TO.N,+3V3*%
X-12600000Y-8980000D03*
%TD*%
D24*
%TO.P,J4,1,Pin_1*%
%TO.N,Net-(J4-Pin_1)*%
X-5900000Y-14300000D03*
D25*
%TO.P,J4,2,Pin_2*%
%TO.N,Net-(J4-Pin_2)*%
X-2400000Y-14300000D03*
%TD*%
D26*
%TO.P,J1,1,Pin_1*%
%TO.N,/ac1*%
X-4000000Y13332500D03*
D27*
%TO.P,J1,2,Pin_2*%
%TO.N,/ntr*%
X1080000Y13332500D03*
%TD*%
D13*
%TO.P,R1,1*%
%TO.N,/ntr*%
X2800000Y6600000D03*
D28*
%TO.P,R1,2*%
%TO.N,Net-(C3-Pad2)*%
X2800000Y-8640000D03*
%TD*%
D25*
%TO.P,C3,1*%
%TO.N,/ntr*%
X0Y6800000D03*
%TO.P,C3,2*%
%TO.N,Net-(C3-Pad2)*%
X0Y-8200000D03*
%TD*%
D29*
%TO.P,C2,1*%
%TO.N,/ac1*%
X-12800000Y3800000D03*
D13*
%TO.P,C2,2*%
%TO.N,GND*%
X-10300000Y3800000D03*
%TD*%
%TO.P,R2,1*%
%TO.N,Net-(C3-Pad2)*%
X6200000Y-9900000D03*
D28*
%TO.P,R2,2*%
%TO.N,Net-(D4-A)*%
X8740000Y-9900000D03*
%TD*%
D26*
%TO.P,J2,1,Pin_1*%
%TO.N,/ntr*%
X6400000Y13332500D03*
D27*
%TO.P,J2,2,Pin_2*%
%TO.N,/load*%
X11480000Y13332500D03*
%TD*%
D30*
%TO.P,C1,1*%
%TO.N,/ntr*%
X-7600000Y15200000D03*
%TO.P,C1,2*%
%TO.N,Net-(D1-A)*%
X-15100000Y15200000D03*
%TD*%
D31*
%TO.P,D7,1,K*%
%TO.N,Net-(D6-A)*%
X-10000000Y10400000D03*
%TO.P,D7,2,A*%
%TO.N,Net-(D2-A)*%
X-13000000Y10400000D03*
%TD*%
D32*
%TO.P,C6,1*%
%TO.N,GND*%
X-8575000Y1900000D03*
%TO.P,C6,2*%
%TO.N,+3V3*%
X-7025000Y1900000D03*
%TD*%
D33*
%TO.P,C9,1*%
%TO.N,/EXTI_ZC*%
X-16225000Y800000D03*
%TO.P,C9,2*%
%TO.N,GND*%
X-14575000Y800000D03*
%TD*%
D34*
%TO.P,D2,1,K*%
%TO.N,Net-(D1-A)*%
X-13046990Y17000000D03*
%TO.P,D2,2,A*%
%TO.N,Net-(D2-A)*%
X-13046990Y14000000D03*
%TD*%
D35*
%TO.P,C8,1*%
%TO.N,/load*%
X8566726Y-2766726D03*
%TO.P,C8,2*%
%TO.N,Net-(C8-Pad2)*%
X6233274Y-433274D03*
%TD*%
D36*
%TO.P,R14,1*%
%TO.N,Net-(D1-K)*%
X-18825000Y2250000D03*
%TO.P,R14,2*%
%TO.N,Net-(D2-A)*%
X-20475000Y2250000D03*
%TD*%
D37*
%TO.P,D1,1,K*%
%TO.N,Net-(D1-K)*%
X-10600000Y14000000D03*
%TO.P,D1,2,A*%
%TO.N,Net-(D1-A)*%
X-10600000Y17000000D03*
%TD*%
D38*
%TO.P,C4,1*%
%TO.N,Net-(D1-A)*%
X-11900000Y12400000D03*
%TO.P,C4,2*%
%TO.N,Net-(D6-A)*%
X-9900000Y12400000D03*
%TD*%
D36*
%TO.P,R7,1*%
%TO.N,+3V3*%
X1125000Y700000D03*
%TO.P,R7,2*%
%TO.N,/EXTI_ZC*%
X-525000Y700000D03*
%TD*%
D31*
%TO.P,D4,1,K*%
%TO.N,/ac1*%
X8800000Y-7800000D03*
%TO.P,D4,2,A*%
%TO.N,Net-(D4-A)*%
X5800000Y-7800000D03*
%TD*%
D39*
%TO.P,R11,1*%
%TO.N,GND*%
X2900000Y-10575000D03*
%TO.P,R11,2*%
%TO.N,Net-(D8-K)*%
X2900000Y-12225000D03*
%TD*%
D40*
%TO.P,R13,1*%
%TO.N,Net-(Q3-G)*%
X-20462500Y-1825000D03*
%TO.P,R13,2*%
%TO.N,GND*%
X-20462500Y-175000D03*
%TD*%
D34*
%TO.P,D5,1,K*%
%TO.N,Net-(D4-A)*%
X4700000Y-11800000D03*
%TO.P,D5,2,A*%
%TO.N,GND*%
X4700000Y-14800000D03*
%TD*%
%TO.P,D3,1,K*%
%TO.N,/ac1*%
X9900000Y-11800000D03*
%TO.P,D3,2,A*%
%TO.N,GND*%
X9900000Y-14800000D03*
%TD*%
D33*
%TO.P,R12,1*%
%TO.N,Net-(D9-A)*%
X6475000Y-12200000D03*
%TO.P,R12,2*%
%TO.N,/ac1*%
X8125000Y-12200000D03*
%TD*%
D39*
%TO.P,R6,1*%
%TO.N,/IC_PWM*%
X-7700000Y-9075000D03*
%TO.P,R6,2*%
%TO.N,GND*%
X-7700000Y-10725000D03*
%TD*%
D41*
%TO.P,D9,1,K*%
%TO.N,GND*%
X8000000Y-15400000D03*
%TO.P,D9,2,A*%
%TO.N,Net-(D9-A)*%
X8000000Y-13400000D03*
%TD*%
D36*
%TO.P,R16,1*%
%TO.N,Net-(J4-Pin_1)*%
X-10775000Y-14800000D03*
%TO.P,R16,2*%
%TO.N,Net-(R16-Pad2)*%
X-12425000Y-14800000D03*
%TD*%
D33*
%TO.P,R15,1*%
%TO.N,/o_Triac1*%
X11675000Y-15100000D03*
%TO.P,R15,2*%
%TO.N,Net-(Q2-B)*%
X13325000Y-15100000D03*
%TD*%
D42*
%TO.P,R5,1*%
%TO.N,Net-(C8-Pad2)*%
X3700000Y-350000D03*
%TO.P,R5,2*%
%TO.N,/ac1*%
X3700000Y2950000D03*
%TD*%
%TO.P,R4,1*%
%TO.N,Net-(C8-Pad2)*%
X6000000Y1250000D03*
%TO.P,R4,2*%
%TO.N,/ac1*%
X6000000Y4550000D03*
%TD*%
D40*
%TO.P,R3,1*%
%TO.N,Net-(Q2-C)*%
X12000000Y-9725000D03*
%TO.P,R3,2*%
%TO.N,Net-(Q1-G)*%
X12000000Y-8075000D03*
%TD*%
D43*
%TO.P,U5,1,VIN*%
%TO.N,/ac1*%
X-10550000Y-500000D03*
%TO.P,U5,2,GND*%
%TO.N,GND*%
X-11500000Y-500000D03*
%TO.P,U5,3,CE*%
%TO.N,/ac1*%
X-12450000Y-500000D03*
%TO.P,U5,4,NC*%
%TO.N,unconnected-(U5-NC-Pad4)*%
X-12450000Y2100000D03*
%TO.P,U5,5,VOUT*%
%TO.N,+3V3*%
X-10550000Y2100000D03*
%TD*%
D44*
%TO.P,Q2,1,B*%
%TO.N,Net-(Q2-B)*%
X13550000Y-13337500D03*
%TO.P,Q2,2,E*%
%TO.N,GND*%
X11650000Y-13337500D03*
%TO.P,Q2,3,C*%
%TO.N,Net-(Q2-C)*%
X12600000Y-11062500D03*
%TD*%
D45*
%TO.P,U3,1,PD6/A6/URX/T2CH3_/UTX_*%
%TO.N,/TX*%
X-8375000Y-3505000D03*
%TO.P,U3,2,VSS*%
%TO.N,GND*%
X-8375000Y-2235000D03*
%TO.P,U3,3,PA2/OSCO/A0/T1CH2N/OPP0/AETR2_*%
%TO.N,/o_Triac1*%
X-8375000Y-965000D03*
%TO.P,U3,4,VDD*%
%TO.N,+3V3*%
X-8375000Y305000D03*
%TO.P,U3,5,PC1/SDA/NSS/T2CH4_/T2CH1ETR_/T1BKIN_/URX_*%
%TO.N,/EXTI_ZC*%
X-3225000Y305000D03*
%TO.P,U3,6,PC2/SCL/URTS/T1BKIN*%
%TO.N,/IC_ENCODER*%
X-3225000Y-965000D03*
%TO.P,U3,7,PC4/A2/T1CH4/MCO/T1CH1CH2N_*%
%TO.N,/IC_PWM*%
X-3225000Y-2235000D03*
%TO.P,U3,8,PD4/A7/UCK/T2CH1ETR/OPO/T1CH4ETR_*%
%TO.N,/SWIO*%
X-3225000Y-3505000D03*
%TD*%
D44*
%TO.P,U4,1,VCC*%
%TO.N,+3V3*%
X950000Y-5337500D03*
%TO.P,U4,2,OUT*%
%TO.N,/IC_ENCODER*%
X-950000Y-5337500D03*
%TO.P,U4,3,GND*%
%TO.N,GND*%
X0Y-3062500D03*
%TD*%
D40*
%TO.P,R10,1*%
%TO.N,Net-(Q2-C)*%
X13500000Y-9725000D03*
%TO.P,R10,2*%
%TO.N,Net-(Q1-G)*%
X13500000Y-8075000D03*
%TD*%
D46*
%TO.P,D6,1,K*%
%TO.N,Net-(D1-K)*%
X-13000000Y8300000D03*
%TO.P,D6,2,A*%
%TO.N,Net-(D6-A)*%
X-10000000Y8300000D03*
%TD*%
D33*
%TO.P,C5,1*%
%TO.N,GND*%
X-8625000Y3400000D03*
%TO.P,C5,2*%
%TO.N,+3V3*%
X-6975000Y3400000D03*
%TD*%
%TO.P,R8,1*%
%TO.N,/IC_ENCODER*%
X-525000Y-1100000D03*
%TO.P,R8,2*%
%TO.N,+3V3*%
X1125000Y-1100000D03*
%TD*%
D36*
%TO.P,R9,1*%
%TO.N,/ac1*%
X-7075000Y8200000D03*
%TO.P,R9,2*%
%TO.N,Net-(D6-A)*%
X-8725000Y8200000D03*
%TD*%
D47*
%TO.P,D8,1,K*%
%TO.N,Net-(D8-K)*%
X2800000Y-13400000D03*
%TO.P,D8,2,A*%
%TO.N,/o_Triac1*%
X2800000Y-15400000D03*
%TD*%
D39*
%TO.P,C7,1*%
%TO.N,Net-(Q1-G)*%
X10500000Y-8075000D03*
%TO.P,C7,2*%
%TO.N,/ac1*%
X10500000Y-9725000D03*
%TD*%
D48*
%TO.P,Q3,1,G*%
%TO.N,Net-(Q3-G)*%
X-19137500Y-1950000D03*
%TO.P,Q3,2,S*%
%TO.N,GND*%
X-19137500Y-50000D03*
%TO.P,Q3,3,D*%
%TO.N,/EXTI_ZC*%
X-16862500Y-1000000D03*
%TD*%
D49*
%TO.N,+3V3*%
X-5500000Y3800000D03*
X-14800000Y-1100000D03*
%TO.N,/EXTI_ZC*%
X-5535000Y1989849D03*
X-14200000Y-3600000D03*
%TO.N,/o_Triac1*%
X-5294546Y-8305453D03*
X1400000Y-16200000D03*
%TD*%
D50*
%TO.N,GND*%
X1680228Y-10400000D02*
X1609000Y-10471228D01*
D51*
X-7800000Y-10625000D02*
X-8200000Y-10625000D01*
D50*
X-841832Y-6540000D02*
X-1690000Y-7388168D01*
X-2578000Y-8980586D02*
X-2578000Y-9486069D01*
D52*
X-10900000Y-5060000D02*
X-10900000Y-4000000D01*
D50*
X-11400000Y-400000D02*
X-11500000Y-500000D01*
X-4114761Y-11020000D02*
X-2998760Y-9904000D01*
D52*
X9900000Y-13831122D02*
X9900000Y-14800000D01*
D50*
X-2578000Y-9486069D02*
X-3248673Y-10156741D01*
X8225000Y-15000000D02*
X9700000Y-15000000D01*
X-1396000Y-9904000D02*
X-900000Y-10400000D01*
X-18550000Y-50000D02*
X-19137500Y-50000D01*
X-9758999Y-1366669D02*
X-9758999Y101643D01*
D51*
X-8475000Y-10900000D02*
X-13117520Y-10900000D01*
D50*
X-8375000Y-2235000D02*
X-8890668Y-2235000D01*
D52*
X-159000Y-6459000D02*
X-721146Y-6459000D01*
X-8575000Y3275000D02*
X-9200000Y3900000D01*
D51*
X-18146500Y-2546500D02*
X-18146500Y-1041000D01*
D50*
X-10125000Y3900000D02*
X-10181188Y3900000D01*
X9900000Y-14117236D02*
X9900000Y-14800000D01*
D51*
X-18701000Y-4392040D02*
X-18701000Y-3101000D01*
D50*
X-7700000Y-10725000D02*
X-6580240Y-10725000D01*
D52*
X-721146Y-6459000D02*
X-747814Y-6485668D01*
D50*
X-693482Y-6540000D02*
X-841832Y-6540000D01*
X8817236Y-15200000D02*
X9900000Y-14117236D01*
X-1690000Y-7388168D02*
X-1690000Y-8092586D01*
X-10181188Y3900000D02*
X-11400000Y2681188D01*
X-8375000Y-2235000D02*
X-9135000Y-2235000D01*
D51*
X-13900000Y-10117520D02*
X-13900000Y-8600000D01*
D52*
X-8575000Y1900000D02*
X-8575000Y3275000D01*
D50*
X-13560000Y-1364193D02*
X-13560000Y-240000D01*
D51*
X-13117520Y-10900000D02*
X-13900000Y-10117520D01*
D50*
X-9758999Y101643D02*
X-10757356Y1100000D01*
D52*
X-9300000Y3800000D02*
X-10300000Y3800000D01*
D50*
X1709000Y-14409000D02*
X4309000Y-14409000D01*
X-20462500Y-175000D02*
X-19062500Y-175000D01*
X-900000Y-10400000D02*
X1680228Y-10400000D01*
D52*
X-11940000Y-6100000D02*
X-10900000Y-5060000D01*
X11650000Y-13337500D02*
X10393622Y-13337500D01*
D50*
X-9135000Y-2235000D02*
X-10900000Y-4000000D01*
X4309000Y-14409000D02*
X4700000Y-14800000D01*
X-6285241Y-11019999D02*
X-4114761Y-11020000D01*
X-10900000Y-4000000D02*
X-10924193Y-4000000D01*
X1609000Y-14309000D02*
X1709000Y-14409000D01*
D52*
X0Y-6300000D02*
X-159000Y-6459000D01*
D51*
X-8200000Y-10625000D02*
X-8475000Y-10900000D01*
D50*
X4700000Y-14800000D02*
X5100000Y-15200000D01*
X9700000Y-15000000D02*
X9900000Y-14800000D01*
X-8890668Y-2235000D02*
X-9758999Y-1366669D01*
D52*
X-9200000Y3900000D02*
X-9300000Y3800000D01*
D51*
X-17793040Y-5300000D02*
X-18701000Y-4392040D01*
D50*
X-11400000Y2681188D02*
X-11400000Y-400000D01*
X-2998760Y-9904000D02*
X-1396000Y-9904000D01*
X-15700000Y1900000D02*
X-16600000Y1900000D01*
D51*
X-18146500Y-1041000D02*
X-19137500Y-50000D01*
D50*
X-16600000Y1900000D02*
X-18550000Y-50000D01*
X-1690000Y-8092586D02*
X-2578000Y-8980586D01*
D53*
X-13900000Y-8600000D02*
X-17200000Y-5300000D01*
D50*
X-11500000Y-400001D02*
X-11500000Y-500000D01*
D52*
X0Y-3062500D02*
X0Y-6300000D01*
D50*
X-10924193Y-4000000D02*
X-13560000Y-1364193D01*
D51*
X-17200000Y-5300000D02*
X-17793040Y-5300000D01*
D50*
X-6580240Y-10725000D02*
X-6285241Y-11019999D01*
X5100000Y-15200000D02*
X8817236Y-15200000D01*
X-13560000Y-240000D02*
X-15700000Y1900000D01*
D51*
X-18701000Y-3101000D02*
X-18146500Y-2546500D01*
D50*
X-10757356Y1100000D02*
X-11400000Y1100000D01*
D52*
X10393622Y-13337500D02*
X9900000Y-13831122D01*
D50*
X1609000Y-10471228D02*
X1609000Y-14309000D01*
D52*
%TO.N,Net-(D1-K)*%
X-18825000Y2250000D02*
X-18825000Y2435000D01*
X-17460000Y3800000D02*
X-16800000Y3800000D01*
X-10600000Y14000000D02*
X-10900000Y13700000D01*
X-10900000Y11300000D02*
X-11400000Y10800000D01*
X-10900000Y13700000D02*
X-10900000Y11300000D01*
X-11400000Y10800000D02*
X-11400000Y9500000D01*
X-18825000Y2435000D02*
X-17460000Y3800000D01*
X-12600000Y8300000D02*
X-13000000Y8300000D01*
X-13000000Y7600000D02*
X-13000000Y8300000D01*
X-16800000Y3800000D02*
X-13000000Y7600000D01*
X-11400000Y9500000D02*
X-12600000Y8300000D01*
D54*
%TO.N,Net-(Q1-G)*%
X12600000Y-2540000D02*
X12600000Y-5450000D01*
D52*
X13500000Y-8075000D02*
X12000000Y-8075000D01*
X12600000Y-5450000D02*
X12600000Y-7175000D01*
X12000000Y-8075000D02*
X11999999Y-8074999D01*
X12600000Y-7175000D02*
X13500000Y-8075000D01*
D50*
X12600000Y-5450000D02*
X13275000Y-6125000D01*
X10500000Y-8075000D02*
X11999999Y-8074999D01*
D52*
%TO.N,Net-(D2-A)*%
X-13000000Y10400000D02*
X-13559938Y9840062D01*
X-20000000Y2725000D02*
X-20000000Y3800000D01*
X-13991000Y8959938D02*
X-13991000Y7809000D01*
X-20475000Y2250000D02*
X-20000000Y2725000D01*
X-13000000Y13614701D02*
X-13000000Y10400000D01*
X-13991000Y7809000D02*
X-16659000Y5141000D01*
X-13046990Y13661691D02*
X-13000000Y13614701D01*
X-13559938Y9391000D02*
X-13991000Y8959938D01*
X-13559938Y9840062D02*
X-13559938Y9391000D01*
X-19685570Y3800000D02*
X-20000000Y3800000D01*
X-16659000Y5141000D02*
X-18344570Y5141000D01*
X-18344570Y5141000D02*
X-19685570Y3800000D01*
X-13046990Y14000000D02*
X-13046990Y13661691D01*
D50*
%TO.N,/TX*%
X-6860000Y-6100000D02*
X-6860000Y-4540000D01*
X-7895000Y-3505000D02*
X-8375000Y-3505000D01*
X-6860000Y-4540000D02*
X-7895000Y-3505000D01*
D51*
%TO.N,/SWIO*%
X-10574040Y-10221000D02*
X-9121000Y-10221000D01*
D55*
X-8799999Y-9899999D02*
X-7561813Y-9899999D01*
X-7066232Y-10000000D02*
X-6900000Y-10000000D01*
D50*
X-3800000Y-3790000D02*
X-3515000Y-3505000D01*
D55*
X-7162232Y-9904000D02*
X-7066232Y-10000000D01*
D50*
X-3800000Y-7000000D02*
X-3800000Y-3790000D01*
D55*
X-7561813Y-9899999D02*
X-7557812Y-9904000D01*
D51*
X-9121000Y-10221000D02*
X-8799999Y-9899999D01*
D50*
X-3515000Y-3505000D02*
X-3225000Y-3505000D01*
X-6329432Y-10000000D02*
X-5999433Y-10330000D01*
D51*
X-11301000Y-8001000D02*
X-11301000Y-9494040D01*
D50*
X-3270000Y-7530000D02*
X-3800000Y-7000000D01*
X-4400568Y-10330000D02*
X-3270000Y-9199433D01*
D51*
X-9400000Y-6100000D02*
X-11301000Y-8001000D01*
X-11301000Y-9494040D02*
X-10574040Y-10221000D01*
D50*
X-5999433Y-10330000D02*
X-4400568Y-10330000D01*
X-3270000Y-9199433D02*
X-3270000Y-7530000D01*
D55*
X-7557812Y-9904000D02*
X-7162232Y-9904000D01*
D50*
X-6900000Y-10000000D02*
X-6329432Y-10000000D01*
%TO.N,+3V3*%
X-8654332Y300000D02*
X-8380000Y300000D01*
X-3218997Y1709000D02*
X-5309997Y3800000D01*
X-7025000Y2375000D02*
X-5600000Y3800000D01*
X-12960000Y-4580000D02*
X-12960000Y-2940000D01*
D51*
X-7000000Y1925000D02*
X-7025000Y1900000D01*
D50*
X-12960000Y-2940000D02*
X-14800000Y-1100000D01*
X-17460000Y-3820000D02*
X-17460000Y-3484192D01*
D52*
X950000Y-5337500D02*
X950000Y-1275000D01*
D50*
X-16760000Y-3820000D02*
X-12600000Y-7980000D01*
D52*
X950000Y-1275000D02*
X1125000Y-1100000D01*
D50*
X1125000Y700000D02*
X116000Y1709000D01*
X1000000Y600000D02*
X1125000Y475000D01*
X-8905000Y305000D02*
X-8375000Y305000D01*
X-5600000Y3800000D02*
X-5500000Y3800000D01*
X-7395000Y305000D02*
X-8375000Y305000D01*
X-8380000Y300000D02*
X-8375000Y305000D01*
X-7025000Y675000D02*
X-7395000Y305000D01*
X-5309997Y3800000D02*
X-5500000Y3800000D01*
X1125000Y475000D02*
X1125000Y-1100000D01*
X-7025000Y1900000D02*
X-7025000Y675000D01*
X-7025000Y1900000D02*
X-7025000Y2375000D01*
X-10550000Y1950000D02*
X-8905000Y305000D01*
X-14480000Y-6100000D02*
X-12960000Y-4580000D01*
X116000Y1709000D02*
X-3218997Y1709000D01*
X-12600000Y-7980000D02*
X-12600000Y-8980000D01*
X-17460000Y-3820000D02*
X-16760000Y-3820000D01*
D51*
X-7000000Y3400000D02*
X-7000000Y1925000D01*
D50*
X-10550000Y2100000D02*
X-10550000Y1950000D01*
%TO.N,/EXTI_ZC*%
X-3225000Y305000D02*
X-4205000Y305000D01*
X-4205000Y305000D02*
X-5535000Y1635000D01*
X-5535000Y1635000D02*
X-5535000Y1989849D01*
X-16862500Y-1000000D02*
X-16862500Y137500D01*
X-920000Y305000D02*
X-525000Y700000D01*
X-3225000Y305000D02*
X-920000Y305000D01*
X-16862500Y137500D02*
X-16200000Y800000D01*
X-14262500Y-3600000D02*
X-14200000Y-3600000D01*
X-16862500Y-1000000D02*
X-14262500Y-3600000D01*
%TO.N,/o_Triac1*%
X-5311000Y-2889000D02*
X-5311000Y-8289000D01*
X1600000Y-16400000D02*
X1400000Y-16200000D01*
X-8375000Y-965000D02*
X-7235000Y-965000D01*
X-5311000Y-8289000D02*
X-5294546Y-8305453D01*
X1900000Y-16200000D02*
X1400000Y-16200000D01*
X10375000Y-16400000D02*
X1600000Y-16400000D01*
X2700000Y-15400000D02*
X1900000Y-16200000D01*
X11675000Y-15100000D02*
X10375000Y-16400000D01*
X2800000Y-15400000D02*
X2700000Y-15400000D01*
X-7235000Y-965000D02*
X-5311000Y-2889000D01*
D52*
%TO.N,/IC_ENCODER*%
X-950000Y-5337500D02*
X-950000Y-1525000D01*
D50*
X-3225000Y-965000D02*
X-660000Y-965000D01*
X-660000Y-965000D02*
X-525000Y-1100000D01*
D52*
X-950000Y-1525000D02*
X-525000Y-1100000D01*
D50*
%TO.N,/IC_PWM*%
X-4591000Y-2726001D02*
X-4591000Y-7255374D01*
X-4686375Y-9640000D02*
X-5713625Y-9640000D01*
X-4591000Y-7255374D02*
X-4054546Y-7791828D01*
X-4054546Y-7791828D02*
X-4054546Y-9008171D01*
X-3225000Y-2235000D02*
X-4099999Y-2235000D01*
X-4054546Y-9008171D02*
X-4686375Y-9640000D01*
X-5713625Y-9640000D02*
X-6373625Y-8980000D01*
X-4099999Y-2235000D02*
X-4591000Y-2726001D01*
X-6373625Y-8980000D02*
X-10060000Y-8980000D01*
D52*
%TO.N,Net-(D6-A)*%
X-8825000Y8175000D02*
X-8750000Y8175000D01*
X-9900000Y10500000D02*
X-9900000Y12700000D01*
X-9900000Y12700000D02*
X-9939462Y12739462D01*
X-10000000Y10400000D02*
X-10000000Y8300000D01*
X-10000000Y10400000D02*
X-9900000Y10500000D01*
X-8750000Y8175000D02*
X-8725000Y8200000D01*
X-8950000Y8300000D02*
X-8825000Y8175000D01*
X-10000000Y8300000D02*
X-8950000Y8300000D01*
%TO.N,Net-(D1-A)*%
X-11900000Y12400000D02*
X-11900000Y16900000D01*
X-15100000Y15200000D02*
X-13300000Y17000000D01*
X-13300000Y17000000D02*
X-10600000Y17000000D01*
X-11900000Y16900000D02*
X-11800000Y17000000D01*
D56*
%TO.N,Net-(C3-Pad2)*%
X200000Y-8600000D02*
X4129218Y-8600000D01*
X5429218Y-9900000D02*
X6200000Y-9900000D01*
X4129218Y-8600000D02*
X5429218Y-9900000D01*
%TO.N,Net-(C8-Pad2)*%
X3700000Y-350000D02*
X5800000Y-350000D01*
X5950000Y-500000D02*
X5950000Y1200000D01*
X5950000Y1200000D02*
X6000000Y1250000D01*
X5800000Y-350000D02*
X5950000Y-500000D01*
D50*
%TO.N,Net-(D4-A)*%
X6700000Y-7860000D02*
X8740000Y-9900000D01*
X5600000Y-11200000D02*
X6725750Y-11200000D01*
X6725750Y-11200000D02*
X8025750Y-9900000D01*
X5800000Y-7800000D02*
X5860000Y-7860000D01*
X5860000Y-7860000D02*
X6700000Y-7860000D01*
X4700000Y-11800000D02*
X5000000Y-11800000D01*
X8025750Y-9900000D02*
X8740000Y-9900000D01*
X5000000Y-11800000D02*
X5600000Y-11200000D01*
%TO.N,Net-(D8-K)*%
X2800000Y-13300000D02*
X2800000Y-13400000D01*
X2900000Y-12225000D02*
X2900000Y-13200000D01*
X2900000Y-13200000D02*
X2800000Y-13300000D01*
%TO.N,Net-(D9-A)*%
X6475000Y-12200000D02*
X6475000Y-13275000D01*
X6475000Y-13275000D02*
X6600000Y-13400000D01*
X6600000Y-13400000D02*
X8000000Y-13400000D01*
D57*
%TO.N,Net-(J4-Pin_1)*%
X-10275000Y-14300000D02*
X-5900000Y-14300000D01*
X-10775000Y-14800000D02*
X-10275000Y-14300000D01*
D58*
%TO.N,Net-(J4-Pin_2)*%
X-4500000Y-16100000D02*
X-2700000Y-14300000D01*
X-10060000Y-16600000D02*
X-8300000Y-16600000D01*
X-8300000Y-16600000D02*
X-7800000Y-16100000D01*
D52*
X-7800000Y-16100000D02*
X-4500000Y-16100000D01*
D58*
X-2700000Y-14300000D02*
X-2400000Y-14300000D01*
D52*
%TO.N,Net-(Q2-C)*%
X12000000Y-9725000D02*
X13499999Y-9724999D01*
D50*
X13499999Y-10162501D02*
X13499999Y-9724999D01*
X12600000Y-11062500D02*
X13499999Y-10162501D01*
%TO.N,Net-(Q2-B)*%
X13325000Y-13562500D02*
X13550000Y-13337500D01*
X13325000Y-15100000D02*
X13325000Y-13562500D01*
%TO.N,Net-(Q3-G)*%
X-19262500Y-1825000D02*
X-19137500Y-1950000D01*
X-20462500Y-1825000D02*
X-19262500Y-1825000D01*
X-20000000Y-2287500D02*
X-20462500Y-1825000D01*
X-20000000Y-3820000D02*
X-20000000Y-2287500D01*
D57*
%TO.N,Net-(R16-Pad2)*%
X-12425000Y-16425000D02*
X-12600000Y-16600000D01*
X-12425000Y-14800000D02*
X-12425000Y-16425000D01*
D52*
%TO.N,/ac1*%
X-13300000Y1406583D02*
X-13300000Y2713354D01*
X3350000Y2300000D02*
X2284000Y1234000D01*
X3600000Y-6600000D02*
X7000000Y-6600000D01*
X8525000Y-11800000D02*
X8125000Y-12200000D01*
X-12450000Y-1013354D02*
X-11922354Y-1541000D01*
X8800000Y-7903474D02*
X10512526Y-9616000D01*
X-12450000Y-500000D02*
X-12450000Y-1013354D01*
X-13300000Y2713354D02*
X-12872354Y3141000D01*
X8200000Y-7800000D02*
X8800000Y-7800000D01*
X10300000Y-11400000D02*
X9900000Y-11800000D01*
X-12405293Y511876D02*
X-13300000Y1406583D01*
X-10550000Y-1100000D02*
X-10550000Y-500000D01*
X10512526Y-9616000D02*
X10512526Y-9712474D01*
X2284000Y1234000D02*
X2284000Y-5284000D01*
D54*
X12600000Y2540000D02*
X12600000Y5450000D01*
D52*
X8800000Y-7800000D02*
X8800000Y-7903474D01*
D54*
X-4000000Y12000000D02*
X-4000000Y13332500D01*
D52*
X10500000Y-9725000D02*
X10300000Y-9925000D01*
X-12872354Y3141000D02*
X-12872354Y3727646D01*
X-11400000Y5200000D02*
X-8700000Y5200000D01*
X-7075000Y6825000D02*
X-7075000Y8200000D01*
X-12405293Y-455293D02*
X-12405293Y511876D01*
D54*
X3700000Y2950000D02*
X-1850000Y2950000D01*
D52*
X10512526Y-9712474D02*
X10500000Y-9725000D01*
X9900000Y-11800000D02*
X8525000Y-11800000D01*
D54*
X-6300000Y9700000D02*
X-4000000Y12000000D01*
D52*
X-8700000Y5200000D02*
X-7075000Y6825000D01*
D54*
X10900000Y3750000D02*
X12600000Y5450000D01*
D52*
X7000000Y-6600000D02*
X8200000Y-7800000D01*
X-12872354Y3727646D02*
X-11400000Y5200000D01*
D54*
X-6300000Y7400000D02*
X-6300000Y9700000D01*
D52*
X-11922354Y-1541000D02*
X-10991000Y-1541000D01*
X-10991000Y-1541000D02*
X-10550000Y-1100000D01*
X10300000Y-9925000D02*
X10300000Y-11400000D01*
D54*
X3350000Y2300000D02*
X4800000Y3750000D01*
X-1850000Y2950000D02*
X-6300000Y7400000D01*
D52*
X2284000Y-5284000D02*
X3600000Y-6600000D01*
D54*
X4800000Y3750000D02*
X10900000Y3750000D01*
%TO.N,/load*%
X12600000Y0D02*
X15100000Y0D01*
X15100000Y0D02*
X16000000Y900000D01*
X11000000Y0D02*
X12600000Y0D01*
X7000000Y-4000000D02*
X11000000Y0D01*
D51*
X10935000Y13332500D02*
X11480000Y13332500D01*
D54*
X5800000Y-4000000D02*
X7000000Y-4000000D01*
%TD*%
%TA.AperFunction,Conductor*%
%TO.N,GND*%
G36*
X11268471Y-10481770D02*
G01*
X11281655Y-10481408D01*
X11314141Y-10495178D01*
X11435394Y-10568478D01*
X11597804Y-10619086D01*
X11668384Y-10625500D01*
X11675500Y-10625500D01*
X11742539Y-10645185D01*
X11788294Y-10697989D01*
X11799500Y-10749500D01*
X11799500Y-11478201D01*
X11802401Y-11515067D01*
X11802402Y-11515073D01*
X11848254Y-11672893D01*
X11848255Y-11672896D01*
X11931917Y-11814362D01*
X11931923Y-11814370D01*
X12048129Y-11930576D01*
X12048133Y-11930579D01*
X12048135Y-11930581D01*
X12189602Y-12014244D01*
X12216976Y-12022197D01*
X12347426Y-12060097D01*
X12347429Y-12060097D01*
X12347431Y-12060098D01*
X12384306Y-12063000D01*
X12384314Y-12063000D01*
X12815686Y-12063000D01*
X12815694Y-12063000D01*
X12852569Y-12060098D01*
X12852571Y-12060097D01*
X12852573Y-12060097D01*
X12894191Y-12048005D01*
X13010398Y-12014244D01*
X13151865Y-11930581D01*
X13268081Y-11814365D01*
X13351744Y-11672898D01*
X13397598Y-11515069D01*
X13400500Y-11478194D01*
X13400500Y-11304019D01*
X13420185Y-11236980D01*
X13436819Y-11216338D01*
X13788319Y-10864838D01*
X13849642Y-10831353D01*
X13919334Y-10836337D01*
X13975267Y-10878209D01*
X13999684Y-10943673D01*
X14000000Y-10952519D01*
X14000000Y-12099999D01*
X14045737Y-12195286D01*
X14057001Y-12264242D01*
X14029196Y-12328341D01*
X13971151Y-12367232D01*
X13901294Y-12368567D01*
X13899353Y-12368020D01*
X13802573Y-12339902D01*
X13802567Y-12339901D01*
X13765701Y-12337000D01*
X13765694Y-12337000D01*
X13334306Y-12337000D01*
X13334298Y-12337000D01*
X13297432Y-12339901D01*
X13297426Y-12339902D01*
X13139606Y-12385754D01*
X13139603Y-12385755D01*
X12998137Y-12469417D01*
X12998129Y-12469423D01*
X12881923Y-12585629D01*
X12881917Y-12585637D01*
X12798255Y-12727103D01*
X12798254Y-12727106D01*
X12752402Y-12884926D01*
X12752401Y-12884932D01*
X12749500Y-12921798D01*
X12749500Y-13125314D01*
X12729815Y-13192353D01*
X12728603Y-13194203D01*
X12704230Y-13230680D01*
X12704223Y-13230692D01*
X12651420Y-13358170D01*
X12651420Y-13358172D01*
X12633254Y-13449500D01*
X12633254Y-13449501D01*
X12624500Y-13493506D01*
X12624500Y-14283480D01*
X12615855Y-14312920D01*
X12609332Y-14342907D01*
X12605577Y-14347922D01*
X12604815Y-14350519D01*
X12588181Y-14371161D01*
X12587681Y-14371661D01*
X12526358Y-14405146D01*
X12456666Y-14400162D01*
X12412319Y-14371661D01*
X12310188Y-14269530D01*
X12267091Y-14243477D01*
X12164606Y-14181522D01*
X12002196Y-14130914D01*
X12002194Y-14130913D01*
X12002192Y-14130913D01*
X11952778Y-14126423D01*
X11931616Y-14124500D01*
X11418384Y-14124500D01*
X11399145Y-14126248D01*
X11347807Y-14130913D01*
X11185393Y-14181522D01*
X11039811Y-14269530D01*
X10919530Y-14389811D01*
X10831522Y-14535393D01*
X10780913Y-14697807D01*
X10774500Y-14768386D01*
X10774500Y-14958481D01*
X10754815Y-15025520D01*
X10738181Y-15046162D01*
X10121162Y-15663181D01*
X10059839Y-15696666D01*
X10033481Y-15699500D01*
X4124500Y-15699500D01*
X4057461Y-15679815D01*
X4011706Y-15627011D01*
X4000500Y-15575500D01*
X4000500Y-15143386D01*
X4000500Y-15143384D01*
X3994086Y-15072804D01*
X3943478Y-14910394D01*
X3855472Y-14764815D01*
X3855470Y-14764813D01*
X3855469Y-14764811D01*
X3735188Y-14644530D01*
X3715227Y-14632463D01*
X3589606Y-14556522D01*
X3467217Y-14518384D01*
X3409070Y-14479648D01*
X3381096Y-14415623D01*
X3392177Y-14346638D01*
X3438796Y-14294595D01*
X3467215Y-14281615D01*
X3589606Y-14243478D01*
X3735185Y-14155472D01*
X3855472Y-14035185D01*
X3943478Y-13889606D01*
X3994086Y-13727196D01*
X4000500Y-13656616D01*
X4000500Y-13143384D01*
X3994086Y-13072804D01*
X3943478Y-12910394D01*
X3923029Y-12876568D01*
X3905194Y-12809016D01*
X3926711Y-12742542D01*
X3980752Y-12698254D01*
X4050157Y-12690213D01*
X4066027Y-12694031D01*
X4226524Y-12744044D01*
X4297566Y-12750500D01*
X4297569Y-12750500D01*
X5102431Y-12750500D01*
X5102434Y-12750500D01*
X5173476Y-12744044D01*
X5336940Y-12693107D01*
X5430631Y-12636468D01*
X5498185Y-12618633D01*
X5564658Y-12640151D01*
X5608946Y-12694191D01*
X5613163Y-12705689D01*
X5631522Y-12764606D01*
X5704262Y-12884932D01*
X5719530Y-12910188D01*
X5738179Y-12928836D01*
X5771666Y-12990158D01*
X5774500Y-13016519D01*
X5774500Y-13206006D01*
X5774500Y-13343994D01*
X5774500Y-13343996D01*
X5774499Y-13343996D01*
X5801418Y-13479322D01*
X5801421Y-13479332D01*
X5854222Y-13606807D01*
X5930887Y-13721545D01*
X6153454Y-13944112D01*
X6268192Y-14020777D01*
X6395667Y-14073578D01*
X6395672Y-14073580D01*
X6395676Y-14073580D01*
X6395677Y-14073581D01*
X6531003Y-14100500D01*
X6531006Y-14100500D01*
X6531007Y-14100500D01*
X6958480Y-14100500D01*
X7025519Y-14120185D01*
X7046161Y-14136819D01*
X7064811Y-14155469D01*
X7064813Y-14155470D01*
X7064815Y-14155472D01*
X7210394Y-14243478D01*
X7372804Y-14294086D01*
X7443384Y-14300500D01*
X7443387Y-14300500D01*
X8556613Y-14300500D01*
X8556616Y-14300500D01*
X8627196Y-14294086D01*
X8789606Y-14243478D01*
X8935185Y-14155472D01*
X9055472Y-14035185D01*
X9143478Y-13889606D01*
X9194086Y-13727196D01*
X9200500Y-13656616D01*
X9200500Y-13143384D01*
X9194086Y-13072804D01*
X9143478Y-12910394D01*
X9123029Y-12876568D01*
X9105194Y-12809016D01*
X9126711Y-12742542D01*
X9180752Y-12698254D01*
X9250157Y-12690213D01*
X9266027Y-12694031D01*
X9426524Y-12744044D01*
X9497566Y-12750500D01*
X9497569Y-12750500D01*
X10302431Y-12750500D01*
X10302434Y-12750500D01*
X10373476Y-12744044D01*
X10536940Y-12693107D01*
X10636515Y-12632911D01*
X10683457Y-12604535D01*
X10683458Y-12604533D01*
X10683463Y-12604531D01*
X10804531Y-12483463D01*
X10805650Y-12481613D01*
X10832911Y-12436515D01*
X10893107Y-12336940D01*
X10944044Y-12173476D01*
X10950500Y-12102434D01*
X10950500Y-11813840D01*
X10963616Y-11761481D01*
X10962753Y-11761124D01*
X11021656Y-11618917D01*
X11021658Y-11618913D01*
X11032487Y-11564474D01*
X11050500Y-11473920D01*
X11050500Y-10646941D01*
X11070185Y-10579902D01*
X11110349Y-10540825D01*
X11185851Y-10495182D01*
X11199849Y-10491486D01*
X11211812Y-10483326D01*
X11232954Y-10482745D01*
X11253404Y-10477346D01*
X11268471Y-10481770D01*
G37*
%TD.AperFunction*%
%TA.AperFunction,Conductor*%
G36*
X145377Y-1993900D02*
G01*
X189666Y-2047940D01*
X199500Y-2096336D01*
X199500Y-4705170D01*
X197609Y-4718449D01*
X198238Y-4722817D01*
X196422Y-4726792D01*
X194576Y-4739765D01*
X152402Y-4884926D01*
X152401Y-4884932D01*
X149500Y-4921798D01*
X149500Y-5753201D01*
X152401Y-5790067D01*
X152402Y-5790073D01*
X198254Y-5947893D01*
X198255Y-5947896D01*
X281917Y-6089362D01*
X281923Y-6089370D01*
X398129Y-6205576D01*
X398133Y-6205579D01*
X398135Y-6205581D01*
X539602Y-6289244D01*
X581224Y-6301336D01*
X697426Y-6335097D01*
X697429Y-6335097D01*
X697431Y-6335098D01*
X734306Y-6338000D01*
X734314Y-6338000D01*
X1165686Y-6338000D01*
X1165694Y-6338000D01*
X1202569Y-6335098D01*
X1202571Y-6335097D01*
X1202573Y-6335097D01*
X1244191Y-6323005D01*
X1360398Y-6289244D01*
X1501865Y-6205581D01*
X1618081Y-6089365D01*
X1689039Y-5969380D01*
X1740107Y-5921697D01*
X1808849Y-5909193D01*
X1873439Y-5935838D01*
X1883452Y-5944820D01*
X3078996Y-7140364D01*
X3112481Y-7201687D01*
X3107497Y-7271379D01*
X3065625Y-7327312D01*
X3000161Y-7351729D01*
X2971917Y-7350518D01*
X2933841Y-7344487D01*
X2902352Y-7339500D01*
X2697648Y-7339500D01*
X2673329Y-7343351D01*
X2495465Y-7371522D01*
X2300776Y-7434781D01*
X2118386Y-7527715D01*
X2052178Y-7575818D01*
X1986372Y-7599298D01*
X1979293Y-7599500D01*
X1674727Y-7599500D01*
X1607688Y-7579815D01*
X1561933Y-7527011D01*
X1560166Y-7522952D01*
X1528409Y-7446282D01*
X1528404Y-7446273D01*
X1416948Y-7253226D01*
X1347762Y-7163060D01*
X1281248Y-7076377D01*
X1281242Y-7076370D01*
X1123629Y-6918757D01*
X1123622Y-6918751D01*
X946782Y-6783058D01*
X946780Y-6783057D01*
X946774Y-6783052D01*
X753726Y-6671595D01*
X753722Y-6671593D01*
X547790Y-6586293D01*
X547783Y-6586291D01*
X547781Y-6586290D01*
X332463Y-6528596D01*
X332457Y-6528595D01*
X332452Y-6528594D01*
X111466Y-6499501D01*
X111463Y-6499500D01*
X111457Y-6499500D01*
X-111457Y-6499500D01*
X-111463Y-6499500D01*
X-111467Y-6499501D01*
X-332453Y-6528594D01*
X-332460Y-6528595D01*
X-332463Y-6528596D01*
X-538902Y-6583911D01*
X-547781Y-6586290D01*
X-547791Y-6586293D01*
X-753723Y-6671593D01*
X-753727Y-6671595D01*
X-946774Y-6783052D01*
X-946783Y-6783058D01*
X-1123623Y-6918751D01*
X-1123630Y-6918757D01*
X-1281243Y-7076370D01*
X-1281249Y-7076377D01*
X-1416942Y-7253217D01*
X-1416948Y-7253226D01*
X-1528405Y-7446273D01*
X-1528407Y-7446277D01*
X-1613707Y-7652209D01*
X-1613710Y-7652219D01*
X-1664822Y-7842975D01*
X-1671403Y-7867534D01*
X-1671406Y-7867547D01*
X-1700499Y-8088533D01*
X-1700500Y-8088549D01*
X-1700500Y-8311450D01*
X-1700499Y-8311466D01*
X-1671406Y-8532452D01*
X-1671405Y-8532457D01*
X-1671404Y-8532463D01*
X-1613710Y-8747780D01*
X-1613707Y-8747790D01*
X-1528407Y-8953722D01*
X-1528405Y-8953726D01*
X-1416948Y-9146774D01*
X-1416943Y-9146780D01*
X-1416942Y-9146782D01*
X-1281249Y-9323622D01*
X-1281243Y-9323629D01*
X-1123630Y-9481242D01*
X-1123624Y-9481247D01*
X-946774Y-9616948D01*
X-753726Y-9728405D01*
X-547781Y-9813710D01*
X-332463Y-9871404D01*
X-111457Y-9900500D01*
X-111450Y-9900500D01*
X111450Y-9900500D01*
X111457Y-9900500D01*
X332463Y-9871404D01*
X547781Y-9813710D01*
X753726Y-9728405D01*
X863245Y-9665174D01*
X946489Y-9617113D01*
X1008489Y-9600500D01*
X1870193Y-9600500D01*
X1937232Y-9620185D01*
X1950731Y-9630215D01*
X1952788Y-9631972D01*
X2085519Y-9728405D01*
X2118390Y-9752287D01*
X2234607Y-9811503D01*
X2300776Y-9845218D01*
X2300778Y-9845218D01*
X2300781Y-9845220D01*
X2381361Y-9871402D01*
X2495465Y-9908477D01*
X2596557Y-9924488D01*
X2697648Y-9940500D01*
X2697649Y-9940500D01*
X2902351Y-9940500D01*
X2902352Y-9940500D01*
X3104534Y-9908477D01*
X3299219Y-9845220D01*
X3481610Y-9752287D01*
X3601512Y-9665174D01*
X3618906Y-9652537D01*
X3684712Y-9629057D01*
X3752766Y-9644883D01*
X3779472Y-9665174D01*
X4752115Y-10637819D01*
X4785600Y-10699142D01*
X4780616Y-10768834D01*
X4738744Y-10824767D01*
X4673280Y-10849184D01*
X4664434Y-10849500D01*
X4297566Y-10849500D01*
X4278201Y-10851259D01*
X4226527Y-10855955D01*
X4226524Y-10855956D01*
X4094478Y-10897103D01*
X4063057Y-10906894D01*
X3916542Y-10995464D01*
X3916537Y-10995468D01*
X3795468Y-11116537D01*
X3795464Y-11116542D01*
X3706893Y-11263058D01*
X3706892Y-11263061D01*
X3684510Y-11334887D01*
X3645772Y-11393035D01*
X3581746Y-11421008D01*
X3512761Y-11409926D01*
X3501983Y-11404117D01*
X3464606Y-11381522D01*
X3302196Y-11330914D01*
X3302194Y-11330913D01*
X3302192Y-11330913D01*
X3249035Y-11326083D01*
X3231616Y-11324500D01*
X2568384Y-11324500D01*
X2550965Y-11326083D01*
X2497807Y-11330913D01*
X2335393Y-11381522D01*
X2189811Y-11469530D01*
X2069530Y-11589811D01*
X1981522Y-11735393D01*
X1930913Y-11897807D01*
X1927936Y-11930576D01*
X1924500Y-11968384D01*
X1924500Y-12481616D01*
X1924668Y-12483462D01*
X1928408Y-12524618D01*
X1914871Y-12593164D01*
X1869075Y-12641952D01*
X1864816Y-12644526D01*
X1864810Y-12644531D01*
X1744530Y-12764811D01*
X1656522Y-12910393D01*
X1605913Y-13072807D01*
X1599500Y-13143386D01*
X1599500Y-13656613D01*
X1605913Y-13727192D01*
X1605913Y-13727194D01*
X1605914Y-13727196D01*
X1643451Y-13847659D01*
X1656522Y-13889606D01*
X1744530Y-14035188D01*
X1864811Y-14155469D01*
X1864813Y-14155470D01*
X1864815Y-14155472D01*
X2010394Y-14243478D01*
X2132782Y-14281615D01*
X2190929Y-14320352D01*
X2218903Y-14384377D01*
X2207822Y-14453362D01*
X2161203Y-14505405D01*
X2132784Y-14518384D01*
X2053362Y-14543132D01*
X2010393Y-14556522D01*
X1864811Y-14644530D01*
X1744530Y-14764811D01*
X1664277Y-14897566D01*
X1653664Y-14907284D01*
X1646927Y-14919998D01*
X1628414Y-14930408D01*
X1612749Y-14944754D01*
X1597420Y-14947836D01*
X1586026Y-14954244D01*
X1561276Y-14955105D01*
X1550856Y-14957201D01*
X1544774Y-14956842D01*
X1498417Y-14949500D01*
X1420340Y-14949500D01*
X1416696Y-14949285D01*
X1387105Y-14938666D01*
X1356961Y-14929815D01*
X1354488Y-14926962D01*
X1350933Y-14925686D01*
X1331780Y-14900754D01*
X1311206Y-14877011D01*
X1310284Y-14872773D01*
X1308367Y-14870278D01*
X1307501Y-14859983D01*
X1300000Y-14825500D01*
X1300000Y-12031575D01*
X711373Y-11566871D01*
X246670Y-11200000D01*
X246669Y-11200000D01*
X-4047049Y-11200000D01*
X-4114088Y-11180315D01*
X-4159843Y-11127511D01*
X-4169787Y-11058353D01*
X-4140762Y-10994797D01*
X-4094501Y-10961439D01*
X-4068761Y-10950777D01*
X-4068760Y-10950776D01*
X-4068757Y-10950775D01*
X-3954025Y-10874114D01*
X-2725886Y-9645976D01*
X-2649225Y-9531244D01*
X-2596420Y-9403762D01*
X-2569500Y-9268427D01*
X-2569500Y-9130439D01*
X-2569500Y-7461007D01*
X-2587299Y-7371523D01*
X-2591481Y-7350499D01*
X-2591482Y-7350498D01*
X-2596420Y-7325671D01*
X-2649225Y-7198189D01*
X-2725886Y-7083457D01*
X-2725888Y-7083454D01*
X-3063181Y-6746161D01*
X-3096666Y-6684838D01*
X-3099500Y-6658480D01*
X-3099500Y-4429500D01*
X-3079815Y-4362461D01*
X-3027011Y-4316706D01*
X-2975500Y-4305500D01*
X-2434314Y-4305500D01*
X-2434306Y-4305500D01*
X-2397431Y-4302598D01*
X-2397429Y-4302597D01*
X-2397427Y-4302597D01*
X-2355809Y-4290505D01*
X-2239602Y-4256744D01*
X-2098135Y-4173081D01*
X-1981919Y-4056865D01*
X-1931232Y-3971158D01*
X-1880164Y-3923474D01*
X-1811422Y-3910970D01*
X-1746832Y-3937615D01*
X-1706902Y-3994950D01*
X-1700500Y-4034278D01*
X-1700500Y-4705170D01*
X-1705424Y-4739765D01*
X-1747598Y-4884926D01*
X-1747599Y-4884932D01*
X-1750500Y-4921798D01*
X-1750500Y-5753201D01*
X-1747599Y-5790067D01*
X-1747598Y-5790073D01*
X-1701746Y-5947893D01*
X-1701745Y-5947896D01*
X-1618083Y-6089362D01*
X-1618077Y-6089370D01*
X-1501871Y-6205576D01*
X-1501867Y-6205579D01*
X-1501865Y-6205581D01*
X-1360398Y-6289244D01*
X-1318776Y-6301336D01*
X-1202574Y-6335097D01*
X-1202571Y-6335097D01*
X-1202569Y-6335098D01*
X-1165694Y-6338000D01*
X-1165686Y-6338000D01*
X-734314Y-6338000D01*
X-734306Y-6338000D01*
X-697431Y-6335098D01*
X-697429Y-6335097D01*
X-697427Y-6335097D01*
X-655809Y-6323005D01*
X-539602Y-6289244D01*
X-398135Y-6205581D01*
X-281919Y-6089365D01*
X-198256Y-5947898D01*
X-152402Y-5790069D01*
X-149500Y-5753194D01*
X-149500Y-4921806D01*
X-152402Y-4884931D01*
X-155762Y-4873365D01*
X-194576Y-4739765D01*
X-194543Y-4727958D01*
X-199500Y-4705170D01*
X-199500Y-2160855D01*
X-179815Y-2093816D01*
X-127011Y-2048061D01*
X-112406Y-2042475D01*
X-35394Y-2018478D01*
X11351Y-1990219D01*
X78903Y-1972383D01*
X145377Y-1993900D01*
G37*
%TD.AperFunction*%
%TA.AperFunction,Conductor*%
G36*
X-15187610Y-7255156D02*
G01*
X-14998412Y-7351557D01*
X-14796243Y-7417246D01*
X-14586287Y-7450500D01*
X-14586286Y-7450500D01*
X-14373714Y-7450500D01*
X-14373713Y-7450500D01*
X-14217228Y-7425715D01*
X-14147934Y-7434670D01*
X-14110149Y-7460507D01*
X-13602011Y-7968645D01*
X-13568526Y-8029968D01*
X-13573510Y-8099660D01*
X-13589373Y-8129211D01*
X-13712288Y-8298390D01*
X-13805219Y-8480776D01*
X-13868478Y-8675465D01*
X-13900500Y-8877648D01*
X-13900500Y-9082351D01*
X-13868478Y-9284534D01*
X-13805219Y-9479223D01*
X-13743424Y-9600500D01*
X-13728284Y-9630215D01*
X-13712285Y-9661613D01*
X-13591972Y-9827213D01*
X-13447214Y-9971971D01*
X-13292251Y-10084556D01*
X-13281610Y-10092287D01*
X-13176147Y-10146023D01*
X-13099224Y-10185218D01*
X-13099222Y-10185218D01*
X-13099219Y-10185220D01*
X-13049594Y-10201344D01*
X-12904535Y-10248477D01*
X-12803443Y-10264488D01*
X-12702352Y-10280500D01*
X-12702351Y-10280500D01*
X-12497649Y-10280500D01*
X-12497648Y-10280500D01*
X-12295466Y-10248477D01*
X-12100781Y-10185220D01*
X-11918390Y-10092287D01*
X-11832807Y-10030108D01*
X-11767001Y-10006628D01*
X-11698947Y-10022453D01*
X-11672241Y-10042745D01*
X-10988715Y-10726272D01*
X-10988712Y-10726275D01*
X-10898379Y-10786633D01*
X-10898380Y-10786633D01*
X-10882169Y-10797464D01*
X-10882168Y-10797464D01*
X-10882167Y-10797465D01*
X-10763784Y-10846501D01*
X-10763780Y-10846501D01*
X-10763779Y-10846502D01*
X-10638112Y-10871500D01*
X-10638109Y-10871500D01*
X-9056929Y-10871500D01*
X-8946333Y-10849500D01*
X-8931256Y-10846501D01*
X-8812873Y-10797465D01*
X-8796660Y-10786632D01*
X-8706331Y-10726277D01*
X-8546871Y-10566816D01*
X-8485549Y-10533333D01*
X-8459191Y-10530499D01*
X-7652239Y-10530499D01*
X-7649915Y-10530521D01*
X-7638876Y-10530727D01*
X-7619912Y-10534500D01*
X-7619911Y-10534500D01*
X-7437634Y-10534500D01*
X-7436460Y-10534522D01*
X-7404176Y-10544662D01*
X-7371745Y-10554185D01*
X-7369893Y-10555398D01*
X-7369803Y-10555458D01*
X-7369801Y-10555459D01*
X-7369801Y-10555460D01*
X-7364892Y-10558739D01*
X-7364886Y-10558743D01*
X-7270300Y-10597921D01*
X-7248873Y-10609375D01*
X-7231811Y-10620775D01*
X-7104328Y-10673580D01*
X-7104324Y-10673580D01*
X-7104323Y-10673581D01*
X-6968996Y-10700500D01*
X-6968993Y-10700500D01*
X-6670951Y-10700500D01*
X-6603912Y-10720185D01*
X-6583276Y-10736813D01*
X-6445977Y-10874113D01*
X-6428774Y-10885607D01*
X-6411570Y-10897103D01*
X-6331251Y-10950771D01*
X-6331238Y-10950778D01*
X-6305500Y-10961439D01*
X-6251096Y-11005280D01*
X-6229031Y-11071574D01*
X-6246310Y-11139273D01*
X-6297447Y-11186884D01*
X-6352952Y-11200000D01*
X-8700000Y-11200000D01*
X-8709977Y-11209976D01*
X-8719685Y-11243039D01*
X-8772489Y-11288794D01*
X-8824000Y-11300000D01*
X-14076000Y-11300000D01*
X-14143039Y-11280315D01*
X-14188794Y-11227511D01*
X-14200000Y-11176000D01*
X-14200000Y-9499999D01*
X-14901093Y-8238033D01*
X-15352301Y-7425859D01*
X-15367650Y-7357698D01*
X-15343712Y-7292057D01*
X-15288086Y-7249779D01*
X-15218432Y-7244286D01*
X-15187610Y-7255156D01*
G37*
%TD.AperFunction*%
%TA.AperFunction,Conductor*%
G36*
X-14133546Y2243719D02*
G01*
X-14076770Y2202997D01*
X-14051022Y2138045D01*
X-14050500Y2126677D01*
X-14050500Y1332665D01*
X-14050500Y1332663D01*
X-14050501Y1332663D01*
X-14021660Y1187676D01*
X-14021657Y1187666D01*
X-13965086Y1051091D01*
X-13965085Y1051089D01*
X-13965084Y1051088D01*
X-13942810Y1017752D01*
X-13940454Y1014227D01*
X-13940453Y1014224D01*
X-13882954Y928169D01*
X-13882948Y928162D01*
X-13205555Y250770D01*
X-13172070Y189447D01*
X-13176629Y125712D01*
X-13175505Y125385D01*
X-13177026Y120151D01*
X-13177054Y119756D01*
X-13177365Y118985D01*
X-13222654Y-36897D01*
X-13222655Y-36903D01*
X-13225500Y-73057D01*
X-13225500Y-926922D01*
X-13225499Y-926947D01*
X-13222655Y-963097D01*
X-13205424Y-1022402D01*
X-13200500Y-1056998D01*
X-13200500Y-1087272D01*
X-13200500Y-1087274D01*
X-13200501Y-1087274D01*
X-13171660Y-1232261D01*
X-13171657Y-1232271D01*
X-13115086Y-1368846D01*
X-13115085Y-1368848D01*
X-13115084Y-1368849D01*
X-13093523Y-1401118D01*
X-13086558Y-1411541D01*
X-13086557Y-1411544D01*
X-13032954Y-1491768D01*
X-13032948Y-1491775D01*
X-12505305Y-2019416D01*
X-12443105Y-2081616D01*
X-12400769Y-2123952D01*
X-12277856Y-2206080D01*
X-12277843Y-2206087D01*
X-12141272Y-2262656D01*
X-12141267Y-2262658D01*
X-12141263Y-2262658D01*
X-12141262Y-2262659D01*
X-11996275Y-2291500D01*
X-11996272Y-2291500D01*
X-10917080Y-2291500D01*
X-10792704Y-2266759D01*
X-10772087Y-2262658D01*
X-10635505Y-2206084D01*
X-10575057Y-2165694D01*
X-10512584Y-2123952D01*
X-9967049Y-1578416D01*
X-9884916Y-1455495D01*
X-9884914Y-1455488D01*
X-9882046Y-1450125D01*
X-9881020Y-1450673D01*
X-9841094Y-1401118D01*
X-9774803Y-1379046D01*
X-9707101Y-1396317D01*
X-9663631Y-1439845D01*
X-9618084Y-1516861D01*
X-9618077Y-1516870D01*
X-9501871Y-1633076D01*
X-9501867Y-1633079D01*
X-9501865Y-1633081D01*
X-9360398Y-1716744D01*
X-9318776Y-1728836D01*
X-9202574Y-1762597D01*
X-9202571Y-1762597D01*
X-9202569Y-1762598D01*
X-9165694Y-1765500D01*
X-9165686Y-1765500D01*
X-7584314Y-1765500D01*
X-7584306Y-1765500D01*
X-7547431Y-1762598D01*
X-7525355Y-1756184D01*
X-7455486Y-1756383D01*
X-7403078Y-1787579D01*
X-6047819Y-3142838D01*
X-6014334Y-3204161D01*
X-6011500Y-3230519D01*
X-6011500Y-4140230D01*
X-6031185Y-4207269D01*
X-6083989Y-4253024D01*
X-6153147Y-4262968D01*
X-6216703Y-4233943D01*
X-6238602Y-4209120D01*
X-6315883Y-4093461D01*
X-6315889Y-4093453D01*
X-6963181Y-3446161D01*
X-6996666Y-3384838D01*
X-6999500Y-3358480D01*
X-6999500Y-3289313D01*
X-6999501Y-3289298D01*
X-7002402Y-3252432D01*
X-7002403Y-3252426D01*
X-7048255Y-3094606D01*
X-7048256Y-3094603D01*
X-7048256Y-3094602D01*
X-7131919Y-2953135D01*
X-7131921Y-2953133D01*
X-7131924Y-2953129D01*
X-7248130Y-2836923D01*
X-7248138Y-2836917D01*
X-7389604Y-2753255D01*
X-7389607Y-2753254D01*
X-7547427Y-2707402D01*
X-7547433Y-2707401D01*
X-7584299Y-2704500D01*
X-7584306Y-2704500D01*
X-9165694Y-2704500D01*
X-9165702Y-2704500D01*
X-9202568Y-2707401D01*
X-9202574Y-2707402D01*
X-9360394Y-2753254D01*
X-9360397Y-2753255D01*
X-9501863Y-2836917D01*
X-9501871Y-2836923D01*
X-9618077Y-2953129D01*
X-9618083Y-2953137D01*
X-9701745Y-3094603D01*
X-9701746Y-3094606D01*
X-9747598Y-3252426D01*
X-9747599Y-3252432D01*
X-9750500Y-3289298D01*
X-9750500Y-3720701D01*
X-9747599Y-3757567D01*
X-9747598Y-3757573D01*
X-9701746Y-3915393D01*
X-9701745Y-3915396D01*
X-9618083Y-4056862D01*
X-9618077Y-4056870D01*
X-9501871Y-4173076D01*
X-9501867Y-4173079D01*
X-9501865Y-4173081D01*
X-9360398Y-4256744D01*
X-9338975Y-4262968D01*
X-9202574Y-4302597D01*
X-9202571Y-4302597D01*
X-9202569Y-4302598D01*
X-9165694Y-4305500D01*
X-8136519Y-4305500D01*
X-8069480Y-4325185D01*
X-8048838Y-4341819D01*
X-7807242Y-4583415D01*
X-7773757Y-4644738D01*
X-7778741Y-4714430D01*
X-7820613Y-4770363D01*
X-7851589Y-4787278D01*
X-7902331Y-4806203D01*
X-7902336Y-4806206D01*
X-8017545Y-4892452D01*
X-8017548Y-4892455D01*
X-8103794Y-5007664D01*
X-8103798Y-5007671D01*
X-8154091Y-5142516D01*
X-8154888Y-5149927D01*
X-8181629Y-5214477D01*
X-8239024Y-5254322D01*
X-8308849Y-5256813D01*
X-8365810Y-5223011D01*
X-8366451Y-5223653D01*
X-8520214Y-5069890D01*
X-8692180Y-4944951D01*
X-8881586Y-4848444D01*
X-8881587Y-4848443D01*
X-8881588Y-4848443D01*
X-9083757Y-4782754D01*
X-9083759Y-4782753D01*
X-9083760Y-4782753D01*
X-9245043Y-4757208D01*
X-9293713Y-4749500D01*
X-9506287Y-4749500D01*
X-9554958Y-4757208D01*
X-9716240Y-4782753D01*
X-9918415Y-4848444D01*
X-10107821Y-4944951D01*
X-10279787Y-5069890D01*
X-10430110Y-5220213D01*
X-10555049Y-5392179D01*
X-10651556Y-5581585D01*
X-10717247Y-5783760D01*
X-10750500Y-5993713D01*
X-10750500Y-6206286D01*
X-10716484Y-6421055D01*
X-10718123Y-6421314D01*
X-10721262Y-6483883D01*
X-10750658Y-6530710D01*
X-11806273Y-7586325D01*
X-11806277Y-7586330D01*
X-11810317Y-7592377D01*
X-11829701Y-7608574D01*
X-11846214Y-7627693D01*
X-11856057Y-7630599D01*
X-11863931Y-7637180D01*
X-11888995Y-7640327D01*
X-11913223Y-7647483D01*
X-11923074Y-7644607D01*
X-11933256Y-7645886D01*
X-11956046Y-7634981D01*
X-11980293Y-7627903D01*
X-11989299Y-7619071D01*
X-11996283Y-7615729D01*
X-12007003Y-7604832D01*
X-12012158Y-7598902D01*
X-12055886Y-7533458D01*
X-12153458Y-7435886D01*
X-13119493Y-6469851D01*
X-13152978Y-6408528D01*
X-13154285Y-6362772D01*
X-13129500Y-6206286D01*
X-13129500Y-5993713D01*
X-13154285Y-5837227D01*
X-13145330Y-5767933D01*
X-13119496Y-5730151D01*
X-12415886Y-5026543D01*
X-12339225Y-4911811D01*
X-12331207Y-4892455D01*
X-12295482Y-4806206D01*
X-12286420Y-4784328D01*
X-12274618Y-4724998D01*
X-12259500Y-4648996D01*
X-12259500Y-2871006D01*
X-12266281Y-2836920D01*
X-12266281Y-2836917D01*
X-12281623Y-2759790D01*
X-12286420Y-2735672D01*
X-12290633Y-2725500D01*
X-12339223Y-2608192D01*
X-12415888Y-2493454D01*
X-12415889Y-2493453D01*
X-13526897Y-1382446D01*
X-13560382Y-1321123D01*
X-13561689Y-1275372D01*
X-13549500Y-1198417D01*
X-13549500Y-1001583D01*
X-13549500Y-1001577D01*
X-13580291Y-807173D01*
X-13634448Y-640497D01*
X-13641116Y-619975D01*
X-13641118Y-619972D01*
X-13641118Y-619970D01*
X-13695443Y-513352D01*
X-13730476Y-444595D01*
X-13846172Y-285354D01*
X-13985354Y-146172D01*
X-14144595Y-30476D01*
X-14144603Y-30472D01*
X-14319971Y58883D01*
X-14507174Y119710D01*
X-14701578Y150500D01*
X-14701583Y150500D01*
X-14898417Y150500D01*
X-14898422Y150500D01*
X-15092828Y119709D01*
X-15092831Y119709D01*
X-15226120Y76400D01*
X-15295961Y74405D01*
X-15355794Y110485D01*
X-15386622Y173186D01*
X-15382823Y231221D01*
X-15381524Y235392D01*
X-15381522Y235394D01*
X-15330914Y397804D01*
X-15324500Y468384D01*
X-15324500Y1057927D01*
X-15304815Y1124966D01*
X-15289957Y1143796D01*
X-14263950Y2212553D01*
X-14203325Y2247280D01*
X-14133546Y2243719D01*
G37*
%TD.AperFunction*%
%TA.AperFunction,Conductor*%
G36*
X-18658555Y-4363865D02*
G01*
X-18619515Y-4408919D01*
X-18572285Y-4501614D01*
X-18451973Y-4667211D01*
X-18451968Y-4667217D01*
X-18307214Y-4811971D01*
X-18169799Y-4911807D01*
X-18141610Y-4932287D01*
X-18061447Y-4973132D01*
X-17959224Y-5025218D01*
X-17959222Y-5025218D01*
X-17959219Y-5025220D01*
X-17854863Y-5059127D01*
X-17764535Y-5088477D01*
X-17663443Y-5104488D01*
X-17562352Y-5120500D01*
X-17562351Y-5120500D01*
X-17357649Y-5120500D01*
X-17357648Y-5120500D01*
X-17155466Y-5088477D01*
X-16960781Y-5025220D01*
X-16778390Y-4932287D01*
X-16778370Y-4932271D01*
X-16774944Y-4930173D01*
X-16707503Y-4911915D01*
X-16640896Y-4933017D01*
X-16622451Y-4948206D01*
X-15840508Y-5730148D01*
X-15807023Y-5791471D01*
X-15805716Y-5837226D01*
X-15830500Y-5993712D01*
X-15830500Y-6206286D01*
X-15797247Y-6416240D01*
X-15765460Y-6514070D01*
X-15763465Y-6583911D01*
X-15799546Y-6643744D01*
X-15862247Y-6674572D01*
X-15931661Y-6666607D01*
X-15944912Y-6660050D01*
X-18500000Y-5200000D01*
X-19267439Y-5166633D01*
X-19333560Y-5144055D01*
X-19376978Y-5089313D01*
X-19383908Y-5019788D01*
X-19352150Y-4957553D01*
X-19322302Y-4935224D01*
X-19322542Y-4934832D01*
X-19318390Y-4932287D01*
X-19152787Y-4811971D01*
X-19152785Y-4811968D01*
X-19152781Y-4811966D01*
X-19008034Y-4667219D01*
X-19008032Y-4667215D01*
X-19008027Y-4667211D01*
X-18887716Y-4501614D01*
X-18887717Y-4501614D01*
X-18887713Y-4501610D01*
X-18840484Y-4408917D01*
X-18792511Y-4358123D01*
X-18724690Y-4341328D01*
X-18658555Y-4363865D01*
G37*
%TD.AperFunction*%
%TA.AperFunction,Conductor*%
G36*
X-17619961Y280315D02*
G01*
X-17574206Y227511D01*
X-17563000Y176000D01*
X-17563000Y-231329D01*
X-17582685Y-298368D01*
X-17610995Y-329304D01*
X-17614358Y-331912D01*
X-17730580Y-448133D01*
X-17730583Y-448137D01*
X-17814245Y-589603D01*
X-17814246Y-589606D01*
X-17860098Y-747426D01*
X-17860099Y-747432D01*
X-17863000Y-784298D01*
X-17863000Y-1215701D01*
X-17860099Y-1252567D01*
X-17860098Y-1252573D01*
X-17814246Y-1410393D01*
X-17814245Y-1410396D01*
X-17814244Y-1410398D01*
X-17787574Y-1455495D01*
X-17730583Y-1551862D01*
X-17730577Y-1551870D01*
X-17614371Y-1668076D01*
X-17614367Y-1668079D01*
X-17614365Y-1668081D01*
X-17472898Y-1751744D01*
X-17435542Y-1762597D01*
X-17315074Y-1797597D01*
X-17315071Y-1797597D01*
X-17315069Y-1797598D01*
X-17278194Y-1800500D01*
X-17104019Y-1800500D01*
X-17036980Y-1820185D01*
X-17016338Y-1836819D01*
X-15481651Y-3371506D01*
X-15448166Y-3432829D01*
X-15446858Y-3478581D01*
X-15450500Y-3501580D01*
X-15450500Y-3698422D01*
X-15427317Y-3844793D01*
X-15436272Y-3914086D01*
X-15481268Y-3967538D01*
X-15548019Y-3988178D01*
X-15615333Y-3969453D01*
X-15637471Y-3951872D01*
X-16227593Y-3361750D01*
X-16252194Y-3324931D01*
X-16252568Y-3325122D01*
X-16254182Y-3321955D01*
X-16254475Y-3321516D01*
X-16254778Y-3320785D01*
X-16270814Y-3289313D01*
X-16347713Y-3138390D01*
X-16355444Y-3127749D01*
X-16468029Y-2972786D01*
X-16612787Y-2828028D01*
X-16778387Y-2707715D01*
X-16778388Y-2707714D01*
X-16778390Y-2707713D01*
X-16855393Y-2668478D01*
X-16960777Y-2614781D01*
X-17155466Y-2551522D01*
X-17330005Y-2523878D01*
X-17357648Y-2519500D01*
X-17562352Y-2519500D01*
X-17586671Y-2523351D01*
X-17764535Y-2551522D01*
X-17916241Y-2600815D01*
X-17959219Y-2614780D01*
X-17959222Y-2614781D01*
X-17959224Y-2614782D01*
X-18124309Y-2698897D01*
X-18192979Y-2711793D01*
X-18257719Y-2685516D01*
X-18297976Y-2628410D01*
X-18300968Y-2558604D01*
X-18272952Y-2509000D01*
X-18274202Y-2508031D01*
X-18269425Y-2501870D01*
X-18269419Y-2501865D01*
X-18185756Y-2360398D01*
X-18139902Y-2202569D01*
X-18137000Y-2165694D01*
X-18137000Y-1734306D01*
X-18139902Y-1697431D01*
X-18141804Y-1690886D01*
X-18185755Y-1539606D01*
X-18185756Y-1539603D01*
X-18185756Y-1539602D01*
X-18269419Y-1398135D01*
X-18269421Y-1398133D01*
X-18269424Y-1398129D01*
X-18385630Y-1281923D01*
X-18385638Y-1281917D01*
X-18494439Y-1217573D01*
X-18527102Y-1198256D01*
X-18527103Y-1198255D01*
X-18527104Y-1198255D01*
X-18527107Y-1198254D01*
X-18684927Y-1152402D01*
X-18684933Y-1152401D01*
X-18721799Y-1149500D01*
X-18721806Y-1149500D01*
X-19055613Y-1149500D01*
X-19079804Y-1147117D01*
X-19117496Y-1139619D01*
X-19193504Y-1124500D01*
X-19193506Y-1124500D01*
X-19193507Y-1124500D01*
X-19645980Y-1124500D01*
X-19713019Y-1104815D01*
X-19733661Y-1088181D01*
X-19752312Y-1069530D01*
X-19897894Y-981522D01*
X-19986769Y-953828D01*
X-20060304Y-930914D01*
X-20060306Y-930913D01*
X-20060308Y-930913D01*
X-20109722Y-926423D01*
X-20130884Y-924500D01*
X-20776000Y-924500D01*
X-20843039Y-904815D01*
X-20888794Y-852011D01*
X-20900000Y-800500D01*
X-20900000Y176000D01*
X-20880315Y243039D01*
X-20827511Y288794D01*
X-20776000Y300000D01*
X-17687000Y300000D01*
X-17619961Y280315D01*
G37*
%TD.AperFunction*%
%TA.AperFunction,Conductor*%
G36*
X-18438162Y-2689485D02*
G01*
X-18418303Y-2690906D01*
X-18405704Y-2700337D01*
X-18390778Y-2705328D01*
X-18378308Y-2720845D01*
X-18362369Y-2732777D01*
X-18356869Y-2747523D01*
X-18347011Y-2759790D01*
X-18344910Y-2779587D01*
X-18337952Y-2798241D01*
X-18341298Y-2813619D01*
X-18339636Y-2829270D01*
X-18348572Y-2847060D01*
X-18352803Y-2866514D01*
X-18369637Y-2889001D01*
X-18370995Y-2891706D01*
X-18373954Y-2894769D01*
X-18451973Y-2972788D01*
X-18572285Y-3138386D01*
X-18619515Y-3231080D01*
X-18667490Y-3281876D01*
X-18735311Y-3298671D01*
X-18801446Y-3276134D01*
X-18840485Y-3231080D01*
X-18854201Y-3204161D01*
X-18887713Y-3138390D01*
X-18895444Y-3127749D01*
X-19008029Y-2972786D01*
X-19018634Y-2962181D01*
X-19052119Y-2900858D01*
X-19047135Y-2831166D01*
X-19005263Y-2775233D01*
X-18939799Y-2750816D01*
X-18930953Y-2750500D01*
X-18721814Y-2750500D01*
X-18721806Y-2750500D01*
X-18684931Y-2747598D01*
X-18684929Y-2747597D01*
X-18684927Y-2747597D01*
X-18608870Y-2725500D01*
X-18527102Y-2701744D01*
X-18524763Y-2700360D01*
X-18522689Y-2699834D01*
X-18519946Y-2698647D01*
X-18519755Y-2699089D01*
X-18505470Y-2695463D01*
X-18487995Y-2685922D01*
X-18472298Y-2687044D01*
X-18457043Y-2683173D01*
X-18438162Y-2689485D01*
G37*
%TD.AperFunction*%
%TA.AperFunction,Conductor*%
G36*
X-6710219Y6025899D02*
G01*
X-6665872Y5997398D01*
X-6236319Y5567845D01*
X-6202834Y5506522D01*
X-6200000Y5480164D01*
X-6200000Y4900305D01*
X-6219685Y4833266D01*
X-6251114Y4799988D01*
X-6314640Y4753833D01*
X-6314649Y4753826D01*
X-6453826Y4614649D01*
X-6453826Y4614648D01*
X-6453828Y4614646D01*
X-6511756Y4534915D01*
X-6569524Y4455405D01*
X-6576916Y4440898D01*
X-6624892Y4390103D01*
X-6692713Y4373309D01*
X-6698621Y4373704D01*
X-6718384Y4375500D01*
X-7231616Y4375500D01*
X-7250855Y4373752D01*
X-7302193Y4369087D01*
X-7464607Y4318478D01*
X-7610189Y4230470D01*
X-7730470Y4110189D01*
X-7818478Y3964607D01*
X-7869087Y3802193D01*
X-7875500Y3731614D01*
X-7875500Y3068387D01*
X-7869087Y2997808D01*
X-7869087Y2997806D01*
X-7869086Y2997804D01*
X-7854850Y2952117D01*
X-7818477Y2835392D01*
X-7782888Y2776520D01*
X-7765052Y2708966D01*
X-7786570Y2642492D01*
X-7801320Y2624693D01*
X-7822970Y2603042D01*
X-7822971Y2603041D01*
X-7911999Y2458706D01*
X-7912004Y2458695D01*
X-7965349Y2297710D01*
X-7975500Y2198353D01*
X-7975500Y1601663D01*
X-7975499Y1601645D01*
X-7965350Y1502293D01*
X-7965349Y1502290D01*
X-7912004Y1341306D01*
X-7912002Y1341301D01*
X-7883194Y1294597D01*
X-7864754Y1227204D01*
X-7885677Y1160541D01*
X-7939319Y1115771D01*
X-7988733Y1105500D01*
X-8663482Y1105500D01*
X-8730521Y1125185D01*
X-8751163Y1141819D01*
X-9738182Y2128839D01*
X-9771667Y2190162D01*
X-9774501Y2216520D01*
X-9774501Y2526923D01*
X-9774502Y2526948D01*
X-9776106Y2547331D01*
X-9777346Y2563098D01*
X-9822319Y2717894D01*
X-9859843Y2781344D01*
X-9904370Y2856637D01*
X-9904379Y2856649D01*
X-10018352Y2970622D01*
X-10018364Y2970631D01*
X-10157104Y3052680D01*
X-10157111Y3052683D01*
X-10311898Y3097654D01*
X-10311904Y3097655D01*
X-10348065Y3100500D01*
X-10751923Y3100500D01*
X-10751948Y3100499D01*
X-10788099Y3097654D01*
X-10942890Y3052683D01*
X-10942897Y3052680D01*
X-11081637Y2970631D01*
X-11081649Y2970622D01*
X-11195622Y2856649D01*
X-11195631Y2856637D01*
X-11277680Y2717897D01*
X-11277683Y2717890D01*
X-11322654Y2563103D01*
X-11322655Y2563097D01*
X-11325500Y2526943D01*
X-11325500Y1673078D01*
X-11325499Y1673053D01*
X-11322654Y1636902D01*
X-11277683Y1482111D01*
X-11277680Y1482104D01*
X-11195631Y1343364D01*
X-11195622Y1343352D01*
X-11081649Y1229379D01*
X-11081645Y1229376D01*
X-11081643Y1229374D01*
X-11081640Y1229373D01*
X-11081637Y1229370D01*
X-11041947Y1205898D01*
X-10942894Y1147319D01*
X-10930768Y1143796D01*
X-10788103Y1102347D01*
X-10788100Y1102347D01*
X-10788098Y1102346D01*
X-10751935Y1099500D01*
X-10741527Y1099501D01*
X-10674488Y1079822D01*
X-10653838Y1063182D01*
X-10302837Y712181D01*
X-10269352Y650858D01*
X-10274336Y581166D01*
X-10316208Y525233D01*
X-10381672Y500816D01*
X-10390518Y500500D01*
X-10751923Y500500D01*
X-10751948Y500499D01*
X-10788099Y497654D01*
X-10942890Y452683D01*
X-10942897Y452680D01*
X-11081637Y370631D01*
X-11081649Y370622D01*
X-11195622Y256649D01*
X-11195631Y256637D01*
X-11277680Y117897D01*
X-11277683Y117890D01*
X-11322654Y-36897D01*
X-11322655Y-36903D01*
X-11325500Y-73057D01*
X-11325500Y-73065D01*
X-11325500Y-420886D01*
X-11325499Y-666500D01*
X-11328050Y-675186D01*
X-11326761Y-684147D01*
X-11337739Y-708183D01*
X-11345183Y-733539D01*
X-11352026Y-739467D01*
X-11355786Y-747703D01*
X-11378018Y-761989D01*
X-11397987Y-779294D01*
X-11408503Y-781581D01*
X-11414564Y-785477D01*
X-11449499Y-790500D01*
X-11550501Y-790500D01*
X-11617540Y-770815D01*
X-11663295Y-718011D01*
X-11674501Y-666500D01*
X-11674501Y-640497D01*
X-11672118Y-616304D01*
X-11654793Y-529212D01*
X-11654793Y585797D01*
X-11683634Y730784D01*
X-11683635Y730785D01*
X-11683635Y730789D01*
X-11698154Y765842D01*
X-11740206Y867365D01*
X-11740208Y867369D01*
X-11740209Y867371D01*
X-11785164Y934651D01*
X-11822341Y990292D01*
X-11905550Y1073501D01*
X-11908613Y1077069D01*
X-11921124Y1104800D01*
X-11935694Y1131483D01*
X-11935348Y1136328D01*
X-11937346Y1140757D01*
X-11932880Y1170844D01*
X-11930710Y1201175D01*
X-11927675Y1205898D01*
X-11927085Y1209870D01*
X-11919683Y1218335D01*
X-11902211Y1245521D01*
X-11804374Y1343357D01*
X-11722319Y1482106D01*
X-11677346Y1636902D01*
X-11674500Y1673065D01*
X-11674501Y2526934D01*
X-11676106Y2547333D01*
X-11661741Y2615708D01*
X-11647366Y2635052D01*
X-11647769Y2635354D01*
X-11635161Y2652196D01*
X-11556204Y2757669D01*
X-11505909Y2892517D01*
X-11499500Y2952127D01*
X-11499501Y3987771D01*
X-11479817Y4054809D01*
X-11463182Y4075451D01*
X-11125451Y4413181D01*
X-11064128Y4446666D01*
X-11037770Y4449500D01*
X-8626080Y4449500D01*
X-8528538Y4468904D01*
X-8481087Y4478342D01*
X-8344505Y4534916D01*
X-8263794Y4588845D01*
X-8221584Y4617048D01*
X-6841234Y5997398D01*
X-6779911Y6030883D01*
X-6710219Y6025899D01*
G37*
%TD.AperFunction*%
%TD*%
%TA.AperFunction,Conductor*%
%TO.N,/ntr*%
G36*
X8137539Y17580315D02*
G01*
X8183294Y17527511D01*
X8194500Y17476000D01*
X8194500Y9645863D01*
X8174815Y9578824D01*
X8158181Y9558182D01*
X5027503Y6427505D01*
X4966180Y6394020D01*
X4961096Y6393025D01*
X4879573Y6378828D01*
X4879561Y6378826D01*
X4721513Y6325457D01*
X4637026Y6296928D01*
X4637024Y6296928D01*
X4637020Y6296926D01*
X4409828Y6178963D01*
X4203311Y6027708D01*
X4203306Y6027703D01*
X4068918Y5893317D01*
X4061988Y5888687D01*
X4059047Y5884450D01*
X4028695Y5866440D01*
X4001236Y5855065D01*
X4001231Y5855063D01*
X3802502Y5772749D01*
X3802494Y5772745D01*
X3770157Y5754075D01*
X3751487Y5743295D01*
X3547012Y5625242D01*
X3546997Y5625232D01*
X3394432Y5508164D01*
X3312960Y5445649D01*
X3312954Y5445644D01*
X3104131Y5236819D01*
X3042808Y5203334D01*
X3016450Y5200500D01*
X658729Y5200500D01*
X591690Y5220185D01*
X575755Y5232351D01*
X572233Y5235523D01*
X572230Y5235526D01*
X427593Y5340612D01*
X264267Y5413329D01*
X264265Y5413330D01*
X136594Y5440467D01*
X89391Y5450500D01*
X89390Y5450500D01*
X5123Y5450500D01*
X-5117Y5450924D01*
X-211875Y5468057D01*
X-232075Y5471427D01*
X-385585Y5510301D01*
X-442826Y5542826D01*
X-857958Y5957958D01*
X-891443Y6019281D01*
X-894267Y6047229D01*
X-891065Y6296926D01*
X-872166Y7771144D01*
X-869878Y7778583D01*
X-871043Y7786277D01*
X-859750Y7811508D01*
X-851623Y7837924D01*
X-844956Y7844557D01*
X-842497Y7850049D01*
X-816002Y7873360D01*
X-650885Y7981236D01*
X-632885Y7990977D01*
X-447586Y8072256D01*
X-428231Y8078901D01*
X-232075Y8128574D01*
X-211877Y8131944D01*
X-5117Y8149076D01*
X5123Y8149500D01*
X89389Y8149500D01*
X89391Y8149500D01*
X264267Y8186671D01*
X427593Y8259388D01*
X572230Y8364474D01*
X691859Y8497335D01*
X781250Y8652165D01*
X836497Y8822197D01*
X855185Y9000000D01*
X836497Y9177803D01*
X781250Y9347835D01*
X691859Y9502665D01*
X623285Y9578824D01*
X572235Y9635522D01*
X572232Y9635524D01*
X572231Y9635525D01*
X572230Y9635526D01*
X427593Y9740612D01*
X269721Y9810901D01*
X216485Y9856151D01*
X196163Y9923000D01*
X196558Y9934136D01*
X205500Y10044894D01*
X205500Y11914724D01*
X205500Y11914734D01*
X194781Y12094048D01*
X194781Y12094053D01*
X173593Y12198602D01*
X146658Y12331510D01*
X146656Y12331515D01*
X146656Y12331519D01*
X127654Y12397473D01*
X127647Y12397496D01*
X67708Y12566831D01*
X67701Y12566847D01*
X49087Y12602560D01*
X48183Y12607139D01*
X47604Y12606859D01*
X-69024Y12849038D01*
X-74346Y12861886D01*
X-115929Y12980726D01*
X-119777Y12994085D01*
X-120240Y12996111D01*
X-120243Y12996126D01*
X-170597Y13168571D01*
X-270353Y13389367D01*
X-303563Y13449455D01*
X-389583Y13585266D01*
X-399677Y13601204D01*
X-399679Y13601206D01*
X-556658Y13785756D01*
X-1219524Y14448622D01*
X-1253009Y14509945D01*
X-1255060Y14525030D01*
X-1255139Y14525020D01*
X-1255631Y14529049D01*
X-1304404Y14786823D01*
X-1304405Y14786828D01*
X-1304406Y14786829D01*
X-1304406Y14786833D01*
X-1391059Y15034474D01*
X-1513654Y15266433D01*
X-1669450Y15477531D01*
X-1854969Y15663050D01*
X-2066067Y15818846D01*
X-2066071Y15818848D01*
X-2066072Y15818849D01*
X-2298022Y15941439D01*
X-2298023Y15941440D01*
X-2298026Y15941441D01*
X-2545667Y16028094D01*
X-2545668Y16028095D01*
X-2545673Y16028096D01*
X-2545678Y16028097D01*
X-2803446Y16076869D01*
X-2803456Y16076870D01*
X-2803457Y16076870D01*
X-2912608Y16083000D01*
X-5087392Y16083000D01*
X-5196543Y16076870D01*
X-5196544Y16076870D01*
X-5196555Y16076869D01*
X-5454323Y16028097D01*
X-5454328Y16028096D01*
X-5578154Y15984768D01*
X-5701974Y15941441D01*
X-5701976Y15941441D01*
X-5701979Y15941439D01*
X-5933929Y15818849D01*
X-6145032Y15663050D01*
X-6330550Y15477532D01*
X-6486349Y15266429D01*
X-6608939Y15034479D01*
X-6695922Y14785895D01*
X-6701243Y14773050D01*
X-6724759Y14724217D01*
X-6731487Y14712044D01*
X-6783532Y14629216D01*
X-6791578Y14617876D01*
X-6852583Y14541378D01*
X-6861849Y14531010D01*
X-6931010Y14461849D01*
X-6941378Y14452583D01*
X-7017876Y14391578D01*
X-7029218Y14383531D01*
X-7112048Y14331486D01*
X-7124216Y14324760D01*
X-7212360Y14282311D01*
X-7225199Y14276993D01*
X-7267623Y14262148D01*
X-7314221Y14245843D01*
X-7379040Y14221475D01*
X-7389554Y14217244D01*
X-7402361Y14212022D01*
X-7402365Y14212020D01*
X-7618127Y14101784D01*
X-7723963Y14024057D01*
X-7789648Y14000240D01*
X-7797362Y14000000D01*
X-8340911Y14000000D01*
X-8370352Y14008645D01*
X-8400338Y14015168D01*
X-8405354Y14018923D01*
X-8407950Y14019685D01*
X-8428592Y14036319D01*
X-8513181Y14120908D01*
X-8546666Y14182231D01*
X-8549500Y14208589D01*
X-8549500Y14350140D01*
X-8549500Y14350156D01*
X-8552320Y14408995D01*
X-8597234Y14666922D01*
X-8680993Y14914970D01*
X-8743041Y15034474D01*
X-8801633Y15147323D01*
X-8956329Y15358536D01*
X-8956333Y15358541D01*
X-8963681Y15365889D01*
X-8978385Y15392817D01*
X-8994977Y15418635D01*
X-8995869Y15424836D01*
X-8997166Y15427212D01*
X-9000000Y15453570D01*
X-9000000Y15546430D01*
X-8980315Y15613469D01*
X-8963681Y15634111D01*
X-8956333Y15641459D01*
X-8801635Y15852675D01*
X-8680993Y16085030D01*
X-8597234Y16333078D01*
X-8552320Y16591005D01*
X-8549500Y16649844D01*
X-8549500Y17350156D01*
X-8552320Y17408995D01*
X-8560284Y17454729D01*
X-8552392Y17524150D01*
X-8508220Y17578285D01*
X-8441793Y17599946D01*
X-8438122Y17600000D01*
X8070500Y17600000D01*
X8137539Y17580315D01*
G37*
%TD.AperFunction*%
%TD*%
%TA.AperFunction,Conductor*%
%TO.N,/ac1*%
G36*
X-3184323Y14280315D02*
G01*
X-3163681Y14263681D01*
X-1621207Y12721207D01*
X-1587997Y12661119D01*
X-1567169Y12569866D01*
X-1567165Y12569853D01*
X-1465138Y12278278D01*
X-1465132Y12278264D01*
X-1331096Y11999936D01*
X-1319007Y11980697D01*
X-1300000Y11914724D01*
X-1300000Y10044894D01*
X-1319685Y9977855D01*
X-1328741Y9965511D01*
X-2226105Y8888674D01*
X-2233683Y8880376D01*
X-2278167Y8835893D01*
X-2456935Y8611725D01*
X-2458622Y8609655D01*
X-2762819Y8244617D01*
X-2820859Y8205718D01*
X-2858079Y8200000D01*
X-6700500Y8200000D01*
X-6767539Y8219685D01*
X-6813294Y8272489D01*
X-6824500Y8324000D01*
X-6824500Y8579394D01*
X-6824500Y8579410D01*
X-6827313Y8638104D01*
X-6872107Y8895343D01*
X-6872109Y8895347D01*
X-6872109Y8895351D01*
X-6893483Y8958648D01*
X-6900000Y8998319D01*
X-6900000Y12707796D01*
X-6880315Y12774835D01*
X-6827511Y12820590D01*
X-6816970Y12824832D01*
X-6641592Y12886199D01*
X-6388555Y13008055D01*
X-6150752Y13157477D01*
X-5931175Y13332584D01*
X-5732584Y13531175D01*
X-5557477Y13750752D01*
X-5408055Y13988555D01*
X-5356728Y14095136D01*
X-5291876Y14229802D01*
X-5245054Y14281661D01*
X-5180156Y14300000D01*
X-3251362Y14300000D01*
X-3184323Y14280315D01*
G37*
%TD.AperFunction*%
%TD*%
%TA.AperFunction,Conductor*%
%TO.N,/load*%
G36*
X15596832Y17580315D02*
G01*
X15636122Y17539797D01*
X15882329Y17129452D01*
X15900000Y17065655D01*
X15900000Y9482627D01*
X17712619Y7210842D01*
X18172928Y6633930D01*
X18199352Y6569250D01*
X18200000Y6556593D01*
X18200000Y1752642D01*
X18180315Y1685603D01*
X18162130Y1663436D01*
X17387066Y915098D01*
X15483754Y-922583D01*
X15336037Y-1065206D01*
X15274136Y-1097610D01*
X15249907Y-1100000D01*
X14497603Y-1100000D01*
X14430564Y-1080315D01*
X14409922Y-1063681D01*
X14268824Y-922583D01*
X14213060Y-878113D01*
X14049248Y-747477D01*
X13811445Y-598055D01*
X13811442Y-598053D01*
X13558411Y-476200D01*
X13293329Y-383443D01*
X13293317Y-383439D01*
X13019512Y-320945D01*
X13019496Y-320943D01*
X12790685Y-295162D01*
X12788385Y-294881D01*
X12747508Y-289500D01*
X12747506Y-289500D01*
X12452494Y-289500D01*
X12411600Y-294883D01*
X12409320Y-295161D01*
X12180503Y-320943D01*
X12180487Y-320945D01*
X11906682Y-383439D01*
X11906670Y-383443D01*
X11641588Y-476200D01*
X11388557Y-598053D01*
X11150753Y-747476D01*
X10931175Y-922583D01*
X10790078Y-1063681D01*
X10728755Y-1097166D01*
X10702397Y-1100000D01*
X9824000Y-1100000D01*
X9756961Y-1080315D01*
X9711206Y-1027511D01*
X9700000Y-976000D01*
X9700000Y1375500D01*
X9702550Y1384186D01*
X9701262Y1393147D01*
X9712240Y1417188D01*
X9719685Y1442539D01*
X9726525Y1448467D01*
X9730287Y1456703D01*
X9752521Y1470993D01*
X9772489Y1488294D01*
X9783003Y1490582D01*
X9789065Y1494477D01*
X9824000Y1499500D01*
X10027085Y1499500D01*
X10094124Y1479815D01*
X10139879Y1427011D01*
X10148444Y1400951D01*
X10156950Y1360386D01*
X10156950Y1360385D01*
X10156953Y1360375D01*
X10247342Y1128731D01*
X10374639Y915098D01*
X10535348Y725351D01*
X10535350Y725349D01*
X10725097Y564640D01*
X10725103Y564637D01*
X10725106Y564634D01*
X10938727Y437344D01*
X10938730Y437343D01*
X11170374Y346954D01*
X11170381Y346952D01*
X11170386Y346950D01*
X11413763Y295919D01*
X11517158Y289500D01*
X11517169Y289500D01*
X13682831Y289500D01*
X13682842Y289500D01*
X13786237Y295919D01*
X14029614Y346950D01*
X14029621Y346954D01*
X14029625Y346954D01*
X14108980Y377920D01*
X14261273Y437344D01*
X14474894Y564634D01*
X14474898Y564639D01*
X14474902Y564640D01*
X14664649Y725349D01*
X14664651Y725351D01*
X14825360Y915098D01*
X14825361Y915102D01*
X14825366Y915106D01*
X14952656Y1128727D01*
X15012080Y1281020D01*
X15043046Y1360375D01*
X15043046Y1360379D01*
X15043050Y1360386D01*
X15094081Y1603763D01*
X15100500Y1707158D01*
X15100500Y3027110D01*
X15120185Y3094149D01*
X15136819Y3114791D01*
X15160653Y3138626D01*
X15711196Y3689169D01*
X15807022Y3799968D01*
X15938701Y4010913D01*
X16033863Y4240654D01*
X16067274Y4385075D01*
X16089911Y4482920D01*
X16089911Y4482921D01*
X16089912Y4482925D01*
X16100500Y4629031D01*
X16100500Y6270978D01*
X16089913Y6417075D01*
X16033864Y6659346D01*
X15938702Y6889087D01*
X15807023Y7100032D01*
X15807020Y7100036D01*
X15711225Y7210800D01*
X15711217Y7210809D01*
X15711202Y7210826D01*
X15110831Y7811196D01*
X15000032Y7907022D01*
X14789087Y8038701D01*
X14643134Y8099157D01*
X14559345Y8133864D01*
X14317080Y8189912D01*
X14212713Y8197475D01*
X14170969Y8200500D01*
X11029022Y8200500D01*
X10882925Y8189913D01*
X10882921Y8189913D01*
X10882919Y8189912D01*
X10640654Y8133865D01*
X10410911Y8038701D01*
X10199964Y7907021D01*
X10089200Y7811226D01*
X10089158Y7811187D01*
X9911681Y7633709D01*
X9850358Y7600224D01*
X9780666Y7605208D01*
X9724733Y7647080D01*
X9700316Y7712544D01*
X9700000Y7721390D01*
X9700000Y17476000D01*
X9719685Y17543039D01*
X9772489Y17588794D01*
X9824000Y17600000D01*
X15529793Y17600000D01*
X15596832Y17580315D01*
G37*
%TD.AperFunction*%
%TD*%
M02*
