%TF.GenerationSoftware,KiCad,Pcbnew,9.0.2-9.0.2-0~ubuntu24.04.1*%
%TF.CreationDate,2025-05-26T21:32:44+03:00*%
%TF.ProjectId,PCutSpeedCTRL,50437574-5370-4656-9564-4354524c2e6b,V01*%
%TF.SameCoordinates,PX5f5e100PY5f5e100*%
%TF.FileFunction,Paste,Bot*%
%TF.FilePolarity,Positive*%
%FSLAX46Y46*%
G04 Gerber Fmt 4.6, Leading zero omitted, Abs format (unit mm)*
G04 Created by KiCad (PCBNEW 9.0.2-9.0.2-0~ubuntu24.04.1) date 2025-05-26 21:32:44*
%MOMM*%
%LPD*%
G01*
G04 APERTURE LIST*
G04 Aperture macros list*
%AMRoundRect*
0 Rectangle with rounded corners*
0 $1 Rounding radius*
0 $2 $3 $4 $5 $6 $7 $8 $9 X,Y pos of 4 corners*
0 Add a 4 corners polygon primitive as box body*
4,1,4,$2,$3,$4,$5,$6,$7,$8,$9,$2,$3,0*
0 Add four circle primitives for the rounded corners*
1,1,$1+$1,$2,$3*
1,1,$1+$1,$4,$5*
1,1,$1+$1,$6,$7*
1,1,$1+$1,$8,$9*
0 Add four rect primitives between the rounded corners*
20,1,$1+$1,$2,$3,$4,$5,0*
20,1,$1+$1,$4,$5,$6,$7,0*
20,1,$1+$1,$6,$7,$8,$9,0*
20,1,$1+$1,$8,$9,$2,$3,0*%
G04 Aperture macros list end*
%ADD10RoundRect,0.204545X-0.245455X-0.345455X0.245455X-0.345455X0.245455X0.345455X-0.245455X0.345455X0*%
%ADD11RoundRect,0.225000X0.225000X0.250000X-0.225000X0.250000X-0.225000X-0.250000X0.225000X-0.250000X0*%
%ADD12RoundRect,0.200000X0.200000X0.275000X-0.200000X0.275000X-0.200000X-0.275000X0.200000X-0.275000X0*%
%ADD13RoundRect,0.204545X0.345455X-0.245455X0.345455X0.245455X-0.345455X0.245455X-0.345455X-0.245455X0*%
%ADD14RoundRect,0.166667X-0.648181X-0.353553X-0.353553X-0.648181X0.648181X0.353553X0.353553X0.648181X0*%
%ADD15RoundRect,0.200000X-0.200000X-0.275000X0.200000X-0.275000X0.200000X0.275000X-0.200000X0.275000X0*%
%ADD16RoundRect,0.204545X-0.345455X0.245455X-0.345455X-0.245455X0.345455X-0.245455X0.345455X0.245455X0*%
%ADD17RoundRect,0.195122X0.204878X0.504878X-0.204878X0.504878X-0.204878X-0.504878X0.204878X-0.504878X0*%
%ADD18RoundRect,0.200000X0.275000X-0.200000X0.275000X0.200000X-0.275000X0.200000X-0.275000X-0.200000X0*%
%ADD19RoundRect,0.200000X-0.275000X0.200000X-0.275000X-0.200000X0.275000X-0.200000X0.275000X0.200000X0*%
%ADD20RoundRect,0.200000X-0.500000X0.200000X-0.500000X-0.200000X0.500000X-0.200000X0.500000X0.200000X0*%
%ADD21RoundRect,0.166667X-0.708333X0.208333X-0.708333X-0.208333X0.708333X-0.208333X0.708333X0.208333X0*%
%ADD22RoundRect,0.137500X-0.137500X0.362500X-0.137500X-0.362500X0.137500X-0.362500X0.137500X0.362500X0*%
%ADD23RoundRect,0.150000X-0.150000X0.350000X-0.150000X-0.350000X0.150000X-0.350000X0.150000X0.350000X0*%
%ADD24RoundRect,0.150000X0.725000X0.150000X-0.725000X0.150000X-0.725000X-0.150000X0.725000X-0.150000X0*%
%ADD25RoundRect,0.204545X0.245455X0.345455X-0.245455X0.345455X-0.245455X-0.345455X0.245455X-0.345455X0*%
%ADD26RoundRect,0.200000X0.500000X-0.200000X0.500000X0.200000X-0.500000X0.200000X-0.500000X-0.200000X0*%
%ADD27RoundRect,0.150000X0.350000X0.150000X-0.350000X0.150000X-0.350000X-0.150000X0.350000X-0.150000X0*%
G04 APERTURE END LIST*
D10*
%TO.C,D7*%
X-10000000Y10400000D03*
X-13000000Y10400000D03*
%TD*%
D11*
%TO.C,C6*%
X-8575000Y1900000D03*
X-7025000Y1900000D03*
%TD*%
D12*
%TO.C,C9*%
X-16225000Y800000D03*
X-14575000Y800000D03*
%TD*%
D13*
%TO.C,D2*%
X-13046990Y17000000D03*
X-13046990Y14000000D03*
%TD*%
D14*
%TO.C,C8*%
X8566726Y-2766726D03*
X6233274Y-433274D03*
%TD*%
D15*
%TO.C,R14*%
X-18825000Y2250000D03*
X-20475000Y2250000D03*
%TD*%
D16*
%TO.C,D1*%
X-10600000Y14000000D03*
X-10600000Y17000000D03*
%TD*%
D17*
%TO.C,C4*%
X-11900000Y12400000D03*
X-9900000Y12400000D03*
%TD*%
D15*
%TO.C,R7*%
X1125000Y700000D03*
X-525000Y700000D03*
%TD*%
D10*
%TO.C,D4*%
X8800000Y-7800000D03*
X5800000Y-7800000D03*
%TD*%
D18*
%TO.C,R11*%
X2900000Y-10575000D03*
X2900000Y-12225000D03*
%TD*%
D19*
%TO.C,R13*%
X-20462500Y-1825000D03*
X-20462500Y-175000D03*
%TD*%
D13*
%TO.C,D5*%
X4700000Y-11800000D03*
X4700000Y-14800000D03*
%TD*%
%TO.C,D3*%
X9900000Y-11800000D03*
X9900000Y-14800000D03*
%TD*%
D12*
%TO.C,R12*%
X6475000Y-12200000D03*
X8125000Y-12200000D03*
%TD*%
D18*
%TO.C,R6*%
X-7700000Y-9075000D03*
X-7700000Y-10725000D03*
%TD*%
D20*
%TO.C,D9*%
X8000000Y-15400000D03*
X8000000Y-13400000D03*
%TD*%
D15*
%TO.C,R16*%
X-10775000Y-14800000D03*
X-12425000Y-14800000D03*
%TD*%
D12*
%TO.C,R15*%
X11675000Y-15100000D03*
X13325000Y-15100000D03*
%TD*%
D21*
%TO.C,R5*%
X3700000Y-350000D03*
X3700000Y2950000D03*
%TD*%
%TO.C,R4*%
X6000000Y1250000D03*
X6000000Y4550000D03*
%TD*%
D19*
%TO.C,R3*%
X12000000Y-9725000D03*
X12000000Y-8075000D03*
%TD*%
D22*
%TO.C,U5*%
X-10550000Y-500000D03*
X-11500000Y-500000D03*
X-12450000Y-500000D03*
X-12450000Y2100000D03*
X-10550000Y2100000D03*
%TD*%
D23*
%TO.C,Q2*%
X13550000Y-13337500D03*
X11650000Y-13337500D03*
X12600000Y-11062500D03*
%TD*%
D24*
%TO.C,U3*%
X-8375000Y-3505000D03*
X-8375000Y-2235000D03*
X-8375000Y-965000D03*
X-8375000Y305000D03*
X-3225000Y305000D03*
X-3225000Y-965000D03*
X-3225000Y-2235000D03*
X-3225000Y-3505000D03*
%TD*%
D23*
%TO.C,U4*%
X950000Y-5337500D03*
X-950000Y-5337500D03*
X0Y-3062500D03*
%TD*%
D19*
%TO.C,R10*%
X13500000Y-9725000D03*
X13500000Y-8075000D03*
%TD*%
D25*
%TO.C,D6*%
X-13000000Y8300000D03*
X-10000000Y8300000D03*
%TD*%
D12*
%TO.C,C5*%
X-8625000Y3400000D03*
X-6975000Y3400000D03*
%TD*%
%TO.C,R8*%
X-525000Y-1100000D03*
X1125000Y-1100000D03*
%TD*%
D15*
%TO.C,R9*%
X-7075000Y8200000D03*
X-8725000Y8200000D03*
%TD*%
D26*
%TO.C,D8*%
X2800000Y-13400000D03*
X2800000Y-15400000D03*
%TD*%
D18*
%TO.C,C7*%
X10500000Y-8075000D03*
X10500000Y-9725000D03*
%TD*%
D27*
%TO.C,Q3*%
X-19137500Y-1950000D03*
X-19137500Y-50000D03*
X-16862500Y-1000000D03*
%TD*%
M02*
