%TF.GenerationSoftware,KiCad,Pcbnew,9.0.2-9.0.2-0~ubuntu24.04.1*%
%TF.CreationDate,2025-05-26T21:32:44+03:00*%
%TF.ProjectId,PCutSpeedCTRL,50437574-5370-4656-9564-4354524c2e6b,V01*%
%TF.SameCoordinates,PX5f5e100PY5f5e100*%
%TF.FileFunction,Legend,Bot*%
%TF.FilePolarity,Positive*%
%FSLAX46Y46*%
G04 Gerber Fmt 4.6, Leading zero omitted, Abs format (unit mm)*
G04 Created by KiCad (PCBNEW 9.0.2-9.0.2-0~ubuntu24.04.1) date 2025-05-26 21:32:44*
%MOMM*%
%LPD*%
G01*
G04 APERTURE LIST*
%ADD10C,0.150000*%
%ADD11C,0.120000*%
%ADD12C,0.200000*%
G04 APERTURE END LIST*
D10*
X-7561906Y9845181D02*
X-7561906Y10845181D01*
X-7561906Y10845181D02*
X-7800001Y10845181D01*
X-7800001Y10845181D02*
X-7942858Y10797562D01*
X-7942858Y10797562D02*
X-8038096Y10702324D01*
X-8038096Y10702324D02*
X-8085715Y10607086D01*
X-8085715Y10607086D02*
X-8133334Y10416610D01*
X-8133334Y10416610D02*
X-8133334Y10273753D01*
X-8133334Y10273753D02*
X-8085715Y10083277D01*
X-8085715Y10083277D02*
X-8038096Y9988039D01*
X-8038096Y9988039D02*
X-7942858Y9892800D01*
X-7942858Y9892800D02*
X-7800001Y9845181D01*
X-7800001Y9845181D02*
X-7561906Y9845181D01*
X-8466668Y10845181D02*
X-9133334Y10845181D01*
X-9133334Y10845181D02*
X-8704763Y9845181D01*
X-3566668Y1513896D02*
X-3528572Y1475800D01*
X-3528572Y1475800D02*
X-3414287Y1437705D01*
X-3414287Y1437705D02*
X-3338096Y1437705D01*
X-3338096Y1437705D02*
X-3223810Y1475800D01*
X-3223810Y1475800D02*
X-3147620Y1551991D01*
X-3147620Y1551991D02*
X-3109525Y1628181D01*
X-3109525Y1628181D02*
X-3071429Y1780562D01*
X-3071429Y1780562D02*
X-3071429Y1894848D01*
X-3071429Y1894848D02*
X-3109525Y2047229D01*
X-3109525Y2047229D02*
X-3147620Y2123420D01*
X-3147620Y2123420D02*
X-3223810Y2199610D01*
X-3223810Y2199610D02*
X-3338096Y2237705D01*
X-3338096Y2237705D02*
X-3414287Y2237705D01*
X-3414287Y2237705D02*
X-3528572Y2199610D01*
X-3528572Y2199610D02*
X-3566668Y2161515D01*
X-4252382Y2237705D02*
X-4100001Y2237705D01*
X-4100001Y2237705D02*
X-4023810Y2199610D01*
X-4023810Y2199610D02*
X-3985715Y2161515D01*
X-3985715Y2161515D02*
X-3909525Y2047229D01*
X-3909525Y2047229D02*
X-3871429Y1894848D01*
X-3871429Y1894848D02*
X-3871429Y1590086D01*
X-3871429Y1590086D02*
X-3909525Y1513896D01*
X-3909525Y1513896D02*
X-3947620Y1475800D01*
X-3947620Y1475800D02*
X-4023810Y1437705D01*
X-4023810Y1437705D02*
X-4176191Y1437705D01*
X-4176191Y1437705D02*
X-4252382Y1475800D01*
X-4252382Y1475800D02*
X-4290477Y1513896D01*
X-4290477Y1513896D02*
X-4328572Y1590086D01*
X-4328572Y1590086D02*
X-4328572Y1780562D01*
X-4328572Y1780562D02*
X-4290477Y1856753D01*
X-4290477Y1856753D02*
X-4252382Y1894848D01*
X-4252382Y1894848D02*
X-4176191Y1932943D01*
X-4176191Y1932943D02*
X-4023810Y1932943D01*
X-4023810Y1932943D02*
X-3947620Y1894848D01*
X-3947620Y1894848D02*
X-3909525Y1856753D01*
X-3909525Y1856753D02*
X-3871429Y1780562D01*
X-14766668Y1613896D02*
X-14728572Y1575800D01*
X-14728572Y1575800D02*
X-14614287Y1537705D01*
X-14614287Y1537705D02*
X-14538096Y1537705D01*
X-14538096Y1537705D02*
X-14423810Y1575800D01*
X-14423810Y1575800D02*
X-14347620Y1651991D01*
X-14347620Y1651991D02*
X-14309525Y1728181D01*
X-14309525Y1728181D02*
X-14271429Y1880562D01*
X-14271429Y1880562D02*
X-14271429Y1994848D01*
X-14271429Y1994848D02*
X-14309525Y2147229D01*
X-14309525Y2147229D02*
X-14347620Y2223420D01*
X-14347620Y2223420D02*
X-14423810Y2299610D01*
X-14423810Y2299610D02*
X-14538096Y2337705D01*
X-14538096Y2337705D02*
X-14614287Y2337705D01*
X-14614287Y2337705D02*
X-14728572Y2299610D01*
X-14728572Y2299610D02*
X-14766668Y2261515D01*
X-15147620Y1537705D02*
X-15300001Y1537705D01*
X-15300001Y1537705D02*
X-15376191Y1575800D01*
X-15376191Y1575800D02*
X-15414287Y1613896D01*
X-15414287Y1613896D02*
X-15490477Y1728181D01*
X-15490477Y1728181D02*
X-15528572Y1880562D01*
X-15528572Y1880562D02*
X-15528572Y2185324D01*
X-15528572Y2185324D02*
X-15490477Y2261515D01*
X-15490477Y2261515D02*
X-15452382Y2299610D01*
X-15452382Y2299610D02*
X-15376191Y2337705D01*
X-15376191Y2337705D02*
X-15223810Y2337705D01*
X-15223810Y2337705D02*
X-15147620Y2299610D01*
X-15147620Y2299610D02*
X-15109525Y2261515D01*
X-15109525Y2261515D02*
X-15071429Y2185324D01*
X-15071429Y2185324D02*
X-15071429Y1994848D01*
X-15071429Y1994848D02*
X-15109525Y1918658D01*
X-15109525Y1918658D02*
X-15147620Y1880562D01*
X-15147620Y1880562D02*
X-15223810Y1842467D01*
X-15223810Y1842467D02*
X-15376191Y1842467D01*
X-15376191Y1842467D02*
X-15452382Y1880562D01*
X-15452382Y1880562D02*
X-15490477Y1918658D01*
X-15490477Y1918658D02*
X-15528572Y1994848D01*
X-14145181Y17838095D02*
X-15145181Y17838095D01*
X-15145181Y17838095D02*
X-15145181Y17600000D01*
X-15145181Y17600000D02*
X-15097562Y17457143D01*
X-15097562Y17457143D02*
X-15002324Y17361905D01*
X-15002324Y17361905D02*
X-14907086Y17314286D01*
X-14907086Y17314286D02*
X-14716610Y17266667D01*
X-14716610Y17266667D02*
X-14573753Y17266667D01*
X-14573753Y17266667D02*
X-14383277Y17314286D01*
X-14383277Y17314286D02*
X-14288039Y17361905D01*
X-14288039Y17361905D02*
X-14192800Y17457143D01*
X-14192800Y17457143D02*
X-14145181Y17600000D01*
X-14145181Y17600000D02*
X-14145181Y17838095D01*
X-15049943Y16885714D02*
X-15097562Y16838095D01*
X-15097562Y16838095D02*
X-15145181Y16742857D01*
X-15145181Y16742857D02*
X-15145181Y16504762D01*
X-15145181Y16504762D02*
X-15097562Y16409524D01*
X-15097562Y16409524D02*
X-15049943Y16361905D01*
X-15049943Y16361905D02*
X-14954705Y16314286D01*
X-14954705Y16314286D02*
X-14859467Y16314286D01*
X-14859467Y16314286D02*
X-14716610Y16361905D01*
X-14716610Y16361905D02*
X-14145181Y16933333D01*
X-14145181Y16933333D02*
X-14145181Y16314286D01*
X8491974Y-696587D02*
X8491974Y-750462D01*
X8491974Y-750462D02*
X8545848Y-858211D01*
X8545848Y-858211D02*
X8599723Y-912086D01*
X8599723Y-912086D02*
X8707473Y-965961D01*
X8707473Y-965961D02*
X8815222Y-965961D01*
X8815222Y-965961D02*
X8896035Y-939023D01*
X8896035Y-939023D02*
X9030722Y-858211D01*
X9030722Y-858211D02*
X9111534Y-777399D01*
X9111534Y-777399D02*
X9192346Y-642712D01*
X9192346Y-642712D02*
X9219283Y-561900D01*
X9219283Y-561900D02*
X9219283Y-454150D01*
X9219283Y-454150D02*
X9165409Y-346401D01*
X9165409Y-346401D02*
X9111534Y-292526D01*
X9111534Y-292526D02*
X9003784Y-238651D01*
X9003784Y-238651D02*
X8949909Y-238651D01*
X8438099Y-103964D02*
X8518911Y-130901D01*
X8518911Y-130901D02*
X8572786Y-130901D01*
X8572786Y-130901D02*
X8653598Y-103964D01*
X8653598Y-103964D02*
X8680535Y-77027D01*
X8680535Y-77027D02*
X8707473Y3786D01*
X8707473Y3786D02*
X8707473Y57660D01*
X8707473Y57660D02*
X8680535Y138473D01*
X8680535Y138473D02*
X8572786Y246222D01*
X8572786Y246222D02*
X8491974Y273160D01*
X8491974Y273160D02*
X8438099Y273160D01*
X8438099Y273160D02*
X8357287Y246222D01*
X8357287Y246222D02*
X8330349Y219285D01*
X8330349Y219285D02*
X8303412Y138473D01*
X8303412Y138473D02*
X8303412Y84598D01*
X8303412Y84598D02*
X8330349Y3786D01*
X8330349Y3786D02*
X8438099Y-103964D01*
X8438099Y-103964D02*
X8465036Y-184776D01*
X8465036Y-184776D02*
X8465036Y-238651D01*
X8465036Y-238651D02*
X8438099Y-319463D01*
X8438099Y-319463D02*
X8330349Y-427213D01*
X8330349Y-427213D02*
X8249537Y-454150D01*
X8249537Y-454150D02*
X8195662Y-454150D01*
X8195662Y-454150D02*
X8114850Y-427213D01*
X8114850Y-427213D02*
X8007100Y-319463D01*
X8007100Y-319463D02*
X7980163Y-238651D01*
X7980163Y-238651D02*
X7980163Y-184776D01*
X7980163Y-184776D02*
X8007100Y-103964D01*
X8007100Y-103964D02*
X8114850Y3786D01*
X8114850Y3786D02*
X8195662Y30723D01*
X8195662Y30723D02*
X8249537Y30723D01*
X8249537Y30723D02*
X8330349Y3786D01*
X-16585715Y1737705D02*
X-16319048Y2118658D01*
X-16128572Y1737705D02*
X-16128572Y2537705D01*
X-16128572Y2537705D02*
X-16433334Y2537705D01*
X-16433334Y2537705D02*
X-16509524Y2499610D01*
X-16509524Y2499610D02*
X-16547619Y2461515D01*
X-16547619Y2461515D02*
X-16585715Y2385324D01*
X-16585715Y2385324D02*
X-16585715Y2271039D01*
X-16585715Y2271039D02*
X-16547619Y2194848D01*
X-16547619Y2194848D02*
X-16509524Y2156753D01*
X-16509524Y2156753D02*
X-16433334Y2118658D01*
X-16433334Y2118658D02*
X-16128572Y2118658D01*
X-17347619Y1737705D02*
X-16890476Y1737705D01*
X-17119048Y1737705D02*
X-17119048Y2537705D01*
X-17119048Y2537705D02*
X-17042857Y2423420D01*
X-17042857Y2423420D02*
X-16966667Y2347229D01*
X-16966667Y2347229D02*
X-16890476Y2309134D01*
X-18033334Y2271039D02*
X-18033334Y1737705D01*
X-17842858Y2575800D02*
X-17652381Y2004372D01*
X-17652381Y2004372D02*
X-18147620Y2004372D01*
X-8445181Y17638095D02*
X-9445181Y17638095D01*
X-9445181Y17638095D02*
X-9445181Y17400000D01*
X-9445181Y17400000D02*
X-9397562Y17257143D01*
X-9397562Y17257143D02*
X-9302324Y17161905D01*
X-9302324Y17161905D02*
X-9207086Y17114286D01*
X-9207086Y17114286D02*
X-9016610Y17066667D01*
X-9016610Y17066667D02*
X-8873753Y17066667D01*
X-8873753Y17066667D02*
X-8683277Y17114286D01*
X-8683277Y17114286D02*
X-8588039Y17161905D01*
X-8588039Y17161905D02*
X-8492800Y17257143D01*
X-8492800Y17257143D02*
X-8445181Y17400000D01*
X-8445181Y17400000D02*
X-8445181Y17638095D01*
X-8445181Y16114286D02*
X-8445181Y16685714D01*
X-8445181Y16400000D02*
X-9445181Y16400000D01*
X-9445181Y16400000D02*
X-9302324Y16495238D01*
X-9302324Y16495238D02*
X-9207086Y16590476D01*
X-9207086Y16590476D02*
X-9159467Y16685714D01*
X-8266668Y12213896D02*
X-8228572Y12175800D01*
X-8228572Y12175800D02*
X-8114287Y12137705D01*
X-8114287Y12137705D02*
X-8038096Y12137705D01*
X-8038096Y12137705D02*
X-7923810Y12175800D01*
X-7923810Y12175800D02*
X-7847620Y12251991D01*
X-7847620Y12251991D02*
X-7809525Y12328181D01*
X-7809525Y12328181D02*
X-7771429Y12480562D01*
X-7771429Y12480562D02*
X-7771429Y12594848D01*
X-7771429Y12594848D02*
X-7809525Y12747229D01*
X-7809525Y12747229D02*
X-7847620Y12823420D01*
X-7847620Y12823420D02*
X-7923810Y12899610D01*
X-7923810Y12899610D02*
X-8038096Y12937705D01*
X-8038096Y12937705D02*
X-8114287Y12937705D01*
X-8114287Y12937705D02*
X-8228572Y12899610D01*
X-8228572Y12899610D02*
X-8266668Y12861515D01*
X-8952382Y12671039D02*
X-8952382Y12137705D01*
X-8761906Y12975800D02*
X-8571429Y12404372D01*
X-8571429Y12404372D02*
X-9066668Y12404372D01*
X1433332Y1437705D02*
X1699999Y1818658D01*
X1890475Y1437705D02*
X1890475Y2237705D01*
X1890475Y2237705D02*
X1585713Y2237705D01*
X1585713Y2237705D02*
X1509523Y2199610D01*
X1509523Y2199610D02*
X1471428Y2161515D01*
X1471428Y2161515D02*
X1433332Y2085324D01*
X1433332Y2085324D02*
X1433332Y1971039D01*
X1433332Y1971039D02*
X1471428Y1894848D01*
X1471428Y1894848D02*
X1509523Y1856753D01*
X1509523Y1856753D02*
X1585713Y1818658D01*
X1585713Y1818658D02*
X1890475Y1818658D01*
X1166666Y2237705D02*
X633332Y2237705D01*
X633332Y2237705D02*
X976190Y1437705D01*
X8290475Y-6562295D02*
X8290475Y-5762295D01*
X8290475Y-5762295D02*
X8099999Y-5762295D01*
X8099999Y-5762295D02*
X7985713Y-5800390D01*
X7985713Y-5800390D02*
X7909523Y-5876580D01*
X7909523Y-5876580D02*
X7871428Y-5952771D01*
X7871428Y-5952771D02*
X7833332Y-6105152D01*
X7833332Y-6105152D02*
X7833332Y-6219438D01*
X7833332Y-6219438D02*
X7871428Y-6371819D01*
X7871428Y-6371819D02*
X7909523Y-6448009D01*
X7909523Y-6448009D02*
X7985713Y-6524200D01*
X7985713Y-6524200D02*
X8099999Y-6562295D01*
X8099999Y-6562295D02*
X8290475Y-6562295D01*
X7147618Y-6028961D02*
X7147618Y-6562295D01*
X7338094Y-5724200D02*
X7528571Y-6295628D01*
X7528571Y-6295628D02*
X7033332Y-6295628D01*
X1962295Y-10785714D02*
X1581342Y-10519047D01*
X1962295Y-10328571D02*
X1162295Y-10328571D01*
X1162295Y-10328571D02*
X1162295Y-10633333D01*
X1162295Y-10633333D02*
X1200390Y-10709523D01*
X1200390Y-10709523D02*
X1238485Y-10747618D01*
X1238485Y-10747618D02*
X1314676Y-10785714D01*
X1314676Y-10785714D02*
X1428961Y-10785714D01*
X1428961Y-10785714D02*
X1505152Y-10747618D01*
X1505152Y-10747618D02*
X1543247Y-10709523D01*
X1543247Y-10709523D02*
X1581342Y-10633333D01*
X1581342Y-10633333D02*
X1581342Y-10328571D01*
X1962295Y-11547618D02*
X1962295Y-11090475D01*
X1962295Y-11319047D02*
X1162295Y-11319047D01*
X1162295Y-11319047D02*
X1276580Y-11242856D01*
X1276580Y-11242856D02*
X1352771Y-11166666D01*
X1352771Y-11166666D02*
X1390866Y-11090475D01*
X1962295Y-12309523D02*
X1962295Y-11852380D01*
X1962295Y-12080952D02*
X1162295Y-12080952D01*
X1162295Y-12080952D02*
X1276580Y-12004761D01*
X1276580Y-12004761D02*
X1352771Y-11928571D01*
X1352771Y-11928571D02*
X1390866Y-11852380D01*
X-20737705Y-3285714D02*
X-21118658Y-3019047D01*
X-20737705Y-2828571D02*
X-21537705Y-2828571D01*
X-21537705Y-2828571D02*
X-21537705Y-3133333D01*
X-21537705Y-3133333D02*
X-21499610Y-3209523D01*
X-21499610Y-3209523D02*
X-21461515Y-3247618D01*
X-21461515Y-3247618D02*
X-21385324Y-3285714D01*
X-21385324Y-3285714D02*
X-21271039Y-3285714D01*
X-21271039Y-3285714D02*
X-21194848Y-3247618D01*
X-21194848Y-3247618D02*
X-21156753Y-3209523D01*
X-21156753Y-3209523D02*
X-21118658Y-3133333D01*
X-21118658Y-3133333D02*
X-21118658Y-2828571D01*
X-20737705Y-4047618D02*
X-20737705Y-3590475D01*
X-20737705Y-3819047D02*
X-21537705Y-3819047D01*
X-21537705Y-3819047D02*
X-21423420Y-3742856D01*
X-21423420Y-3742856D02*
X-21347229Y-3666666D01*
X-21347229Y-3666666D02*
X-21309134Y-3590475D01*
X-21537705Y-4314285D02*
X-21537705Y-4809523D01*
X-21537705Y-4809523D02*
X-21232943Y-4542857D01*
X-21232943Y-4542857D02*
X-21232943Y-4657142D01*
X-21232943Y-4657142D02*
X-21194848Y-4733333D01*
X-21194848Y-4733333D02*
X-21156753Y-4771428D01*
X-21156753Y-4771428D02*
X-21080562Y-4809523D01*
X-21080562Y-4809523D02*
X-20890086Y-4809523D01*
X-20890086Y-4809523D02*
X-20813896Y-4771428D01*
X-20813896Y-4771428D02*
X-20775800Y-4733333D01*
X-20775800Y-4733333D02*
X-20737705Y-4657142D01*
X-20737705Y-4657142D02*
X-20737705Y-4428571D01*
X-20737705Y-4428571D02*
X-20775800Y-4352380D01*
X-20775800Y-4352380D02*
X-20813896Y-4314285D01*
X5262295Y-15609524D02*
X4462295Y-15609524D01*
X4462295Y-15609524D02*
X4462295Y-15800000D01*
X4462295Y-15800000D02*
X4500390Y-15914286D01*
X4500390Y-15914286D02*
X4576580Y-15990476D01*
X4576580Y-15990476D02*
X4652771Y-16028571D01*
X4652771Y-16028571D02*
X4805152Y-16066667D01*
X4805152Y-16066667D02*
X4919438Y-16066667D01*
X4919438Y-16066667D02*
X5071819Y-16028571D01*
X5071819Y-16028571D02*
X5148009Y-15990476D01*
X5148009Y-15990476D02*
X5224200Y-15914286D01*
X5224200Y-15914286D02*
X5262295Y-15800000D01*
X5262295Y-15800000D02*
X5262295Y-15609524D01*
X4462295Y-16790476D02*
X4462295Y-16409524D01*
X4462295Y-16409524D02*
X4843247Y-16371428D01*
X4843247Y-16371428D02*
X4805152Y-16409524D01*
X4805152Y-16409524D02*
X4767057Y-16485714D01*
X4767057Y-16485714D02*
X4767057Y-16676190D01*
X4767057Y-16676190D02*
X4805152Y-16752381D01*
X4805152Y-16752381D02*
X4843247Y-16790476D01*
X4843247Y-16790476D02*
X4919438Y-16828571D01*
X4919438Y-16828571D02*
X5109914Y-16828571D01*
X5109914Y-16828571D02*
X5186104Y-16790476D01*
X5186104Y-16790476D02*
X5224200Y-16752381D01*
X5224200Y-16752381D02*
X5262295Y-16676190D01*
X5262295Y-16676190D02*
X5262295Y-16485714D01*
X5262295Y-16485714D02*
X5224200Y-16409524D01*
X5224200Y-16409524D02*
X5186104Y-16371428D01*
X10362295Y-15609524D02*
X9562295Y-15609524D01*
X9562295Y-15609524D02*
X9562295Y-15800000D01*
X9562295Y-15800000D02*
X9600390Y-15914286D01*
X9600390Y-15914286D02*
X9676580Y-15990476D01*
X9676580Y-15990476D02*
X9752771Y-16028571D01*
X9752771Y-16028571D02*
X9905152Y-16066667D01*
X9905152Y-16066667D02*
X10019438Y-16066667D01*
X10019438Y-16066667D02*
X10171819Y-16028571D01*
X10171819Y-16028571D02*
X10248009Y-15990476D01*
X10248009Y-15990476D02*
X10324200Y-15914286D01*
X10324200Y-15914286D02*
X10362295Y-15800000D01*
X10362295Y-15800000D02*
X10362295Y-15609524D01*
X9562295Y-16333333D02*
X9562295Y-16828571D01*
X9562295Y-16828571D02*
X9867057Y-16561905D01*
X9867057Y-16561905D02*
X9867057Y-16676190D01*
X9867057Y-16676190D02*
X9905152Y-16752381D01*
X9905152Y-16752381D02*
X9943247Y-16790476D01*
X9943247Y-16790476D02*
X10019438Y-16828571D01*
X10019438Y-16828571D02*
X10209914Y-16828571D01*
X10209914Y-16828571D02*
X10286104Y-16790476D01*
X10286104Y-16790476D02*
X10324200Y-16752381D01*
X10324200Y-16752381D02*
X10362295Y-16676190D01*
X10362295Y-16676190D02*
X10362295Y-16447619D01*
X10362295Y-16447619D02*
X10324200Y-16371428D01*
X10324200Y-16371428D02*
X10286104Y-16333333D01*
X7914285Y-11462295D02*
X8180952Y-11081342D01*
X8371428Y-11462295D02*
X8371428Y-10662295D01*
X8371428Y-10662295D02*
X8066666Y-10662295D01*
X8066666Y-10662295D02*
X7990476Y-10700390D01*
X7990476Y-10700390D02*
X7952381Y-10738485D01*
X7952381Y-10738485D02*
X7914285Y-10814676D01*
X7914285Y-10814676D02*
X7914285Y-10928961D01*
X7914285Y-10928961D02*
X7952381Y-11005152D01*
X7952381Y-11005152D02*
X7990476Y-11043247D01*
X7990476Y-11043247D02*
X8066666Y-11081342D01*
X8066666Y-11081342D02*
X8371428Y-11081342D01*
X7152381Y-11462295D02*
X7609524Y-11462295D01*
X7380952Y-11462295D02*
X7380952Y-10662295D01*
X7380952Y-10662295D02*
X7457143Y-10776580D01*
X7457143Y-10776580D02*
X7533333Y-10852771D01*
X7533333Y-10852771D02*
X7609524Y-10890866D01*
X6847619Y-10738485D02*
X6809523Y-10700390D01*
X6809523Y-10700390D02*
X6733333Y-10662295D01*
X6733333Y-10662295D02*
X6542857Y-10662295D01*
X6542857Y-10662295D02*
X6466666Y-10700390D01*
X6466666Y-10700390D02*
X6428571Y-10738485D01*
X6428571Y-10738485D02*
X6390476Y-10814676D01*
X6390476Y-10814676D02*
X6390476Y-10890866D01*
X6390476Y-10890866D02*
X6428571Y-11005152D01*
X6428571Y-11005152D02*
X6885714Y-11462295D01*
X6885714Y-11462295D02*
X6390476Y-11462295D01*
X-5837705Y-9766667D02*
X-6218658Y-9500000D01*
X-5837705Y-9309524D02*
X-6637705Y-9309524D01*
X-6637705Y-9309524D02*
X-6637705Y-9614286D01*
X-6637705Y-9614286D02*
X-6599610Y-9690476D01*
X-6599610Y-9690476D02*
X-6561515Y-9728571D01*
X-6561515Y-9728571D02*
X-6485324Y-9766667D01*
X-6485324Y-9766667D02*
X-6371039Y-9766667D01*
X-6371039Y-9766667D02*
X-6294848Y-9728571D01*
X-6294848Y-9728571D02*
X-6256753Y-9690476D01*
X-6256753Y-9690476D02*
X-6218658Y-9614286D01*
X-6218658Y-9614286D02*
X-6218658Y-9309524D01*
X-6637705Y-10452381D02*
X-6637705Y-10300000D01*
X-6637705Y-10300000D02*
X-6599610Y-10223809D01*
X-6599610Y-10223809D02*
X-6561515Y-10185714D01*
X-6561515Y-10185714D02*
X-6447229Y-10109524D01*
X-6447229Y-10109524D02*
X-6294848Y-10071428D01*
X-6294848Y-10071428D02*
X-5990086Y-10071428D01*
X-5990086Y-10071428D02*
X-5913896Y-10109524D01*
X-5913896Y-10109524D02*
X-5875800Y-10147619D01*
X-5875800Y-10147619D02*
X-5837705Y-10223809D01*
X-5837705Y-10223809D02*
X-5837705Y-10376190D01*
X-5837705Y-10376190D02*
X-5875800Y-10452381D01*
X-5875800Y-10452381D02*
X-5913896Y-10490476D01*
X-5913896Y-10490476D02*
X-5990086Y-10528571D01*
X-5990086Y-10528571D02*
X-6180562Y-10528571D01*
X-6180562Y-10528571D02*
X-6256753Y-10490476D01*
X-6256753Y-10490476D02*
X-6294848Y-10452381D01*
X-6294848Y-10452381D02*
X-6332943Y-10376190D01*
X-6332943Y-10376190D02*
X-6332943Y-10223809D01*
X-6332943Y-10223809D02*
X-6294848Y-10147619D01*
X-6294848Y-10147619D02*
X-6256753Y-10109524D01*
X-6256753Y-10109524D02*
X-6180562Y-10071428D01*
X6962295Y-15209524D02*
X6162295Y-15209524D01*
X6162295Y-15209524D02*
X6162295Y-15400000D01*
X6162295Y-15400000D02*
X6200390Y-15514286D01*
X6200390Y-15514286D02*
X6276580Y-15590476D01*
X6276580Y-15590476D02*
X6352771Y-15628571D01*
X6352771Y-15628571D02*
X6505152Y-15666667D01*
X6505152Y-15666667D02*
X6619438Y-15666667D01*
X6619438Y-15666667D02*
X6771819Y-15628571D01*
X6771819Y-15628571D02*
X6848009Y-15590476D01*
X6848009Y-15590476D02*
X6924200Y-15514286D01*
X6924200Y-15514286D02*
X6962295Y-15400000D01*
X6962295Y-15400000D02*
X6962295Y-15209524D01*
X6962295Y-16047619D02*
X6962295Y-16200000D01*
X6962295Y-16200000D02*
X6924200Y-16276190D01*
X6924200Y-16276190D02*
X6886104Y-16314286D01*
X6886104Y-16314286D02*
X6771819Y-16390476D01*
X6771819Y-16390476D02*
X6619438Y-16428571D01*
X6619438Y-16428571D02*
X6314676Y-16428571D01*
X6314676Y-16428571D02*
X6238485Y-16390476D01*
X6238485Y-16390476D02*
X6200390Y-16352381D01*
X6200390Y-16352381D02*
X6162295Y-16276190D01*
X6162295Y-16276190D02*
X6162295Y-16123809D01*
X6162295Y-16123809D02*
X6200390Y-16047619D01*
X6200390Y-16047619D02*
X6238485Y-16009524D01*
X6238485Y-16009524D02*
X6314676Y-15971428D01*
X6314676Y-15971428D02*
X6505152Y-15971428D01*
X6505152Y-15971428D02*
X6581342Y-16009524D01*
X6581342Y-16009524D02*
X6619438Y-16047619D01*
X6619438Y-16047619D02*
X6657533Y-16123809D01*
X6657533Y-16123809D02*
X6657533Y-16276190D01*
X6657533Y-16276190D02*
X6619438Y-16352381D01*
X6619438Y-16352381D02*
X6581342Y-16390476D01*
X6581342Y-16390476D02*
X6505152Y-16428571D01*
X-10985715Y-14062295D02*
X-10719048Y-13681342D01*
X-10528572Y-14062295D02*
X-10528572Y-13262295D01*
X-10528572Y-13262295D02*
X-10833334Y-13262295D01*
X-10833334Y-13262295D02*
X-10909524Y-13300390D01*
X-10909524Y-13300390D02*
X-10947619Y-13338485D01*
X-10947619Y-13338485D02*
X-10985715Y-13414676D01*
X-10985715Y-13414676D02*
X-10985715Y-13528961D01*
X-10985715Y-13528961D02*
X-10947619Y-13605152D01*
X-10947619Y-13605152D02*
X-10909524Y-13643247D01*
X-10909524Y-13643247D02*
X-10833334Y-13681342D01*
X-10833334Y-13681342D02*
X-10528572Y-13681342D01*
X-11747619Y-14062295D02*
X-11290476Y-14062295D01*
X-11519048Y-14062295D02*
X-11519048Y-13262295D01*
X-11519048Y-13262295D02*
X-11442857Y-13376580D01*
X-11442857Y-13376580D02*
X-11366667Y-13452771D01*
X-11366667Y-13452771D02*
X-11290476Y-13490866D01*
X-12433334Y-13262295D02*
X-12280953Y-13262295D01*
X-12280953Y-13262295D02*
X-12204762Y-13300390D01*
X-12204762Y-13300390D02*
X-12166667Y-13338485D01*
X-12166667Y-13338485D02*
X-12090477Y-13452771D01*
X-12090477Y-13452771D02*
X-12052381Y-13605152D01*
X-12052381Y-13605152D02*
X-12052381Y-13909914D01*
X-12052381Y-13909914D02*
X-12090477Y-13986104D01*
X-12090477Y-13986104D02*
X-12128572Y-14024200D01*
X-12128572Y-14024200D02*
X-12204762Y-14062295D01*
X-12204762Y-14062295D02*
X-12357143Y-14062295D01*
X-12357143Y-14062295D02*
X-12433334Y-14024200D01*
X-12433334Y-14024200D02*
X-12471429Y-13986104D01*
X-12471429Y-13986104D02*
X-12509524Y-13909914D01*
X-12509524Y-13909914D02*
X-12509524Y-13719438D01*
X-12509524Y-13719438D02*
X-12471429Y-13643247D01*
X-12471429Y-13643247D02*
X-12433334Y-13605152D01*
X-12433334Y-13605152D02*
X-12357143Y-13567057D01*
X-12357143Y-13567057D02*
X-12204762Y-13567057D01*
X-12204762Y-13567057D02*
X-12128572Y-13605152D01*
X-12128572Y-13605152D02*
X-12090477Y-13643247D01*
X-12090477Y-13643247D02*
X-12052381Y-13719438D01*
X13014285Y-16762295D02*
X13280952Y-16381342D01*
X13471428Y-16762295D02*
X13471428Y-15962295D01*
X13471428Y-15962295D02*
X13166666Y-15962295D01*
X13166666Y-15962295D02*
X13090476Y-16000390D01*
X13090476Y-16000390D02*
X13052381Y-16038485D01*
X13052381Y-16038485D02*
X13014285Y-16114676D01*
X13014285Y-16114676D02*
X13014285Y-16228961D01*
X13014285Y-16228961D02*
X13052381Y-16305152D01*
X13052381Y-16305152D02*
X13090476Y-16343247D01*
X13090476Y-16343247D02*
X13166666Y-16381342D01*
X13166666Y-16381342D02*
X13471428Y-16381342D01*
X12252381Y-16762295D02*
X12709524Y-16762295D01*
X12480952Y-16762295D02*
X12480952Y-15962295D01*
X12480952Y-15962295D02*
X12557143Y-16076580D01*
X12557143Y-16076580D02*
X12633333Y-16152771D01*
X12633333Y-16152771D02*
X12709524Y-16190866D01*
X11528571Y-15962295D02*
X11909523Y-15962295D01*
X11909523Y-15962295D02*
X11947619Y-16343247D01*
X11947619Y-16343247D02*
X11909523Y-16305152D01*
X11909523Y-16305152D02*
X11833333Y-16267057D01*
X11833333Y-16267057D02*
X11642857Y-16267057D01*
X11642857Y-16267057D02*
X11566666Y-16305152D01*
X11566666Y-16305152D02*
X11528571Y-16343247D01*
X11528571Y-16343247D02*
X11490476Y-16419438D01*
X11490476Y-16419438D02*
X11490476Y-16609914D01*
X11490476Y-16609914D02*
X11528571Y-16686104D01*
X11528571Y-16686104D02*
X11566666Y-16724200D01*
X11566666Y-16724200D02*
X11642857Y-16762295D01*
X11642857Y-16762295D02*
X11833333Y-16762295D01*
X11833333Y-16762295D02*
X11909523Y-16724200D01*
X11909523Y-16724200D02*
X11947619Y-16686104D01*
X4162295Y4633333D02*
X3781342Y4900000D01*
X4162295Y5090476D02*
X3362295Y5090476D01*
X3362295Y5090476D02*
X3362295Y4785714D01*
X3362295Y4785714D02*
X3400390Y4709524D01*
X3400390Y4709524D02*
X3438485Y4671429D01*
X3438485Y4671429D02*
X3514676Y4633333D01*
X3514676Y4633333D02*
X3628961Y4633333D01*
X3628961Y4633333D02*
X3705152Y4671429D01*
X3705152Y4671429D02*
X3743247Y4709524D01*
X3743247Y4709524D02*
X3781342Y4785714D01*
X3781342Y4785714D02*
X3781342Y5090476D01*
X3362295Y3909524D02*
X3362295Y4290476D01*
X3362295Y4290476D02*
X3743247Y4328572D01*
X3743247Y4328572D02*
X3705152Y4290476D01*
X3705152Y4290476D02*
X3667057Y4214286D01*
X3667057Y4214286D02*
X3667057Y4023810D01*
X3667057Y4023810D02*
X3705152Y3947619D01*
X3705152Y3947619D02*
X3743247Y3909524D01*
X3743247Y3909524D02*
X3819438Y3871429D01*
X3819438Y3871429D02*
X4009914Y3871429D01*
X4009914Y3871429D02*
X4086104Y3909524D01*
X4086104Y3909524D02*
X4124200Y3947619D01*
X4124200Y3947619D02*
X4162295Y4023810D01*
X4162295Y4023810D02*
X4162295Y4214286D01*
X4162295Y4214286D02*
X4124200Y4290476D01*
X4124200Y4290476D02*
X4086104Y4328572D01*
X6262295Y6333333D02*
X5881342Y6600000D01*
X6262295Y6790476D02*
X5462295Y6790476D01*
X5462295Y6790476D02*
X5462295Y6485714D01*
X5462295Y6485714D02*
X5500390Y6409524D01*
X5500390Y6409524D02*
X5538485Y6371429D01*
X5538485Y6371429D02*
X5614676Y6333333D01*
X5614676Y6333333D02*
X5728961Y6333333D01*
X5728961Y6333333D02*
X5805152Y6371429D01*
X5805152Y6371429D02*
X5843247Y6409524D01*
X5843247Y6409524D02*
X5881342Y6485714D01*
X5881342Y6485714D02*
X5881342Y6790476D01*
X5728961Y5647619D02*
X6262295Y5647619D01*
X5424200Y5838095D02*
X5995628Y6028572D01*
X5995628Y6028572D02*
X5995628Y5533333D01*
X16162295Y-7066667D02*
X15781342Y-6800000D01*
X16162295Y-6609524D02*
X15362295Y-6609524D01*
X15362295Y-6609524D02*
X15362295Y-6914286D01*
X15362295Y-6914286D02*
X15400390Y-6990476D01*
X15400390Y-6990476D02*
X15438485Y-7028571D01*
X15438485Y-7028571D02*
X15514676Y-7066667D01*
X15514676Y-7066667D02*
X15628961Y-7066667D01*
X15628961Y-7066667D02*
X15705152Y-7028571D01*
X15705152Y-7028571D02*
X15743247Y-6990476D01*
X15743247Y-6990476D02*
X15781342Y-6914286D01*
X15781342Y-6914286D02*
X15781342Y-6609524D01*
X15362295Y-7333333D02*
X15362295Y-7828571D01*
X15362295Y-7828571D02*
X15667057Y-7561905D01*
X15667057Y-7561905D02*
X15667057Y-7676190D01*
X15667057Y-7676190D02*
X15705152Y-7752381D01*
X15705152Y-7752381D02*
X15743247Y-7790476D01*
X15743247Y-7790476D02*
X15819438Y-7828571D01*
X15819438Y-7828571D02*
X16009914Y-7828571D01*
X16009914Y-7828571D02*
X16086104Y-7790476D01*
X16086104Y-7790476D02*
X16124200Y-7752381D01*
X16124200Y-7752381D02*
X16162295Y-7676190D01*
X16162295Y-7676190D02*
X16162295Y-7447619D01*
X16162295Y-7447619D02*
X16124200Y-7371428D01*
X16124200Y-7371428D02*
X16086104Y-7333333D01*
X-10690477Y-1262295D02*
X-10690477Y-1909914D01*
X-10690477Y-1909914D02*
X-10728572Y-1986104D01*
X-10728572Y-1986104D02*
X-10766667Y-2024200D01*
X-10766667Y-2024200D02*
X-10842858Y-2062295D01*
X-10842858Y-2062295D02*
X-10995239Y-2062295D01*
X-10995239Y-2062295D02*
X-11071429Y-2024200D01*
X-11071429Y-2024200D02*
X-11109524Y-1986104D01*
X-11109524Y-1986104D02*
X-11147620Y-1909914D01*
X-11147620Y-1909914D02*
X-11147620Y-1262295D01*
X-11909524Y-1262295D02*
X-11528572Y-1262295D01*
X-11528572Y-1262295D02*
X-11490476Y-1643247D01*
X-11490476Y-1643247D02*
X-11528572Y-1605152D01*
X-11528572Y-1605152D02*
X-11604762Y-1567057D01*
X-11604762Y-1567057D02*
X-11795238Y-1567057D01*
X-11795238Y-1567057D02*
X-11871429Y-1605152D01*
X-11871429Y-1605152D02*
X-11909524Y-1643247D01*
X-11909524Y-1643247D02*
X-11947619Y-1719438D01*
X-11947619Y-1719438D02*
X-11947619Y-1909914D01*
X-11947619Y-1909914D02*
X-11909524Y-1986104D01*
X-11909524Y-1986104D02*
X-11871429Y-2024200D01*
X-11871429Y-2024200D02*
X-11795238Y-2062295D01*
X-11795238Y-2062295D02*
X-11604762Y-2062295D01*
X-11604762Y-2062295D02*
X-11528572Y-2024200D01*
X-11528572Y-2024200D02*
X-11490476Y-1986104D01*
X15238485Y-12223809D02*
X15200390Y-12147619D01*
X15200390Y-12147619D02*
X15124200Y-12071428D01*
X15124200Y-12071428D02*
X15009914Y-11957142D01*
X15009914Y-11957142D02*
X14971819Y-11880952D01*
X14971819Y-11880952D02*
X14971819Y-11804761D01*
X15162295Y-11842857D02*
X15124200Y-11766666D01*
X15124200Y-11766666D02*
X15048009Y-11690476D01*
X15048009Y-11690476D02*
X14895628Y-11652380D01*
X14895628Y-11652380D02*
X14628961Y-11652380D01*
X14628961Y-11652380D02*
X14476580Y-11690476D01*
X14476580Y-11690476D02*
X14400390Y-11766666D01*
X14400390Y-11766666D02*
X14362295Y-11842857D01*
X14362295Y-11842857D02*
X14362295Y-11995238D01*
X14362295Y-11995238D02*
X14400390Y-12071428D01*
X14400390Y-12071428D02*
X14476580Y-12147619D01*
X14476580Y-12147619D02*
X14628961Y-12185714D01*
X14628961Y-12185714D02*
X14895628Y-12185714D01*
X14895628Y-12185714D02*
X15048009Y-12147619D01*
X15048009Y-12147619D02*
X15124200Y-12071428D01*
X15124200Y-12071428D02*
X15162295Y-11995238D01*
X15162295Y-11995238D02*
X15162295Y-11842857D01*
X14438485Y-12490475D02*
X14400390Y-12528571D01*
X14400390Y-12528571D02*
X14362295Y-12604761D01*
X14362295Y-12604761D02*
X14362295Y-12795237D01*
X14362295Y-12795237D02*
X14400390Y-12871428D01*
X14400390Y-12871428D02*
X14438485Y-12909523D01*
X14438485Y-12909523D02*
X14514676Y-12947618D01*
X14514676Y-12947618D02*
X14590866Y-12947618D01*
X14590866Y-12947618D02*
X14705152Y-12909523D01*
X14705152Y-12909523D02*
X15162295Y-12452380D01*
X15162295Y-12452380D02*
X15162295Y-12947618D01*
X-4390477Y-4362295D02*
X-4390477Y-5009914D01*
X-4390477Y-5009914D02*
X-4428572Y-5086104D01*
X-4428572Y-5086104D02*
X-4466667Y-5124200D01*
X-4466667Y-5124200D02*
X-4542858Y-5162295D01*
X-4542858Y-5162295D02*
X-4695239Y-5162295D01*
X-4695239Y-5162295D02*
X-4771429Y-5124200D01*
X-4771429Y-5124200D02*
X-4809524Y-5086104D01*
X-4809524Y-5086104D02*
X-4847620Y-5009914D01*
X-4847620Y-5009914D02*
X-4847620Y-4362295D01*
X-5152381Y-4362295D02*
X-5647619Y-4362295D01*
X-5647619Y-4362295D02*
X-5380953Y-4667057D01*
X-5380953Y-4667057D02*
X-5495238Y-4667057D01*
X-5495238Y-4667057D02*
X-5571429Y-4705152D01*
X-5571429Y-4705152D02*
X-5609524Y-4743247D01*
X-5609524Y-4743247D02*
X-5647619Y-4819438D01*
X-5647619Y-4819438D02*
X-5647619Y-5009914D01*
X-5647619Y-5009914D02*
X-5609524Y-5086104D01*
X-5609524Y-5086104D02*
X-5571429Y-5124200D01*
X-5571429Y-5124200D02*
X-5495238Y-5162295D01*
X-5495238Y-5162295D02*
X-5266667Y-5162295D01*
X-5266667Y-5162295D02*
X-5190476Y-5124200D01*
X-5190476Y-5124200D02*
X-5152381Y-5086104D01*
X509523Y-5862295D02*
X509523Y-6509914D01*
X509523Y-6509914D02*
X471428Y-6586104D01*
X471428Y-6586104D02*
X433333Y-6624200D01*
X433333Y-6624200D02*
X357142Y-6662295D01*
X357142Y-6662295D02*
X204761Y-6662295D01*
X204761Y-6662295D02*
X128571Y-6624200D01*
X128571Y-6624200D02*
X90476Y-6586104D01*
X90476Y-6586104D02*
X52380Y-6509914D01*
X52380Y-6509914D02*
X52380Y-5862295D01*
X-671429Y-6128961D02*
X-671429Y-6662295D01*
X-480953Y-5824200D02*
X-290476Y-6395628D01*
X-290476Y-6395628D02*
X-785715Y-6395628D01*
X17262295Y-6685714D02*
X16881342Y-6419047D01*
X17262295Y-6228571D02*
X16462295Y-6228571D01*
X16462295Y-6228571D02*
X16462295Y-6533333D01*
X16462295Y-6533333D02*
X16500390Y-6609523D01*
X16500390Y-6609523D02*
X16538485Y-6647618D01*
X16538485Y-6647618D02*
X16614676Y-6685714D01*
X16614676Y-6685714D02*
X16728961Y-6685714D01*
X16728961Y-6685714D02*
X16805152Y-6647618D01*
X16805152Y-6647618D02*
X16843247Y-6609523D01*
X16843247Y-6609523D02*
X16881342Y-6533333D01*
X16881342Y-6533333D02*
X16881342Y-6228571D01*
X17262295Y-7447618D02*
X17262295Y-6990475D01*
X17262295Y-7219047D02*
X16462295Y-7219047D01*
X16462295Y-7219047D02*
X16576580Y-7142856D01*
X16576580Y-7142856D02*
X16652771Y-7066666D01*
X16652771Y-7066666D02*
X16690866Y-6990475D01*
X16462295Y-7942857D02*
X16462295Y-8019047D01*
X16462295Y-8019047D02*
X16500390Y-8095238D01*
X16500390Y-8095238D02*
X16538485Y-8133333D01*
X16538485Y-8133333D02*
X16614676Y-8171428D01*
X16614676Y-8171428D02*
X16767057Y-8209523D01*
X16767057Y-8209523D02*
X16957533Y-8209523D01*
X16957533Y-8209523D02*
X17109914Y-8171428D01*
X17109914Y-8171428D02*
X17186104Y-8133333D01*
X17186104Y-8133333D02*
X17224200Y-8095238D01*
X17224200Y-8095238D02*
X17262295Y-8019047D01*
X17262295Y-8019047D02*
X17262295Y-7942857D01*
X17262295Y-7942857D02*
X17224200Y-7866666D01*
X17224200Y-7866666D02*
X17186104Y-7828571D01*
X17186104Y-7828571D02*
X17109914Y-7790476D01*
X17109914Y-7790476D02*
X16957533Y-7752380D01*
X16957533Y-7752380D02*
X16767057Y-7752380D01*
X16767057Y-7752380D02*
X16614676Y-7790476D01*
X16614676Y-7790476D02*
X16538485Y-7828571D01*
X16538485Y-7828571D02*
X16500390Y-7866666D01*
X16500390Y-7866666D02*
X16462295Y-7942857D01*
X-10761906Y6145181D02*
X-10761906Y7145181D01*
X-10761906Y7145181D02*
X-11000001Y7145181D01*
X-11000001Y7145181D02*
X-11142858Y7097562D01*
X-11142858Y7097562D02*
X-11238096Y7002324D01*
X-11238096Y7002324D02*
X-11285715Y6907086D01*
X-11285715Y6907086D02*
X-11333334Y6716610D01*
X-11333334Y6716610D02*
X-11333334Y6573753D01*
X-11333334Y6573753D02*
X-11285715Y6383277D01*
X-11285715Y6383277D02*
X-11238096Y6288039D01*
X-11238096Y6288039D02*
X-11142858Y6192800D01*
X-11142858Y6192800D02*
X-11000001Y6145181D01*
X-11000001Y6145181D02*
X-10761906Y6145181D01*
X-12190477Y7145181D02*
X-12000001Y7145181D01*
X-12000001Y7145181D02*
X-11904763Y7097562D01*
X-11904763Y7097562D02*
X-11857144Y7049943D01*
X-11857144Y7049943D02*
X-11761906Y6907086D01*
X-11761906Y6907086D02*
X-11714287Y6716610D01*
X-11714287Y6716610D02*
X-11714287Y6335658D01*
X-11714287Y6335658D02*
X-11761906Y6240420D01*
X-11761906Y6240420D02*
X-11809525Y6192800D01*
X-11809525Y6192800D02*
X-11904763Y6145181D01*
X-11904763Y6145181D02*
X-12095239Y6145181D01*
X-12095239Y6145181D02*
X-12190477Y6192800D01*
X-12190477Y6192800D02*
X-12238096Y6240420D01*
X-12238096Y6240420D02*
X-12285715Y6335658D01*
X-12285715Y6335658D02*
X-12285715Y6573753D01*
X-12285715Y6573753D02*
X-12238096Y6668991D01*
X-12238096Y6668991D02*
X-12190477Y6716610D01*
X-12190477Y6716610D02*
X-12095239Y6764229D01*
X-12095239Y6764229D02*
X-11904763Y6764229D01*
X-11904763Y6764229D02*
X-11809525Y6716610D01*
X-11809525Y6716610D02*
X-11761906Y6668991D01*
X-11761906Y6668991D02*
X-11714287Y6573753D01*
X-3566668Y3113896D02*
X-3528572Y3075800D01*
X-3528572Y3075800D02*
X-3414287Y3037705D01*
X-3414287Y3037705D02*
X-3338096Y3037705D01*
X-3338096Y3037705D02*
X-3223810Y3075800D01*
X-3223810Y3075800D02*
X-3147620Y3151991D01*
X-3147620Y3151991D02*
X-3109525Y3228181D01*
X-3109525Y3228181D02*
X-3071429Y3380562D01*
X-3071429Y3380562D02*
X-3071429Y3494848D01*
X-3071429Y3494848D02*
X-3109525Y3647229D01*
X-3109525Y3647229D02*
X-3147620Y3723420D01*
X-3147620Y3723420D02*
X-3223810Y3799610D01*
X-3223810Y3799610D02*
X-3338096Y3837705D01*
X-3338096Y3837705D02*
X-3414287Y3837705D01*
X-3414287Y3837705D02*
X-3528572Y3799610D01*
X-3528572Y3799610D02*
X-3566668Y3761515D01*
X-4290477Y3837705D02*
X-3909525Y3837705D01*
X-3909525Y3837705D02*
X-3871429Y3456753D01*
X-3871429Y3456753D02*
X-3909525Y3494848D01*
X-3909525Y3494848D02*
X-3985715Y3532943D01*
X-3985715Y3532943D02*
X-4176191Y3532943D01*
X-4176191Y3532943D02*
X-4252382Y3494848D01*
X-4252382Y3494848D02*
X-4290477Y3456753D01*
X-4290477Y3456753D02*
X-4328572Y3380562D01*
X-4328572Y3380562D02*
X-4328572Y3190086D01*
X-4328572Y3190086D02*
X-4290477Y3113896D01*
X-4290477Y3113896D02*
X-4252382Y3075800D01*
X-4252382Y3075800D02*
X-4176191Y3037705D01*
X-4176191Y3037705D02*
X-3985715Y3037705D01*
X-3985715Y3037705D02*
X-3909525Y3075800D01*
X-3909525Y3075800D02*
X-3871429Y3113896D01*
X1533332Y-2662295D02*
X1799999Y-2281342D01*
X1990475Y-2662295D02*
X1990475Y-1862295D01*
X1990475Y-1862295D02*
X1685713Y-1862295D01*
X1685713Y-1862295D02*
X1609523Y-1900390D01*
X1609523Y-1900390D02*
X1571428Y-1938485D01*
X1571428Y-1938485D02*
X1533332Y-2014676D01*
X1533332Y-2014676D02*
X1533332Y-2128961D01*
X1533332Y-2128961D02*
X1571428Y-2205152D01*
X1571428Y-2205152D02*
X1609523Y-2243247D01*
X1609523Y-2243247D02*
X1685713Y-2281342D01*
X1685713Y-2281342D02*
X1990475Y-2281342D01*
X1076190Y-2205152D02*
X1152380Y-2167057D01*
X1152380Y-2167057D02*
X1190475Y-2128961D01*
X1190475Y-2128961D02*
X1228571Y-2052771D01*
X1228571Y-2052771D02*
X1228571Y-2014676D01*
X1228571Y-2014676D02*
X1190475Y-1938485D01*
X1190475Y-1938485D02*
X1152380Y-1900390D01*
X1152380Y-1900390D02*
X1076190Y-1862295D01*
X1076190Y-1862295D02*
X923809Y-1862295D01*
X923809Y-1862295D02*
X847618Y-1900390D01*
X847618Y-1900390D02*
X809523Y-1938485D01*
X809523Y-1938485D02*
X771428Y-2014676D01*
X771428Y-2014676D02*
X771428Y-2052771D01*
X771428Y-2052771D02*
X809523Y-2128961D01*
X809523Y-2128961D02*
X847618Y-2167057D01*
X847618Y-2167057D02*
X923809Y-2205152D01*
X923809Y-2205152D02*
X1076190Y-2205152D01*
X1076190Y-2205152D02*
X1152380Y-2243247D01*
X1152380Y-2243247D02*
X1190475Y-2281342D01*
X1190475Y-2281342D02*
X1228571Y-2357533D01*
X1228571Y-2357533D02*
X1228571Y-2509914D01*
X1228571Y-2509914D02*
X1190475Y-2586104D01*
X1190475Y-2586104D02*
X1152380Y-2624200D01*
X1152380Y-2624200D02*
X1076190Y-2662295D01*
X1076190Y-2662295D02*
X923809Y-2662295D01*
X923809Y-2662295D02*
X847618Y-2624200D01*
X847618Y-2624200D02*
X809523Y-2586104D01*
X809523Y-2586104D02*
X771428Y-2509914D01*
X771428Y-2509914D02*
X771428Y-2357533D01*
X771428Y-2357533D02*
X809523Y-2281342D01*
X809523Y-2281342D02*
X847618Y-2243247D01*
X847618Y-2243247D02*
X923809Y-2205152D01*
X-7766668Y6437705D02*
X-7500001Y6818658D01*
X-7309525Y6437705D02*
X-7309525Y7237705D01*
X-7309525Y7237705D02*
X-7614287Y7237705D01*
X-7614287Y7237705D02*
X-7690477Y7199610D01*
X-7690477Y7199610D02*
X-7728572Y7161515D01*
X-7728572Y7161515D02*
X-7766668Y7085324D01*
X-7766668Y7085324D02*
X-7766668Y6971039D01*
X-7766668Y6971039D02*
X-7728572Y6894848D01*
X-7728572Y6894848D02*
X-7690477Y6856753D01*
X-7690477Y6856753D02*
X-7614287Y6818658D01*
X-7614287Y6818658D02*
X-7309525Y6818658D01*
X-8147620Y6437705D02*
X-8300001Y6437705D01*
X-8300001Y6437705D02*
X-8376191Y6475800D01*
X-8376191Y6475800D02*
X-8414287Y6513896D01*
X-8414287Y6513896D02*
X-8490477Y6628181D01*
X-8490477Y6628181D02*
X-8528572Y6780562D01*
X-8528572Y6780562D02*
X-8528572Y7085324D01*
X-8528572Y7085324D02*
X-8490477Y7161515D01*
X-8490477Y7161515D02*
X-8452382Y7199610D01*
X-8452382Y7199610D02*
X-8376191Y7237705D01*
X-8376191Y7237705D02*
X-8223810Y7237705D01*
X-8223810Y7237705D02*
X-8147620Y7199610D01*
X-8147620Y7199610D02*
X-8109525Y7161515D01*
X-8109525Y7161515D02*
X-8071429Y7085324D01*
X-8071429Y7085324D02*
X-8071429Y6894848D01*
X-8071429Y6894848D02*
X-8109525Y6818658D01*
X-8109525Y6818658D02*
X-8147620Y6780562D01*
X-8147620Y6780562D02*
X-8223810Y6742467D01*
X-8223810Y6742467D02*
X-8376191Y6742467D01*
X-8376191Y6742467D02*
X-8452382Y6780562D01*
X-8452382Y6780562D02*
X-8490477Y6818658D01*
X-8490477Y6818658D02*
X-8528572Y6894848D01*
X3162295Y-16209524D02*
X2362295Y-16209524D01*
X2362295Y-16209524D02*
X2362295Y-16400000D01*
X2362295Y-16400000D02*
X2400390Y-16514286D01*
X2400390Y-16514286D02*
X2476580Y-16590476D01*
X2476580Y-16590476D02*
X2552771Y-16628571D01*
X2552771Y-16628571D02*
X2705152Y-16666667D01*
X2705152Y-16666667D02*
X2819438Y-16666667D01*
X2819438Y-16666667D02*
X2971819Y-16628571D01*
X2971819Y-16628571D02*
X3048009Y-16590476D01*
X3048009Y-16590476D02*
X3124200Y-16514286D01*
X3124200Y-16514286D02*
X3162295Y-16400000D01*
X3162295Y-16400000D02*
X3162295Y-16209524D01*
X2705152Y-17123809D02*
X2667057Y-17047619D01*
X2667057Y-17047619D02*
X2628961Y-17009524D01*
X2628961Y-17009524D02*
X2552771Y-16971428D01*
X2552771Y-16971428D02*
X2514676Y-16971428D01*
X2514676Y-16971428D02*
X2438485Y-17009524D01*
X2438485Y-17009524D02*
X2400390Y-17047619D01*
X2400390Y-17047619D02*
X2362295Y-17123809D01*
X2362295Y-17123809D02*
X2362295Y-17276190D01*
X2362295Y-17276190D02*
X2400390Y-17352381D01*
X2400390Y-17352381D02*
X2438485Y-17390476D01*
X2438485Y-17390476D02*
X2514676Y-17428571D01*
X2514676Y-17428571D02*
X2552771Y-17428571D01*
X2552771Y-17428571D02*
X2628961Y-17390476D01*
X2628961Y-17390476D02*
X2667057Y-17352381D01*
X2667057Y-17352381D02*
X2705152Y-17276190D01*
X2705152Y-17276190D02*
X2705152Y-17123809D01*
X2705152Y-17123809D02*
X2743247Y-17047619D01*
X2743247Y-17047619D02*
X2781342Y-17009524D01*
X2781342Y-17009524D02*
X2857533Y-16971428D01*
X2857533Y-16971428D02*
X3009914Y-16971428D01*
X3009914Y-16971428D02*
X3086104Y-17009524D01*
X3086104Y-17009524D02*
X3124200Y-17047619D01*
X3124200Y-17047619D02*
X3162295Y-17123809D01*
X3162295Y-17123809D02*
X3162295Y-17276190D01*
X3162295Y-17276190D02*
X3124200Y-17352381D01*
X3124200Y-17352381D02*
X3086104Y-17390476D01*
X3086104Y-17390476D02*
X3009914Y-17428571D01*
X3009914Y-17428571D02*
X2857533Y-17428571D01*
X2857533Y-17428571D02*
X2781342Y-17390476D01*
X2781342Y-17390476D02*
X2743247Y-17352381D01*
X2743247Y-17352381D02*
X2705152Y-17276190D01*
X14886104Y-7066667D02*
X14924200Y-7028571D01*
X14924200Y-7028571D02*
X14962295Y-6914286D01*
X14962295Y-6914286D02*
X14962295Y-6838095D01*
X14962295Y-6838095D02*
X14924200Y-6723809D01*
X14924200Y-6723809D02*
X14848009Y-6647619D01*
X14848009Y-6647619D02*
X14771819Y-6609524D01*
X14771819Y-6609524D02*
X14619438Y-6571428D01*
X14619438Y-6571428D02*
X14505152Y-6571428D01*
X14505152Y-6571428D02*
X14352771Y-6609524D01*
X14352771Y-6609524D02*
X14276580Y-6647619D01*
X14276580Y-6647619D02*
X14200390Y-6723809D01*
X14200390Y-6723809D02*
X14162295Y-6838095D01*
X14162295Y-6838095D02*
X14162295Y-6914286D01*
X14162295Y-6914286D02*
X14200390Y-7028571D01*
X14200390Y-7028571D02*
X14238485Y-7066667D01*
X14162295Y-7333333D02*
X14162295Y-7866667D01*
X14162295Y-7866667D02*
X14962295Y-7523809D01*
X-16061515Y-2423809D02*
X-16099610Y-2347619D01*
X-16099610Y-2347619D02*
X-16175800Y-2271428D01*
X-16175800Y-2271428D02*
X-16290086Y-2157142D01*
X-16290086Y-2157142D02*
X-16328181Y-2080952D01*
X-16328181Y-2080952D02*
X-16328181Y-2004761D01*
X-16137705Y-2042857D02*
X-16175800Y-1966666D01*
X-16175800Y-1966666D02*
X-16251991Y-1890476D01*
X-16251991Y-1890476D02*
X-16404372Y-1852380D01*
X-16404372Y-1852380D02*
X-16671039Y-1852380D01*
X-16671039Y-1852380D02*
X-16823420Y-1890476D01*
X-16823420Y-1890476D02*
X-16899610Y-1966666D01*
X-16899610Y-1966666D02*
X-16937705Y-2042857D01*
X-16937705Y-2042857D02*
X-16937705Y-2195238D01*
X-16937705Y-2195238D02*
X-16899610Y-2271428D01*
X-16899610Y-2271428D02*
X-16823420Y-2347619D01*
X-16823420Y-2347619D02*
X-16671039Y-2385714D01*
X-16671039Y-2385714D02*
X-16404372Y-2385714D01*
X-16404372Y-2385714D02*
X-16251991Y-2347619D01*
X-16251991Y-2347619D02*
X-16175800Y-2271428D01*
X-16175800Y-2271428D02*
X-16137705Y-2195238D01*
X-16137705Y-2195238D02*
X-16137705Y-2042857D01*
X-16937705Y-2652380D02*
X-16937705Y-3147618D01*
X-16937705Y-3147618D02*
X-16632943Y-2880952D01*
X-16632943Y-2880952D02*
X-16632943Y-2995237D01*
X-16632943Y-2995237D02*
X-16594848Y-3071428D01*
X-16594848Y-3071428D02*
X-16556753Y-3109523D01*
X-16556753Y-3109523D02*
X-16480562Y-3147618D01*
X-16480562Y-3147618D02*
X-16290086Y-3147618D01*
X-16290086Y-3147618D02*
X-16213896Y-3109523D01*
X-16213896Y-3109523D02*
X-16175800Y-3071428D01*
X-16175800Y-3071428D02*
X-16137705Y-2995237D01*
X-16137705Y-2995237D02*
X-16137705Y-2766666D01*
X-16137705Y-2766666D02*
X-16175800Y-2690475D01*
X-16175800Y-2690475D02*
X-16213896Y-2652380D01*
D11*
%TO.C,D7*%
X-10000000Y11300000D02*
X-12700000Y11300000D01*
X-10000000Y11300000D02*
X-10000000Y11000000D01*
X-10000000Y9800000D02*
X-10000000Y9500000D01*
X-10000000Y9500000D02*
X-12700000Y9500000D01*
%TO.C,C6*%
X-7940580Y2410000D02*
X-7659420Y2410000D01*
X-7940580Y1390000D02*
X-7659420Y1390000D01*
%TO.C,C9*%
X-15540580Y1310000D02*
X-15259420Y1310000D01*
X-15540580Y290000D02*
X-15259420Y290000D01*
%TO.C,D2*%
X-13946990Y17000000D02*
X-13946990Y14300000D01*
X-13946990Y17000000D02*
X-13646990Y17000000D01*
X-12446990Y17000000D02*
X-12146990Y17000000D01*
X-12146990Y17000000D02*
X-12146990Y14300000D01*
%TO.C,C8*%
X7270645Y-2757579D02*
X6242421Y-1729355D01*
X8557579Y-1470645D02*
X7529355Y-442421D01*
%TO.C,R14*%
X-19412742Y2772500D02*
X-19887258Y2772500D01*
X-19412742Y1727500D02*
X-19887258Y1727500D01*
%TO.C,D1*%
X-11500000Y14000000D02*
X-11500000Y16700000D01*
X-11200000Y14000000D02*
X-11500000Y14000000D01*
X-9700000Y14000000D02*
X-10000000Y14000000D01*
X-9700000Y14000000D02*
X-9700000Y16700000D01*
%TO.C,C4*%
X-11161252Y13135000D02*
X-10638748Y13135000D01*
X-11161252Y11665000D02*
X-10638748Y11665000D01*
%TO.C,R7*%
X537258Y1222500D02*
X62742Y1222500D01*
X537258Y177500D02*
X62742Y177500D01*
%TO.C,D4*%
X8800000Y-6900000D02*
X6100000Y-6900000D01*
X8800000Y-6900000D02*
X8800000Y-7200000D01*
X8800000Y-8400000D02*
X8800000Y-8700000D01*
X8800000Y-8700000D02*
X6100000Y-8700000D01*
%TO.C,R11*%
X2377500Y-11162742D02*
X2377500Y-11637258D01*
X3422500Y-11162742D02*
X3422500Y-11637258D01*
%TO.C,R13*%
X-20985000Y-1237258D02*
X-20985000Y-762742D01*
X-19940000Y-1237258D02*
X-19940000Y-762742D01*
%TO.C,D5*%
X3800000Y-11800000D02*
X3800000Y-14500000D01*
X3800000Y-11800000D02*
X4100000Y-11800000D01*
X5300000Y-11800000D02*
X5600000Y-11800000D01*
X5600000Y-11800000D02*
X5600000Y-14500000D01*
%TO.C,D3*%
X9000000Y-11800000D02*
X9000000Y-14500000D01*
X9000000Y-11800000D02*
X9300000Y-11800000D01*
X10500000Y-11800000D02*
X10800000Y-11800000D01*
X10800000Y-11800000D02*
X10800000Y-14500000D01*
%TO.C,R12*%
X7062742Y-11677500D02*
X7537258Y-11677500D01*
X7062742Y-12722500D02*
X7537258Y-12722500D01*
%TO.C,R6*%
X-8222500Y-9662742D02*
X-8222500Y-10137258D01*
X-7177500Y-9662742D02*
X-7177500Y-10137258D01*
D12*
%TO.C,D9*%
X7200000Y-15800000D02*
X7400000Y-16000000D01*
D11*
X7300000Y-14900000D02*
X7300000Y-13900000D01*
D12*
X8600000Y-16000000D02*
X7400000Y-16000000D01*
X8600000Y-16000000D02*
X8800000Y-15800000D01*
D11*
X8700000Y-13900000D02*
X8700000Y-14900000D01*
%TO.C,R16*%
X-11362742Y-14277500D02*
X-11837258Y-14277500D01*
X-11362742Y-15322500D02*
X-11837258Y-15322500D01*
%TO.C,R15*%
X12262742Y-14577500D02*
X12737258Y-14577500D01*
X12262742Y-15622500D02*
X12737258Y-15622500D01*
%TO.C,R5*%
X2790000Y572936D02*
X2790000Y2027064D01*
X4610000Y572936D02*
X4610000Y2027064D01*
%TO.C,R4*%
X5090000Y2172936D02*
X5090000Y3627064D01*
X6910000Y2172936D02*
X6910000Y3627064D01*
%TO.C,R3*%
X11477500Y-9137258D02*
X11477500Y-8662742D01*
X12522500Y-9137258D02*
X12522500Y-8662742D01*
%TO.C,U5*%
X-13060000Y800000D02*
X-13060000Y1600000D01*
X-13060000Y800000D02*
X-13060000Y0D01*
X-9940000Y800000D02*
X-9940000Y1600000D01*
X-9940000Y800000D02*
X-9940000Y0D01*
X-9660000Y-740000D02*
X-9990000Y-500000D01*
X-9660000Y-260000D01*
X-9660000Y-740000D01*
G36*
X-9660000Y-740000D02*
G01*
X-9990000Y-500000D01*
X-9660000Y-260000D01*
X-9660000Y-740000D01*
G37*
%TO.C,Q2*%
X11100000Y-11400000D02*
X12200000Y-11400000D01*
X11100000Y-13000000D02*
X11100000Y-11400000D01*
X12050000Y-13000000D02*
X13150000Y-13000000D01*
X13000000Y-11400000D02*
X14100000Y-11400000D01*
X14100000Y-13000000D02*
X14100000Y-11400000D01*
%TO.C,U3*%
X-5800000Y960000D02*
X-7750000Y960000D01*
X-5800000Y960000D02*
X-3850000Y960000D01*
X-5800000Y-4160000D02*
X-7750000Y-4160000D01*
X-5800000Y-4160000D02*
X-3850000Y-4160000D01*
X-8260000Y-4395000D02*
X-8740000Y-4395000D01*
X-8500000Y-4065000D01*
X-8260000Y-4395000D01*
G36*
X-8260000Y-4395000D02*
G01*
X-8740000Y-4395000D01*
X-8500000Y-4065000D01*
X-8260000Y-4395000D01*
G37*
%TO.C,U4*%
X-1500000Y-3400000D02*
X-400000Y-3400000D01*
X-1500000Y-5000000D02*
X-1500000Y-3400000D01*
X-550000Y-5000000D02*
X550000Y-5000000D01*
X400000Y-3400000D02*
X1500000Y-3400000D01*
X1500000Y-5000000D02*
X1500000Y-3400000D01*
%TO.C,R10*%
X12977500Y-9137258D02*
X12977500Y-8662742D01*
X14022500Y-9137258D02*
X14022500Y-8662742D01*
%TO.C,D6*%
X-13000000Y9200000D02*
X-10300000Y9200000D01*
X-13000000Y8900000D02*
X-13000000Y9200000D01*
X-13000000Y7400000D02*
X-13000000Y7700000D01*
X-13000000Y7400000D02*
X-10300000Y7400000D01*
%TO.C,C5*%
X-7940580Y3910000D02*
X-7659420Y3910000D01*
X-7940580Y2890000D02*
X-7659420Y2890000D01*
%TO.C,R8*%
X62742Y-577500D02*
X537258Y-577500D01*
X62742Y-1622500D02*
X537258Y-1622500D01*
%TO.C,R9*%
X-7662742Y8722500D02*
X-8137258Y8722500D01*
X-7662742Y7677500D02*
X-8137258Y7677500D01*
%TO.C,D8*%
X2100000Y-14900000D02*
X2100000Y-13900000D01*
D12*
X2200000Y-12800000D02*
X2000000Y-13000000D01*
X2200000Y-12800000D02*
X3400000Y-12800000D01*
D11*
X3500000Y-13900000D02*
X3500000Y-14900000D01*
D12*
X3600000Y-13000000D02*
X3400000Y-12800000D01*
D11*
%TO.C,C7*%
X9990000Y-8759420D02*
X9990000Y-9040580D01*
X11010000Y-8759420D02*
X11010000Y-9040580D01*
%TO.C,Q3*%
X-18800000Y500000D02*
X-17200000Y500000D01*
X-18800000Y-450000D02*
X-18800000Y-1550000D01*
X-18800000Y-2500000D02*
X-17200000Y-2500000D01*
X-17200000Y500000D02*
X-17200000Y-600000D01*
X-17200000Y-1400000D02*
X-17200000Y-2500000D01*
%TD*%
M02*
